<svg xmlns="http://www.w3.org/2000/svg" width="105" height="105" viewBox="0 0 105 105"><title>Innovation</title><path d="M62.19,25.81l0,0"/><path d="M52.8.6a2.5,2.5,0,0,0-2.49,2.49V7.25a2.49,2.49,0,0,0,5,0V3.09A2.5,2.5,0,0,0,52.8.6Z" fill="#748187" stroke="#748187" stroke-miterlimit="10" stroke-width="0.5"/><path d="M42,4.44A2.43,2.43,0,0,0,40.82,3a2.47,2.47,0,0,0-3.37,1,2.45,2.45,0,0,0-.2,1.89l1.19,4a2.49,2.49,0,1,0,4.77-1.42Z" fill="#748187" stroke="#748187" stroke-miterlimit="10" stroke-width="0.5"/><path d="M29.7,9.55a2.51,2.51,0,0,0-1.58-1.08,2.47,2.47,0,0,0-1.87.36,2.41,2.41,0,0,0-1.07,1.58,2.47,2.47,0,0,0,.35,1.87l2.28,3.47A2.49,2.49,0,1,0,32,13Z" fill="#748187" stroke="#748187" stroke-miterlimit="10" stroke-width="0.5"/><path d="M19.32,24.47a2.49,2.49,0,1,0,3.2-3.81L19.35,18a2.48,2.48,0,0,0-3.51.3,2.5,2.5,0,0,0,.31,3.51Z" fill="#748187" stroke="#748187" stroke-miterlimit="10" stroke-width="0.5"/><path d="M9.88,33.63l3.8,1.64a2.41,2.41,0,0,0,1,.21A2.48,2.48,0,0,0,17,34a2.41,2.41,0,0,0,0-1.9,2.45,2.45,0,0,0-1.33-1.37l-3.8-1.64A2.41,2.41,0,0,0,10,29a2.49,2.49,0,0,0-.07,4.6Z" fill="#748187" stroke="#748187" stroke-miterlimit="10" stroke-width="0.5"/><path d="M7.26,46.77l4.11.47a1.42,1.42,0,0,0,.29,0,2.49,2.49,0,0,0,.29-5l-4.12-.48A2.46,2.46,0,0,0,6,42.34,2.52,2.52,0,0,0,5.07,44a2.51,2.51,0,0,0,2.19,2.76Z" fill="#748187" stroke="#748187" stroke-miterlimit="10" stroke-width="0.5"/><path d="M14.6,56.49a2.48,2.48,0,0,0-2.89-2l-4.07.73a2.49,2.49,0,0,0,.43,4.94,3.27,3.27,0,0,0,.44,0l4.08-.73A2.49,2.49,0,0,0,14.6,56.49Z" fill="#748187" stroke="#748187" stroke-miterlimit="10" stroke-width="0.5"/><path d="M18.46,69.21a2.46,2.46,0,0,0-.15-1.9A2.48,2.48,0,0,0,15,66.21l-3.7,1.87a2.49,2.49,0,0,0-1.09,3.35,2.47,2.47,0,0,0,2.22,1.36,2.6,2.6,0,0,0,1.13-.26l3.69-1.88A2.49,2.49,0,0,0,18.46,69.21Z" fill="#748187" stroke="#748187" stroke-miterlimit="10" stroke-width="0.5"/><path d="M21.45,76.51l-3,2.86A2.49,2.49,0,0,0,21.88,83l3-2.86A2.5,2.5,0,0,0,25,76.6,2.48,2.48,0,0,0,21.45,76.51Z" fill="#748187" stroke="#748187" stroke-miterlimit="10" stroke-width="0.5"/><path d="M41,37.88H37.21a3,3,0,0,0-3,3v3.89a3,3,0,0,0,3,3H41a3,3,0,0,0,3-3V40.86A3,3,0,0,0,41,37.88Zm-.49,6.37h-2.8V41.36h2.8Z" fill="#525b60"/><path d="M47.8,26.46H44a3,3,0,0,0-3,3v3.88a3,3,0,0,0,3,3H47.8a3,3,0,0,0,3-3V29.44A3,3,0,0,0,47.8,26.46Zm-.49,6.37h-2.8V29.94h2.8Z" fill="#525b60"/><path d="M99.41,34.64a12,12,0,0,0-.24-1.86l-.09-.43a3.05,3.05,0,0,0-2.39-2.42l-.12,0-.24-.72c0-.14-.1-.28-.15-.4L96,28.25c0-.11-.09-.21-.13-.31l-.13-.28-.14-.32L95.39,27l-.17-.33.07-.1a2.86,2.86,0,0,0,.1-3.2,3.42,3.42,0,0,0-.34-.51A25.47,25.47,0,0,0,91.22,19a3.69,3.69,0,0,0-.36-.23,2.85,2.85,0,0,0-3.21.06l-.1.07-.35-.17-.36-.19-.54-.25-.4-.17L85.43,18,85,17.78l-.72-.24,0-.12a3,3,0,0,0-2.13-2.3,8.67,8.67,0,0,0-2.24-.36H77.66a8.33,8.33,0,0,0-2.18.36,3,3,0,0,0-2.14,2.3l0,.12-.44.14-.31.11-.43.16-1.07.45-.33.15-.35.18-.37.19-.09-.05a2.84,2.84,0,0,0-3.24-.08l-.2.13a25.44,25.44,0,0,0-4,4,4.29,4.29,0,0,0-.33.5,2.79,2.79,0,0,0,.12,3.17l.07.11-.16.31-.18.37a3.11,3.11,0,0,0-.14.31l-.09.2c-.07.14-.13.27-.19.41l-.2.53c-.06.16-.11.27-.14.37s-.07.2-.09.26l-.15.45-.16.06a3.09,3.09,0,0,0-2.36,2.4l-.08.46a11.43,11.43,0,0,0-.22,1.5l0,.66v.29l0,.79.05.42a13.47,13.47,0,0,0,.23,1.48l.08.42a3.07,3.07,0,0,0,2.38,2.43l.14,0,.18.57A18.25,18.25,0,0,0,62.3,44l.09.19-.07.1a3.07,3.07,0,0,0,0,3.4,13.25,13.25,0,0,0,4.17,4.16,3.07,3.07,0,0,0,3.38,0l.1-.07.11.06a19.05,19.05,0,0,0,2.31,1l.86.3,0,.09a3.17,3.17,0,0,0,2.19,2.34,8.65,8.65,0,0,0,1.33.27l.42.05.43,0h2.14l.46,0,.46-.05a11.72,11.72,0,0,0,1.29-.27,3.2,3.2,0,0,0,2.18-2.31l0-.11.37-.13.48-.17a18.08,18.08,0,0,0,2.33-1l.11-.06.1.06a3.05,3.05,0,0,0,3.38,0,13.31,13.31,0,0,0,4.18-4.17,3.05,3.05,0,0,0,0-3.4l-.07-.1,0-.08a18.71,18.71,0,0,0,1.15-2.64c.06-.18.12-.35.17-.51l0-.12.12,0a3,3,0,0,0,2.39-2.41l.08-.42a11.46,11.46,0,0,0,.26-2.27v-.37ZM90.9,45.18l.33.48A1.07,1.07,0,0,1,91.16,47c-.25.25-.5.51-.76.75a1.09,1.09,0,0,1-1.38.08l-.51-.34-.57-.36-.54.38a16.06,16.06,0,0,1-1.72,1.05,15,15,0,0,1-1.47.66l-.71.26a7.17,7.17,0,0,1-.71.22l-.13,0-.7.17-.2,0-.51.1-.68.11-.14.67c0,.19-.08.4-.11.62a.88.88,0,0,1-.57.77,4,4,0,0,1-1,.1,3.37,3.37,0,0,1-1-.11.84.84,0,0,1-.56-.75c0-.23-.08-.44-.12-.64L77,50.19l-.67-.11-.5-.1-.15,0-.7-.17-.18,0-.71-.22-.28-.1-.44-.16c-.51-.21-1-.43-1.48-.68a14.93,14.93,0,0,1-1.71-1l-.55-.39-.57.37-.51.35a1.08,1.08,0,0,1-1.36-.08c-.27-.25-.53-.5-.77-.76a1.06,1.06,0,0,1-.08-1.37l.34-.48.38-.57-.4-.57a13.59,13.59,0,0,1-1.07-1.73c-.12-.24-.24-.47-.36-.73l-.16-.35-.14-.35-.18-.46-.1-.28-.23-.73,0-.12c-.06-.24-.12-.47-.17-.71l0-.22c0-.19-.07-.37-.1-.56L64,37.13,63.28,37l-.66-.11a1.11,1.11,0,0,1-.91-1c0-.16,0-.31,0-.47s0-.33,0-.48a1.08,1.08,0,0,1,.93-1l.64-.12.66-.14.17-1,.06-.32.14-.57c0-.11,0-.22.08-.33s.06-.21.1-.32l.07-.25.1-.3c0-.11.07-.21.12-.32l.09-.23.12-.32c0-.09.08-.19.13-.29l.1-.24c.06-.11.1-.21.15-.32l.15-.28.13-.24c0-.09.1-.19.15-.29l.31-.51c.06-.09.11-.19.17-.27l.2-.3.56-.8-.37-.57-.34-.48a1.07,1.07,0,0,1,0-1.3l.73-.75a1.1,1.1,0,0,1,1.38-.09c.18.13.35.24.52.34l.61.32.78-.54a10.08,10.08,0,0,1,.55-.36l.23-.14.26-.16.3-.16.23-.12.28-.15.3-.13.24-.11.3-.13.29-.12.26-.1.31-.11.31-.1.24-.07L74.8,21l.31-.07.27-.07.31-.07.31-.06,1-.2.13-.63c0-.19.09-.41.13-.64a.89.89,0,0,1,.54-.75,2,2,0,0,1,.41-.09l.57,0,.51,0a1.82,1.82,0,0,1,.49.1.88.88,0,0,1,.55.74c0,.24.08.46.12.65l.19.66.92.17.33.06.31.07.26.07.32.08.32.09.27.09.28.09.29.11.27.1.31.12.29.13.24.11.3.14.54.28.28.14.28.17.23.15.27.16a2.48,2.48,0,0,1,.26.19l.85.56.54-.35.51-.34a1.08,1.08,0,0,1,1.33,0l.72.72a1.09,1.09,0,0,1,.08,1.38l-.33.48-.39.59.6.82c.06.09.12.17.17.26s.11.17.18.28l.13.22c.06.09.12.18.18.29l.16.3.52,1.06c0,.1.09.2.12.29s.09.22.14.34l.19.52c0,.11.07.22.11.35l.16.53c0,.1,0,.19.09.34l.06.27c0,.1.05.19.07.28s0,.23.07.36l.17.95.65.14.64.12a1.08,1.08,0,0,1,.93,1c0,.16,0,.32,0,.46s0,.33,0,.49a1.11,1.11,0,0,1-.91,1h0c-.24,0-.46.07-.65.11l-.67.15-.11.66c0,.21-.07.39-.1.56l0,.22c-.06.25-.11.48-.2.8s-.15.52-.23.75l-.11.29a3.94,3.94,0,0,1-.18.48c-.06.14-.09.24-.13.32l-.18.39c-.11.24-.22.48-.35.71A14,14,0,0,1,90.92,44l-.4.57Z" fill="#748187" stroke="#748187" stroke-miterlimit="10" stroke-width="0.5"/><path d="M78.78,24.41A10.94,10.94,0,1,0,89.72,35.35,11,11,0,0,0,78.78,24.41Zm0,3.79a7.15,7.15,0,1,1-7.15,7.15A7.16,7.16,0,0,1,78.78,28.2Z" fill="#748187" stroke="#748187" stroke-miterlimit="10" stroke-width="0.5"/><path d="M83.17,61.34a2,2,0,0,0-3.68-.17A30.45,30.45,0,0,1,66,75.26V68.48a3,3,0,0,0,2.82-3V61.62a3,3,0,0,0-3-3H62.05a3,3,0,0,0-3,3V65.5a3,3,0,0,0,3,3V84.17H60.85V73.23a4.71,4.71,0,0,0-1.27-3.1l-10.9-11,.13-.13a3,3,0,0,0,0-4.22l-2.68-2.7a3,3,0,0,0-4.23,0l-2.72,2.74a3,3,0,0,0,0,4.21l2.69,2.71a3,3,0,0,0,4,.2l10.86,11a1.19,1.19,0,0,1,.14.31V84.17H54.79v-12a2,2,0,1,0-4,0v12H47.3V74.5a3,3,0,0,0,2.89-3V67.64a3,3,0,0,0-3-3H43.42a3,3,0,0,0-3,3v3.88a3,3,0,0,0,2.89,3v9.67H42.26V78.36A2,2,0,0,0,41,76.51,30.53,30.53,0,0,1,52.14,17.68a29.81,29.81,0,0,1,9.38,1.51l.29.09,3.09-3.1-.72-.27a33.62,33.62,0,0,0-12-2.21,34.51,34.51,0,0,0-13.86,66v4.87A4,4,0,0,0,36,88.15v3.23a4,4,0,0,0,4,4h1.67v4.73a3.76,3.76,0,0,0,3.75,3.76H58.88a3.76,3.76,0,0,0,3.75-3.76V95.36h1.68a4,4,0,0,0,4-4V88.15A4,4,0,0,0,66,84.55V79.68A34.31,34.31,0,0,0,83.1,62.86,2,2,0,0,0,83.17,61.34ZM44,59l-2-2,2-2,2,2Zm-.07,9.18h2.8V71h-2.8Zm15.24,32a.28.28,0,0,1-.27.28H45.4a.28.28,0,0,1-.27-.28V98.93h14Zm0-4.14h-14V94.86h14Zm5.65-4.57a.5.5,0,0,1-.49.5H40a.51.51,0,0,1-.5-.5V88.15a.51.51,0,0,1,.5-.5H64.31a.5.5,0,0,1,.49.5ZM65.34,65h-2.8V62.12h2.8Z" fill="#525b60"/></svg>