<svg xmlns="http://www.w3.org/2000/svg" width="105" height="105" viewBox="0 0 105 105"><title>GuestFocus</title><path d="M69.66,62.81,62.27,60a2.18,2.18,0,0,1-1.39-2V55.26A10.57,10.57,0,0,0,63.52,50h0a2.66,2.66,0,0,0,.84-.07,3,3,0,0,0,2.24-3v-.75A3,3,0,0,0,65.68,44c.92-4.95.18-9-2.15-11.68S57.65,28.53,53,28.78a13.75,13.75,0,0,0-7.9,2.92c-1.19.15-4.58,1-4.58,5.76a25.7,25.7,0,0,0,.72,6,3,3,0,0,0-1.69,2.74V47a3,3,0,0,0,2.24,3,2.66,2.66,0,0,0,.84.07h0a10.64,10.64,0,0,0,2.63,5.26V58a2.17,2.17,0,0,1-1.38,2l-7.39,2.84a7.27,7.27,0,0,0-4.65,7.1l2-.09A5.33,5.33,0,0,1,34.08,68l1-1.79a5.3,5.3,0,0,1,2.18-1.56l5.65-2.18a11.06,11.06,0,0,0,3.66,4.83,10.93,10.93,0,0,0,13.15,0,11.07,11.07,0,0,0,3.6-4.79L69,64.64a5.3,5.3,0,0,1,2.18,1.56l1,1.79a5.33,5.33,0,0,1,.24,1.83l2,.09A7.27,7.27,0,0,0,69.66,62.81ZM44.6,49.63a2,2,0,0,0-2-1.59.92.92,0,0,1-.28,0,1.06,1.06,0,0,1-.73-1v-.74a1,1,0,0,1,.77-1,1,1,0,0,1,.93.36,1.49,1.49,0,0,0,.7.49,1.41,1.41,0,0,0,1.21-.2,7.48,7.48,0,0,0,2.48-3.38,1,1,0,1,0-1.86-.61,5.54,5.54,0,0,1-1.38,2.07,2.94,2.94,0,0,0-1.13-.6,23.9,23.9,0,0,1-.75-5.87A3.65,3.65,0,0,1,44,34.12a3.32,3.32,0,0,1,1.56-.49,1,1,0,0,0,.68-.28,11.5,11.5,0,0,1,6.92-2.62c4-.21,7.06.8,8.89,2.92s2.48,5.45,1.79,9.58a4.24,4.24,0,0,0-.61,0l-.07-.85a1,1,0,0,0-.29-.63,19.53,19.53,0,0,0-5.13-3.36,16.56,16.56,0,0,0-12.59-.77,1,1,0,0,0,.65,1.85,14.48,14.48,0,0,1,11.06.67,19,19,0,0,1,4.38,2.78l.12,1.63a1,1,0,0,0,1.47.77,2.35,2.35,0,0,1,1-.14,1,1,0,0,1,.77,1V47a1.06,1.06,0,0,1-.73,1l-.28,0a2,2,0,0,0-2,1.59,8.64,8.64,0,0,1-17,0Zm8.49,17.88a8.92,8.92,0,0,1-8.37-5.75A4.15,4.15,0,0,0,47.27,58v-1a10.57,10.57,0,0,0,11.65,0v1a4.15,4.15,0,0,0,2.55,3.81A9,9,0,0,1,53.09,67.51Z" fill="#748187" stroke="#748187" stroke-miterlimit="10" stroke-width="0.5"/><path d="M53.67,2a49,49,0,1,0,49,49A49,49,0,0,0,53.67,2ZM94.61,30.64l-9.76,17L78.1,36l-17-30.13A45.91,45.91,0,0,1,94.61,30.64ZM68.33,76.39H39L24.35,51,37.63,28,39,25.61H68.33l7,12.1,7.57,13.41-2.83,4.94ZM53.67,5.27c1.14,0,2.27.05,3.39.13l9.57,16.94H18.06A45.69,45.69,0,0,1,53.67,5.27Zm-38,20.34H35.24L11,67.52A45.61,45.61,0,0,1,15.65,25.61Zm-3,45.62,9.76-16.89,24.3,41.87A45.87,45.87,0,0,1,12.67,71.23Zm41,25.5c-1,0-2,0-2.91-.1l-9.86-17H89.28A45.69,45.69,0,0,1,53.67,96.73Zm38-20.34H72.2L82.89,57.71l3.4-5.89a1.67,1.67,0,0,0,.08-.2l9.88-17.28a45.6,45.6,0,0,1-4.57,42Z" fill="#525b60" stroke="#525b60" stroke-miterlimit="10"/></svg>