<svg xmlns="http://www.w3.org/2000/svg" width="496" height="496" viewBox="0 0 496 496"><title>AboutUS_StrategicPartnerships</title><path d="M374.63,274.19l9.24-5.61,8.47-3.79a165.79,165.79,0,0,0,10.15-23.27h0c.53-1.52,1-3,1.46-4.4l2-6.35,6.52-1.31a19,19,0,0,0,14.89-14.93l.74-3.9a98.85,98.85,0,0,0,2.25-19.4l0-3.14-.14-6a100.48,100.48,0,0,0-2.11-15.93l-.76-4A19.07,19.07,0,0,0,412.46,147L406,145.72l-2.92-9c-.31-.95-.58-1.8-.88-2.63-.41-1.17-.86-2.32-1.3-3.44L399.1,126c-.37-.88-.77-1.77-1.16-2.64l-1.22-2.68c-.42-1-.78-1.79-1.19-2.65s-1-2-1.68-3.31l-3.88-8,3.77-5.4c4.31-6.12,4.42-12.27.38-20a31.92,31.92,0,0,0-2.37-3.53c-4.13-5.42-24.41-27.56-33.57-33.45-1.24-.88-1.95-1.33-2.51-1.66-7.43-4.19-13.58-4.13-19.95.2l-5.45,3.71-8-4C321,42,320,41.41,318.94,40.92s-1.83-.85-2.68-1.23l-2.07-.93c-1.21-.56-2.25-1-3.3-1.47l-4.36-1.71c-1.3-.52-2.56-1-3.81-1.46l-11.81-3.94-1.28-6.38c-1.42-7.06-6-11.85-13.54-14.26-5.35-1.71-10.68-2.57-18.39-3l-1.6-.07-7.72,0-8.47,0-1.54.08a68,68,0,0,0-17.9,2.95c-7.55,2.4-12.11,7.21-13.57,14.3l-1.3,6.38-9.25,3.06c-.92.3-1.73.56-2.55.85-1.24.45-2.5.94-3.72,1.42l-4.52,1.78c-1.05.44-2.17,1-3.28,1.46l-1.69.77c-1.35.6-2.14,1-2.88,1.31-1.08.52-2.07,1-3,1.53l-7.87,4L161,43.08c-6.57-4.48-12.76-4.51-20.28-.27a13.34,13.34,0,0,0-1.39.89c-10.65,6.9-31.13,29.62-34.84,34.49a28.23,28.23,0,0,0-2.2,3.37c-4.08,7.75-3.95,13.47.46,19.75l3.88,5.54-4.07,8C102,116,101.49,117,101,118c-.38.8-.73,1.57-1.19,2.63L99,122.51c-.55,1.19-1,2.32-1.57,3.56-.31.74-.61,1.53-.89,2.27l-.66,1.7c-.67,1.72-1.12,2.87-1.5,4-.28.78-.52,1.53-.73,2.2l-2.78,8.31-6.18,2.36c-8.12,1.7-14.09,7.7-15.45,15.09l-.78,4.11a109.31,109.31,0,0,0-1.93,13l-.4,5.25,0,3L66,194l.46,3.59A111.33,111.33,0,0,0,68.4,210.4l.75,4A19.12,19.12,0,0,0,84,229.45l6.61,1.36,3.27,10.31c2.76,8,17,3.66,20.8,10.95l3.63,13.21-6.93,11.89c-4.21,6.41,81.71-17.93,88.51-14.54,15.85,7.93,91.51,16.08,109.32,28.41Zm-71.71,68.12,55.52-60.85-16.84,8.59-15.86,3-17.83-2.64-51.19-13.87-49.54-13.88-30.72,1.66-51.09,14c1-1.42,2-2.76,2.85-4.05A148.82,148.82,0,0,1,117.66,257c-1.21-2.29-2.35-4.61-3.44-7-.79-1.71-1.28-2.75-1.73-3.81L111.15,243c-.62-1.54-1.2-3.06-1.76-4.59l-1-2.74c-.86-2.54-1.66-5-2.36-7.53l-.24-.93c-.63-2.31-1.22-4.67-1.74-7l-.47-2.2c-.37-1.84-.71-3.66-1-5.49-1.68-.36-3.52-.69-5.55-1a19.5,19.5,0,0,1-16.28-18.27c-.08-1.63-.12-3.25-.12-4.88s0-3.28.12-4.93A19.4,19.4,0,0,1,97.2,165.06c2-.31,3.76-.64,5.42-1l.49-2.75c.19-1.16.4-2.33.64-3.49s.5-2.17.77-3.26l.53-2.18c.26-1.13.54-2.29.86-3.44s.64-2.14,1-3.23l.7-2.26c.32-1,.65-2.13,1-3.2s.76-2.1,1.17-3.14l.78-2.08c.41-1.1.83-2.21,1.29-3.32s.84-1.94,1.29-2.91l1-2.17c.55-1.21,1-2.23,1.5-3.24s1-2,1.53-3l1.09-2c.52-1,1.06-2,1.64-3.07s1.14-1.93,1.74-2.89l1.25-2c.56-1,1.15-1.91,1.77-2.86s1.34-2,2-3l1.42-2,.15-.22c-.86-1.31-1.81-2.66-2.87-4.1a19.22,19.22,0,0,1,.35-23.29l-.13-.13,4.24-4.31.06,0,3.67-3.64a19.53,19.53,0,0,1,24.39-1.6c1.51,1.07,3,2,4.37,2.92l.5-.34,2.08-1.45c.85-.61,1.73-1.22,2.62-1.81s2-1.27,3-1.88l2-1.24c.89-.54,1.78-1.1,2.7-1.62s2.05-1.12,3.08-1.66l2.11-1.11c.94-.5,1.9-1,2.88-1.5s2-.94,3-1.39l2.24-1c1-.45,2-.91,3-1.34s2-.8,3-1.17l2.32-.89c1-.39,2.09-.8,3.16-1.17s2.11-.69,3.19-1l2.11-.66c1.1-.35,2.23-.71,3.38-1s2.13-.55,3.2-.81l2.29-.56c1.14-.28,2.24-.56,3.35-.8s2.11-.4,3.16-.59l2.63-.46.39-.08c.36-1.65.7-3.46,1-5.47C226,30.31,230.18,25,236.11,23a29.08,29.08,0,0,1,6.26-1.33l5.78-.3,5.73.28A29,29,0,0,1,260.44,23c5.92,2,10.11,7.35,11.22,14.21q.48,3,1,5.47l.43.08,2.37.43c1.1.19,2.24.39,3.37.62s2.18.5,3.25.77l2.3.56c1.08.26,2.19.52,3.29.83s2.19.65,3.27,1l2.38.75c1,.3,2,.61,3,1s2,.72,3,1.1l2.38.9c1,.39,2.12.79,3.18,1.24s2,.88,3,1.34l2.11,1c1,.46,2.09.93,3.13,1.44.88.44,1.73.89,2.59,1.35l2.34,1.23c1,.54,2.08,1.09,3.11,1.67s1.89,1.12,2.82,1.7l2,1.24c1,.61,2,1.19,2.91,1.81s1.82,1.22,2.69,1.84l2,1.42.53.35c1.39-.88,2.86-1.85,4.37-2.93a19.41,19.41,0,0,1,24.19,1.43l6.91,6.92a19.29,19.29,0,0,1,1.49,24.57c-1.06,1.44-2,2.8-2.88,4.11l.07.11,1.44,2.06c.76,1.07,1.44,2,2.09,3s1.21,1.91,1.78,2.88l1.2,2c.6.95,1.2,1.94,1.77,3s1.14,2.07,1.69,3.13l1.08,2.05c.61,1.14,1.07,2,1.5,2.89.54,1.11,1,2.22,1.53,3.33l.89,2c.46,1,.92,2,1.35,3s.89,2.26,1.3,3.39l.74,1.93c.51,1.34.86,2.24,1.17,3.16.42,1.19.77,2.35,1.12,3.5l.65,2.1c.32,1,.65,2.07.94,3.12s.59,2.31.86,3.45l.58,2.38c.25,1,.5,2,.73,3,.25,1.21.45,2.38.65,3.55l.48,2.71c1.66.36,3.45.69,5.39,1a19.41,19.41,0,0,1,16.46,18.29c.09,1.63.12,3.23.13,4.84s-.05,3.31-.13,4.94a19.51,19.51,0,0,1-16.28,18.29c-2,.32-3.86.65-5.55,1-.34,2-.66,3.76-1,5.49l-.46,2.19c-.54,2.41-1.11,4.79-1.77,7.14l-.19.75c-.73,2.61-1.52,5.08-2.35,7.54l-1,2.76c-.58,1.6-1.17,3.13-1.78,4.64s-.95,2.4-1.35,3.33-.81,1.82-1.24,2.74l-.51,1.08c-1.08,2.35-2.21,4.66-3.42,7a150.14,150.14,0,0,1-10.55,17.17Z" fill="#748187"/><path d="M254.26,92.63a88.61,88.61,0,1,0,88.61,88.61A88.71,88.71,0,0,0,254.26,92.63Zm0,161.28a72.67,72.67,0,1,1,72.67-72.67A72.75,72.75,0,0,1,254.26,253.91Z" fill="#748187"/><path d="M495.94,205.11H478L330.31,283.33c-6.6.06-11.89,0-16.57,0l-51.52-13.54s-52.84-16.29-70.9-15-65.61,11.45-65.61,11.45l4.4-17.18-104-60H-.06V354.88l78.71,26.23H94l1.91-6.7L120,388.89A24.9,24.9,0,0,0,144,413a24.91,24.91,0,0,0,24,24,24.91,24.91,0,0,0,24,24,24.88,24.88,0,0,0,38.91,19.75L238,487a24.36,24.36,0,0,0,16.1,6.08h1.48a24.35,24.35,0,0,0,24.31-24,24.33,24.33,0,0,0,24-24,24.33,24.33,0,0,0,24-24,24.61,24.61,0,0,0,24-24.55,21.31,21.31,0,0,0-.12-2.4l144.12-72.05ZM16,343.23V205h5.83l57.54,33.56-29,116.12ZM82,365H81.3l-15.75-5.25L93.75,247,112,257.59v2.29Zm69.34,29.38a9,9,0,0,1-12.69-12.69l14.07-14.07a9,9,0,0,1,12.69,12.69Zm24,24a9,9,0,0,1-12.69-12.69l14.07-14.07a9,9,0,0,1,12.69,12.69Zm24,24a9,9,0,0,1-12.69-12.69l14.07-14.07a9,9,0,0,1,12.69,12.69Zm38.07,9.93-14.07,14.07a9,9,0,0,1-12.69-12.69l14.07-14.07a9,9,0,0,1,12.69,12.69ZM255.66,477h-1.48a8.3,8.3,0,0,1-5.52-2.09l-6-5.28,6-6a24.86,24.86,0,0,0,5-7.43l7.27,6.06A8.34,8.34,0,0,1,255.66,477Zm71.74-72H326a8.6,8.6,0,0,1-5.51-2l-43.38-36.15-10.25,12.29L309,414.25A8.35,8.35,0,0,1,303.66,429h-1.75a8.37,8.37,0,0,1-5.34-1.94l-43.45-36.2-10.25,12.29L285,438.26A8.34,8.34,0,0,1,279.66,453a13.19,13.19,0,0,1-8.42-3.05l-17.86-14.88a24.88,24.88,0,0,0-21.48-14,24.91,24.91,0,0,0-24-24,24.91,24.91,0,0,0-24-24,24.91,24.91,0,0,0-42.52-16.78l-14.07,14.07a24.44,24.44,0,0,0-2.24,2.73L100.5,358.37,122,283l54-12A82.41,82.41,0,0,1,219,272.9l11.78,3.77-39.95,20a26.66,26.66,0,0,0-14.8,24v1.58a26.8,26.8,0,0,0,40.59,23l29.79-17.87a16.52,16.52,0,0,1,19.18,1.85L333.15,390a8.61,8.61,0,0,1-5.75,15ZM480,312.05l-134.78,67.4c-.43-.47-.89-.91-1.37-1.34l-67.58-60.83a32.21,32.21,0,0,0-38.13-3.69l-29.8,17.87A10.79,10.79,0,0,1,192,322.2v-1.58a10.74,10.74,0,0,1,6-9.66l44.62-22.31a34.74,34.74,0,0,1,24.94-2.31L317.8,300.7,330,301l150-79Z" fill="#525b60"/></svg>