<svg xmlns="http://www.w3.org/2000/svg" viewBox="0 0 300 300"><title>Aggregator_Seperated</title><g id="Icon_4_Data_Cloud" data-name="Icon 4 Data Cloud"><ellipse id="Data_Cloud_Dot_6" data-name="Data Cloud Dot 6" cx="164.9048" cy="85.9768" rx="2.8185" ry="2.8312" style="fill:#e7503d"/><ellipse id="Data_Cloud_Dot_5" data-name="Data Cloud Dot 5" cx="169.422" cy="101.2859" rx="2.8185" ry="2.8312" style="fill:#8f8f8f"/><ellipse id="Data_Cloud_Dot_4" data-name="Data Cloud Dot 4" cx="140.6035" cy="98.0626" rx="2.8185" ry="2.8312" style="fill:#61afbb"/><ellipse id="Data_Cloud_Dot_3" data-name="Data Cloud Dot 3" cx="125.7646" cy="110.3812" rx="2.8185" ry="2.8312" style="fill:#8f8f8f"/><ellipse id="Data_Cloud_Dot_2" data-name="Data Cloud Dot 2" cx="152.1713" cy="115.0818" rx="2.8185" ry="2.8312" style="fill:#e7503d"/><ellipse id="Data_Cloud_Dot_1" data-name="Data Cloud Dot 1" cx="180.6229" cy="112.6151" rx="2.8185" ry="2.8312" style="fill:#61afbb"/><g id="Data_Cloud_Connection_Dots" data-name="Data Cloud Connection Dots"><ellipse id="Data_Cloud_Dot_3-2" data-name="Data Cloud Dot 3" cx="140.6035" cy="134.4438" rx="2.8185" ry="2.8312" style="fill:#61afbb"/><ellipse id="Data_Cloud_Dot_3-3" data-name="Data Cloud Dot 3" cx="140.6035" cy="145.3582" rx="2.8185" ry="2.8312" style="fill:#61afbb"/><ellipse id="Data_Cloud_Dot_3-4" data-name="Data Cloud Dot 3" cx="140.6035" cy="156.2725" rx="2.8185" ry="2.8312" style="fill:#61afbb"/><ellipse id="Data_Cloud_Dot_3-5" data-name="Data Cloud Dot 3" cx="140.6035" cy="167.1869" rx="2.8185" ry="2.8312" style="fill:#61afbb"/><ellipse id="Data_Cloud_Dot_3-6" data-name="Data Cloud Dot 3" cx="140.6035" cy="178.1013" rx="2.8185" ry="2.8312" style="fill:#61afbb"/><ellipse id="Data_Cloud_Dot_3-7" data-name="Data Cloud Dot 3" cx="140.6035" cy="189.0157" rx="2.8185" ry="2.8312" style="fill:#61afbb"/><ellipse id="Data_Cloud_Dot_3-8" data-name="Data Cloud Dot 3" cx="140.6035" cy="199.93" rx="2.8185" ry="2.8312" style="fill:#61afbb"/><ellipse id="Data_Cloud_Dot_3-9" data-name="Data Cloud Dot 3" cx="140.6035" cy="210.8444" rx="2.8185" ry="2.8312" style="fill:#61afbb"/><ellipse id="Data_Cloud_Dot_3-10" data-name="Data Cloud Dot 3" cx="140.6035" cy="221.7588" rx="2.8185" ry="2.8312" style="fill:#61afbb"/><ellipse id="Data_Cloud_Dot_3-11" data-name="Data Cloud Dot 3" cx="149.6988" cy="156.2725" rx="2.8185" ry="2.8312" style="fill:#61afbb"/><ellipse id="Data_Cloud_Dot_3-12" data-name="Data Cloud Dot 3" cx="149.6988" cy="189.0157" rx="2.8185" ry="2.8312" style="fill:#61afbb"/><ellipse id="Data_Cloud_Dot_3-13" data-name="Data Cloud Dot 3" cx="149.6988" cy="221.7588" rx="2.8185" ry="2.8312" style="fill:#61afbb"/><ellipse id="Data_Cloud_Dot_3-14" data-name="Data Cloud Dot 3" cx="158.7941" cy="156.2725" rx="2.8185" ry="2.8312" style="fill:#61afbb"/><ellipse id="Data_Cloud_Dot_3-15" data-name="Data Cloud Dot 3" cx="158.7941" cy="189.0157" rx="2.8185" ry="2.8312" style="fill:#61afbb"/><ellipse id="Data_Cloud_Dot_3-16" data-name="Data Cloud Dot 3" cx="158.7941" cy="221.7588" rx="2.8185" ry="2.8312" style="fill:#61afbb"/></g><rect id="Data_Upload_To_Cell_3" data-name="Data Upload To Cell 3" x="172.824" y="160.0406" width="31.2894" height="5.2386" style="fill:#8f8f8f"/><rect id="Data_Upload_To_Cell_2" data-name="Data Upload To Cell 2" x="172.824" y="168.7715" width="31.2894" height="3.4924" style="fill:#e7503d"/><rect id="Data_Upload_To_Cell_1" data-name="Data Upload To Cell 1" x="172.824" y="175.7563" width="31.2894" height="37.5431" style="fill:#61afbb"/><path id="Data_Cloud" data-name="Data Cloud" d="M194.1689,98.7A17.2632,17.2632,0,0,0,183.71,93.5616c.5368-6.21-1.1895-11.4987-5.0291-15.3553-5.4671-5.4919-12.7073-7.5943-19.3852-5.6226-4.1348,1.2781-9.3381,3.9123-11.7281,9.2791a14.7054,14.7054,0,0,0-7.548-2.0622A14.942,14.942,0,0,0,125.169,93.64a17.4706,17.4706,0,1,0-2.5584,34.7629h59.1211A17.495,17.495,0,0,0,194.1689,98.7Zm-12.4372,27.0569H122.6106a14.846,14.846,0,1,1,5.0552-28.7634q.9437-1.068,1.9547-2.0638a17.3637,17.3637,0,0,0-1.8515-.7029A12.303,12.303,0,0,1,140.02,82.4473a12.1024,12.1024,0,0,1,6.5676,1.9145,19.1973,19.1973,0,0,0-.7611,2.4548c.8871.0651,1.772.1518,2.6557.25a16.6959,16.6959,0,0,1,.9316-2.6321l.4348-.963-.07-.0533c1.8927-4.792,6.58-7.1578,10.2765-8.3,5.7233-1.6908,11.9888.1632,16.7634,4.96,4.0315,4.05,4.61,9.2721,4.2638,13.2842-.5337.0372-1.0641.1073-1.5919.1932.0557.24.1094.4807.164.721.0437.1919.0884.3836.1309.5755.06.2732.1167.5468.174.82.0349.1665.0723.3326.1057.4992a13.5046,13.5046,0,0,1,1.9909-.0736l.005-.126.0193-.0005-.0029.1272a14.8322,14.8322,0,0,1-.3455,29.6585Z" style="fill:#fff"/><path id="Data_Cloud-2" data-name="Data Cloud" d="M194.1689,98.7A17.2632,17.2632,0,0,0,183.71,93.5616c.5368-6.21-1.1895-11.4987-5.0291-15.3553-5.4671-5.4919-12.7073-7.5943-19.3852-5.6226-4.1348,1.2781-9.3381,3.9123-11.7281,9.2791a14.7054,14.7054,0,0,0-7.548-2.0622A14.942,14.942,0,0,0,125.169,93.64a17.4706,17.4706,0,1,0-2.5584,34.7629h59.1211A17.495,17.495,0,0,0,194.1689,98.7Zm-12.4372,27.0569H122.6106a14.846,14.846,0,1,1,5.0552-28.7634q.9437-1.068,1.9547-2.0638a17.3637,17.3637,0,0,0-1.8515-.7029A12.303,12.303,0,0,1,140.02,82.4473a12.1024,12.1024,0,0,1,6.5676,1.9145,19.1973,19.1973,0,0,0-.7611,2.4548c.8871.0651,1.772.1518,2.6557.25a16.6959,16.6959,0,0,1,.9316-2.6321l.4348-.963-.07-.0533c1.8927-4.792,6.58-7.1578,10.2765-8.3,5.7233-1.6908,11.9888.1632,16.7634,4.96,4.0315,4.05,4.61,9.2721,4.2638,13.2842-.5337.0372-1.0641.1073-1.5919.1932.0557.24.1094.4807.164.721.0437.1919.0884.3836.1309.5755.06.2732.1167.5468.174.82.0349.1665.0723.3326.1057.4992a13.5046,13.5046,0,0,1,1.9909-.0736l.005-.126.0193-.0005-.0029.1272a14.8322,14.8322,0,0,1-.3455,29.6585Z" style="fill:#fff"/><g id="Data_Cellphone_Icon" data-name="Data Cellphone Icon"><path d="M210.3444,228.142h-43.69v-82.23h43.69Zm-41.0553-2.6466H207.71V148.5583H169.2891Z" style="fill:#fff"/><path d="M210.3444,220.5144h-43.69V153.5392h43.69Zm-41.0553-2.6466H207.71V156.1859H169.2891Z" style="fill:#fff"/><path d="M188.4994,227.6587a4.8676,4.8676,0,1,1,4.8456-4.8676A4.8622,4.8622,0,0,1,188.4994,227.6587Zm0-7.0885a2.2209,2.2209,0,1,0,2.2109,2.2209A2.2183,2.2183,0,0,0,188.4994,220.57Z" style="fill:#fff"/></g><g id="Data_SMS_Icon" data-name="Data SMS Icon"><path d="M90.7929,223.6052l.7032-.7538a6.1192,6.1192,0,0,0,4.5935,2.1258c2.3894,0,3.8951-1.2859,3.8951-3.159,0-1.9635-1.2755-2.5887-2.8169-3.2856l-2.3727-1.0687c-1.3633-.6038-3.1755-1.5818-3.1755-3.91,0-2.2833,1.9476-3.8749,4.55-3.8749a5.9731,5.9731,0,0,1,4.3608,1.8826l-.6318.73a4.979,4.979,0,0,0-3.729-1.6152c-2.0662,0-3.4533,1.1095-3.4533,2.8108,0,1.8349,1.5627,2.5265,2.7078,3.0326l2.3677,1.0616c1.7531.7848,3.2946,1.7562,3.2946,4.161,0,2.41-1.9714,4.2327-5.0067,4.2327A6.8664,6.8664,0,0,1,90.7929,223.6052Z" style="fill:#fff"/><path d="M96.08,226.8187a7.6911,7.6911,0,0,1-5.9154-2.653l-.5091-.5758,1.8589-1.9927.6114.6953a5.306,5.306,0,0,0,3.9637,1.8407c1.8844,0,3.0549-.887,3.0549-2.315,0-1.3337-.672-1.77-2.3218-2.5157l-2.3714-1.0683c-1.0954-.4851-3.672-1.6263-3.672-4.6807,0-2.7346,2.2672-4.719,5.3907-4.719a6.8265,6.8265,0,0,1,4.9734,2.1489l.52.556-1.7388,2.0087-.6367-.6779a4.1268,4.1268,0,0,0-3.1177-1.35c-1.2633,0-2.6131.5168-2.6131,1.9667,0,1.1928.9145,1.689,2.2061,2.26l2.3718,1.0637c1.9693.8816,3.7922,2.0892,3.7922,4.9317C101.927,224.6838,99.4682,226.8187,96.08,226.8187Z" style="fill:#fff"/><path d="M104.3743,209.965h1.5484l3.2683,9.2241c.4131,1.1594.8218,2.3286,1.2349,3.4929h.0952c.4132-1.1643.7791-2.3335,1.1923-3.4929l3.2588-9.2241h1.5484v15.7232h-1.0544V215.3521c0-1.2739.0759-2.932.1378-4.2467h-.0951l-1.2186,3.5073-3.3749,9.36H109.97l-3.3967-9.36-1.2349-3.5073h-.0948c.0615,1.3147.1374,2.9728.1374,4.2467v10.3361h-1.0068Z" style="fill:#fff"/><path d="M117.3609,226.5322h-2.735V216.16l-3.1214,8.6566h-2.1223l-3.1608-8.71v10.4251h-2.6873V209.1209h2.9815l3.4668,9.7851q.2388.67.4768,1.3452c.1509-.45.3036-.8989.4632-1.3465l3.4566-9.7838h2.9819Z" style="fill:#fff"/><path d="M119.9362,223.6052l.7032-.7538a6.1192,6.1192,0,0,0,4.5935,2.1258c2.3894,0,3.8952-1.2859,3.8952-3.159,0-1.9635-1.2756-2.5887-2.817-3.2856l-2.3727-1.0687c-1.3633-.6038-3.1755-1.5818-3.1755-3.91,0-2.2833,1.9476-3.8749,4.5508-3.8749a5.9729,5.9729,0,0,1,4.36,1.8826l-.6318.73a4.9786,4.9786,0,0,0-3.7286-1.6152c-2.0666,0-3.4537,1.1095-3.4537,2.8108,0,1.8349,1.5627,2.5265,2.7078,3.0326l2.3677,1.0616c1.7531.7848,3.2946,1.7562,3.2946,4.161,0,2.41-1.9714,4.2327-5.0067,4.2327A6.8664,6.8664,0,0,1,119.9362,223.6052Z" style="fill:#fff"/><path d="M125.2234,226.8187a7.6911,7.6911,0,0,1-5.9154-2.653l-.5091-.5758,1.859-1.9927.6113.6953a5.306,5.306,0,0,0,3.9637,1.8407c1.8844,0,3.0549-.887,3.0549-2.315,0-1.3337-.672-1.77-2.3218-2.5157l-2.3714-1.0683c-1.0954-.4851-3.672-1.6263-3.672-4.6807,0-2.7346,2.2672-4.719,5.3911-4.719a6.8263,6.8263,0,0,1,4.973,2.1489l.52.556-1.7388,2.0087-.6367-.6779a4.1266,4.1266,0,0,0-3.1173-1.35c-1.2633,0-2.6135.5168-2.6135,1.9667,0,1.1928.9145,1.689,2.2061,2.26l2.3718,1.0637c1.9693.8816,3.7922,2.0892,3.7922,4.9317C131.07,224.6838,128.6115,226.8187,125.2234,226.8187Z" style="fill:#fff"/></g><g id="Data_At_Icon" data-name="Data At Icon"><path d="M114.5483,188.0147c0-6.02,4.2916-9.9479,9.1395-9.9479,4.443,0,7.2119,2.9295,7.2119,7.3328,0,3.9229-2.3228,6.0064-4.2317,6.0064a1.9538,1.9538,0,0,1-2.2215-1.7555H124.4a4.0866,4.0866,0,0,1-2.8011,1.6078c-1.43,0-2.6306-1.0583-2.6306-3.1418,0-2.25,1.5775-5.1935,4.2821-5.1935a2.1126,2.1126,0,0,1,1.9088,1.1134h.0461l.2022-.9286h.7775l-.8144,4.3526c-.5244,2.1115-.0366,3.1231,1.38,3.1231,1.4627,0,3.2841-1.862,3.2841-5.1332,0-3.9735-2.438-6.5658-6.4209-6.5658-4.1951,0-8.1829,3.5764-8.1829,9.08,0,4.4911,2.8059,7.2725,6.918,7.2725a7.1789,7.1789,0,0,0,3.859-1.1229l.3722.7115a7.882,7.882,0,0,1-4.3051,1.2291C117.8368,196.0543,114.5483,193.1156,114.5483,188.0147Zm9.6682.8688.7131-3.9923c-.5542-.8639-1.0027-1.1365-1.7066-1.1365-2.065,0-3.339,2.3425-3.339,4.2971,0,1.7488.8231,2.3793,1.8441,2.3793A3.5624,3.5624,0,0,0,124.2165,188.8835Z" style="fill:#fff"/><path d="M122.2755,196.8716c-5.1084,0-8.5408-3.5593-8.5408-8.8569,0-6.1372,4.2789-10.7652,9.9531-10.7652,4.8,0,8.0255,3.2751,8.0255,8.15,0,4.2713-2.5652,6.8237-5.0453,6.8237a2.99,2.99,0,0,1-2.5647-1.1629,3.9453,3.9453,0,0,1-2.504,1.0152c-1.7146,0-3.4442-1.2243-3.4442-3.9591,0-2.52,1.771-6.0108,5.0957-6.0108a2.9563,2.9563,0,0,1,1.4631.3652l.0393-.18h2.413l-1.0059,5.3679c-.3412,1.3732-.1076,1.8145-.0278,1.9167a.7673.7673,0,0,0,.6186.1911c1.01,0,2.4705-1.5368,2.4705-4.3159,0-3.5457-2.1488-5.7485-5.6073-5.7485-3.6223,0-7.3693,3.09-7.3693,8.2623,0,3.9818,2.3391,6.4553,6.1044,6.4553a6.3739,6.3739,0,0,0,3.4331-1.0021l.7413-.4573,1.1271,2.1545-.6369.4023A8.73,8.73,0,0,1,122.2755,196.8716Zm.9475-12.3c-1.4882,0-2.5255,1.8341-2.5255,3.48,0,1.562.7223,1.562,1.0306,1.562a2.73,2.73,0,0,0,1.728-1.101l.6138-3.4356C123.6957,184.572,123.4832,184.572,123.223,184.572Z" style="fill:#fff"/></g><g id="Data_Email_Icon" data-name="Data Email Icon"><path d="M132.3878,165.67l-25.1707-.0347v-19.056h25.1707Zm-22.536-2.6776,19.9013.0273V149.2259H109.8518Z" style="fill:#fff"/><polygon points="119.834 159.906 107.686 149.629 109.383 147.605 119.771 156.393 130.186 146.921 131.954 148.884 119.834 159.906" style="fill:#fff"/></g></g></svg>