<svg xmlns="http://www.w3.org/2000/svg" viewBox="0 0 300 300"><title>Aggregator_Seperated</title><g id="Icon_1_Data_Aggregator" data-name="Icon 1 Data Aggregator"><g id="Data_In_Aggregator" data-name="Data In Aggregator"><g id="Data_Set_3" data-name="Data Set 3"><polygon points="94.063 181.849 91.887 186.759 125.461 186.759 127.637 181.849 94.063 181.849" style="fill:#61afbb"/><polygon points="91.887 175.038 96.774 175.038 98.951 170.128 94.063 170.128 91.887 175.038" style="fill:#61afbb"/><polygon points="100.22 175.038 105.108 175.038 107.284 170.128 102.396 170.128 100.22 175.038" style="fill:#b5b5b5"/><polygon points="109.102 175.038 113.99 175.038 116.166 170.128 111.278 170.128 109.102 175.038" style="fill:#61afbb"/><polygon points="129.695 186.759 134.583 186.759 136.759 181.849 131.871 181.849 129.695 186.759" style="fill:#e7503d"/><polygon points="138.817 186.759 143.705 186.759 145.881 181.849 140.993 181.849 138.817 186.759" style="fill:#61afbb"/><polygon points="154.123 186.759 201.205 186.759 203.381 181.849 156.299 181.849 154.123 186.759" style="fill:#b5b5b5"/><polygon points="158.111 186.759 205.192 186.759 207.369 181.849 160.287 181.849 158.111 186.759" style="fill:#b5b5b5"/><polygon points="182.542 175.038 187.429 175.038 189.605 170.128 184.718 170.128 182.542 175.038" style="fill:#e7503d"/><polygon points="191.423 175.038 196.311 175.038 198.487 170.128 193.599 170.128 191.423 175.038" style="fill:#61afbb"/><polygon points="200.305 175.038 205.192 175.038 207.369 170.128 202.481 170.128 200.305 175.038" style="fill:#b5b5b5"/></g><g id="Data_Set_2" data-name="Data Set 2"><polygon points="91.887 198.639 138.968 198.639 141.144 193.729 94.063 193.729 91.887 198.639" style="fill:#e7503d"/><polygon points="154.123 198.639 201.205 198.639 203.381 193.729 156.299 193.729 154.123 198.639" style="fill:#61afbb"/></g><g id="Data_Set_1" data-name="Data Set 1"><polygon points="201.054 210.518 205.942 210.518 208.118 205.608 203.23 205.608 201.054 210.518" style="fill:#61afbb"/><polygon points="191.932 210.518 196.82 210.518 198.996 205.608 194.108 205.608 191.932 210.518" style="fill:#e7503d"/><polygon points="91.887 210.518 138.968 210.518 141.144 205.608 94.063 205.608 91.887 210.518" style="fill:#61afbb"/><polygon points="95.874 210.518 142.956 210.518 145.132 205.608 98.051 205.608 95.874 210.518" style="fill:#61afbb"/><polygon points="91.887 222.397 96.774 222.397 98.951 217.487 94.063 217.487 91.887 222.397" style="fill:#61afbb"/><polygon points="101.009 222.397 105.896 222.397 108.072 217.487 103.185 217.487 101.009 222.397" style="fill:#b5b5b5"/><polygon points="154.123 222.397 201.205 222.397 203.381 217.487 156.299 217.487 154.123 222.397" style="fill:#e7503d"/><polygon points="158.111 222.397 205.192 222.397 207.369 217.487 160.287 217.487 158.111 222.397" style="fill:#e7503d"/></g></g><path id="Aggregator_Icon" data-name="Aggregator Icon" d="M215.231,230.0865H84.769V163.9494h55.4838l5.0278-11.7481h11.3683l5.0278,11.7481H215.231v12.4925h3.8359V160.0961H164.2031l-4.29-10.0238V138.28l33.9184-34.0723V93.1059H108.098v11.1017L142.0164,138.28V150.072l-4.29,10.0241H80.9331V233.94H219.0669V217.9189H215.231ZM111.9339,102.6115V96.9592h78.0617v5.6523l-33.9184,34.0723V148.348H145.8523V136.6838Z" style="fill:#fff"/><g id="Aggregator_Data_Dot_1" data-name="Aggregator Data Dot 1"><ellipse cx="151.4698" cy="73.2795" rx="7.1849" ry="7.2175" style="fill:#61afbb"/></g><g id="Aggregator_Data_Dot_2" data-name="Aggregator Data Dot 2"><ellipse cx="151.4698" cy="73.2795" rx="7.1849" ry="7.2175" style="fill:#e7503d"/></g><g id="Aggregator_Data_Dot_3" data-name="Aggregator Data Dot 3"><ellipse cx="151.4698" cy="73.2795" rx="7.1849" ry="7.2175" style="fill:#b5b5b5"/></g></g></svg>