<svg xmlns="http://www.w3.org/2000/svg" viewBox="0 0 300 300"><title>Aggregator_Seperated</title><g id="Icon_3_Data_Server" data-name="Icon 3 Data Server"><g id="Data_Server_Lights_On_3" data-name="Data Server Lights On 3"><ellipse cx="139.7648" cy="194.5151" rx="3.9201" ry="3.9379" style="fill:#fff"/><ellipse cx="149.9997" cy="194.5151" rx="3.9201" ry="3.9379" style="fill:#fff"/><ellipse cx="160.2346" cy="194.5151" rx="3.9201" ry="3.9379" style="fill:#fff"/></g><g id="Data_Server_Lights_On_2" data-name="Data Server Lights On 2"><ellipse cx="139.7648" cy="166.4229" rx="3.9201" ry="3.9379" style="fill:#fff"/><ellipse cx="149.9997" cy="166.4229" rx="3.9201" ry="3.9379" style="fill:#fff"/><ellipse cx="160.2346" cy="166.4229" rx="3.9201" ry="3.9379" style="fill:#fff"/></g><g id="Data_Server_Lights_On_1" data-name="Data Server Lights On 1"><ellipse cx="139.7648" cy="137.1142" rx="3.9201" ry="3.9379" style="fill:#fff"/><ellipse cx="149.9997" cy="137.1142" rx="3.9201" ry="3.9379" style="fill:#fff"/><ellipse cx="160.2346" cy="137.1142" rx="3.9201" ry="3.9379" style="fill:#fff"/></g><path id="Data_Server" data-name="Data Server" d="M150,93.878c-25.4212,0-63.2418,3.9862-63.2418,14.9671v87.463h.0411C88.1358,206.84,125.0417,210.6825,150,210.6825S211.8636,206.84,213.2,196.3081h.0411v-87.463C213.2415,97.8642,175.421,93.878,150,93.878Zm-43.0418,7.4856C118.4352,98.91,133.7212,97.5592,150,97.5592s31.5646,1.3512,43.0418,3.8044c13.0529,2.79,16.5355,6.0153,16.5355,7.4815s-3.4826,4.6914-16.5355,7.4815c-11.4772,2.4533-26.7632,3.8045-43.0418,3.8045s-31.5645-1.3512-43.0418-3.8045c-13.0529-2.79-16.5354-6.0153-16.5354-7.4815S93.905,104.1538,106.9579,101.3636Zm86.0836,101.8333c-11.477,2.4533-26.763,3.8045-43.0418,3.8045s-31.5648-1.3512-43.0418-3.8045c-13.0529-2.79-16.5354-6.0153-16.5354-7.4815v-23.191c10.0948,6.8736,38.9269,9.5037,59.5772,9.5037s49.4825-2.63,59.5773-9.5037v23.191C209.577,197.1816,206.0944,200.4073,193.0415,203.1969ZM209.577,167.061c0,1.4662-3.4826,4.6913-16.5355,7.4815-11.4772,2.4532-26.7632,3.8044-43.0418,3.8044s-31.5645-1.3512-43.0418-3.8044c-13.0529-2.79-16.5354-6.0153-16.5354-7.4815V143.8694c10.0948,6.8736,38.9269,9.5037,59.5772,9.5037s49.4825-2.63,59.5773-9.5037V167.061Zm0-28.655c0,1.4662-3.4826,4.6919-16.5355,7.4815-11.477,2.4533-26.763,3.8044-43.0418,3.8044s-31.5648-1.3511-43.0418-3.8044c-13.0529-2.79-16.5354-6.0153-16.5354-7.4815V114.3083c10.0948,6.8735,38.9269,9.5039,59.5772,9.5039s49.4825-2.63,59.5773-9.5039V138.406Z" style="fill:#fff"/><g id="Data_Server_Lines" data-name="Data Server Lines"><path d="M216.9,217.2037l-2.5915-2.6027a91.6532,91.6532,0,0,0,0-129.2023L216.9,82.7959A95.4545,95.4545,0,0,1,216.9,217.2037Z" style="fill:#fff"/><path d="M220.9411,75.1537l-1.5662-1.4343c-2.2507-2.06-4.6275-4.0507-7.0643-5.9152l-1.6864-1.29,2.5685-3.3875,1.6858,1.29c2.5361,1.94,5.01,4.0113,7.3516,6.1559l1.5664,1.4341Z" style="fill:#8f8f8f"/><path d="M249.4077,190.1321l-3.9633-1.5114.752-1.99a103.2323,103.2323,0,0,0,5.2995-19.7994l.3431-2.1013,4.183.69-.3433,2.1007a107.5043,107.5043,0,0,1-5.519,20.6214Z" style="fill:#61afbb"/><path d="M257.1,148.3372l-4.2363.1525-.0757-2.1276a104.6137,104.6137,0,0,0-2.741-20.3268l-.49-2.0714,4.1237-.9853.49,2.0713a108.9091,108.9091,0,0,1,2.8534,21.16Z" style="fill:#e7503d"/><path d="M248.1162,106.7988l-3.85,1.7829-.8872-1.9333a102.9856,102.9856,0,0,0-10.3552-17.6733l-1.2523-1.7176,3.42-2.5161,1.2524,1.7176a107.2821,107.2821,0,0,1,10.7847,18.4063Z" style="fill:#61afbb"/><path d="M233.9125,216.8668l-3.3728-2.58,1.2839-1.6939c1.857-2.4493,3.6212-5.0028,5.2449-7.5891l1.13-1.8012,3.5859,2.2711-1.1305,1.8009c-1.6893,2.6917-3.5255,5.3494-5.4573,7.8983Z" style="fill:#8f8f8f"/><polygon points="223.817 219.919 211.606 219.919 211.606 207.653 215.27 207.653 215.27 216.238 223.817 216.238 223.817 219.919" style="fill:#fff"/><path d="M86.8079,236.8732l-1.6864-1.29c-2.5359-1.94-5.0093-4.0109-7.3518-6.1557l-1.5664-1.4341,2.8554-3.1472,1.5662,1.4343c2.2507,2.0605,4.6275,4.0507,7.0645,5.9149l1.6864,1.29Z" style="fill:#8f8f8f"/><path d="M68.2278,212.7418l-3.42,2.5162L63.5558,213.54a107.2787,107.2787,0,0,1-10.7849-18.4061l-.8877-1.9335,3.8491-1.7832.8877,1.9335a103.0324,103.0324,0,0,0,10.3554,17.6731Z" style="fill:#61afbb"/><path d="M50.4437,176.0359l-4.1237.9853-.49-2.0713a108.9446,108.9446,0,0,1-2.8534-21.16L42.9,151.6626l4.2359-.1529.0761,2.128a104.6217,104.6217,0,0,0,2.741,20.3267Z" style="fill:#e7503d"/><path d="M48.161,135.27l-4.183-.69.3433-2.1007a107.5073,107.5073,0,0,1,5.519-20.6215l.752-1.99,3.9633,1.5114-.752,1.99a103.23,103.23,0,0,0-5.3,19.7994Z" style="fill:#61afbb"/><path d="M61.801,96.7969l-3.5859-2.271,1.13-1.801c1.6893-2.6917,3.5254-5.3493,5.4573-7.8982l1.284-1.6939,3.3728,2.58-1.2839,1.6939c-1.8571,2.4493-3.6213,5.0028-5.245,7.589Z" style="fill:#8f8f8f"/><path d="M83.1,217.2037a95.3457,95.3457,0,0,1,0-134.4078l2.5915,2.6028a91.6527,91.6527,0,0,0,0,129.2023Z" style="fill:#fff"/><polygon points="88.394 92.347 84.73 92.347 84.73 83.761 76.182 83.761 76.182 80.08 88.394 80.08 88.394 92.347" style="fill:#fff"/></g></g></svg>