<svg xmlns="http://www.w3.org/2000/svg" viewBox="0 0 300 300" id="el_-xN4H1-dA"><style>@-webkit-keyframes kf_el_How5u13G-0_an_P08zOFISQ{0%{-webkit-transform: translate(150.90792083740234px, 142.89822006225586px) scale(0.85, 0.85) translate(-150.90792083740234px, -142.89822006225586px);transform: translate(150.90792083740234px, 142.89822006225586px) scale(0.85, 0.85) translate(-150.90792083740234px, -142.89822006225586px);}66.67%{-webkit-transform: translate(150.90792083740234px, 142.89822006225586px) scale(1, 1) translate(-150.90792083740234px, -142.89822006225586px);transform: translate(150.90792083740234px, 142.89822006225586px) scale(1, 1) translate(-150.90792083740234px, -142.89822006225586px);}100%{-webkit-transform: translate(150.90792083740234px, 142.89822006225586px) scale(1, 1) translate(-150.90792083740234px, -142.89822006225586px);transform: translate(150.90792083740234px, 142.89822006225586px) scale(1, 1) translate(-150.90792083740234px, -142.89822006225586px);}}@keyframes kf_el_How5u13G-0_an_P08zOFISQ{0%{-webkit-transform: translate(150.90792083740234px, 142.89822006225586px) scale(0.85, 0.85) translate(-150.90792083740234px, -142.89822006225586px);transform: translate(150.90792083740234px, 142.89822006225586px) scale(0.85, 0.85) translate(-150.90792083740234px, -142.89822006225586px);}66.67%{-webkit-transform: translate(150.90792083740234px, 142.89822006225586px) scale(1, 1) translate(-150.90792083740234px, -142.89822006225586px);transform: translate(150.90792083740234px, 142.89822006225586px) scale(1, 1) translate(-150.90792083740234px, -142.89822006225586px);}100%{-webkit-transform: translate(150.90792083740234px, 142.89822006225586px) scale(1, 1) translate(-150.90792083740234px, -142.89822006225586px);transform: translate(150.90792083740234px, 142.89822006225586px) scale(1, 1) translate(-150.90792083740234px, -142.89822006225586px);}}@-webkit-keyframes kf_el_How5u13G-0_an_Ve6I7DquC{0%{opacity: 0.3;}66.67%{opacity: 1;}100%{opacity: 1;}}@keyframes kf_el_How5u13G-0_an_Ve6I7DquC{0%{opacity: 0.3;}66.67%{opacity: 1;}100%{opacity: 1;}}#el_-xN4H1-dA *{-webkit-animation-duration: 3s;animation-duration: 3s;-webkit-animation-iteration-count: 1;animation-iteration-count: 1;-webkit-animation-timing-function: cubic-bezier(0, 0, 1, 1);animation-timing-function: cubic-bezier(0, 0, 1, 1);}#el_clXZEpd_PM{fill: #4699a4;visibility: hidden;}#el_5-5UqdU6da{fill: #cfd3d3;}#el_Ad4nitu4_m{fill: #fff;}#el_cvFp9gBZyu{fill: none;}#el_CJGuY5O6xA{fill: #fff;}#el_How5u13G-0{-webkit-animation-fill-mode: forwards;animation-fill-mode: forwards;-webkit-animation-name: kf_el_How5u13G-0_an_Ve6I7DquC;animation-name: kf_el_How5u13G-0_an_Ve6I7DquC;-webkit-animation-timing-function: cubic-bezier(0.42, 0, 1, 1);animation-timing-function: cubic-bezier(0.42, 0, 1, 1);}#el_How5u13G-0_an_P08zOFISQ{-webkit-animation-fill-mode: forwards;animation-fill-mode: forwards;-webkit-animation-name: kf_el_How5u13G-0_an_P08zOFISQ;animation-name: kf_el_How5u13G-0_an_P08zOFISQ;-webkit-animation-timing-function: cubic-bezier(0.42, 0, 1, 1);animation-timing-function: cubic-bezier(0.42, 0, 1, 1);}</style><title>DedicatedSolutionsForYourGuests</title><g id="el_BE3YeLjxm0"><path d="M253.4984,175.8876l.2077-.7366c1.0481-3.7818,2.3276-7.8422,4.2823-8.1774,2.0326-.3541,4.4853-.6941,7.2851-1.0057a4.5734,4.5734,0,0,0,4.02-3.6638l.4863-2.677a68.1345,68.1345,0,0,0-.0661-27.7122c-.1676-.8758-.3471-1.8248-.543-2.8777a4.5752,4.5752,0,0,0-4.0462-3.6449c-2.7856-.2927-5.2172-.6067-7.2308-.9325-1.9547-.3163-3.2507-4.3531-4.313-8.1113l-.2219-.779a106.9551,106.9551,0,0,0-8.7747-20.9111l-.3046-.5429c-1.9782-3.5269-3.9824-7.4268-2.7313-9.0769,1.3409-1.7729,3.0406-3.9353,4.4051-5.6491,1.2511-1.577,1.2889-2.9651.1511-5.5075-1.1284-2.5213-20.1486-21.4824-23.39-23.319-3.0453-1.7256-3.8054-1.1142-5.4792.2219-2.127,1.7021-4.084,3.17-5.8144,4.3626-1.5982,1.1119-5.3658-.8451-8.7629-2.7691l-.6775-.38a106.1744,106.1744,0,0,0-21.1-8.7723l-.7648-.2172c-3.7677-1.0481-7.8116-2.33-8.1421-4.28-.3281-1.9547-.6515-4.33-.9584-7.0538-.2455-2.0137-1.4046-3.2625-3.7535-4.0415A40.37,40.37,0,0,0,156.67,26.0047L156.5919,26l-12.1269.04a39.1436,39.1436,0,0,0-10.5925,1.6974c-2.5849.8215-3.4537,1.77-3.72,4.06-.2951,2.7525-.6067,5.1274-.9183,7.0561-.3187,1.9523-4.3579,3.2554-8.1185,4.3224l-.7648.22A106.3983,106.3983,0,0,0,99.3,52.2934l-.6964.3943c-3.3758,1.931-7.1105,3.8927-8.7228,2.8068-1.7351-1.18-3.6992-2.6369-5.838-4.33-1.5439-1.2228-2.42-1.381-5.5642-.1511C75.214,52.2887,57.0909,71.035,55.2826,74.46c-1.6642,3.1563-1.18,3.7512.1063,5.3494l.0968.118c1.3715,1.7091,3.0854,3.8621,4.4381,5.6279,1.1331,1.4778-.255,4.7049-2.6841,9.0981l-.2975.5406a106.683,106.683,0,0,0-8.6543,20.9606l-.2172.7672c-1.0458,3.77-2.3276,7.821-4.2846,8.1468-2.0255.34-4.457.6681-7.2261.9726a4.5778,4.5778,0,0,0-4.025,3.6709l-.5028,2.7644a60.7316,60.7316,0,0,0-1.3858,13.8667,60.827,60.827,0,0,0,1.4684,13.8691l.5193,2.762a4.5722,4.5722,0,0,0,4.0368,3.6449c2.8116.2974,5.2667.6185,7.2969.9631,1.9429.3258,3.2389,4.3579,4.2989,8.1161l.2219.77a106.4691,106.4691,0,0,0,8.7345,20.8969l.314.5665c1.9688,3.5175,3.966,7.4126,2.7195,9.0557-1.3361,1.7658-3.0311,3.9187-4.3885,5.6326a4.5569,4.5569,0,0,0-.21,5.406c8.2341,11.8082,11.7563,15.3209,23.5574,23.4889a4.5856,4.5856,0,0,0,5.4248-.2455c2.1742-1.7328,4.1383-3.2106,5.8428-4.3815a2.0952,2.0952,0,0,1,1.22-.3258c1.9,0,4.8489,1.5628,7.5684,3.1067l.6634.373a104.9407,104.9407,0,0,0,21.0078,8.7676l.7767.2219c3.7676,1.0529,7.8139,2.3418,8.1349,4.2965.3116,1.9216.6232,4.2681.9183,6.9782a4.72,4.72,0,0,0,3.7276,4.0462A42.9826,42.9826,0,0,0,145.15,266l12.2024-.0378a45.8835,45.8835,0,0,0,10.64-1.7044,5.1166,5.1166,0,0,0,3.7016-4.07c.2786-2.6912.5737-5.0378.8806-6.9782.3092-1.9641,4.3578-3.2767,8.1255-4.3532l.7577-.2219a109.4164,109.4164,0,0,0,20.963-8.8856c.3234-.1794.6728-.3919,1.0364-.6185l-7.559-7.5637a95.7628,95.7628,0,0,1-30.5332,10.0755,4.5478,4.5478,0,0,0-3.7748,3.3,65.2131,65.2131,0,0,0-1.3574,6.8177c-.3068,2.0113-1.3172,3.4655-2.7053,3.8857a29.291,29.291,0,0,1-12.6132.033c-1.3881-.4107-2.41-1.8555-2.729-3.8668a65.1623,65.1623,0,0,0-1.3928-6.8129,4.5447,4.5447,0,0,0-3.7936-3.2767,96.66,96.66,0,0,1-43.5832-17.9649,4.5009,4.5009,0,0,0-5-.3257c-1.7186.9962-3.6071,2.2285-5.6137,3.6543a5.7419,5.7419,0,0,1-7.245-.3824c-1.7139-1.61-3.3758-3.2625-4.9339-4.91a5.6489,5.6489,0,0,1-.43-7.2426,64.7064,64.7064,0,0,0,3.6142-5.3682,4.6239,4.6239,0,0,0-.2667-5.16,96.5918,96.5918,0,0,1-18.2978-43.7106,4.5371,4.5371,0,0,0-3.3-3.7818,69.686,69.686,0,0,0-6.95-1.3645,5.8336,5.8336,0,0,1-4.8512-5.46,60.8327,60.8327,0,0,1-.0213-6.7563,5.8429,5.8429,0,0,1,4.95-5.51c2.5306-.4013,4.719-.85,6.6878-1.3668a4.6161,4.6161,0,0,0,3.4042-3.8243,96.6135,96.6135,0,0,1,18.04-43.8145,4.6238,4.6238,0,0,0,.2408-5.1558,64.065,64.065,0,0,0-3.6473-5.3635,5.7105,5.7105,0,0,1,.3848-7.2331c1.584-1.6974,3.2176-3.3428,4.8559-4.8914a5.7422,5.7422,0,0,1,7.245-.4273c2.0066,1.4164,3.9,2.6346,5.63,3.6213a4.5021,4.5021,0,0,0,4.99-.3588,96.605,96.605,0,0,1,43.56-18.26,4.4039,4.4039,0,0,0,3.6921-3.0783,66.5779,66.5779,0,0,0,1.4377-7.0679c.3045-1.9854,1.3125-3.4207,2.6983-3.8362,3.0028-.9018,9.549-1.093,12.6391-.0283a4.5637,4.5637,0,0,1,2.6959,3.8125,65.1677,65.1677,0,0,0,1.4778,7.0609,4.4,4.4,0,0,0,3.7087,3.0571,96.6127,96.6127,0,0,1,43.661,18.01,4.4857,4.4857,0,0,0,4.9953.3305c1.7162-.9915,3.6024-2.2191,5.6066-3.65a5.7433,5.7433,0,0,1,7.2473.3848c1.6525,1.5462,3.2956,3.1822,4.882,4.863a5.7121,5.7121,0,0,1,.43,7.2308,64.5067,64.5067,0,0,0-3.6189,5.3847,4.6207,4.6207,0,0,0,.2714,5.1534,96.6462,96.6462,0,0,1,18.2883,43.7107A4.6145,4.6145,0,0,0,250,135.5079a67.865,67.865,0,0,0,6.6973,1.3291,5.8475,5.8475,0,0,1,4.9811,5.4815,61.4646,61.4646,0,0,1,.0165,6.7563,5.8257,5.8257,0,0,1-4.8182,5.4863,70.43,70.43,0,0,0-6.9452,1.4069,4.523,4.523,0,0,0-3.2766,3.796,95.6931,95.6931,0,0,1-10.6184,32.0771l7.3961,7.3985a25.3807,25.3807,0,0,0,1.4447-2.3891A119.7538,119.7538,0,0,0,253.4984,175.8876Z" id="el_5-5UqdU6da"/><path d="M264.1409,236.9242l-41.8869-42.13-2.0385-2.05,1.5445-2.4439A83.632,83.632,0,0,0,211.0236,87.6277l-.157-.1608-.1358-.1786a5.2246,5.2246,0,0,0-.4237-.4863A83.842,83.842,0,1,0,193.86,217.5338l2.4356-1.464,2.0036,2.0152,42.15,42.3933a16.7041,16.7041,0,0,0,23.6919-23.5541ZM150.683,218.4225A72.5037,72.5037,0,1,1,201.497,93.7139l.1829.1776.1564.2015a3.6786,3.6786,0,0,0,.32.358A72.6359,72.6359,0,0,1,150.683,218.4225Z" id="el_Ad4nitu4_m"/></g><g id="el_How5u13G-0_an_P08zOFISQ" data-animator-group="true" data-animator-type="2"><g id="el_How5u13G-0"><path d="M161.82,99.8945l.6728.2455-.203-.687a11.8595,11.8595,0,0,0-22.7618,0l-.203.687.6728-.2455A32.3111,32.3111,0,0,1,161.82,99.8945Z" id="el_cvFp9gBZyu"/><path d="M186.27,185.472l-19.4238-8.9093a2.7653,2.7653,0,0,1-1.6076-2.5023v-6.4353l.1629-.1086a26.4414,26.4414,0,0,0,11.2156-16.7633l.0591-.2927h.2974a7.1974,7.1974,0,0,0,7.3158-7.4975v-1.8556a7.4608,7.4608,0,0,0-3.0807-6.0669l-.1983-.144.059-.2385a28.63,28.63,0,0,0,.8381-6.86,29.4745,29.4745,0,0,0-14.1217-24.9951l-.1652-.1038-.0048-.196a16.7091,16.7091,0,0,0-33.4133,0l-.0047.196-.1652.1038a29.4716,29.4716,0,0,0-14.1241,24.9951,28.7537,28.7537,0,0,0,.8334,6.8413l.059.2384-.2007.1439a7.5067,7.5067,0,0,0-3.0736,6.1143v1.8272a7.4517,7.4517,0,0,0,5.5264,7.304,8.64,8.64,0,0,0,1.7941.1935l.29.01.0567.2832a26.38,26.38,0,0,0,11.22,16.7633l.1629.1086V174.06a2.7431,2.7431,0,0,1-1.61,2.5023l-19.4214,8.9093a17.9906,17.9906,0,0,0-8.5144,8.222c1.234,1.134,2.5188,2.2119,3.8382,3.2486a13.1264,13.1264,0,0,1,1.4869-2.7361,26.6916,26.6916,0,0,1,3.5269-3.3994,12.2284,12.2284,0,0,1,1.6831-.93l11.6076-5.3257.1393.3589a23.1506,23.1506,0,0,0,43.1889,0l.1369-.3589,11.61,5.3257a7.6972,7.6972,0,0,1,.7719.4155c.2125.1275.4792.2786.9136.5194a25.255,25.255,0,0,1,3.4749,3.338,13.4209,13.4209,0,0,1,1.53,2.7984c1.3221-1.0386,2.6095-2.1185,3.8459-3.2547A17.9943,17.9943,0,0,0,186.27,185.472ZM139.5281,99.453a11.8595,11.8595,0,0,1,22.7618,0l.203.687-.6728-.2455a32.3111,32.3111,0,0,0-21.8222,0l-.6728.2455Zm-9.6293,50.0963a4.8242,4.8242,0,0,0-5.0236-3.94,2.4154,2.4154,0,0,1-.6987-.0567l-.0071-.0023a2.6116,2.6116,0,0,1-1.7941-2.5873v-1.8272a2.54,2.54,0,0,1,1.8933-2.5425,2.3447,2.3447,0,0,1,2.2993.8805,3.4253,3.4253,0,0,0,4.7143.739,18.4692,18.4692,0,0,0,4.96-5.2384,2.4242,2.4242,0,0,0-4.0958-2.5945,13.7477,13.7477,0,0,1-2.4552,2.9131l-.2289.2054-.2408-.1959a7.2032,7.2032,0,0,0-3.4655-1.5156l-.2408-.0354-.059-.2361a23.8832,23.8832,0,0,1-.7011-5.7175c0-13.7629,11.7326-24.962,26.1541-24.962,14.4191,0,26.1518,11.1991,26.1518,24.962a23.7781,23.7781,0,0,1-.6964,5.6987l-.0614.25-.2573.0236a11.3568,11.3568,0,0,0-1.6785.2786l-.177.0448-1.9594-1.6124a4.6824,4.6824,0,0,0-3.3073-1.0835A57.0958,57.0958,0,0,1,154.4359,130.3c-8.0594-1.7-14.2327-5.059-18.3473-9.9881a2.4261,2.4261,0,0,0-3.4136-.3022,2.4257,2.4257,0,0,0-.3069,3.4136c4.8323,5.7813,11.9191,9.6906,21.0668,11.6193a62.3066,62.3066,0,0,0,15.5948,1.204l.1416-.0071,3.0194,2.4834a2.4126,2.4126,0,0,0,2.75.2243,5.7177,5.7177,0,0,1,2.5991-.347,2.5241,2.5241,0,0,1,1.9027,2.507v1.8556a2.6074,2.6074,0,0,1-1.7988,2.5849,2.0345,2.0345,0,0,1-.713.0614,4.8607,4.8607,0,0,0-5.0117,3.94,21.3633,21.3633,0,0,1-42.02,0Zm38.2078,33.2929a18.3029,18.3029,0,0,1-34.39-.0047l-.1157-.3117,3.39-1.558a7.6067,7.6067,0,0,0,4.4357-6.9121v-3.933l.4886.1794a26.18,26.18,0,0,0,17.9886,0l.4886-.1794v3.933a7.6169,7.6169,0,0,0,4.4357,6.9121l3.3948,1.5628Z" id="el_CJGuY5O6xA"/></g></g></svg>