<svg xmlns="http://www.w3.org/2000/svg" viewBox="0 0 300 300" id="el_7OKcQt5A0"><style>#el_auefAflbwl{fill: #4f4f4f;}#el_im-643qRFV{fill: #e7503d;}#el_8AeSs64NSf{fill: #e7503d;}#el_B3zodU9YOE{fill: #fff;}#el_Kg4WKK7NiZ{fill: #fff;}#el_LVCoXHx9JL{fill: #fff;}#el_BQpm9uX53H{fill: #61afbb;}#el_BWqZ-t3A3p{fill: #61afbb;}#el_ceJqDSwRg6{fill: #61afbb;}#el_ymbDU6tGkr{fill: #b5b5b5;}#el_r_Xbl-3ahw{visibility: hidden;}</style><title>Experience_Managment</title><g id="el_zVwgn4Q2iN" data-name="Journey Path"><g id="el_hhODHCmX5I"><polygon id="el_im-643qRFV" data-name="Connector 2" points="174.227 159.378 170.803 153.546 170.048 152.26 168.761 153.015 138.221 170.943 136.935 171.699 137.69 172.985 141.114 178.817 141.869 180.104 143.156 179.349 173.696 161.42 174.982 160.665 174.227 159.378"/><polygon id="el_8AeSs64NSf" data-name="Connector 1" points="167.328 105.48 168.526 106.369 169.416 105.171 173.445 99.74 174.334 98.542 173.136 97.653 146.897 78.184 145.699 77.294 144.81 78.493 140.78 83.923 139.891 85.122 141.09 86.011 167.328 105.48"/></g><path id="el_B3zodU9YOE" data-name="Ring 1" d="M144.6512,89.597q.308-.3552.6081-.7181.3653-.44.7151-.89.1584-.2041.3145-.41.4635-.6112.9-1.2386c.0179-.0258.0373-.05.0551-.0759.0156-.0225.0292-.0458.0446-.0683a37.6347,37.6347,0,0,0,2.7694-37.9888c-.1442-.2976-.3-.59-.452-.8841-.08-.1528-.1562-.3084-.2386-.46a37.59,37.59,0,0,0-25.14-18.9842c-.3069-.0677-.6187-.1212-.9283-.1814-.2668-.051-.5326-.11-.8-.1549A37.6788,37.6788,0,0,0,97.855,31.7266c-.19.1049-.3787.2141-.5675.3223q-.3481.2013-.6918.4094A37.5577,37.5577,0,0,0,85.1031,43.2242c-.5444.7832-1.0433,1.5841-1.52,2.3928-.0667.1127-.1335.2252-.199.3386q-.3264.5667-.6309,1.14-.1621.3045-.3192.6122-.2358.4644-.4583.9327-.21.4425-.409.8912c-.1.2266-.1991.4533-.2945.6812q-.2515.599-.4826,1.2083c-.0469.124-.0949.2476-.1405.372q-.2841.773-.535,1.5615c-.0084.0265-.0177.0528-.026.0792a37.7833,37.7833,0,0,0,2.3058,28.37l.0009.0017q.3467.6851.7209,1.3534c.1064.1921.2155.3827.3253.573q.2233.3842.4551.7625a37.7392,37.7392,0,0,0,31.2009,18.0805c.0547.0015.11.0026.1644.0038.7464.0162,1.4948.0181,2.2468-.01l0-.0065a37.4828,37.4828,0,0,0,14.3413-3.382c.0681-.031.1368-.0607.2046-.0921q.6357-.2959,1.2607-.6175,1.5281-.7773,2.9752-1.6921l.0082-.005a37.4653,37.4653,0,0,0,6.83-5.5258l.0031.0031c.0441-.045.0847-.0925.1285-.1377q.4668-.4827.9177-.9826Q144.4173,89.8664,144.6512,89.597Zm-9.9521-.0539-.0069-.009a31.28,31.28,0,0,1-2.846,1.9051c-.2849.1678-.5712.3333-.8617.4919-.127.07-.2553.137-.3831.205a31.0313,31.0313,0,0,1-8.6819,3.0392l.001.0054a31.1275,31.1275,0,0,1-4.7066.5183c-.4957.0178-.9895.02-1.4822.0142-.1208-.0015-.2412-.0014-.3622-.0043-.4428-.01-.8839-.0322-1.3238-.061-.14-.0091-.28-.0171-.42-.028-.5129-.04-1.0243-.0908-1.5324-.1568l-.0444-.0054A31.4257,31.4257,0,0,1,92.5078,84.843a29.6125,29.6125,0,0,1-3.379-4.6755A29.9606,29.9606,0,0,1,86.5223,73.9a31.0423,31.0423,0,0,1,15.075-36.3888c.11-.0582.2187-.1173.3289-.1741.08-.0413.16-.081.24-.1216a31.1477,31.1477,0,0,1,15.1292-3.3131c.0545.002.1088.0047.1632.007.4532.0186.9063.0487,1.3591.0873.1665.0145.3331.029.4989.0461.21.0214.4205.0432.6305.069q.5523.0687,1.099.1562c.1139.0181.2277.0379.3415.0574a31.1421,31.1421,0,0,1,21.589,15.1564c.0116.0205.0245.04.0361.0609.0487.0851.0925.1734.14.259a31.0191,31.0191,0,0,1-.9413,31.6217,31.4838,31.4838,0,0,1-2.4569,3.3242c-.49.5787-.9946,1.1476-1.53,1.6944l.0022.0022A30.7264,30.7264,0,0,1,134.6991,89.5431Z"/><path id="el_Kg4WKK7NiZ" data-name="Ring 2" d="M237.2987,159.6728q.37-.4263.73-.862.4383-.5285.8583-1.0684.19-.2449.3775-.4923.5564-.7338,1.08-1.4868c.0214-.0309.0448-.06.0662-.0911.0186-.027.0349-.0549.0535-.0819a45.1746,45.1746,0,0,0,3.3242-45.6c-.1731-.3572-.36-.7082-.5425-1.0612-.0966-.1835-.1875-.37-.2865-.5522A45.12,45.12,0,0,0,212.7836,85.59c-.3684-.0812-.7427-.1454-1.1143-.2176-.32-.0613-.6393-.1317-.96-.186a45.2275,45.2275,0,0,0-29.5819,5.0224c-.2286.1259-.4545.2569-.6812.3869q-.4179.2415-.83.4914a45.0826,45.0826,0,0,0-13.795,12.9227c-.6534.94-1.2523,1.9015-1.8249,2.8722-.08.1352-.16.27-.2389.4064q-.3918.68-.7573,1.3689-.1947.3655-.3832.7348-.283.5575-.55,1.12-.2522.5312-.4908,1.07c-.12.272-.2391.5441-.3536.8176q-.3018.7191-.5793,1.45c-.0563.1489-.1139.2972-.1686.4465q-.3411.9279-.6422,1.8744c-.01.0317-.0213.0633-.0312.0951a45.3529,45.3529,0,0,0,2.7677,34.054l.0011.002q.4162.8223.8654,1.6246c.1277.2305.2586.4593.39.6878q.2681.4611.5464.9153a45.3,45.3,0,0,0,37.4517,21.7028c.0657.0018.1315.003.1973.0045.8959.0194,1.7943.0217,2.697-.0115l0-.0077a44.9936,44.9936,0,0,0,17.2145-4.0595c.0817-.0373.1641-.0729.2456-.1106q.7631-.3553,1.5132-.7412,1.8342-.933,3.5713-2.0311l.01-.0061a44.9772,44.9772,0,0,0,8.1984-6.6327l.0037.0036c.0529-.054.1017-.111.1543-.1652q.56-.5793,1.1015-1.18Q237.0179,159.9961,237.2987,159.6728Zm-11.946-.0647-.0082-.0109a37.5247,37.5247,0,0,1-3.4162,2.2868c-.342.2014-.6857.4-1.0343.5905-.1525.0838-.3064.1645-.46.2461a37.25,37.25,0,0,1-10.4212,3.6481l.0012.0065a37.3937,37.3937,0,0,1-5.65.6221c-.5949.0213-1.1877.0236-1.7791.017-.145-.0018-.29-.0017-.4348-.0052-.5315-.012-1.0609-.0386-1.589-.0732-.1681-.0109-.3359-.02-.5042-.0336-.6158-.0487-1.23-.109-1.84-.1882l-.0533-.0064a37.7221,37.7221,0,0,1-23.4558-12.7413,35.561,35.561,0,0,1-4.0561-5.6123,35.9607,35.9607,0,0,1-3.1286-7.5235,37.2615,37.2615,0,0,1,18.0951-43.679c.1316-.07.2626-.1408.3949-.209.0954-.05.1918-.0972.2876-.146a37.3893,37.3893,0,0,1,18.16-3.9768c.0655.0024.1307.0056.196.0084.544.0224,1.0878.0584,1.6313.1048.2.0174.4.0348.5989.0554.2524.0256.5047.0518.7568.0827q.663.0827,1.3191.1875c.1368.0218.2734.0456.41.0689A37.3818,37.3818,0,0,1,235.2882,111.52c.0139.0246.0294.0485.0432.0731.0585.1022.1111.2081.1686.3109a37.2338,37.2338,0,0,1-1.13,37.9569,37.7739,37.7739,0,0,1-2.9492,3.99c-.588.6946-1.1937,1.3774-1.8366,2.0339l.0027.0026A36.8829,36.8829,0,0,1,225.3527,159.6081Z"/><path id="el_LVCoXHx9JL" data-name="Ring 3" d="M123.1574,244.323V233.9574c-.3221.1885-.6447.3762-.9725.5552-.17.0937-.3425.1839-.5141.2751a41.6334,41.6334,0,0,1-11.6477,4.0775l.0013.0072a41.7742,41.7742,0,0,1-6.3145.6953c-.665.0239-1.3275.0264-1.9886.0191-.162-.0021-.3236-.0019-.4859-.0058-.5941-.0135-1.1859-.0432-1.7761-.0819-.1878-.0121-.3755-.0229-.5636-.0375-.6882-.0544-1.3742-.1219-2.056-.21l-.0595-.0072a42.1623,42.1623,0,0,1-26.2167-14.241A39.7472,39.7472,0,0,1,66.03,218.73a40.2,40.2,0,0,1-3.4969-8.4091,41.6473,41.6473,0,0,1,20.225-48.82c.147-.078.2935-.1573.4413-.2336.1066-.0554.2144-.1087.3215-.1631a41.7887,41.7887,0,0,1,20.2976-4.445c.0732.0027.1461.0064.2191.0094.6079.0251,1.2158.0653,1.8233.1172.2235.0194.4469.0388.6694.0619.2821.0286.5641.0579.8458.0925q.741.0923,1.4745.2095c.1528.0243.3055.0509.4582.077a41.7815,41.7815,0,0,1,28.9644,20.3343c.0156.0275.0329.0541.0484.0817.0654.1142.1241.2326.1884.3475a41.6332,41.6332,0,0,1-.777,41.6341l6.6716,6.6715a50.4664,50.4664,0,0,0,3.37-50.4446c-.1935-.3992-.4022-.7916-.6064-1.1861-.1079-.205-.21-.4138-.32-.6172a50.4314,50.4314,0,0,0-33.7279-25.47c-.4118-.0908-.83-.1626-1.2455-.2433-.3579-.0685-.7145-.1472-1.0732-.2079a50.5513,50.5513,0,0,0-33.0638,5.6136c-.2554.1407-.508.2871-.7613.4324q-.4671.27-.9282.5492a50.39,50.39,0,0,0-15.4187,14.4438c-.73,1.0508-1.4,2.1253-2.04,3.21-.0894.1511-.179.3021-.2669.4542q-.4378.76-.8465,1.53-.2175.4086-.4282.8213-.3164.6232-.6149,1.2514-.2818.5937-.5486,1.1957c-.1344.304-.2672.6082-.3952.9139q-.3373.8037-.6475,1.6211c-.0629.1664-.1273.3322-.1884.499q-.3812,1.0371-.7178,2.095c-.0113.0355-.0238.0708-.0349.1063a50.6916,50.6916,0,0,0,3.0935,38.0623l.0012.0023q.4652.919.9673,1.8158c.1427.2576.289.5134.4363.7688q.3.5153.6107,1.0229a50.6323,50.6323,0,0,0,41.86,24.2573c.0734.002.147.0034.2205.0051,1.0014.0217,2.0055.0243,3.0144-.0128l0-.0086A50.2916,50.2916,0,0,0,123.1574,244.323Z"/></g><g id="el_-hkjKCcavD"><path id="el_BQpm9uX53H" data-name="Customer 3" d="M117.6389,213.4116a2.799,2.799,0,0,1-1.6849-2.6v-3.8967a16.8493,16.8493,0,0,0,3.7048-7.666,4.5108,4.5108,0,0,0,.92-.1316,5.0424,5.0424,0,0,0,3.5936-4.9627v-1.138a5.28,5.28,0,0,0-1.2813-3.458c1.2827-7.5408.1608-13.7143-3.2492-17.8644-3.341-4.0662-8.6922-6.0123-15.5-5.6223A19.6182,19.6182,0,0,0,92.59,170.5282c-1.8.2841-6.8826,1.7533-6.8826,9.21a41.1613,41.1613,0,0,0,.9748,8.8895,5.1463,5.1463,0,0,0-2.3609,4.4056v1.121a5.0435,5.0435,0,0,0,3.594,4.9627,4.5073,4.5073,0,0,0,.9194.1311,16.86,16.86,0,0,0,3.7048,7.6665v3.8962a2.7994,2.7994,0,0,1-1.6843,2.6008L80.2286,217.72A11.1532,11.1532,0,0,0,74.531,223.02a22.8315,22.8315,0,0,0,3.07,2.7273l1.1146-2.1531a7.1653,7.1653,0,0,1,2.9-2.1778l7.6665-3.1079a17.2848,17.2848,0,0,0,5.239,7.0662,15.5949,15.5949,0,0,0,19.5454-.0739,17.0412,17.0412,0,0,0,5.1482-6.9914l5.47,2.2167.2273-.3225a7.5129,7.5129,0,0,1,2.2215-2.0889l.8383-.5148ZM92.51,198.1087a3.3682,3.3682,0,0,0-3.2235-2.8354c-.0762,0-.1534.0029-.2307.0087a.7668.7668,0,0,1-.25-.0233,1.1286,1.1286,0,0,1-.6683-1.1039v-1.121a1.0735,1.0735,0,0,1,.697-1.07.825.825,0,0,1,.8436.3439,2.5039,2.5039,0,0,0,1.2642.9277,2.4269,2.4269,0,0,0,2.1769-.3672,11.9628,11.9628,0,0,0,3.7591-5.39,2.0082,2.0082,0,0,0-1.2234-2.4887,1.8339,1.8339,0,0,0-1.4366.1049,1.9453,1.9453,0,0,0-.9748,1.1763,7.9846,7.9846,0,0,1-1.55,2.6048,4.6043,4.6043,0,0,0-1.1705-.6266,37.2055,37.2055,0,0,1-1-8.5106c0-2.2448.6377-3.8082,1.8947-4.6465a4.253,4.253,0,0,1,1.9724-.6732,1.86,1.86,0,0,0,1.33-.5619,15.7683,15.7683,0,0,1,9.6311-3.8238c5.563-.3181,9.852,1.1486,12.39,4.2386,2.5173,3.0641,3.39,7.801,2.5314,13.7191h-.001l-.0568-.798a2.0154,2.0154,0,0,0-.5644-1.2686,28.9494,28.9494,0,0,0-7.5188-5.1968,23.229,23.229,0,0,0-18.4973-1.1851,2.0109,2.0109,0,0,0-1.1685,2.5163,1.9421,1.9421,0,0,0,1.0005,1.154,1.8348,1.8348,0,0,0,1.4391.0709,19.3536,19.3536,0,0,1,15.5307,1,26.7906,26.7906,0,0,1,6.03,3.9957l.1608,2.2711a1.9789,1.9789,0,0,0,1.0044,1.6057,1.8531,1.8531,0,0,0,1.8582-.0365,2.98,2.98,0,0,1,1.155-.1554,1.05,1.05,0,0,1,.7129,1.052v1.1385a1.1281,1.1281,0,0,1-.6688,1.1034.7552.7552,0,0,1-.25.0233,3.35,3.35,0,0,0-3.4537,2.8277,11.8351,11.8351,0,0,1-23.476,0Zm11.738,26.7034a12.314,12.314,0,0,1-11.4267-7.9784,6.8718,6.8718,0,0,0,3.5353-6.0224v-.644a15.07,15.07,0,0,0,15.7823,0v.644a6.871,6.871,0,0,0,3.5348,6.022A12.51,12.51,0,0,1,104.2476,224.8121Z"/><path id="el_BWqZ-t3A3p" data-name="Customer 2" d="M126.6817,76.5393a2.0966,2.0966,0,0,1-1.3359-1.9454V71.68a12.3863,12.3863,0,0,0,2.9255-5.7478,3.7128,3.7128,0,0,0,.7368-.0981,3.8015,3.8015,0,0,0,2.8272-3.7194v-.8529a3.8487,3.8487,0,0,0-1.01-2.595c1.0112-5.6511.1244-10.2768-2.5685-13.3866-2.6336-3.0414-6.8581-4.4945-12.215-4.2051a15.9049,15.9049,0,0,0-9.1094,3.3374c-1.4095.2091-5.43,1.3014-5.43,6.902a29.3725,29.3725,0,0,0,.7681,6.6549,3.8125,3.8125,0,0,0-1.8626,3.3053v.84a3.8019,3.8019,0,0,0,2.8269,3.7191,3.6952,3.6952,0,0,0,.7368.0981,12.3846,12.3846,0,0,0,2.9255,5.7481v2.9134a2.0971,2.0971,0,0,1-1.3361,1.9454l-8.39,3.2273A8.6033,8.6033,0,0,0,94.6842,81.25q.3915.49.8047.9584c.3851.4357.7823.8521,1.1848,1.26a5.66,5.66,0,0,1,1.5642-.9257l6.0817-2.3393a13.0211,13.0211,0,0,0,4.1417,5.3078,12.7982,12.7982,0,0,0,15.3935-.0549,12.8335,12.8335,0,0,0,4.07-5.2522l6.08,2.3386a5.657,5.657,0,0,1,1.561.9231c.3561-.3732.7267-.7867,1.152-1.2891.2709-.3216.53-.648.7827-.9759a8.6071,8.6071,0,0,0-2.4284-1.4338ZM106.8335,65.0745v0a2.6049,2.6049,0,0,0-2.5248-2.1218c-.0593,0-.119.0022-.1787.0066a.7508.7508,0,0,1-.21-.0182.8337.8337,0,0,1-.5386-.8257v-.84a.7976.7976,0,0,1,.5637-.8.6945.6945,0,0,1,.6942.2639,1.9488,1.9488,0,0,0,2.6766.4182,8.9845,8.9845,0,0,0,2.9664-4.0379,1.4867,1.4867,0,1,0-2.8291-.9153,5.9448,5.9448,0,0,1-1.2393,1.9672,3.7042,3.7042,0,0,0-.949-.4854,26.5017,26.5017,0,0,1-.789-6.3707,3.8046,3.8046,0,0,1,1.4976-3.4756,3.5174,3.5174,0,0,1,1.5756-.5094,1.4786,1.4786,0,0,0,1.0294-.4143,12.785,12.785,0,0,1,7.6235-2.8711c4.4042-.2383,7.7977.8628,9.8067,3.1824,1.9859,2.2936,2.6742,5.84,1.9969,10.27l-.04.001-.0447-.6a1.4863,1.4863,0,0,0-.4473-.9561,22.92,22.92,0,0,0-5.9312-3.8893,19.21,19.21,0,0,0-14.5775-.8867,1.4868,1.4868,0,0,0,.9789,2.8078,16.0677,16.0677,0,0,1,12.2909.75A21.2732,21.2732,0,0,1,125,57.72l.1265,1.6967a1.4864,1.4864,0,0,0,2.2244,1.1781,2.4762,2.4762,0,0,1,.9362-.1193.7939.7939,0,0,1,.5745.7871v.8528a.8335.8335,0,0,1-.5391.8257.6943.6943,0,0,1-.2086.0182,2.5976,2.5976,0,0,0-2.7038,2.1154,9.4443,9.4443,0,0,1-18.5769,0Zm9.2882,20.0082a9.7369,9.7369,0,0,1-9.0388-5.9729,5.1142,5.1142,0,0,0,2.7883-4.5159v-.5a12.41,12.41,0,0,0,12.501,0v.4993A5.1134,5.1134,0,0,0,125.16,79.11,9.893,9.893,0,0,1,116.1217,85.0827Z"/><path id="el_ceJqDSwRg6" data-name="Customer 1" d="M227.1652,147.9126l-10.6729-4.1054a2.706,2.706,0,0,1-1.7251-2.5113v-3.7213a15.7086,15.7086,0,0,0,3.7286-7.3343,4.6448,4.6448,0,0,0,.96-.1248,4.7955,4.7955,0,0,0,3.5663-4.6927v-1.0847a4.8553,4.8553,0,0,0-1.288-3.2886c1.29-7.185.1656-13.0649-3.255-17.0142-3.3415-3.859-8.704-5.7068-15.5055-5.3355a20.1915,20.1915,0,0,0-11.5728,4.2432c-1.7747.2608-6.8836,1.6353-6.8836,8.742a37.2828,37.2828,0,0,0,.983,8.4844,4.8076,4.8076,0,0,0-2.375,4.1849v1.0685a4.7964,4.7964,0,0,0,3.5654,4.6925,4.6658,4.6658,0,0,0,.96.1248,15.7116,15.7116,0,0,0,3.7286,7.3345v3.7211a2.7062,2.7062,0,0,1-1.7247,2.5112l-10.6729,4.1057a10.9494,10.9494,0,0,0-2.3876,1.28c.47.6214.9561,1.2292,1.4687,1.8089.313.3542.6326.6981.9552,1.037a7.2221,7.2221,0,0,1,1.2935-.6693l7.7715-2.9889a16.5207,16.5207,0,0,0,5.27,6.77,16.2393,16.2393,0,0,0,19.5332-.07,16.2848,16.2848,0,0,0,5.18-6.7l7.77,2.9885a7.22,7.22,0,0,1,1.2487.6416c.2891-.3182.5907-.6621.9194-1.0506.51-.6051.9924-1.2214,1.448-1.8424A10.9639,10.9639,0,0,0,227.1652,147.9126ZM191.22,129.1942a3.2715,3.2715,0,0,0-3.3964-2.6584.9229.9229,0,0,1-.2793-.0241,1.1,1.1,0,0,1-.7154-1.0884v-1.0682a1.0552,1.0552,0,0,1,.7489-1.0569.9243.9243,0,0,1,.9219.35,2.439,2.439,0,0,0,3.35.5238,11.3809,11.3809,0,0,0,3.7587-5.1161,1.8515,1.8515,0,1,0-3.5231-1.14,7.6405,7.6405,0,0,1-1.6091,2.5425,4.675,4.675,0,0,0-1.2458-.6391,33.7623,33.7623,0,0,1-1.01-8.1338c0-2.1484.6469-3.647,1.9233-4.4542a4.5159,4.5159,0,0,1,2.0253-.6542,1.8418,1.8418,0,0,0,1.2817-.5155,16.315,16.315,0,0,1,9.7224-3.6636c5.6169-.3035,9.9424,1.1018,12.5064,4.0621,2.5386,2.9318,3.4153,7.4654,2.544,13.1268-.04.0007-.0811.0017-.1214.0031l-.0593-.8a1.851,1.851,0,0,0-.5571-1.1912,29.0155,29.0155,0,0,0-7.5334-4.94,24.3882,24.3882,0,0,0-18.5133-1.1266,1.8518,1.8518,0,1,0,1.2186,3.4974,20.4676,20.4676,0,0,1,15.6633.9559,27.05,27.05,0,0,1,6.0836,3.8272l.1623,2.1744a1.8517,1.8517,0,0,0,2.7718,1.467,3.1346,3.1346,0,0,1,1.2166-.1557,1.05,1.05,0,0,1,.763,1.04v1.0848a1.1,1.1,0,0,1-.7159,1.0884.905.905,0,0,1-.2778.0243,3.2622,3.2622,0,0,0-3.3974,2.6586,12.0527,12.0527,0,0,1-23.7076,0Zm11.8536,25.483a12.4255,12.4255,0,0,1-11.5481-7.6555,6.4651,6.4651,0,0,0,3.5581-5.7258v-.7037a15.7457,15.7457,0,0,0,15.98,0v.7037a6.4652,6.4652,0,0,0,3.5577,5.7255A12.6231,12.6231,0,0,1,203.0734,154.6772Z"/></g><g id="el_w62s7aex-n"><path id="el_ymbDU6tGkr" data-name="Click" d="M157.6877,246.6862l-23.7718-23.7717a2.9593,2.9593,0,0,0-5.0507,2.0926v32.9145a2.9567,2.9567,0,0,0,4.7864,2.3237l4.3959-3.4368,4.2623,7.6706a2.9609,2.9609,0,0,0,3.9117,1.2081l7.1315-3.5658a2.9591,2.9591,0,0,0,1.27-4.0709l-3.5088-6.3136h4.4805a2.9593,2.9593,0,0,0,2.0926-5.0507ZM143.5,250.2176l4.4443,7.9966-1.8357.9182-4.5663-8.2221a2.96,2.96,0,0,0-4.4119-.8948l-2.35,1.8373V232.1481l13.6753,13.6752h-2.3676a2.9607,2.9607,0,0,0-2.5883,4.3943Z"/></g></svg>