<svg xmlns="http://www.w3.org/2000/svg" viewBox="0 0 105 105" id="el_J4cI4VBYy"><style>@-webkit-keyframes kf_el_V-3UucNdIM_an_WKfrA-DZy{0%{-webkit-transform: translate(53.196550369262695px, 58.40599822998047px) scale(0, 0) translate(-53.196550369262695px, -58.40599822998047px);transform: translate(53.196550369262695px, 58.40599822998047px) scale(0, 0) translate(-53.196550369262695px, -58.40599822998047px);}88.89%{-webkit-transform: translate(53.196550369262695px, 58.40599822998047px) scale(1.04, 1.04) translate(-53.196550369262695px, -58.40599822998047px);transform: translate(53.196550369262695px, 58.40599822998047px) scale(1.04, 1.04) translate(-53.196550369262695px, -58.40599822998047px);}100%{-webkit-transform: translate(53.196550369262695px, 58.40599822998047px) scale(1, 1) translate(-53.196550369262695px, -58.40599822998047px);transform: translate(53.196550369262695px, 58.40599822998047px) scale(1, 1) translate(-53.196550369262695px, -58.40599822998047px);}}@keyframes kf_el_V-3UucNdIM_an_WKfrA-DZy{0%{-webkit-transform: translate(53.196550369262695px, 58.40599822998047px) scale(0, 0) translate(-53.196550369262695px, -58.40599822998047px);transform: translate(53.196550369262695px, 58.40599822998047px) scale(0, 0) translate(-53.196550369262695px, -58.40599822998047px);}88.89%{-webkit-transform: translate(53.196550369262695px, 58.40599822998047px) scale(1.04, 1.04) translate(-53.196550369262695px, -58.40599822998047px);transform: translate(53.196550369262695px, 58.40599822998047px) scale(1.04, 1.04) translate(-53.196550369262695px, -58.40599822998047px);}100%{-webkit-transform: translate(53.196550369262695px, 58.40599822998047px) scale(1, 1) translate(-53.196550369262695px, -58.40599822998047px);transform: translate(53.196550369262695px, 58.40599822998047px) scale(1, 1) translate(-53.196550369262695px, -58.40599822998047px);}}#el_J4cI4VBYy *{-webkit-animation-duration: 3s;animation-duration: 3s;-webkit-animation-iteration-count: 1;animation-iteration-count: 1;-webkit-animation-timing-function: cubic-bezier(0, 0, 1, 1);animation-timing-function: cubic-bezier(0, 0, 1, 1);}#el_Z5wZF5_vzP{fill: #e74f3d;stroke: #e74f3d;stroke-miterlimit: 10;}#el_zIVN-GGYrf{fill: #cfd3d3;}#el_S7_3X1ZrVR{fill: #cfd3d3;}#el_V-3UucNdIM_an_WKfrA-DZy{-webkit-animation-fill-mode: forwards;animation-fill-mode: forwards;-webkit-transform: translate(53.196550369262695px, 58.40599822998047px) scale(0, 0) translate(-53.196550369262695px, -58.40599822998047px);transform: translate(53.196550369262695px, 58.40599822998047px) scale(0, 0) translate(-53.196550369262695px, -58.40599822998047px);-webkit-animation-name: kf_el_V-3UucNdIM_an_WKfrA-DZy;animation-name: kf_el_V-3UucNdIM_an_WKfrA-DZy;-webkit-animation-timing-function: cubic-bezier(0.42, 0, 0.58, 1);animation-timing-function: cubic-bezier(0.42, 0, 0.58, 1);}</style><title>Home_products</title><g id="el_Hdp1MggVKA"><path id="el_Z5wZF5_vzP" data-name="Box" d="M103.3486,65.5137a1.2134,1.2134,0,0,0-.3427-1.0576L90.4219,51.8716l13.164-13.1646a1.2264,1.2264,0,0,0-.31-1.9594L83.1484,26.4883a30.1318,30.1318,0,0,1,.3145,3.8813L99.209,38.397,88.21,49.395l-9.3731-4.7778a4.6264,4.6264,0,0,1-.7246,3.3618l6.7617,3.4487L53.4033,67.4844l-31.5044-16.06,6.458-3.2934c-.0273-.0357-.0547-.0723-.08-.1094a4.7,4.7,0,0,1-.7881-3.1685l-8.5044,4.334-11-10.9985,14.9077-7.5991a29.6968,29.6968,0,0,1,.2969-3.8721L3.918,36.54a1.2254,1.2254,0,0,0-.31,1.958L16.3457,51.2363,3.3594,64.2217a1.2267,1.2267,0,0,0,.3105,1.96L39.0444,84.2129a1.2256,1.2256,0,0,0,1.4239-.2256L51.7324,72.7227V98.5811L19.9082,82.3467v-3.666L16.605,76.9961v6.3613a1.6366,1.6366,0,0,0,.8984,1.47l35.1353,17.9268a1.6859,1.6859,0,0,0,1.4961-.0039l35.123-17.9189a1.6434,1.6434,0,0,0,.9043-1.4737v-6.332L86.8574,78.71v3.6367L55.0361,98.5811V73.3594L65.8975,84.2207a1.22,1.22,0,0,0,1.4228.2256l35.374-18.0313A1.2113,1.2113,0,0,0,103.3486,65.5137ZM39.1978,80.5693,7.7358,64.5322l11-10.999L50.1963,69.57Zm27.97.2344L56.1689,69.8047l31.46-16.0371,11,10.999Z"/></g><g id="el_V-3UucNdIM_an_WKfrA-DZy" data-animator-group="true" data-animator-type="2"><g id="el_V-3UucNdIM"><path id="el_zIVN-GGYrf" data-name="Gear" d="M80.5046,34.713l.1127-.5957a15.0492,15.0492,0,0,0,.3435-2.9573l.0045-.4774-.0212-.9209a15.2647,15.2647,0,0,0-.3224-2.428l-.116-.6124a2.9067,2.9067,0,0,0-2.27-2.2969l-.9839-.2-.4451-1.3755c-.0469-.1444-.0881-.2739-.1339-.4016-.0624-.1773-.1305-.3525-.1985-.5243l-.2756-.7106c-.0558-.1344-.1171-.27-.1774-.4038L75.8361,20.4c-.0647-.1495-.1194-.2727-.1819-.4033-.0736-.1522-.155-.31-.2554-.5042L74.8075,18.28l.5745-.8227a2.65,2.65,0,0,0,.0569-3.0409,4.6552,4.6552,0,0,0-.3614-.5377,35.3913,35.3913,0,0,0-5.1158-5.1c-.19-.1338-.2979-.2024-.3838-.2521a2.608,2.608,0,0,0-3.04.03l-.8311.5645L64.48,8.5046c-.1807-.0948-.3447-.1807-.5-.2555-.14-.0669-.2789-.1294-.4094-.1879l-.3146-.1422c-.1852-.0843-.3436-.1568-.5031-.2232l-.6649-.2615c-.1985-.0781-.39-.1534-.5812-.2215l-1.7993-.6007-.1953-.9733a2.78,2.78,0,0,0-2.0637-2.1731,10.6092,10.6092,0,0,0-2.8044-.4545L54.4011,3l-1.1769.0056-1.2907-.0028-.2354.0111a10.3658,10.3658,0,0,0-2.7275.45,2.797,2.797,0,0,0-2.0687,2.18l-.198.9728-1.4112.4668c-.1394.0446-.2632.0848-.3882.1294-.19.0686-.3815.1434-.5672.2164L43.649,7.7c-.16.067-.3319.1462-.5.2226l-.2582.1171c-.2058.0921-.3258.1456-.4384.2008-.1646.0781-.3157.1573-.4591.2326l-1.2.6163L39.91,8.5777a2.6428,2.6428,0,0,0-3.0917-.0413,2.2,2.2,0,0,0-.2114.1361,35.1551,35.1551,0,0,0-5.3105,5.257,4.21,4.21,0,0,0-.3363.5137,2.5674,2.5674,0,0,0,.07,3.0113l.5923.8434-.62,1.2187c-.0921.1768-.169.3252-.2427.48-.0591.1216-.1115.2388-.1824.4005l-.1294.2884c-.0831.1818-.16.3536-.2392.5427-.0463.1127-.0932.2337-.1356.3458l-.1.26c-.102.2622-.17.4362-.2287.6024-.0429.1188-.08.2332-.1115.3352L29.21,24.04l-.9426.36a2.9447,2.9447,0,0,0-2.3555,2.2991l-.1188.627a16.9385,16.9385,0,0,0-.2934,1.9867l-.0619.7993.0078.4557-.0178,1.0207.07.5466a17.1792,17.1792,0,0,0,.2923,1.9489l.1154.6079a2.9133,2.9133,0,0,0,2.2662,2.2952l1.0074.2075.4981,1.5713a24.5973,24.5973,0,0,0,1.4987,3.471l.4975.9945-.54.8243a2.9043,2.9043,0,0,0,.0357,3.2245,17.607,17.607,0,0,0,5.54,5.5241,2.9143,2.9143,0,0,0,3.2094.0335l.8439-.5444.8879.4708a25.0568,25.0568,0,0,0,3.0956,1.3776l.1769.067c.136.0485.3039.1026.4824.1606l1.1987.3927.28.9432a3.06,3.06,0,0,0,2.1128,2.2511,10.8976,10.8976,0,0,0,1.6639.3425c.169.0223.348.0413.5354.058.1322.0123.2733.0223.49.0357l2.9009.0134.6426-.05c.1729-.0156.3525-.0357.5812-.0658a10.6034,10.6034,0,0,0,1.6108-.3347A3.04,3.04,0,0,0,59.52,55.7458l.2-.9153,1.2528-.45c.2-.0647.37-.1193.5644-.19l.11-.0418a25.0155,25.0155,0,0,0,3.1146-1.3849l.8879-.4714.8456.5461a2.9036,2.9036,0,0,0,3.206-.0312,17.637,17.637,0,0,0,5.5465-5.5309,2.8967,2.8967,0,0,0,.0346-3.2211l-.531-.8087.4161-.8729a25.2754,25.2754,0,0,0,1.5472-3.5463v-.0006c.08-.2326.1573-.4585.2231-.671l.3034-.9671.994-.2008A2.8941,2.8941,0,0,0,80.5046,34.713Zm-4.248-.4747c-.309.0486-.589.0993-.8455.154-.0525.3084-.1016.5728-.1562.8361l-.07.3341c-.0814.3681-.1684.73-.2688,1.0887l-.029.1149c-.1116.3966-.2321.7742-.3593,1.149l-.1483.4206c-.0893.2443-.18.4763-.2722.7078-.087.2214-.145.3653-.2053.507-.0591.1361-.1238.2767-.1885.4178l-.0781.1651c-.1651.3575-.338.71-.5221,1.0586a22.8284,22.8284,0,0,1-1.6074,2.6171c.1294.1952.2733.3993.4339.6163a2.9287,2.9287,0,0,1-.2231,3.7515c-.3592.3793-.7407.7592-1.1334,1.129a2.956,2.956,0,0,1-3.73.2259c-.2276-.1612-.4474-.3107-.6593-.4457a23.22,23.22,0,0,1-4.8046,2.58c-.203.0787-.4005.154-.5991.2254l-.4629.1634c-.3681.1233-.7262.2343-1.0877.3352l-.1907.0508c-.4195.11-.7363.1868-1.0564.2565l-.2968.0636c-.2576.0525-.5142.1015-.7719.145-.0524.2488-.1015.5182-.1473.8138a2.627,2.627,0,0,1-1.7926,2.2105,6.7764,6.7764,0,0,1-1.767.213,6.555,6.555,0,0,1-1.7877-.2142,2.6125,2.6125,0,0,1-1.79-2.2043c-.0463-.2989-.0959-.57-.15-.8188-.256-.0435-.5109-.092-.7652-.1433l-.2092-.0446c-.4167-.0909-.7351-.1685-1.052-.2521l-.2772-.0725c-.3726-.1043-.7312-.2159-1.0871-.3341l-.4071-.1434c-.2678-.0965-.4647-.1712-.6615-.2482a23.2434,23.2434,0,0,1-4.81-2.5819c-.2114.1355-.434.2861-.6654.45a2.9487,2.9487,0,0,1-3.717-.2242c-.4-.3759-.7809-.7547-1.1379-1.1323a2.9289,2.9289,0,0,1-.2247-3.7543c.16-.217.3039-.4211.4334-.6169A22.841,22.841,0,0,1,33.2991,41.19q-.277-.5238-.5244-1.0615c-.1215-.261-.1957-.42-.2643-.5811l-.2042-.5015c-.0942-.2342-.1835-.4668-.2677-.7l-.1489-.4172c-.1311-.3876-.2521-.7652-.36-1.1473l-.0362-.1422c-.0965-.352-.1852-.7123-.265-1.0749l-.0714-.3346c-.0574-.2811-.1087-.5589-.155-.8372-.2572-.0547-.5372-.106-.8462-.154a2.9717,2.9717,0,0,1-2.4815-2.7844c-.0128-.2487-.0184-.4964-.0189-.7451,0-.2538.0055-.5.0184-.7508A2.9567,2.9567,0,0,1,30.18,27.172c.2995-.0474.5728-.0982.826-.1529l.0748-.42c.03-.1757.0607-.3541.0981-.531.0352-.1656.0759-.3313.1171-.4969l.0809-.3319c.04-.1723.0826-.35.1317-.5249.044-.1611.0965-.3268.1489-.4919l.1071-.3453c.0479-.16.0981-.324.1545-.4869s.1165-.3207.1785-.4791l.12-.3174c.0619-.1668.126-.3369.1958-.5053.0624-.1489.1288-.2962.1963-.4434l.1489-.3308c.0831-.1857.1528-.3414.2287-.4953.072-.1484.1523-.299.2331-.449l.1651-.3124c.08-.1539.1624-.3123.251-.4679.0837-.1478.1741-.294.2644-.44l.19-.3118c.0865-.1439.1757-.2911.27-.4356.1009-.154.2047-.3018.3095-.449l.217-.31.0229-.0341c-.1311-.1985-.2761-.4055-.4379-.6241a2.931,2.931,0,0,1,.0536-3.5507l-.02-.02.647-.6565.0089.0067.56-.5549a2.9766,2.9766,0,0,1,3.717-.2438c.2309.1629.4535.3124.666.4462l.0769-.053.3163-.2208c.1305-.0921.2633-.1858.4-.275.1528-.1.3079-.1936.4635-.2867l.31-.1891c.1344-.0831.2711-.1673.41-.2471.1562-.0892.3129-.1712.47-.2527l.3207-.1695c.1434-.0764.2906-.1551.44-.2281s.3051-.1434.4607-.2126l.3414-.155c.1511-.0692.3056-.1395.4618-.2047.1523-.063.3068-.1216.4613-.1791l.3541-.1344c.1568-.0608.318-.1232.4814-.18.16-.0552.3218-.1048.4853-.1545l.3218-.1c.1684-.0535.3408-.1082.5159-.1567.1623-.0452.3246-.0837.487-.1227l.35-.0854c.174-.0435.3408-.0853.51-.1215.1607-.0341.3213-.062.4825-.09l.4-.0713.06-.0112c.0552-.2521.1065-.5282.1556-.8339a2.6568,2.6568,0,0,1,1.7129-2.168,4.388,4.388,0,0,1,.9549-.2019l.88-.0458.8746.0419a4.4821,4.4821,0,0,1,1,.2069,2.6558,2.6558,0,0,1,1.71,2.1669c.0491.3068.1.5829.1551.8333.0211.0045.0435.0084.0658.0123l.3614.0653c.1684.029.3414.0591.5131.0954.1685.0356.3325.0764.4965.1176l.35.0854c.1651.039.3336.0792.502.126s.3336.0993.4976.1512l.3625.1138c.1517.0452.3079.0937.463.1472.1517.0525.3023.11.4517.1679l.3637.1383c.1584.0586.3224.12.4842.188.1539.0641.309.1344.4629.2053l.3224.1461c.1573.07.3179.1417.4774.22.1339.0658.2633.1349.3949.2047l.3559.1885c.1573.082.3168.1651.4741.2543.1461.0837.2878.1707.43.2583l.3112.19c.1517.092.3.1813.444.275s.2766.1874.4094.2817l.3068.2153c.0267.0184.0535.0368.08.0546.2131-.1344.4362-.2833.6671-.4467a2.958,2.958,0,0,1,3.6868.2169l1.0542,1.0548a2.941,2.941,0,0,1,.2265,3.7454c-.1618.22-.3079.4272-.44.6275l.0112.0167.22.3135c.1149.1634.22.31.318.4612.0948.1451.184.2923.2722.44l.1818.2989c.0915.1445.1829.2962.2711.4507s.1729.3157.2565.4774l.1651.3129c.0926.1741.1629.3063.2287.44.0815.17.1584.3385.2332.5081l.1361.3023c.0691.1484.1394.3029.2052.46.07.1707.135.3441.1986.5171l.1127.2945c.0781.2041.13.3413.1785.4808.0635.1823.1171.358.1695.5343l.0993.32c.0491.1567.0993.3151.1439.4758.0491.1773.09.3514.1316.5259l.0882.3626c.0379.15.0758.3057.11.4635.0379.1846.0692.3631.0993.541l.0736.4133c.2532.0553.5254.1055.8222.1518a2.96,2.96,0,0,1,2.5088,2.7882c.0134.2494.0178.4931.019.7374-.0012.2616-.0067.5059-.019.7535A2.9761,2.9761,0,0,1,76.2566,34.2383Z"/><path id="el_S7_3X1ZrVR" data-name="Gear" d="M53.2063,16.66A14.0452,14.0452,0,1,0,67.2509,30.7043,14.0608,14.0608,0,0,0,53.2063,16.66Zm0,25.5631A11.5182,11.5182,0,1,1,64.7242,30.7043,11.5314,11.5314,0,0,1,53.2063,42.2228Z"/></g></g></svg>