<svg xmlns="http://www.w3.org/2000/svg" viewBox="0 0 400 222" id="el_nKnaSfHCj"><style>@-webkit-keyframes kf_el_koid6t-M2Fp_an_7r7LzyQEx{7.50%{-webkit-transform: translate(68.9062385559082px, 130.46920776367188px) rotate(0deg) translate(-68.9062385559082px, -130.46920776367188px);transform: translate(68.9062385559082px, 130.46920776367188px) rotate(0deg) translate(-68.9062385559082px, -130.46920776367188px);}75%{-webkit-transform: translate(68.9062385559082px, 130.46920776367188px) rotate(-360deg) translate(-68.9062385559082px, -130.46920776367188px);transform: translate(68.9062385559082px, 130.46920776367188px) rotate(-360deg) translate(-68.9062385559082px, -130.46920776367188px);}100%{-webkit-transform: translate(68.9062385559082px, 130.46920776367188px) rotate(-360deg) translate(-68.9062385559082px, -130.46920776367188px);transform: translate(68.9062385559082px, 130.46920776367188px) rotate(-360deg) translate(-68.9062385559082px, -130.46920776367188px);}}@keyframes kf_el_koid6t-M2Fp_an_7r7LzyQEx{7.50%{-webkit-transform: translate(68.9062385559082px, 130.46920776367188px) rotate(0deg) translate(-68.9062385559082px, -130.46920776367188px);transform: translate(68.9062385559082px, 130.46920776367188px) rotate(0deg) translate(-68.9062385559082px, -130.46920776367188px);}75%{-webkit-transform: translate(68.9062385559082px, 130.46920776367188px) rotate(-360deg) translate(-68.9062385559082px, -130.46920776367188px);transform: translate(68.9062385559082px, 130.46920776367188px) rotate(-360deg) translate(-68.9062385559082px, -130.46920776367188px);}100%{-webkit-transform: translate(68.9062385559082px, 130.46920776367188px) rotate(-360deg) translate(-68.9062385559082px, -130.46920776367188px);transform: translate(68.9062385559082px, 130.46920776367188px) rotate(-360deg) translate(-68.9062385559082px, -130.46920776367188px);}}@-webkit-keyframes kf_el_9YeC4YVrTd9_an_DIQjZPBBp{12.50%{-webkit-transform: translate(180.16010284423828px, 119.4000015258789px) rotate(0deg) translate(-180.16010284423828px, -119.4000015258789px);transform: translate(180.16010284423828px, 119.4000015258789px) rotate(0deg) translate(-180.16010284423828px, -119.4000015258789px);}75%{-webkit-transform: translate(180.16010284423828px, 119.4000015258789px) rotate(360deg) translate(-180.16010284423828px, -119.4000015258789px);transform: translate(180.16010284423828px, 119.4000015258789px) rotate(360deg) translate(-180.16010284423828px, -119.4000015258789px);}100%{-webkit-transform: translate(180.16010284423828px, 119.4000015258789px) rotate(360deg) translate(-180.16010284423828px, -119.4000015258789px);transform: translate(180.16010284423828px, 119.4000015258789px) rotate(360deg) translate(-180.16010284423828px, -119.4000015258789px);}}@keyframes kf_el_9YeC4YVrTd9_an_DIQjZPBBp{12.50%{-webkit-transform: translate(180.16010284423828px, 119.4000015258789px) rotate(0deg) translate(-180.16010284423828px, -119.4000015258789px);transform: translate(180.16010284423828px, 119.4000015258789px) rotate(0deg) translate(-180.16010284423828px, -119.4000015258789px);}75%{-webkit-transform: translate(180.16010284423828px, 119.4000015258789px) rotate(360deg) translate(-180.16010284423828px, -119.4000015258789px);transform: translate(180.16010284423828px, 119.4000015258789px) rotate(360deg) translate(-180.16010284423828px, -119.4000015258789px);}100%{-webkit-transform: translate(180.16010284423828px, 119.4000015258789px) rotate(360deg) translate(-180.16010284423828px, -119.4000015258789px);transform: translate(180.16010284423828px, 119.4000015258789px) rotate(360deg) translate(-180.16010284423828px, -119.4000015258789px);}}@-webkit-keyframes kf_el_YDeHEgHbo3c_an_tVWGAZy1i{12.50%{-webkit-transform: translate(180.15528869628906px, 119.29999160766602px) rotate(0deg) translate(-180.15528869628906px, -119.29999160766602px);transform: translate(180.15528869628906px, 119.29999160766602px) rotate(0deg) translate(-180.15528869628906px, -119.29999160766602px);}75%{-webkit-transform: translate(180.15528869628906px, 119.29999160766602px) rotate(-360deg) translate(-180.15528869628906px, -119.29999160766602px);transform: translate(180.15528869628906px, 119.29999160766602px) rotate(-360deg) translate(-180.15528869628906px, -119.29999160766602px);}100%{-webkit-transform: translate(180.15528869628906px, 119.29999160766602px) rotate(-360deg) translate(-180.15528869628906px, -119.29999160766602px);transform: translate(180.15528869628906px, 119.29999160766602px) rotate(-360deg) translate(-180.15528869628906px, -119.29999160766602px);}}@keyframes kf_el_YDeHEgHbo3c_an_tVWGAZy1i{12.50%{-webkit-transform: translate(180.15528869628906px, 119.29999160766602px) rotate(0deg) translate(-180.15528869628906px, -119.29999160766602px);transform: translate(180.15528869628906px, 119.29999160766602px) rotate(0deg) translate(-180.15528869628906px, -119.29999160766602px);}75%{-webkit-transform: translate(180.15528869628906px, 119.29999160766602px) rotate(-360deg) translate(-180.15528869628906px, -119.29999160766602px);transform: translate(180.15528869628906px, 119.29999160766602px) rotate(-360deg) translate(-180.15528869628906px, -119.29999160766602px);}100%{-webkit-transform: translate(180.15528869628906px, 119.29999160766602px) rotate(-360deg) translate(-180.15528869628906px, -119.29999160766602px);transform: translate(180.15528869628906px, 119.29999160766602px) rotate(-360deg) translate(-180.15528869628906px, -119.29999160766602px);}}@-webkit-keyframes kf_el_HrafPwk68-0_an_pz-Gi8vBA{12.50%{-webkit-transform: translate(300.0360794067383px, 84.39759063720703px) rotate(0deg) translate(-300.0360794067383px, -84.39759063720703px);transform: translate(300.0360794067383px, 84.39759063720703px) rotate(0deg) translate(-300.0360794067383px, -84.39759063720703px);}75%{-webkit-transform: translate(300.0360794067383px, 84.39759063720703px) rotate(-360deg) translate(-300.0360794067383px, -84.39759063720703px);transform: translate(300.0360794067383px, 84.39759063720703px) rotate(-360deg) translate(-300.0360794067383px, -84.39759063720703px);}100%{-webkit-transform: translate(300.0360794067383px, 84.39759063720703px) rotate(-360deg) translate(-300.0360794067383px, -84.39759063720703px);transform: translate(300.0360794067383px, 84.39759063720703px) rotate(-360deg) translate(-300.0360794067383px, -84.39759063720703px);}}@keyframes kf_el_HrafPwk68-0_an_pz-Gi8vBA{12.50%{-webkit-transform: translate(300.0360794067383px, 84.39759063720703px) rotate(0deg) translate(-300.0360794067383px, -84.39759063720703px);transform: translate(300.0360794067383px, 84.39759063720703px) rotate(0deg) translate(-300.0360794067383px, -84.39759063720703px);}75%{-webkit-transform: translate(300.0360794067383px, 84.39759063720703px) rotate(-360deg) translate(-300.0360794067383px, -84.39759063720703px);transform: translate(300.0360794067383px, 84.39759063720703px) rotate(-360deg) translate(-300.0360794067383px, -84.39759063720703px);}100%{-webkit-transform: translate(300.0360794067383px, 84.39759063720703px) rotate(-360deg) translate(-300.0360794067383px, -84.39759063720703px);transform: translate(300.0360794067383px, 84.39759063720703px) rotate(-360deg) translate(-300.0360794067383px, -84.39759063720703px);}}#el_nKnaSfHCj *{-webkit-animation-duration: 4s;animation-duration: 4s;-webkit-animation-iteration-count: 1;animation-iteration-count: 1;-webkit-animation-timing-function: cubic-bezier(0, 0, 1, 1);animation-timing-function: cubic-bezier(0, 0, 1, 1);}#el_vF8XaO0cJn{fill: none;stroke: #54626b;stroke-miterlimit: 10;stroke-width: 2px;}#el_n_l56l-Ckc{fill: #54626b;}#el_54VSIwZhXO{fill: #54626b;}#el_5BNMGFjOmi{fill: #54626b;}#el_coqInDBseK{fill: #54626b;}#el_Mzsto5I31i{fill: #54626b;}#el_pE8sPe6Qf2{fill: #54626b;}#el_cwcQjMLxDJ{fill: #54626b;}#el_rFqwQaXCP2{fill: #54626b;}#el_lQPIk4AkZt{fill: #54626b;}#el_T8ZvLN11fC{fill: #54626b;}#el_EhwKUq_g1G{fill: #54626b;}#el_n-lZCpImKyJ{fill: #54626b;}#el_Usg50Ir9neI{fill: #54626b;}#el_6SA3mTyRfEX{fill: #54626b;}#el_uEHstNEFbyd{fill: #54626b;}#el_tKXcuyzNw4Q{fill: #54626b;}#el_ms_IbmmnwQv{fill: #54626b;}#el_9HRd62u8zlG{fill: #54626b;}#el_ps2z0HzIEcb{fill: #54626b;}#el_lPKK7eofCBX{fill: #54626b;}#el_iAKuYfF7t3y{fill: #54626b;}#el_nn1NfA6pb1L{fill: #54626b;}#el_ta7wM8OTxIJ{fill: #54626b;}#el_8O7k4cjrTRF{fill: #54626b;}#el_1POaXvjuCba{fill: #54626b;}#el_4KGk54LK34U{fill: #54626b;}#el_O_r95ASEX3b{fill: #54626b;}#el_Hb6HCsAtgxw{fill: #54626b;}#el_zui6do6b7AD{fill: #54626b;}#el_oEt3TQF8eFe{fill: #54626b;}#el_5-QkOuiqATW{fill: #54626b;}#el_urMQNQnnQGP{fill: #54626b;}#el_ITQQTx29EzL{fill: #54626b;}#el_e5dy3C-ah_o{fill: #54626b;stroke: #54626b;stroke-miterlimit: 10;stroke-width: 0.25px;}#el_6OCDI1oCl0C{fill: #54626b;stroke: #54626b;stroke-miterlimit: 10;stroke-width: 0.25px;}#el_g25WMYuA5wz{fill: #54626b;stroke: #54626b;stroke-miterlimit: 10;stroke-width: 0.25px;}#el_DaFAdiU8Hc9{fill: #54626b;stroke: #54626b;stroke-miterlimit: 10;stroke-width: 0.25px;}#el_BTJE0aCEdbq{fill: #54626b;stroke: #54626b;stroke-miterlimit: 10;stroke-width: 0.25px;}#el_PZ8zk3J5IjZ{fill: #54626b;stroke: #54626b;stroke-miterlimit: 10;stroke-width: 0.25px;}#el_WoUkTs5tWe1{fill: #54626b;stroke: #54626b;stroke-miterlimit: 10;stroke-width: 0.25px;}#el_73GnjCN8oMD{fill: #54626b;stroke: #54626b;stroke-miterlimit: 10;stroke-width: 0.25px;}#el_fkYFEVaJToP{fill: #54626b;stroke: #54626b;stroke-miterlimit: 10;stroke-width: 0.25px;}#el_JuegleW74Q5{fill: #54626b;stroke: #54626b;stroke-miterlimit: 10;stroke-width: 0.25px;}#el_uUCumXR9g0t{fill: #54626b;}#el_-Eg8QoIfwmG{fill: none;stroke: #54626b;stroke-miterlimit: 10;stroke-width: 2px;}#el_H0pMO3W0pel{fill: none;stroke: #54626b;stroke-miterlimit: 10;stroke-width: 2px;}#el_mvSWtcf-Zrh{fill: none;stroke: #54626b;stroke-miterlimit: 10;stroke-width: 2px;}#el_qcK1Ahoi112{fill: none;stroke: #54626b;stroke-miterlimit: 10;stroke-width: 2px;}#el_eWsKziOLTs0{fill: none;stroke: #54626b;stroke-miterlimit: 10;}#el_gK1CIgZsQvK{fill: #54626b;}#el_9cIVSiiIRmF{fill: #54626b;}#el_PTk-pY1iNgL{fill: #54626b;}#el_MfQPBQSi5wj{fill: #54626b;}#el_H-s5ZnWWytI{fill: #54626b;}#el_JNj3drh85OT{fill: #54626b;}#el_3uLtSLfQSWz{fill: #54626b;}#el_aPsyya1MC34{fill: #54626b;}#el_QP2ietJZf1g{fill: none;stroke: #54626b;stroke-miterlimit: 10;}#el_7Z479Sn-dpo{fill: #54626b;}#el_kOuTHpTaea9{fill: none;stroke: #54626b;stroke-miterlimit: 10;}#el_idkdUXjGjBe{fill: #54626b;}#el_XR0xO6lXxVy{fill: none;stroke: #54626b;stroke-miterlimit: 10;}#el_innk1oY_u_d{fill: #313e48;opacity: 0.5;}#el_S6aayK5BYyH{fill: #a5b1be;opacity: 0.5;}#el_DEIoMSmNAIP{fill: #54626b;}#el_IsNAUcfGq9x{opacity: 0.1;}#el_eNIu2_lQVap{fill: #313e48;}#el_-rAJTolz-7U{fill: #313e48;}#el_DKbHxwBjlR2{opacity: 0.2;}#el_vtOUltb3WYe{fill: #313e48;}#el_Dnk1zfSVACc{fill: #313e48;}#el_9FXb5_SjRrn{fill: #a5b1be;opacity: 0.5;}#el_HrafPwk68-0_an_pz-Gi8vBA{-webkit-animation-fill-mode: forwards;animation-fill-mode: forwards;-webkit-animation-name: kf_el_HrafPwk68-0_an_pz-Gi8vBA;animation-name: kf_el_HrafPwk68-0_an_pz-Gi8vBA;-webkit-animation-timing-function: cubic-bezier(0, 0, 0.58, 1);animation-timing-function: cubic-bezier(0, 0, 0.58, 1);}#el_YDeHEgHbo3c_an_tVWGAZy1i{-webkit-animation-fill-mode: forwards;animation-fill-mode: forwards;-webkit-animation-name: kf_el_YDeHEgHbo3c_an_tVWGAZy1i;animation-name: kf_el_YDeHEgHbo3c_an_tVWGAZy1i;-webkit-animation-timing-function: cubic-bezier(0, 0, 0.58, 1);animation-timing-function: cubic-bezier(0, 0, 0.58, 1);}#el_9YeC4YVrTd9_an_DIQjZPBBp{-webkit-animation-fill-mode: forwards;animation-fill-mode: forwards;-webkit-animation-name: kf_el_9YeC4YVrTd9_an_DIQjZPBBp;animation-name: kf_el_9YeC4YVrTd9_an_DIQjZPBBp;-webkit-animation-timing-function: cubic-bezier(0, 0, 0.58, 1);animation-timing-function: cubic-bezier(0, 0, 0.58, 1);}#el_koid6t-M2Fp_an_7r7LzyQEx{-webkit-animation-fill-mode: forwards;animation-fill-mode: forwards;-webkit-animation-name: kf_el_koid6t-M2Fp_an_7r7LzyQEx;animation-name: kf_el_koid6t-M2Fp_an_7r7LzyQEx;-webkit-animation-timing-function: cubic-bezier(0, 0, 1, 1);animation-timing-function: cubic-bezier(0, 0, 1, 1);}</style><title>Strategy_012519</title><g id="el_ZFAUq9fczi" data-name="Background Dots"><line x1="135" y1="93" x2="109" y2="49" id="el_vF8XaO0cJn"/></g><g id="el_w7_uFPcuW1"><g id="el_4D1dPQf-oC" data-name="Icon 3"><path d="M225.4,115.9h-9.2a1.5,1.5,0,0,1-1.5-1.5v-2.3h1.5v2.3h9.2v-2.3h1.5v2.3A1.5,1.5,0,0,1,225.4,115.9Z" id="el_n_l56l-Ckc"/><path d="M222.3,119h-3a1.6,1.6,0,0,1-1.6-1.5v-2.3h1.6v2.3h3v-2.3h1.6v2.3A1.6,1.6,0,0,1,222.3,119Z" id="el_54VSIwZhXO"/><rect x="213.2" y="111.4" width="15.3" height="1.53" id="el_5BNMGFjOmi"/><rect x="213.2" y="108.3" width="15.3" height="1.53" id="el_coqInDBseK"/><rect x="224.6" y="83.9" width="1.5" height="1.53" id="el_Mzsto5I31i"/><rect x="227.7" y="86.9" width="1.5" height="1.53" id="el_pE8sPe6Qf2"/><rect x="221.6" y="83.9" width="1.5" height="1.53" id="el_cwcQjMLxDJ"/><rect x="227.7" y="83.9" width="1.5" height="1.53" id="el_rFqwQaXCP2"/><rect x="227.7" y="90" width="1.5" height="1.53" id="el_lQPIk4AkZt"/><rect x="215.5" y="86.9" width="1.5" height="1.53" id="el_T8ZvLN11fC"/><rect x="212.4" y="86.9" width="1.5" height="1.53" id="el_EhwKUq_g1G"/><rect x="218.5" y="86.9" width="1.5" height="1.53" id="el_n-lZCpImKyJ"/><rect x="215.5" y="90" width="1.5" height="1.53" id="el_Usg50Ir9neI"/><rect x="212.4" y="90" width="1.5" height="1.53" id="el_6SA3mTyRfEX"/><rect x="212.4" y="83.9" width="1.5" height="1.53" id="el_uEHstNEFbyd"/><rect x="224.6" y="80.8" width="1.5" height="1.53" id="el_tKXcuyzNw4Q"/><rect x="221.6" y="80.8" width="1.5" height="1.53" id="el_ms_IbmmnwQv"/><rect x="227.7" y="80.8" width="1.5" height="1.53" id="el_9HRd62u8zlG"/><rect x="212.4" y="80.8" width="1.5" height="1.53" id="el_ps2z0HzIEcb"/><rect x="224.6" y="77.8" width="1.5" height="1.53" id="el_lPKK7eofCBX"/><rect x="221.6" y="77.8" width="1.5" height="1.53" id="el_iAKuYfF7t3y"/><rect x="215.5" y="77.8" width="1.5" height="1.53" id="el_nn1NfA6pb1L"/><rect x="218.5" y="77.8" width="1.5" height="1.53" id="el_ta7wM8OTxIJ"/><rect x="224.6" y="93" width="1.5" height="1.53" id="el_8O7k4cjrTRF"/><rect x="221.6" y="93" width="1.5" height="1.53" id="el_1POaXvjuCba"/><rect x="215.5" y="93" width="1.5" height="1.53" id="el_4KGk54LK34U"/><rect x="218.5" y="93" width="1.5" height="1.53" id="el_O_r95ASEX3b"/><rect x="218.5" y="90" width="1.5" height="1.53" id="el_Hb6HCsAtgxw"/><path d="M220,85.4h-4.5V80.8H220Zm-3-1.5h1.5V82.4H217Z" id="el_zui6do6b7AD"/><path d="M226.1,91.5h-4.5V86.9h4.5Zm-3-1.5h1.5V88.5h-1.5Z" id="el_oEt3TQF8eFe"/><path d="M227.7,106.8H213.9a.7.7,0,0,1-.7-.6L211,98.8a15.5,15.5,0,0,1-6.2-12.6.7.7,0,0,1,.4-.7h.7l3.8,2.3-.7,1.3-2.6-1.5a14.2,14.2,0,0,0,5.7,10.2l.3.4,2.1,7.1h12.6l2.1-7.1,1.5.4-2.3,7.6A.7.7,0,0,1,227.7,106.8Z" id="el_5-QkOuiqATW"/><path d="M220.8,102.2a.8.8,0,0,1-.7-.5.6.6,0,0,1,.2-.8l3.8-3.8,1.1,1.1-2.4,2.3a14.5,14.5,0,0,0,12.5-14.3,13.1,13.1,0,0,0-.7-4.4,14.6,14.6,0,0,0-2.2-4.3l1.2-.9a13.8,13.8,0,0,1,2.5,4.8,15.1,15.1,0,0,1,.7,4.8A16,16,0,0,1,220.8,102.2Z" id="el_urMQNQnnQGP"/><path d="M207,81.8l-1.4-.4a16,16,0,0,1,15.2-11.3,16.5,16.5,0,0,1,9.6,3.2l.3.4a.8.8,0,0,1-.5,1l-4.6,1.5-.5-1.4,3.2-1.1a15,15,0,0,0-7.5-2A14.6,14.6,0,0,0,207,81.8Z" id="el_ITQQTx29EzL"/></g><g id="el_MOBjeJ6XN0Q" data-name="Icon 2"><path d="M152,129.3a.7.7,0,0,0,.7.7h5.4a.7.7,0,0,0,.7-.7v-5.5a3.4,3.4,0,0,0-2.5-3.3,4.1,4.1,0,0,0-.1-5.8,4.1,4.1,0,0,0-5.8,5.8,3.4,3.4,0,0,0-2.5,3.3v2.4a.7.7,0,0,0,1.4,0v-2.4a2,2,0,0,1,2-2h4.1a2.1,2.1,0,0,1,2.1,2v4.8h-4.8a.7.7,0,0,0-.7.7Zm1.4-14.4a2.8,2.8,0,0,1,2.7,2.8,2.8,2.8,0,0,1-5.5,0,2.8,2.8,0,0,1,2.8-2.8Zm0,0" id="el_e5dy3C-ah_o"/><path d="M155.4,125.2a.7.7,0,0,0,0-1.4H154a.7.7,0,0,0,0,1.4Zm0,0" id="el_6OCDI1oCl0C"/><path d="M179.4,142.7l-8.2-8.2a2,2,0,0,0-2.3-.4l-3.7-3.6a14.3,14.3,0,1,0-21,3,.7.7,0,0,0,1-.1.6.6,0,0,0-.1-.9,13,13,0,0,1,16.2-20.4,13.1,13.1,0,0,1,2.4,18.2l-.5.6h-.1l-1.2,1.3a.1.1,0,0,0-.1.1l-.6.5a13.1,13.1,0,0,1-7.8,2.6h-.7a.7.7,0,0,0-.7.7c0,.3.3.7.6.7h.8a14.5,14.5,0,0,0,8-2.5l4,4a.7.7,0,0,0,1,0l2.9-2.9a.8.8,0,0,1,.9,0l8.2,8.3a.6.6,0,0,1,0,.9l-2.9,2.9a.4.4,0,0,1-.4.2c-.2,0-.4,0-.5-.2l-5.4-5.4a.8.8,0,0,0-1,.1.7.7,0,0,0,0,.9l5.4,5.4a2.1,2.1,0,0,0,2.9,0l2.9-2.9a2.1,2.1,0,0,0,0-2.9Zm-15-11.1,3.4,3.4-1.9,1.9-3.4-3.4a17,17,0,0,0,1.9-1.9Zm0,0" id="el_g25WMYuA5wz"/><path d="M153.4,132.7a.7.7,0,1,0,0,1.4,11.6,11.6,0,0,0,9.1-4.5,11.8,11.8,0,0,0,2.1-10.1.7.7,0,0,0-.8-.4c-.4,0-.6.4-.5.8a10.2,10.2,0,0,1-1.8,8.8,10.5,10.5,0,0,1-8.1,4Zm0,0" id="el_DaFAdiU8Hc9"/><path d="M159,112.3a11.6,11.6,0,0,0-13.4,18.8.8.8,0,0,0,.7.1.5.5,0,0,0,.4-.5.5.5,0,0,0-.2-.6,10.2,10.2,0,0,1,11.8-16.6.7.7,0,0,0,.9-.3.7.7,0,0,0-.2-.9Zm0,0" id="el_BTJE0aCEdbq"/><path d="M145.2,144.3a.7.7,0,0,0,0,1.4h4.1a.7.7,0,0,0,0-1.4Zm0,0" id="el_PZ8zk3J5IjZ"/><path d="M158.1,138.2h-7.5v-8.9a.8.8,0,0,0-.5-.7.8.8,0,0,0-.8.3l-5.2,9.3h-1a2,2,0,0,0-2,2V147a2,2,0,0,0,2,2.1h15a2.1,2.1,0,0,0,2.1-2.1v-1.3a.7.7,0,0,0-1.4,0V147a.7.7,0,0,1-.7.7h-15a.7.7,0,0,1-.7-.7v-6.8a.7.7,0,0,1,.7-.7h1.4a.9.9,0,0,0,.6-.3l4.2-7.3v6.9a.7.7,0,0,0,.6.7h8.2a.7.7,0,0,1,.7.7v1.4a.7.7,0,1,0,1.4,0v-1.4a2,2,0,0,0-2.1-2Zm0,0" id="el_WoUkTs5tWe1"/><path d="M152,142.3a.7.7,0,0,0-.7-.7h-4.8a.7.7,0,0,0-.7.7.7.7,0,0,0,.7.6h4.8a.7.7,0,0,0,.7-.6Zm0,0" id="el_73GnjCN8oMD"/><path d="M157.5,142.3a.8.8,0,0,0-.7-.7H154a.7.7,0,0,0-.6.7.6.6,0,0,0,.6.6h2.8c.3,0,.7-.3.7-.6Zm0,0" id="el_fkYFEVaJToP"/><path d="M152,145.7h2.7a.7.7,0,0,0,0-1.4H152a.7.7,0,0,0,0,1.4Z" id="el_JuegleW74Q5"/></g><path d="M298.8,52.3V32.6a.8.8,0,1,0-1.6,0v.2h-5a4.6,4.6,0,0,0-3.2,1.3,2.7,2.7,0,0,1-2,.9h-7.1a1.7,1.7,0,0,0-1.3.7,1.6,1.6,0,0,0,.2,1.5l2.2,2.9-2.2,3a1.4,1.4,0,0,0-.2,1.4,1.6,1.6,0,0,0,1.3.8H287a4.5,4.5,0,0,0,3.2-1.4,2.8,2.8,0,0,1,2-.8h5v9.2a3.2,3.2,0,0,0-2.1,2.1h-9.5a3,3,0,1,0-3.7,3.7v7.2a3,3,0,0,0-2.1,2h-8.3a2.9,2.9,0,0,0-2.8-2.1,2.9,2.9,0,0,0-3,3,2.9,2.9,0,0,0,2.1,2.8v7.2a3.2,3.2,0,0,0-2,2.1h0a3.2,3.2,0,0,0,0,1.6h0a3,3,0,1,0,3.7-3.7V71a2.6,2.6,0,0,0,2-2h8.3a3.1,3.1,0,0,0,2.9,2.2,3.1,3.1,0,0,0,3-3,3,3,0,0,0-2.2-2.9V58.1a3.2,3.2,0,0,0,2.1-2h9.5a3,3,0,0,0,2.9,2.1,2.9,2.9,0,0,0,3-3A3.1,3.1,0,0,0,298.8,52.3ZM270,81.1a1.3,1.3,0,0,1-1.3,1.3,1.4,1.4,0,0,1-1.4-1.3h0a1.4,1.4,0,0,1,1.4-1.3A1.3,1.3,0,0,1,270,81.1Zm-1.3-11.6a1.3,1.3,0,0,1-1.4-1.3,1.4,1.4,0,0,1,1.4-1.4,1.3,1.3,0,0,1,1.3,1.4A1.3,1.3,0,0,1,268.7,69.5ZM284,68.2a1.3,1.3,0,0,1-2.6,0,1.3,1.3,0,1,1,2.6,0Zm-1.3-11.7a1.3,1.3,0,1,1,1.3-1.3A1.3,1.3,0,0,1,282.7,56.5Zm9.5-15.1a4.3,4.3,0,0,0-3.2,1.4,3,3,0,0,1-2,.8h-6.5l2.2-3a.9.9,0,0,0,0-1l-2.2-3H287a4.4,4.4,0,0,0,3.2-1.3,2.8,2.8,0,0,1,2-.8h5v6.9ZM298,56.5a1.3,1.3,0,1,1,1.3-1.3A1.3,1.3,0,0,1,298,56.5Z" id="el_uUCumXR9g0t"/></g><g id="el_TAcElwZbTZJ" data-name="Data Dots Lines"><line id="el_-Eg8QoIfwmG" data-name="Data Line 4" x1="365.3" y1="57" x2="386.2" y2="20.8"/><line id="el_H0pMO3W0pel" data-name="Data Line 3" x1="115" y1="130" x2="68" y2="130"/><line id="el_mvSWtcf-Zrh" data-name="Data Line 2" x1="135" y1="93" x2="109" y2="49"/><line id="el_qcK1Ahoi112" data-name="Data Line 1" x1="308" y1="165" x2="261" y2="165"/></g><g id="el_XLtIPgeBGdK" data-name="Data Dots"><circle id="el_eWsKziOLTs0" data-name="Data Dot 6" cx="135.5" cy="165.5" r="8"/><circle id="el_gK1CIgZsQvK" data-name="Data Dot 10" cx="385.5" cy="20.5" r="4.5"/><circle id="el_9cIVSiiIRmF" data-name="Data Dot 9" cx="307.5" cy="164.5" r="4.5"/><circle id="el_PTk-pY1iNgL" data-name="Data Dot 8" cx="198.5" cy="200.5" r="4.5"/><circle id="el_MfQPBQSi5wj" data-name="Data Dot 7" cx="135.5" cy="165.5" r="4.5"/><circle id="el_H-s5ZnWWytI" data-name="Data Dot 5" cx="68.5" cy="130.5" r="4.5"/><circle id="el_JNj3drh85OT" data-name="Data Dot 4" cx="108.5" cy="48.5" r="4.5"/><circle id="el_3uLtSLfQSWz" data-name="Data Dot 2" cx="260.5" cy="20.5" r="4.5"/><g id="el_BUdw8HxpFZ4" data-name="Data Dot 3"><circle cx="198.5" cy="57.5" r="4.5" id="el_aPsyya1MC34"/><path d="M206.5,57.5a7.9,7.9,0,0,1-4.5,7.2,8.2,8.2,0,0,1-3.5.8,8,8,0,1,1,8-8Z" id="el_QP2ietJZf1g"/></g><g id="el_w45e94cz-VK" data-name="Data Dot 11"><circle cx="240.5" cy="200.5" r="4.5" id="el_7Z479Sn-dpo"/><circle cx="240.5" cy="200.5" r="8" id="el_kOuTHpTaea9"/></g><g id="el_qTYfq9Nb2wp" data-name="Data Dot 1"><circle cx="323.5" cy="129.5" r="4.5" id="el_idkdUXjGjBe"/><path d="M331.5,129.5a7.9,7.9,0,0,1-4.5,7.2,8.2,8.2,0,0,1-3.5.8,8,8,0,1,1,8-8Z" id="el_XR0xO6lXxVy"/></g></g><g id="el_3S6WVXylROt" data-name="Background Ring Right 2"><path d="M300,154.5a69.8,69.8,0,1,1,69.7-69.8A69.9,69.9,0,0,1,300,154.5Zm0-138.1a68.4,68.4,0,1,0,68.3,68.3A68.4,68.4,0,0,0,300,16.4Z" id="el_innk1oY_u_d"/></g><g id="el_HrafPwk68-0_an_pz-Gi8vBA" data-animator-group="true" data-animator-type="1"><g id="el_HrafPwk68-0" data-name="Background Ring RIght 1"><path d="M356.7,71.6l4.5-1s-.1-.6-.4-1.7-.7-2.6-1.3-4.5a68.3,68.3,0,0,0-7.6-15.1,62.6,62.6,0,0,0-7.2-8.7,66,66,0,0,0-9.8-8.1l-1.3-.9-1.5-.9-1.4-.8-1.5-.8-1.4-.8-.9-.4-.7-.3L323,26.3l-.8-.4-.8-.3-1.7-.5L316.4,24c-2.3-.6-4.6-1-6.9-1.4l-6.9-.6a40.8,40.8,0,0,0-7,.1,64.9,64.9,0,0,0-13.3,2.3l-1.6.5-1.5.5a9.4,9.4,0,0,0-1.5.6l-1.5.6-2.8,1.2-.7.3-.8.4-1.2.6-1.4.8-1.3.7-2.4,1.5-4.4,3.2a57.8,57.8,0,0,0-7.1,6.5c-1.9,2.1-3.5,4-4.7,5.6s-2.1,3-2.7,4l-.9,1.4,4,2.4-1.2,2c-.7,1.4-1.7,3.4-2.8,6s-1,2.9-1.5,4.5-.5,1.7-.8,2.6l-.6,2.8a59.7,59.7,0,0,0-.9,6.3c-.1,1.1-.2,2.3-.2,3.5a9.1,9.1,0,0,1-.1,1.7c0,.6.1,1.2.1,1.8s.1,2.5.2,3.9a2.2,2.2,0,0,0,.1.8v1l.3,2,.3,2a2.9,2.9,0,0,1,.2.9l.3,1c.1.4.1.7.2,1.1l.3.9a6.6,6.6,0,0,0,.6,2l.6,2.1.2.5v.3h0a6.1,6.1,0,0,1,.5,1.2,18.2,18.2,0,0,0,.8,1.9l.9,2.1,2.1,3.9c.8,1.3,1.6,2.6,2.5,3.9a66.3,66.3,0,0,0,5.9,7.2,54.2,54.2,0,0,0,7.2,6.3,57.9,57.9,0,0,0,17.3,8.9l2.4.7,1.1.3,1.3.3,2.3.4.7.2H292l1.3.2h1.2l2.4.2h7.3l2.5-.2,2.2-.3,2.4-.4,2.3-.5,1.1-.3,1.2-.3,1.1-.3.5-.2.6-.2,1.2-.4.9-.3,2.2-.9,1-.4,1.1-.5,3.9-2a59.6,59.6,0,0,0,25-27.7,62.7,62.7,0,0,0,3.3-9.8c.6-2.8.9-5,1.1-6.6a19.5,19.5,0,0,0,.2-2.3l6.4.5a12.9,12.9,0,0,1-.2,1.9,42.4,42.4,0,0,1-.8,5.5,67.2,67.2,0,0,1-2.1,8.3,61.8,61.8,0,0,1-4.5,10.1,64.3,64.3,0,0,1-18,20.9,55,55,0,0,1-6.4,4.3l-3.5,1.9-1.8.8-1.9.9-3.7,1.4-1,.3-.9.3h-.5l-.5.2-1,.2-3.9,1-1.9.4-1,.2h-1.2l-2,.2-2,.2-3.9.2h-4l-4.1-.2-2-.3-2-.2h-1.9l-2-.4-.9-.2h-.9l-1.9-.6-3.7-1.1a67.3,67.3,0,0,1-23.4-14.6,85.4,85.4,0,0,1-7.3-8.4,66.6,66.6,0,0,1-4.5-7.3c-.6-1-1.1-2-1.5-2.8a19.5,19.5,0,0,0-.9-2l-.6-1.5-.2-.5-.2-.5-.3-.6c0-.1-.1-.3-.1-.4v-.3l-.2-.5c-.5-1.5-1.2-3.6-1.9-6.4a3,3,0,0,0-.2-1,3.6,3.6,0,0,1-.2-1.1c-.2-.7-.3-1.5-.5-2.3l-.3-2.4c-.1-.4-.1-.8-.2-1.2a2,2,0,0,0-.1-.7v-.7c-.1-1.6-.2-3.4-.3-5.2s.1-1.9.1-2.8.1-1.8.1-2.7a72.4,72.4,0,0,1,1.7-10.7,72.9,72.9,0,0,1,3-9c1-2.5,2.1-4.6,2.8-6l1.3-2.2.9-1.5,2.7-4,2.2-2.8c.8-.9,1.7-2,2.7-3s2.1-2.2,3.3-3.3l1.9-1.7,2-1.7c1.4-1.1,2.9-2.2,4.6-3.3l1.3-.8.6-.4.6-.4,1.3-.7.7-.4.4-.2.4-.2,1.2-.6.8-.4.7-.4,1.4-.6,1.5-.6,1.5-.6,1.7-.6,1.5-.5,1.6-.5a62.4,62.4,0,0,1,13.7-2.4,43.1,43.1,0,0,1,7.2-.1,74.6,74.6,0,0,1,14.2,2.1l1.7.5,1.7.6,1.7.5.8.3.5.2.4.2,1.7.7.8.3.7.4.8.3.9.5,1.4.7,1.6.9,1.4.8,1.6.9.6.5.7.4a63.9,63.9,0,0,1,10,8.3,54.2,54.2,0,0,1,7.4,9,64.7,64.7,0,0,1,7.9,15.5c.7,2,1.1,3.6,1.4,4.7a13.7,13.7,0,0,0,.4,1.7,7.3,7.3,0,0,1,.2.8c.1.5.2,1.3.4,2.2a53.7,53.7,0,0,1,.8,6.7c.2,2.4.2,4.9.2,6.7a19.4,19.4,0,0,0-.1,2.2v.9h-1.8l-4.6-.4a4.5,4.5,0,0,1,.1-.8,17.2,17.2,0,0,1,.1-2c0-1.6,0-3.8-.2-6.1a45.2,45.2,0,0,0-.7-6c-.2-.8-.3-1.5-.4-2Z" id="el_S6aayK5BYyH"/></g></g><g id="el_JOkc5zjk_CY" data-name="Data Mesh"><path d="M365.3,56.1H324L302.9,19.6h-43L238.8,56.1H197.5L176.4,92.7H135.1l-21.5,37.1L135.1,167h42.8l20.6,35.5,1.1-1.9-20.4-35.2,20.2-34.9h41l20.2,35-20.3,35.2,1.1,1.9,21.4-37.1-21.3-36.9,20-34.5h39.8l21.1,36.5h42.9l21.5-37.2ZM261.1,21.6h40.6L322,56.7,301.7,92H261.1L240.8,56.8ZM198.6,58.1h40.6l20.4,35.3-20.1,34.8h-41l-20.2-35ZM136.2,165l-20.4-35.2,20.4-35.2h40.6l20.4,35.3L176.9,165Zm228-36.5H323.5L303.2,93.4l20.4-35.3h40.6l20.3,35.2Z" id="el_DEIoMSmNAIP"/></g><g id="el_YDeHEgHbo3c_an_tVWGAZy1i" data-animator-group="true" data-animator-type="1"><g id="el_YDeHEgHbo3c" data-name="Background Ring Center 2"><g id="el_IsNAUcfGq9x"><path d="M239.8,69.5l-.5-.6-.7-.8-1-1.1-1.3-1.3-1.6-1.6c-1.1-1.1-2.5-2.3-4.1-3.6l-2.5-2-2.9-2.1L222,54.3l-1.8-1-1.8-1-2-1-1-.5-1-.5-2.1-.9a20.4,20.4,0,0,0-2.2-.9c-1.5-.7-3.1-1.1-4.6-1.7l-1.3-.4-1.2-.3-2.5-.7-2.6-.6-2.7-.5-1.3-.2-1.4-.2h-1.4l-1.4-.2-2.9-.2h-8.9l-3,.2-3,.4-3.1.5-1.6.3-1.5.3A70.1,70.1,0,0,0,153.4,49a76.7,76.7,0,0,0-39.3,36.9,72.5,72.5,0,0,0-7.4,26.8,75.4,75.4,0,0,0,2.4,26.9,79.3,79.3,0,0,0,4.5,12.1,74.7,74.7,0,0,0,6.2,10.7,68.1,68.1,0,0,0,7.4,9.1l1,1.1.5.5.5.5,2,1.9,2,1.8a3.9,3.9,0,0,1,1,.8l1.1.8a74.6,74.6,0,0,0,16.4,9.9,69.6,69.6,0,0,0,14,4.7l1.4.3,1.4.2,2.6.5,2.2.3,1.8.2,3.3.2-.5,9.9-3.8-.3-2-.2-2.5-.3-2.9-.5-1.5-.3-1.7-.4a88,88,0,0,1-15.9-5.2,82.3,82.3,0,0,1-18.5-11.2l-1.2-.9-1.1-1-2.3-2-2.3-2.2-.6-.5-.5-.6-1.1-1.1a94.2,94.2,0,0,1-8.4-10.3,90.2,90.2,0,0,1-7-12.2,85.7,85.7,0,0,1-5-13.7,82.8,82.8,0,0,1-2.8-30.3,88.3,88.3,0,0,1,8.3-30.4,88.3,88.3,0,0,1,18.8-25.2,87.3,87.3,0,0,1,25.7-16.5,86.2,86.2,0,0,1,13.9-4.4l1.8-.4,1.7-.3,3.5-.5,3.4-.5,3.5-.2h10l3.2.2,1.6.2,1.6.2,1.5.2,1.6.3,3,.5,2.9.7,2.9.7,1.4.4,1.4.5c1.8.6,3.5,1.1,5.2,1.8l2.5,1,2.4,1.1,1.1.5,1.2.6,2.2,1.1,2,1.2,2,1.2,3.7,2.3,3.3,2.4,2.8,2.2,4.7,4.1c.6.7,1.2,1.2,1.8,1.8l1.4,1.5,1.1,1.2.8.9.6.7Z" id="el_eNIu2_lQVap"/><path d="M186.3,195.2l3.4-.2,1.8-.2,2.2-.3,2.6-.5,1.3-.2,1.5-.3a69.6,69.6,0,0,0,14-4.7,74.6,74.6,0,0,0,16.4-9.9l1.1-.8a3.9,3.9,0,0,1,1-.8l2-1.8,2-1.9.5-.5.5-.5,1-1.1a68.1,68.1,0,0,0,7.4-9.1,74.7,74.7,0,0,0,6.2-10.7,79.3,79.3,0,0,0,4.5-12.1,75.4,75.4,0,0,0,2.4-26.9,75.5,75.5,0,0,0-24-49.1A75.3,75.3,0,0,0,211.4,49a70.1,70.1,0,0,0-12.3-3.9l-1.5-.3-1.6-.3-3.1-.5-3-.4-3.1-.2H178l-2.9.2-1.4.2h-1.4l-1.4.2-1.3.2-2.7.5-2.6.6-2.5.7-1.3.3-1.2.4c-1.6.6-3.1,1-4.6,1.7a20.4,20.4,0,0,0-2.2.9l-2.1.9-1,.5-1,.5-2,1-1.8,1-1.8,1-3.2,2.1-2.9,2.1-2.5,2c-1.6,1.3-3,2.5-4.1,3.6l-1.6,1.6L127.2,67l-1,1.1-.7.8-.6.6-4.1-3.6.6-.7.8-.8,1-1.2,1.4-1.4,1.7-1.6c1.2-1.2,2.7-2.5,4.4-3.9l2.7-2.2,3.1-2.2,3.5-2.2a11.8,11.8,0,0,1,1.9-1.1l1.9-1.1,2.1-1.1,1.1-.5,1.1-.6,2.2-1,2.4-.9c1.6-.7,3.3-1.2,5-1.8l1.3-.4,1.3-.4,2.7-.7,2.8-.6,2.9-.5,1.4-.3,1.5-.2,1.5-.2h1.5l3.1-.3h9.5l3.2.3,3.3.4,3.3.5,1.7.3,1.6.4a80.4,80.4,0,0,1,13.2,4.1,82.3,82.3,0,0,1,24.3,15.7A81.1,81.1,0,0,1,260.9,141a69.5,69.5,0,0,1-4.8,13,80.1,80.1,0,0,1-6.6,11.5,76.9,76.9,0,0,1-7.9,9.8l-1.1,1.1-.5.5-.5.6a20.9,20.9,0,0,0-2.2,2l-2.2,1.9a8.7,8.7,0,0,1-1.1.9l-1.1.9a82.7,82.7,0,0,1-32.6,15.6l-1.6.3-1.5.3-2.7.5-2.3.3-2,.2-3.6.3Z" id="el_-rAJTolz-7U"/></g></g></g><g id="el_9YeC4YVrTd9_an_DIQjZPBBp" data-animator-group="true" data-animator-type="1"><g id="el_9YeC4YVrTd9" data-name="Background Ring Center 1"><g id="el_DKbHxwBjlR2"><path d="M178.2,209.1l-4.3-.4h-2.2l-2.6-.3-1.9-.4-1.1-.2-1.6-.2-1.2-.3h-.6a88.8,88.8,0,0,1-16.5-5.5,87.8,87.8,0,0,1-19.4-11.7l-1.2-1-.8-.6-.4-.4-.8-.7-1.7-1.4-2.9-2.8-1.8-1.8a91.2,91.2,0,0,1-16-23.5,86.3,86.3,0,0,1-5.3-14.3A87.8,87.8,0,0,1,93,111.5a89.7,89.7,0,0,1,8.7-31.7,89.7,89.7,0,0,1,46.5-43.6,91,91,0,0,1,14.5-4.6h.7l1.2-.3,1.8-.3.8-.2,2.8-.4,1.3-.2,2.4-.3,3.5-.2h10.5l3.4.2,1.3.2,3.6.4,1.1.2h.5l1.1.2,2.1.4,3.1.7,2.4.6,2.2.7,1.3.3,1.1.4,4.3,1.6.9.3,1.7.7,2.9,1.4.8.3,3.5,1.8,1.4.8.8.4.7.4,1.4.8,1.3.9,2.5,1.6,1.1.8,2.3,1.6,3,2.4.7.6c1.5,1.3,3,2.6,4.1,3.7l.7.7,1.2,1.1,2.7,2.8.6.7c.1.1.2.2.2.3l.9,1L242.3,68l-.9-1-.2-.2-.5-.6-2.3-2.5-1-.9-.7-.7c-.9-.9-2.1-1.9-3.4-3l-.8-.7-2.7-2.1A14,14,0,0,0,228,55l-1.2-.9-2-1.3-1.3-.8-1.2-.7-.6-.4-.7-.4-1.2-.7-3.1-1.5L216,48l-2.5-1.2-1.5-.6-.8-.3-3.6-1.3-1.2-.4-1.1-.3-2-.6-2-.6-2.8-.6-1.7-.3-1-.2h-1.4l-3.2-.4-1.1-.2-3-.2h-9.2l-3.2.3-2,.2-1.1.2a19.7,19.7,0,0,0-2.4.3l-.8.2-1.6.3-1,.2h-.6a83.2,83.2,0,0,0-12.8,4,80.8,80.8,0,0,0-23.5,15.1,77.9,77.9,0,0,0-17.2,23.2,78.9,78.9,0,0,0-7.7,27.8,81.9,81.9,0,0,0,2.5,27.8,84.6,84.6,0,0,0,4.7,12.6,81.8,81.8,0,0,0,6.4,11.1,69.3,69.3,0,0,0,7.7,9.4l1.5,1.6,2.6,2.5,1.3,1.2a2.7,2.7,0,0,1,.8.7l.4.3.7.6,1.1.8a75.6,75.6,0,0,0,16.9,10.3,83.2,83.2,0,0,0,14.6,4.8l1.5.3,1.4.3h1l1.6.3,2.3.3h1.9l3.9.3Zm4.3-179h-5.2l-3.6.3-2.3.3h-1.3l-2.7.4-.9.2-1.8.3-1.2.3h-.6a94.4,94.4,0,0,0-14.5,4.6A89,89,0,0,0,121.8,54a89.3,89.3,0,0,0-28.1,57.6,90.8,90.8,0,0,0,2.9,31.5,94.9,94.9,0,0,0,5.2,14.2,105.7,105.7,0,0,0,7.3,12.6,88.3,88.3,0,0,0,8.7,10.6l1.7,1.8,2.9,2.9a10.7,10.7,0,0,1,1.6,1.4l.8.6.4.4.8.7,1.2.9a89.1,89.1,0,0,0,19.3,11.6,78.8,78.8,0,0,0,16.4,5.4l.6.2,1.1.2,1.6.3,1.1.2,1.9.3,2.6.4h2.1l3.6.3.5-9.6-3.2-.2-1.2-.2h-.7l-2.3-.3-1.6-.2-1-.2-1.5-.3-1.5-.3a79.3,79.3,0,0,1-14.7-4.9,75.5,75.5,0,0,1-17.1-10.3l-1.1-.9-.7-.6-.4-.3-.8-.7-1.3-1.1-2.6-2.5-1.6-1.7a71.3,71.3,0,0,1-7.7-9.5,96,96,0,0,1-6.5-11.2,85.9,85.9,0,0,1-4.7-12.7,78.6,78.6,0,0,1-2.5-28.1,79.4,79.4,0,0,1,7.7-28,79.8,79.8,0,0,1,41.1-38.6A74.7,74.7,0,0,1,165,41.7h.6l1-.3,1.6-.3h.8l2.5-.4h1.1l2.1-.3,3.1-.2h9.3l3,.2h1.2l3.2.4.9.2h.5l1.1.2,1.7.3,2.7.6,2.1.6,2,.5,1.1.4,1.2.4,3.7,1.3.8.3,1.5.6,2.5,1.2.7.3,3.1,1.6,1.2.7.7.4.7.4,1.2.6,1.3.9,2.1,1.3,1.1.9,1.9,1.3,2.6,2.1.9.7a36,36,0,0,1,3.4,3.1l.7.6a9.4,9.4,0,0,0,1,1l2.4,2.5.5.6.2.2.3.4,7.3-6.3-.4-.4-.3-.3-.5-.7-2.7-2.8-1.2-1.1-.7-.7c-1.1-1.1-2.5-2.3-4.1-3.6l-.7-.6L236,48l-2.2-1.6-1.1-.8L230.2,44l-1.3-.9-1.4-.7-.7-.5-.7-.4-1.4-.8L221.2,39l-.8-.4-2.8-1.3-1.7-.7-.9-.3-4.3-1.6-1.2-.4-1.2-.3-2.2-.7-2.4-.6-3.1-.7-2-.4-1.1-.2h-1.6l-3.6-.5H191l-3.3-.3h-5.2Z" id="el_vtOUltb3WYe"/><path d="M186.5,204.4l-.3-6.4,3.9-.3H192l2.2-.3,1.6-.3h1.1l1.4-.3,1.5-.3a79.5,79.5,0,0,0,14.5-4.8,76.3,76.3,0,0,0,17-10.3l1.1-.8.7-.6.4-.3a2.7,2.7,0,0,1,.8-.7l1.3-1.2,2.6-2.5,1.5-1.6a69.3,69.3,0,0,0,7.7-9.4,81.8,81.8,0,0,0,6.4-11.1,74.7,74.7,0,0,0,4.6-12.6,78.8,78.8,0,0,0-22.3-78.8,80.8,80.8,0,0,0-23.5-15.1,83.2,83.2,0,0,0-12.8-4h-.6l-1-.2-1.6-.3-.8-.2a19.7,19.7,0,0,0-2.4-.3l-1.2-.2-2-.2-3.1-.3h-9.2l-3,.2-1.1.2-3.2.4h-1.4l-1.1.2-1.7.3-2.7.6-2,.6-2.1.6-1,.3-1.2.4a30.1,30.1,0,0,0-3.6,1.3l-.9.3-1.4.6L148.9,48l-.6.3-3.1,1.5-1.2.7-.7.4-.7.4-1.1.7-1.3.8-2.1,1.3L137,55l-1.9,1.3-2.6,2.1-.9.7-3.3,3-.7.7-1,.9-2.4,2.5-.4.6-.3.2-.8,1-4.9-4.2.9-1,.3-.3.5-.6,2.5-2.7,1.2-1.1.6-.6c1.1-1.1,2.4-2.2,3.8-3.4l.8-.7,2.9-2.2,2-1.5,1.2-.9,2.3-1.5a5.7,5.7,0,0,0,1.3-.8l1.3-.8.7-.4.7-.4,1.4-.7,3.3-1.7.7-.3,2.8-1.3,1.6-.6.8-.4,4-1.4,1.2-.4,1.2-.4,2.1-.6,2.3-.6,2.9-.7,2-.3,1-.2h.6l.9-.2,3.5-.4,1.2-.2,3.2-.2h10l3.4.3,2.2.2,1.2.2,2.6.4h.8l1.8.4,1.1.2h.6A82.5,82.5,0,0,1,215,40.5a88.7,88.7,0,0,1,25.5,16.3,85.3,85.3,0,0,1,26.9,55.1,85.2,85.2,0,0,1-2.8,30.1,75.1,75.1,0,0,1-5,13.6,96.7,96.7,0,0,1-6.9,12.1,100.7,100.7,0,0,1-8.3,10.2l-1.7,1.7-2.8,2.7-1.5,1.3-.8.7-.4.3-.7.6-1.2,1a84.6,84.6,0,0,1-18.4,11,78.1,78.1,0,0,1-15.7,5.2l-.6.2-1,.2-1.6.3-1,.2-1.8.3-2.5.3h-2Zm.5-5.7.2,4.9,3.4-.2,1.3-.2h.7l2.5-.4,1.7-.3h1.1l1.5-.3,1.1-.2.6-.2a85.2,85.2,0,0,0,15.5-5.1,88,88,0,0,0,18.3-11l1.1-.9.7-.6.4-.4.8-.7,1.5-1.3,2.8-2.6,1.6-1.7a80.9,80.9,0,0,0,8.3-10.2,82.9,82.9,0,0,0,6.8-11.9,74.1,74.1,0,0,0,5-13.5,83.8,83.8,0,0,0-5.5-59.6,84.7,84.7,0,0,0-43.6-41,75.4,75.4,0,0,0-13.7-4.3l-.7-.2-1.1-.2-1.7-.3-.8-.2-2.6-.4H193l-2.2-.3-3.4-.3h-9.8l-3.2.3h-1.2l-3.5.4-.9.2h-.6l-1,.2-1.9.3-2.9.7-2.3.6-2.1.6-1.1.3-1.2.5-4,1.4-.9.3-1.5.7-2.8,1.2-.7.4-3.3,1.6-1.3.8-.7.4-.7.4-1.3.7-1.3.9-2.3,1.4-1.1.9-2.1,1.4L128.9,54l-.8.6c-1.4,1.2-2.7,2.3-3.8,3.4l-.6.6-1.1,1.1L120,62.4l-.5.6-.2.2-.4.5,3.7,3.2.4-.4.2-.2.5-.6,2.4-2.5,1-1,.6-.6c1-1,2.2-2,3.5-3.1l.8-.7,2.7-2.1,1.8-1.3,1.2-.9,2.1-1.3,1.3-.8,1.2-.7.7-.4.6-.4,1.3-.7,3-1.6.7-.3,2.6-1.2,1.5-.6.8-.3,3.7-1.3,1.2-.4,1-.4,2.1-.5,2.1-.6,2.7-.6,1.7-.3,1.1-.2h.5l.9-.2,3.2-.4h1.2l3-.2h9.3l3.1.2,2,.3h1.2l2.4.4h.8l1.7.3,1,.3h.6a74.7,74.7,0,0,1,12.9,4.1A81.3,81.3,0,0,1,236.6,61,78.1,78.1,0,0,1,254,84.4a79.8,79.8,0,0,1,5.1,56.1,68.1,68.1,0,0,1-4.7,12.7,82.9,82.9,0,0,1-6.4,11.2,72.4,72.4,0,0,1-7.8,9.5l-1.5,1.6-2.6,2.6-1.4,1.1a2.7,2.7,0,0,1-.8.7l-.3.3-.7.6-1.1.9A74,74,0,0,1,214.6,192a76,76,0,0,1-14.6,4.9l-1.6.3-1.4.3-1,.2-1.7.2-2.2.3h-.7l-1.3.2Z" id="el_Dnk1zfSVACc"/></g></g></g><g id="el_koid6t-M2Fp_an_7r7LzyQEx" data-animator-group="true" data-animator-type="1"><g id="el_koid6t-M2Fp" data-name="Background Ring Left"><path d="M125.1,111.4l-2.7.8-.5-1.4c-.3-.9-.8-2.3-1.5-3.9s-1.7-3.7-3-5.9-1.4-2.2-2.1-3.4L114,95.8,112.6,94a59.4,59.4,0,0,0-7-7.3,58,58,0,0,0-9.2-6.5,56.6,56.6,0,0,0-35.6-6.6,55.8,55.8,0,0,0-11.7,3,58.3,58.3,0,0,0-10,5A52.3,52.3,0,0,0,31,87.8a60.2,60.2,0,0,0-9.6,11.5l-1.2,2.1a4.1,4.1,0,0,0-.5.9l-.4.7-.7,1.3L16,103l-.3.6-.7,1.6c-.6,1.4-1.5,3.5-2.4,6.3a56.8,56.8,0,0,0-2.1,10.2,60,60,0,0,0-.2,13.5,58.5,58.5,0,0,0,3.9,15.6l.8,2,.9,1.9,1,2a11.8,11.8,0,0,0,1.1,1.9,53.9,53.9,0,0,0,5.2,7.6,59.4,59.4,0,0,0,14.2,12.6,66.7,66.7,0,0,0,8.8,4.6,73.5,73.5,0,0,0,9.4,3,60.8,60.8,0,0,0,19.6,1.2,69.5,69.5,0,0,0,9.5-1.8c1.6-.4,3.1-1,4.6-1.5l2.2-.9,2.1-.9a56.7,56.7,0,0,0,8-4.5,52.5,52.5,0,0,0,6.9-5.3,78.7,78.7,0,0,0,5.7-6c.5-.5.8-1.1,1.3-1.6l.6-.8.5-.7,1.1-1.6,1.1-1.6a60.7,60.7,0,0,0,5.8-12.2,56.7,56.7,0,0,0,2.5-10.1,58.5,58.5,0,0,0,.7-6.7V129h-4v1.7a13.4,13.4,0,0,1-.1,1.9,6.2,6.2,0,0,1-.1,1.3v1.4c-.1,1-.3,2.1-.5,3.3l-.3,1.9-.5,2a55,55,0,0,1-3.1,8.8,53,53,0,0,1-5.5,9.7,51.5,51.5,0,0,1-8.4,9.2,56.8,56.8,0,0,1-10.9,7.5l-1.6.8-1.5.7-.8.3-.8.3-1.6.7a63.6,63.6,0,0,1-6.6,1.9,50.9,50.9,0,0,1-6.8,1.2,52,52,0,0,1-6.8.2,52.6,52.6,0,0,1-13.2-1.9A58.5,58.5,0,0,1,43,177.4a54.9,54.9,0,0,1-9.2-6.3l-1.9-1.6-1.8-1.7-1.6-1.7-1.4-1.6a65.3,65.3,0,0,1-4.3-5.8l-.8-1.2-.6-1.1a18,18,0,0,1-1-1.8l-.7-1.4-.3-.5c-.1-.4-.4-.9-.6-1.5a9.3,9.3,0,0,1-.5-1c-.2-.4-.3-.8-.5-1.3a5.8,5.8,0,0,1-.5-1.4l-.6-1.6a59.5,59.5,0,0,1-1.9-7.8,59.5,59.5,0,0,1,0-18.2,59.5,59.5,0,0,1,1.9-7.8l.6-1.6a5.8,5.8,0,0,1,.5-1.4c.2-.5.3-.9.5-1.3l.5-1c.2-.6.5-1.1.6-1.5l.3-.5.6-1.3.4-.7.5-.8,1.2-2.1a54.9,54.9,0,0,1,9.4-11.3,56.3,56.3,0,0,1,7.9-6,47.2,47.2,0,0,1,9.8-4.9,53.1,53.1,0,0,1,11.4-3,62,62,0,0,1,12.2-.4A52.2,52.2,0,0,1,85,76.6a47.5,47.5,0,0,1,10.8,4.6,51.6,51.6,0,0,1,9,6.4,50.8,50.8,0,0,1,6.9,7.1l1.4,1.8,1.2,1.7c.8,1.2,1.5,2.3,2.1,3.4a44,44,0,0,1,2.9,5.7q1,2.5,1.5,3.9l.5,1.4v.2l.2.5.5,1.8c.2.7.4,1.6.6,2.6a26.8,26.8,0,0,1,.5,3c.2,1,.3,2.1.4,3s.2,1.9.2,2.7.1,2.6.1,2.6h4v-2.8a23.3,23.3,0,0,1-.2-2.9c-.1-1-.3-2.1-.4-3.2l-.6-3.3c-.3-1-.5-1.9-.7-2.8s-.4-1.4-.5-1.9l-.2-.6Z" id="el_9FXb5_SjRrn"/></g></g></svg>