<svg xmlns="http://www.w3.org/2000/svg" viewBox="0 0 105 105"><title>Home_Services_Mobile</title><g id="Gear"><g id="Clock"><path id="Clock-2" data-name="Clock" d="M21.334,59.0488a9.4315,9.4315,0,1,0,18.2353-1.6474c-.8056.27-1.6284.5029-2.4531.6953a6.8826,6.8826,0,1,1-13.2637,1.3379,6.9222,6.9222,0,0,1,.37-1.4063c-.8272-.2031-1.6485-.4453-2.4468-.7226A9.4565,9.4565,0,0,0,21.334,59.0488Z" style="fill:#cfd3d3"/><path id="Clock-3" data-name="Clock" d="M48.0005,68.4863l.4429-.02a2.6934,2.6934,0,0,0,2.4057-1.7783l.0005-.001.1489-.4228a11.9632,11.9632,0,0,0,.6109-2.23l.1489-1.0586a12.158,12.158,0,0,0,.04-1.919l-.0171-.4609A2.698,2.698,0,0,0,50.02,58.1689l-.4091-.15-.13-.7666c-.022-.1377-.0371-.23-.0547-.3223-.0225-.1192-.0488-.2373-.0747-.3555l-.0723-.3232c-.0234-.11-.0444-.21-.0688-.3076-.0308-.126-.0655-.251-.0992-.3721l-.081-.29c-.03-.1123-.0591-.2177-.0928-.3281-.0361-.1181-.0757-.2373-.1225-.3779l-.2242-.67.3057-.334a2.3879,2.3879,0,0,0,.6567-2.2241A27.659,27.659,0,0,1,45.73,54.3535c.0444.1035.0889.21.13.3154.0464.1231.0879.2442.1289.3633l.0869.251c.0395.1123.0791.2246.1147.3389.0381.1211.0713.2431.1045.3652l.0747.2676c.0318.1113.064.2236.0913.3359.03.12.0562.2442.0821.3682l.0576.2715c.0273.125.0513.2343.0713.3437.022.1192.039.2393.0561.3584l.0411.2744c.019.1182.0376.2393.0517.3623.0151.1211.0254.2471.0352.3731l.0234.2685c.0112.1172.0225.2383.0288.3584.0078.128.01.2549.0117.3828l.0074.2959c.0039.1241.0078.25.0063.377.2793.1152.5933.2314.9531.3457a1.6823,1.6823,0,0,1,1.1709,1.7822c-.0185.1817-.0415.3535-.0674.5244-.0273.1778-.0581.3506-.0942.5264a1.6891,1.6891,0,0,1-1.6284,1.3516,10.5147,10.5147,0,0,0-1.06.0508l-.0132.1152c-.102.3193-.184.5586-.2719.7949l-.0874.2324c-.0972.252-.2.5-.3086.7461l-.041.0938c-.1177.2607-.2456.5176-.3775.7724l-.1177.2178c-.1245.2295-.2133.3848-.3046.5391l-.2007.3369c-.0664.1064-.1323.2051-.1983.3057-.2153.3232-.3774.5556-.5464.7841a16.425,16.425,0,0,1-1.69,1.9512c.1089.2539.2432.54.415.8672a1.6548,1.6548,0,0,1-.4462,2.0791c-.2989.2324-.6148.4629-.9385.6855a1.6738,1.6738,0,0,1-2.1084-.1972c-.272-.2627-.5235-.4883-.7466-.668a14.3334,14.3334,0,0,1-2.3169,1.0088,16.5711,16.5711,0,0,1-1.6963.4805q-.2249.0511-.4512.0947l-.352.0674c-.273.0468-.5415.0879-.8115.12l-.1158.0127c-.3359.0351-.57.0547-.8061.07l-.2261.0146c-.3022.0137-.6064.0206-.91.0206a9.2786,9.2786,0,0,0-.3511.95,1.4431,1.4431,0,0,1-1.1377,1.0655,4.6778,4.6778,0,0,1-1.1817-.043,4.4521,4.4521,0,0,1-1.145-.3135,1.44,1.44,0,0,1-.769-1.3535,9.7132,9.7132,0,0,0-.0513-1.0371,6.8393,6.8393,0,0,1-.8633-.27l-.1416-.0527c-.289-.1123-.5078-.2022-.726-.2969l-.1939-.084c-.25-.1123-.4951-.2314-.7383-.3564-.1084-.0567-.2158-.1143-.3237-.1739-.1284-.0693-.2627-.1445-.3965-.2226a16.6174,16.6174,0,0,1-1.4766-.9668,16.06,16.06,0,0,1-1.9287-1.65c-.2519.1035-.56.2441-.8969.4131a1.6735,1.6735,0,0,1-2.065-.4424c-.2431-.3106-.4756-.625-.6914-.9356a1.6591,1.6591,0,0,1,.1953-2.12,9.6091,9.6091,0,0,0,.6538-.709,16.0592,16.0592,0,0,1-1.0283-2.3593c-.0932-.27-.1787-.541-.2583-.8135-.06-.208-.0947-.3272-.1255-.4463l-.0713-.2959c-.062-.2637-.1-.4385-.1352-.6152l-.0611-.3194c-.0507-.2861-.0961-.5693-.1308-.8545l-.0108-.1044c-.0307-.2627-.0542-.5293-.0722-.7959l-.0108-.1866c-.0161-.32-.0229-.57-.0239-.8232L14.38,60.335a9.58,9.58,0,0,0-.9727-.3584,1.6887,1.6887,0,0,1-1.15-1.7764c.0176-.1787.0406-.3525.0669-.5264.0274-.1767.0571-.35.0933-.5234a1.6816,1.6816,0,0,1,1.65-1.3516c.3867-.0029.7207-.02,1.02-.0508.0278-.1093.0664-.2226.1055-.3349l.0962-.2832c.0415-.124.0835-.25.13-.375.04-.1055.0826-.207.125-.3086l.0479-.1172a27.67,27.67,0,0,1-2.5474-1.8867l-.1147.0351a2.7318,2.7318,0,0,0-2.4634,1.7881l-.1572.4463a12.9759,12.9759,0,0,0-.4575,1.4873L9.5186,58.01l0,.3554a13.51,13.51,0,0,0-.0048,1.5323l.0161.458a2.7045,2.7045,0,0,0,1.7578,2.4257l.4219.1563.1518.9258a19.0846,19.0846,0,0,0,.7354,2.8086l.1352.3916-.2387.3828a2.7262,2.7262,0,0,0-.4463,3.0058,13.5849,13.5849,0,0,0,3.5761,4.8536,2.7142,2.7142,0,0,0,2.9444.4853l.4009-.18.353.2617a19.14,19.14,0,0,0,2.19,1.4053l.12.0674c.0938.0518.2022.1064.3165.1631l.6132.3115.0791.4258A2.8211,2.8211,0,0,0,24.25,80.5889a8.511,8.511,0,0,0,1.2637.4687c.1338.0391.27.0752.4131.11.0981.0244.207.05.3735.0859l2.3745.36c.0957.0078.2051.0166.3086.0214.1519.01.2925.0147.4717.0186a9.0466,9.0466,0,0,0,1.3091-.0693,2.8023,2.8023,0,0,0,2.2192-1.7276l.1533-.3974.6773-.1162c.1484-.0235.2881-.0469.4487-.0772l.0864-.0195a19.2881,19.2881,0,0,0,2.5215-.69l.4151-.1445.3295.291a2.6952,2.6952,0,0,0,2.9527.418,13.5853,13.5853,0,0,0,4.8681-3.5645,2.6941,2.6941,0,0,0,.4874-2.959l-.1832-.3965.2564-.3564a19.3527,19.3527,0,0,0,1.561-2.4766c.0889-.1679.1724-.331.2481-.4853Z" style="fill:#cfd3d3"/></g></g><g id="Rotate_This" data-name="Rotate This"><circle cx="30.6686" cy="31.3728" r="20.0334" style="fill:none"/><path d="M32.1541,31.3022v-6.718a1.5415,1.5415,0,0,0-3.0433.35v6.718a1.5415,1.5415,0,0,0,3.0433-.35Z" style="fill:#cfd3d3"/></g><g id="Clock-4" data-name="Clock"><path d="M32.1541,31.3022a1.5453,1.5453,0,0,1-1.5435,1.544h3.2278a1.5435,1.5435,0,0,0,0-3.0869H32.1978" style="fill:#cfd3d3"/><path d="M32.3419,31.3032a1.5453,1.5453,0,0,1,1.5434-1.5439H30.6575a1.5435,1.5435,0,0,0,0,3.0869h1.6407" style="fill:#cfd3d3"/><path id="Gear-2" data-name="Gear" d="M46.8036,45.36a.8049.8049,0,0,0,.5112.2231.5242.5242,0,0,0,.3931-.189A22.223,22.223,0,0,0,17.284,13.4868a1.4974,1.4974,0,0,0-.6171,1.0435,1.5371,1.5371,0,0,0,.4213,1.2134,1.5082,1.5082,0,0,0,2.0538.2085,19.0881,19.0881,0,0,1,9.4794-3.6114l.274-.0259v4.81a1.4941,1.4941,0,0,0,1.4922,1.4927h.102a1.4942,1.4942,0,0,0,1.4927-1.4927V13.4326a.9845.9845,0,0,1,.3262-.7588,1.0151,1.0151,0,0,1,.8193-.2207A19.1725,19.1725,0,0,1,49.3885,28.7139a1.0108,1.0108,0,0,1-.22.8188.9849.9849,0,0,1-.7593.3267H44.7167a1.4941,1.4941,0,0,0-1.4927,1.4927v.102a1.494,1.494,0,0,0,1.4927,1.4922h4.81l-.0259.2739a19.0892,19.0892,0,0,1-3.6123,9.4824,1.5035,1.5035,0,0,0,.208,2.0508Z" style="fill:#cfd3d3"/><path id="Gear-3" data-name="Gear" d="M44.67,48.2144a1.538,1.538,0,0,0-.4214-1.2129,1.5092,1.5092,0,0,0-2.0537-.2085v.0005a19.09,19.09,0,0,1-9.48,3.6108l-.2739.0259V45.62a1.4941,1.4941,0,0,0-1.4927-1.4922H30.847A1.494,1.494,0,0,0,29.3544,45.62V49.313a.9838.9838,0,0,1-.3262.7583,1.0138,1.0138,0,0,1-.8179.2207,19.17,19.17,0,0,1-16.2617-16.26,1.0119,1.0119,0,0,1,.22-.8193.9855.9855,0,0,1,.7588-.3262h3.6929a1.494,1.494,0,0,0,1.4922-1.4926v-.1021a1.4941,1.4941,0,0,0-1.4922-1.4927H11.81l.0259-.2739a19.0834,19.0834,0,0,1,3.6123-9.4824,1.5044,1.5044,0,0,0-.208-2.0508l-.708-.6074a.81.81,0,0,0-.5161-.2212c-.0147,0-.0293,0-.044.0015a.5007.5007,0,0,0-.3437.1865A22.2231,22.2231,0,0,0,44.0531,49.2583,1.4973,1.4973,0,0,0,44.67,48.2144Z" style="fill:#cfd3d3"/></g><g id="Background"><path d="M94.2021,68.0957,83.635,66.1748l0,0v-2.42a13.32,13.32,0,0,0,3.7117-4.9881l0,0a8.39,8.39,0,0,0,7.4325-8.3588v-14.07a9.01,9.01,0,0,0-5.7158-8.4321l-.8457-.8462a19.2693,19.2693,0,0,0-10.5323-5.5552,18.8845,18.8845,0,0,0-18.0972,7.059h0A29.1642,29.1642,0,0,0,28.4028,2.2261,29.3853,29.3853,0,0,0,1.5742,28.4648,28.8158,28.8158,0,0,0,9.2085,51.0562a13.2135,13.2135,0,0,0,2.64,2.6723l.5616.4668.0361-.1015c.6992.5546,1.4458,1.0917,2.2695,1.6318a29.1481,29.1481,0,0,0,34.6094-2.1074l2.5669-2.4663a29.3859,29.3859,0,0,0,3.6748-4.8606l.0005,0v4.1162a8.39,8.39,0,0,0,7.4315,8.3588l0,0a13.3024,13.3024,0,0,0,3.7127,4.9881v2.42l0,0L56.1436,68.0957a8.4188,8.4188,0,0,0-4.45,2.3643,8.791,8.791,0,0,0-1.2773,1.6748,12.4043,12.4043,0,0,0-1.1,2.9687,6.8358,6.8358,0,0,0-.1162,1.3154V97.6706l0,0H31.0955l0,0V96.0784l0,0H26.9114l0,0v5.7758l0,0h74.2358l0,0V76.4189A8.4606,8.4606,0,0,0,94.2021,68.0957ZM55.4883,33.34a24.9866,24.9866,0,1,1-26.36-26.9688q.7188-.0411,1.4346-.0409A25.0017,25.0017,0,0,1,55.4883,33.34ZM88.4,54.1191c.0068-.1777.0107-.3535.0107-.5273V46.7007l.0005,0A4.2376,4.2376,0,0,1,88.4,54.1191ZM59.7529,50.4077A4.27,4.27,0,0,1,61.9371,46.7l0,0v6.8911c0,.1758.0039.3516.0107.5273A4.2556,4.2556,0,0,1,59.7529,50.4077Zm2.6192-8.2949a6.814,6.814,0,0,0-2.6187,1.0159l-.0005,0V40.6353c0-7.4292,6.0225-14.35,13.1514-15.1128a14.8,14.8,0,0,1,12.1035,4.2441L86.78,31.5385h0l.4721.1588a4.9071,4.9071,0,0,1,3.3423,4.6509V43.165l0,0a11.2589,11.2589,0,0,0-2.5709-1.0442,18.6135,18.6135,0,0,0-2.8115-.2534l-.46-.023a9.255,9.255,0,0,1-4.9151-2.4682l-1.4783-1.4813h0l-1.474,1.476a8.7814,8.7814,0,0,1-6.2134,2.5761H65.6182C65.5332,41.9478,63.5176,41.96,62.3721,42.1128Zm3.749,11.1733v-7.154l0,0h4.55A12.7993,12.7993,0,0,0,78.3582,43.61h0a12.8454,12.8454,0,0,0,5.8677,2.3548l0,0v7.4591a9.2055,9.2055,0,0,1-.6526,3.5608,9.085,9.085,0,0,1-9.7654,5.5589A9.2574,9.2574,0,0,1,66.1211,53.2861ZM70.8975,66.875v-.7617a13.1736,13.1736,0,0,0,8.5527,0v.7617L75.174,70.0819h0Zm.5319,5.6287v0l-2.7463,1.647,0,0-.7881-3.938.3877-.07Zm10.636-2.3611.3887.07-.788,3.938-.0005,0-2.7473-1.647v0ZM81.042,97.6706l0,0H77.8354l0-.0005a4.28,4.28,0,0,1,3.2065-2.1538l0,0Zm15.9209,0,0,0H85.2269l0,0v-2.184l0,0h6.3675l0,0V80.1575l0,0h-4.183l0,0V91.3024l0,0H81.542a8.4909,8.4909,0,0,0-8.1972,6.368l0,0H62.9378l0,0V80.1575l0,0h-4.184l0,0V97.6706l0,0H53.3851l0,0V76.4189a4.2759,4.2759,0,0,1,3.5107-4.207l6.8816-1.25,0,0,1.9647,9.8342.0005,0,9.4311-5.6588h0l9.4291,5.6579.0005,0,1.9657-9.8333,0,0,6.8794,1.25a4.2786,4.2786,0,0,1,3.5139,4.21Z" style="fill:#e74f3d"/><g id="Background-2" data-name="Background"><path id="Background-3" data-name="Background" d="M29.0033,90.21h0a1.5921,1.5921,0,0,1,1.5921,1.5921h0a1.5921,1.5921,0,0,1-1.5921,1.5921h0a1.5921,1.5921,0,0,1-1.5921-1.5921h0A1.5921,1.5921,0,0,1,29.0033,90.21Z" style="fill:#e74f3d;stroke:#e74f3d;stroke-miterlimit:10"/></g><g id="Background-4" data-name="Background"><path id="Background-5" data-name="Background" d="M29.0033,84.9258h0a1.5921,1.5921,0,0,1,1.5921,1.5921h0A1.5921,1.5921,0,0,1,29.0033,88.11h0a1.5921,1.5921,0,0,1-1.5921-1.5921h0A1.5921,1.5921,0,0,1,29.0033,84.9258Z" style="fill:#e74f3d;stroke:#e74f3d;stroke-miterlimit:10"/></g></g></svg>