<svg xmlns="http://www.w3.org/2000/svg" viewBox="0 0 300 300" id="el_kXPZMiu_f"><style>@-webkit-keyframes kf_el_QYsaGW9A6NP_an_P07HKic1T{52.22%{opacity: 0;}53.33%{opacity: 1;}0%{opacity: 0;}100%{opacity: 1;}}@keyframes kf_el_QYsaGW9A6NP_an_P07HKic1T{52.22%{opacity: 0;}53.33%{opacity: 1;}0%{opacity: 0;}100%{opacity: 1;}}@-webkit-keyframes kf_el_W_Zcvox9K0u_an_F4lXSOAKx{51.11%{opacity: 0;}53.33%{opacity: 1;}0%{opacity: 0;}100%{opacity: 1;}}@keyframes kf_el_W_Zcvox9K0u_an_F4lXSOAKx{51.11%{opacity: 0;}53.33%{opacity: 1;}0%{opacity: 0;}100%{opacity: 1;}}@-webkit-keyframes kf_el_0XRVj1D9yoh_an_XSBBBAN4Y{51.11%{opacity: 0;}52.22%{opacity: 1;}0%{opacity: 0;}100%{opacity: 1;}}@keyframes kf_el_0XRVj1D9yoh_an_XSBBBAN4Y{51.11%{opacity: 0;}52.22%{opacity: 1;}0%{opacity: 0;}100%{opacity: 1;}}@-webkit-keyframes kf_el_3-XGNMVaP8-_an_9sGcZoBVk{51.11%{opacity: 0;}52.22%{opacity: 1;}0%{opacity: 0;}100%{opacity: 1;}}@keyframes kf_el_3-XGNMVaP8-_an_9sGcZoBVk{51.11%{opacity: 0;}52.22%{opacity: 1;}0%{opacity: 0;}100%{opacity: 1;}}@-webkit-keyframes kf_el_Oiw3nAcGFrB_an_uO6mFuBMA{51.11%{opacity: 0;}52.22%{opacity: 1;}0%{opacity: 0;}100%{opacity: 1;}}@keyframes kf_el_Oiw3nAcGFrB_an_uO6mFuBMA{51.11%{opacity: 0;}52.22%{opacity: 1;}0%{opacity: 0;}100%{opacity: 1;}}@-webkit-keyframes kf_el_O2OjLaE6xi_an_ylx1IvoQP{51.11%{opacity: 0;}52.22%{opacity: 1;}0%{opacity: 0;}100%{opacity: 1;}}@keyframes kf_el_O2OjLaE6xi_an_ylx1IvoQP{51.11%{opacity: 0;}52.22%{opacity: 1;}0%{opacity: 0;}100%{opacity: 1;}}@-webkit-keyframes kf_el_lhsz7gRXA6_an_yjDoFoSITP{44.44%{stroke-dasharray: 100, 100;}0%{stroke-dasharray: 100, 100;}100%{stroke-dasharray: 100, 100;}}@keyframes kf_el_lhsz7gRXA6_an_yjDoFoSITP{44.44%{stroke-dasharray: 100, 100;}0%{stroke-dasharray: 100, 100;}100%{stroke-dasharray: 100, 100;}}@-webkit-keyframes kf_el_lhsz7gRXA6_an_IGn9ymCP3{44.44%{stroke-dashoffset: 100;}50%{stroke-dashoffset: 0;}0%{stroke-dashoffset: 100;}100%{stroke-dashoffset: 0;}}@keyframes kf_el_lhsz7gRXA6_an_IGn9ymCP3{44.44%{stroke-dashoffset: 100;}50%{stroke-dashoffset: 0;}0%{stroke-dashoffset: 100;}100%{stroke-dashoffset: 0;}}@-webkit-keyframes kf_el_3PxYEIE2GD_an_yjxI1tJhwf{44.44%{stroke-dasharray: 100;}0%{stroke-dasharray: 100;}100%{stroke-dasharray: 100;}}@keyframes kf_el_3PxYEIE2GD_an_yjxI1tJhwf{44.44%{stroke-dasharray: 100;}0%{stroke-dasharray: 100;}100%{stroke-dasharray: 100;}}@-webkit-keyframes kf_el_3PxYEIE2GD_an_AnNcF5eih{44.44%{stroke-dashoffset: 100;}50%{stroke-dashoffset: 0;}0%{stroke-dashoffset: 100;}100%{stroke-dashoffset: 0;}}@keyframes kf_el_3PxYEIE2GD_an_AnNcF5eih{44.44%{stroke-dashoffset: 100;}50%{stroke-dashoffset: 0;}0%{stroke-dashoffset: 100;}100%{stroke-dashoffset: 0;}}@-webkit-keyframes kf_el_S1xvQa59X1_an_46gY-GrNGM{44.44%{stroke-dasharray: 100, 100;}0%{stroke-dasharray: 100, 100;}100%{stroke-dasharray: 100, 100;}}@keyframes kf_el_S1xvQa59X1_an_46gY-GrNGM{44.44%{stroke-dasharray: 100, 100;}0%{stroke-dasharray: 100, 100;}100%{stroke-dasharray: 100, 100;}}@-webkit-keyframes kf_el_S1xvQa59X1_an_an3glcECJ{44.44%{stroke-dashoffset: 100;}50%{stroke-dashoffset: 0;}0%{stroke-dashoffset: 100;}100%{stroke-dashoffset: 0;}}@keyframes kf_el_S1xvQa59X1_an_an3glcECJ{44.44%{stroke-dashoffset: 100;}50%{stroke-dashoffset: 0;}0%{stroke-dashoffset: 100;}100%{stroke-dashoffset: 0;}}@-webkit-keyframes kf_el_WeIfJuChhK_an_e-L24KPeiH{44.44%{stroke-dasharray: 100;}0%{stroke-dasharray: 100;}100%{stroke-dasharray: 100;}}@keyframes kf_el_WeIfJuChhK_an_e-L24KPeiH{44.44%{stroke-dasharray: 100;}0%{stroke-dasharray: 100;}100%{stroke-dasharray: 100;}}@-webkit-keyframes kf_el_WeIfJuChhK_an_-OZGS_6sQ{44.44%{stroke-dashoffset: 100;}50%{stroke-dashoffset: 0;}0%{stroke-dashoffset: 100;}100%{stroke-dashoffset: 0;}}@keyframes kf_el_WeIfJuChhK_an_-OZGS_6sQ{44.44%{stroke-dashoffset: 100;}50%{stroke-dashoffset: 0;}0%{stroke-dashoffset: 100;}100%{stroke-dashoffset: 0;}}@-webkit-keyframes kf_el_al6D2TgwNo_an_jfdsvYjZY8{44.44%{stroke-dasharray: 100;}0%{stroke-dasharray: 100;}100%{stroke-dasharray: 100;}}@keyframes kf_el_al6D2TgwNo_an_jfdsvYjZY8{44.44%{stroke-dasharray: 100;}0%{stroke-dasharray: 100;}100%{stroke-dasharray: 100;}}@-webkit-keyframes kf_el_al6D2TgwNo_an_3qcHfGC8r{44.44%{stroke-dashoffset: 100;}50%{stroke-dashoffset: 0;}0%{stroke-dashoffset: 100;}100%{stroke-dashoffset: 0;}}@keyframes kf_el_al6D2TgwNo_an_3qcHfGC8r{44.44%{stroke-dashoffset: 100;}50%{stroke-dashoffset: 0;}0%{stroke-dashoffset: 100;}100%{stroke-dashoffset: 0;}}@-webkit-keyframes kf_el_0UaLZo_HOB_an_qypemzXLpw{44.44%{stroke-dasharray: 100;}0%{stroke-dasharray: 100;}100%{stroke-dasharray: 100;}}@keyframes kf_el_0UaLZo_HOB_an_qypemzXLpw{44.44%{stroke-dasharray: 100;}0%{stroke-dasharray: 100;}100%{stroke-dasharray: 100;}}@-webkit-keyframes kf_el_0UaLZo_HOB_an_ZzbxxG4HP{44.44%{stroke-dashoffset: 100;}50%{stroke-dashoffset: 0;}0%{stroke-dashoffset: 100;}100%{stroke-dashoffset: 0;}}@keyframes kf_el_0UaLZo_HOB_an_ZzbxxG4HP{44.44%{stroke-dashoffset: 100;}50%{stroke-dashoffset: 0;}0%{stroke-dashoffset: 100;}100%{stroke-dashoffset: 0;}}#el_kXPZMiu_f *{-webkit-animation-duration: 9s;animation-duration: 9s;-webkit-animation-iteration-count: 1;animation-iteration-count: 1;-webkit-animation-timing-function: cubic-bezier(0, 0, 1, 1);animation-timing-function: cubic-bezier(0, 0, 1, 1);}#el_G6ax5CkAVN{fill: #4f4f4f;}#el_0UaLZo_HOB{fill: none;stroke: #fff;stroke-linecap: round;stroke-miterlimit: 10;stroke-width: 8.5px;-webkit-animation-fill-mode: forwards, forwards;animation-fill-mode: forwards, forwards;-webkit-animation-name: kf_el_0UaLZo_HOB_an_ZzbxxG4HP, kf_el_0UaLZo_HOB_an_qypemzXLpw;animation-name: kf_el_0UaLZo_HOB_an_ZzbxxG4HP, kf_el_0UaLZo_HOB_an_qypemzXLpw;-webkit-animation-timing-function: cubic-bezier(0, 0, 1, 1), cubic-bezier(0, 0, 1, 1);animation-timing-function: cubic-bezier(0, 0, 1, 1), cubic-bezier(0, 0, 1, 1);}#el_al6D2TgwNo{fill: none;stroke: #fff;stroke-linecap: round;stroke-miterlimit: 10;stroke-width: 8.5px;-webkit-animation-fill-mode: forwards, forwards;animation-fill-mode: forwards, forwards;-webkit-animation-name: kf_el_al6D2TgwNo_an_3qcHfGC8r, kf_el_al6D2TgwNo_an_jfdsvYjZY8;animation-name: kf_el_al6D2TgwNo_an_3qcHfGC8r, kf_el_al6D2TgwNo_an_jfdsvYjZY8;-webkit-animation-timing-function: cubic-bezier(0, 0, 1, 1), cubic-bezier(0, 0, 1, 1);animation-timing-function: cubic-bezier(0, 0, 1, 1), cubic-bezier(0, 0, 1, 1);}#el_WeIfJuChhK{fill: none;stroke: #fff;stroke-linecap: round;stroke-miterlimit: 10;stroke-width: 8.5px;-webkit-animation-fill-mode: forwards, forwards;animation-fill-mode: forwards, forwards;-webkit-animation-name: kf_el_WeIfJuChhK_an_-OZGS_6sQ, kf_el_WeIfJuChhK_an_e-L24KPeiH;animation-name: kf_el_WeIfJuChhK_an_-OZGS_6sQ, kf_el_WeIfJuChhK_an_e-L24KPeiH;-webkit-animation-timing-function: cubic-bezier(0, 0, 1, 1), cubic-bezier(0, 0, 1, 1);animation-timing-function: cubic-bezier(0, 0, 1, 1), cubic-bezier(0, 0, 1, 1);}#el_S1xvQa59X1{fill: none;stroke: #fff;stroke-linecap: round;stroke-miterlimit: 10;stroke-width: 8.5px;-webkit-animation-fill-mode: forwards, forwards;animation-fill-mode: forwards, forwards;-webkit-animation-name: kf_el_S1xvQa59X1_an_an3glcECJ, kf_el_S1xvQa59X1_an_46gY-GrNGM;animation-name: kf_el_S1xvQa59X1_an_an3glcECJ, kf_el_S1xvQa59X1_an_46gY-GrNGM;-webkit-animation-timing-function: cubic-bezier(0, 0, 1, 1), cubic-bezier(0, 0, 1, 1);animation-timing-function: cubic-bezier(0, 0, 1, 1), cubic-bezier(0, 0, 1, 1);}#el_3PxYEIE2GD{fill: none;stroke: #fff;stroke-linecap: round;stroke-miterlimit: 10;stroke-width: 8.5px;-webkit-animation-fill-mode: forwards, forwards;animation-fill-mode: forwards, forwards;-webkit-animation-name: kf_el_3PxYEIE2GD_an_AnNcF5eih, kf_el_3PxYEIE2GD_an_yjxI1tJhwf;animation-name: kf_el_3PxYEIE2GD_an_AnNcF5eih, kf_el_3PxYEIE2GD_an_yjxI1tJhwf;-webkit-animation-timing-function: cubic-bezier(0, 0, 1, 1), cubic-bezier(0, 0, 1, 1);animation-timing-function: cubic-bezier(0, 0, 1, 1), cubic-bezier(0, 0, 1, 1);}#el_lhsz7gRXA6{fill: none;stroke: #fff;stroke-linecap: round;stroke-miterlimit: 10;stroke-width: 8.5px;-webkit-animation-fill-mode: forwards, forwards;animation-fill-mode: forwards, forwards;-webkit-animation-name: kf_el_lhsz7gRXA6_an_IGn9ymCP3, kf_el_lhsz7gRXA6_an_yjDoFoSITP;animation-name: kf_el_lhsz7gRXA6_an_IGn9ymCP3, kf_el_lhsz7gRXA6_an_yjDoFoSITP;-webkit-animation-timing-function: cubic-bezier(0, 0, 1, 1), cubic-bezier(0, 0, 1, 1);animation-timing-function: cubic-bezier(0, 0, 1, 1), cubic-bezier(0, 0, 1, 1);}#el_kF9hmuX0mA{fill: #61afbb;}#el_t_f1aV6aTy{fill: #fff;}#el_H229TrFcPg{fill: #b5b5b5;}#el_O2OjLaE6xi{fill: #e7503d;-webkit-animation-fill-mode: forwards;animation-fill-mode: forwards;-webkit-animation-name: kf_el_O2OjLaE6xi_an_ylx1IvoQP;animation-name: kf_el_O2OjLaE6xi_an_ylx1IvoQP;-webkit-animation-timing-function: cubic-bezier(0, 0, 1, 1);animation-timing-function: cubic-bezier(0, 0, 1, 1);}#el_Oiw3nAcGFrB{fill: #e7503d;-webkit-animation-fill-mode: forwards;animation-fill-mode: forwards;-webkit-animation-name: kf_el_Oiw3nAcGFrB_an_uO6mFuBMA;animation-name: kf_el_Oiw3nAcGFrB_an_uO6mFuBMA;-webkit-animation-timing-function: cubic-bezier(0, 0, 1, 1);animation-timing-function: cubic-bezier(0, 0, 1, 1);}#el_3-XGNMVaP8-{fill: #e7503d;-webkit-animation-fill-mode: forwards;animation-fill-mode: forwards;-webkit-animation-name: kf_el_3-XGNMVaP8-_an_9sGcZoBVk;animation-name: kf_el_3-XGNMVaP8-_an_9sGcZoBVk;-webkit-animation-timing-function: cubic-bezier(0, 0, 1, 1);animation-timing-function: cubic-bezier(0, 0, 1, 1);}#el_0XRVj1D9yoh{fill: #e7503d;-webkit-animation-fill-mode: forwards;animation-fill-mode: forwards;-webkit-animation-name: kf_el_0XRVj1D9yoh_an_XSBBBAN4Y;animation-name: kf_el_0XRVj1D9yoh_an_XSBBBAN4Y;-webkit-animation-timing-function: cubic-bezier(0, 0, 1, 1);animation-timing-function: cubic-bezier(0, 0, 1, 1);}#el_W_Zcvox9K0u{fill: #e7503d;-webkit-animation-fill-mode: forwards;animation-fill-mode: forwards;-webkit-animation-name: kf_el_W_Zcvox9K0u_an_F4lXSOAKx;animation-name: kf_el_W_Zcvox9K0u_an_F4lXSOAKx;-webkit-animation-timing-function: cubic-bezier(0, 0, 1, 1);animation-timing-function: cubic-bezier(0, 0, 1, 1);}#el_QYsaGW9A6NP{fill: #e7503d;-webkit-animation-fill-mode: forwards;animation-fill-mode: forwards;-webkit-animation-name: kf_el_QYsaGW9A6NP_an_P07HKic1T;animation-name: kf_el_QYsaGW9A6NP_an_P07HKic1T;-webkit-animation-timing-function: cubic-bezier(0, 0, 1, 1);animation-timing-function: cubic-bezier(0, 0, 1, 1);}#el_Fa7ADvC4A-{visibility: hidden;}</style><title>Operations_Managment</title><g id="el_XAr3Q4gZy-" data-name="Data Paths"><polyline id="el_0UaLZo_HOB" data-name="Data Paths" points="96.5 74.5 78.5 52.5 50.5 52.5"/><polyline id="el_al6D2TgwNo" data-name="Data Paths" points="203.5 74.5 221.5 52.5 249.5 52.5"/><line id="el_WeIfJuChhK" data-name="Data Paths" x1="150.5" y1="63.5" x2="150.5" y2="47.5"/><polyline id="el_S1xvQa59X1" data-name="Data Paths" points="203.5 217.5 221.5 239.5 249.5 239.5"/><polyline id="el_3PxYEIE2GD" data-name="Data Paths" points="96.5 217.5 78.5 239.5 50.5 239.5"/><line id="el_lhsz7gRXA6" data-name="Data Paths" x1="150" y1="228.5" x2="150" y2="244.5"/></g><g id="el_ezibpS8ene"><path id="el_kF9hmuX0mA" d="M151.4363,104.9776a40.41,40.41,0,1,0,40.41,40.41A40.4553,40.4553,0,0,0,151.4363,104.9776Zm-24.3477,14.828a35.1142,35.1142,0,0,1,13.1334-7.9279l3.314-1.1123-2.3365,2.6a54.0032,54.0032,0,0,0-7.7419,11.1137l-.4321.8305-.8233-.4467a21.909,21.909,0,0,1-5.1334-3.7437l-.66-.667Zm-10.8343,22.0462a35.2872,35.2872,0,0,1,6.2241-16.7l.6143-.8773.7749.7393a28.183,28.183,0,0,0,6.4811,4.5543l.7079.3681-.2638.7528a44.5527,44.5527,0,0,0-2.3723,11.3244l-.0652.85H116.1536ZM123.0927,166.5l-.6143-.8769a35.2849,35.2849,0,0,1-6.2241-16.7l-.1007-1.0117H128.362l.0809.8313a40.8,40.8,0,0,0,2.77,11.1006l.3124.7842-.7544.3789a28.6157,28.6157,0,0,0-6.9036,4.7549ZM141.5269,179.31a35.5291,35.5291,0,0,1-14.4383-8.3414l-.6786-.6458.6579-.667a22.2621,22.2621,0,0,1,5.8221-4.1012l.7919-.4009.43.7762a71.0684,71.0684,0,0,0,8.37,11.8943l2.05,2.3657Zm7.3856-1.902-1.604-1.7777a67.1544,67.1544,0,0,1-8.2548-11.2177l-.61-1.0526,1.1793-.3009a45.057,45.057,0,0,1,8.3123-1.26l.9775-.0607Zm0-20.7078-.8692.0485a49,49,0,0,0-11,1.8139l-.8027.2346-.3106-.7766a35.9758,35.9758,0,0,1-2.4181-9.0786l-.1249-1.0315h15.5256Zm0-13.8372H133.3891l.0926-1.0049a39.104,39.104,0,0,1,2.0031-9.2025l.29-.8381.8485.2588a48.5489,48.5489,0,0,0,11.4206,1.9487l.8687.049Zm0-13.8275-.9777-.0611a44.4542,44.4542,0,0,1-9.0288-1.4642l-1.1177-.3084.5542-1.0188a51.6354,51.6354,0,0,1,9.0038-11.881l1.5662-1.5429Zm30.8676-4.7617.6146.8773a35.33,35.33,0,0,1,6.2272,16.7l.1016,1.0121H174.5108l-.0809-.8312a40.8,40.8,0,0,0-2.77-11.1l-.3126-.7838.7542-.3793a28.6211,28.6211,0,0,0,6.9041-4.7552Zm-18.4342-12.81a35.5376,35.5376,0,0,1,14.4383,8.3409l.6786.6463-.6579.667a22.2918,22.2918,0,0,1-5.8183,4.1008l-.7914.4017-.43-.7761a71.2432,71.2432,0,0,0-8.3738-11.8948l-2.0507-2.3662Zm-7.3859,1.902,1.6041,1.7777a67.1433,67.1433,0,0,1,8.2548,11.2177l.61,1.0526-1.1793.3006a45.0427,45.0427,0,0,1-8.3123,1.26l-.9776.0607Zm0,20.7078.8692-.0486a49.0014,49.0014,0,0,0,11-1.8141l.8027-.2346.31.7766a35.9556,35.9556,0,0,1,2.4182,9.0791l.1249,1.031H153.96Zm0,13.8369h15.5237l-.0926,1.005a39.1282,39.1282,0,0,1-2.0031,9.2024l-.29.8382-.8485-.2589a48.5875,48.5875,0,0,0-11.4208-1.9485L153.96,156.7Zm1.5663,28.5613-1.5663,1.5429V161.7387l.9778.0611a44.4257,44.4257,0,0,1,9.029,1.4642l1.1177.3083-.5542,1.0189A51.6413,51.6413,0,0,1,155.5263,176.4722Zm20.2579-5.503a35.1259,35.1259,0,0,1-13.1334,7.9277l-3.3143,1.1128,2.3368-2.6006a54.008,54.008,0,0,0,7.7419-11.1137l.4321-.8305.8233.4467a21.9038,21.9038,0,0,1,5.1334,3.7437l.66.667Zm10.8341-22.0466a35.2827,35.2827,0,0,1-6.2239,16.7l-.6143.8773-.7748-.7393a28.1843,28.1843,0,0,0-6.4812-4.554l-.7079-.3681.2638-.7528a44.5539,44.5539,0,0,0,2.3721-11.3246l.0652-.85H186.719Z"/><path id="el_t_f1aV6aTy" data-name="Inner Eye" d="M158.7543,78.9809a3.2514,3.2514,0,1,0-.3793,6.4918A124.2363,124.2363,0,0,1,253.03,138.1186a13.2389,13.2389,0,0,1,0,15.2509c-49.8995,70.6246-154.2651,70.5366-204.1019,0a13.2361,13.2361,0,0,1,.0017-15.2509A124.22,124.22,0,0,1,143.5829,85.471a3.2514,3.2514,0,1,0-.3792-6.4918A130.6952,130.6952,0,0,0,43.618,134.3664a19.75,19.75,0,0,0,0,22.7553c52.4292,74.2058,162.3672,74.1042,214.7236,0a19.7525,19.7525,0,0,0-.0017-22.7553A130.7023,130.7023,0,0,0,158.7543,78.9809Z"/><path id="el_H229TrFcPg" data-name="Outer Eye" d="M242.6812,150.8009a3.2514,3.2514,0,0,0-4.5734.4843,109.5713,109.5713,0,0,1-68.4965,39.6089,92.6037,92.6037,0,0,1-33.2233.2732c.0253.0087.05.0187.0752.0273A109.9239,109.9239,0,0,1,61.59,145.7432a109.9187,109.9187,0,0,1,74.8762-45.453c-.044.0149-.0868.0323-.1307.0474a92.6088,92.6088,0,0,1,33.1159.2336,109.5833,109.5833,0,0,1,68.6561,39.63,3.2513,3.2513,0,0,0,5.0559-4.0892c-48.4382-59.876-141.8892-57.8085-187.1814,6.2988a5.783,5.783,0,0,0,0,6.6646c45.4615,64.3427,138.9278,65.9479,187.1814,6.2988A3.2528,3.2528,0,0,0,242.6812,150.8009Z"/></g><g id="el_J9WYudtFoj" data-name="Data Dots"><path id="el_O2OjLaE6xi" data-name="Dot 6" d="M45.3988,227.9007a12.0567,12.0567,0,1,0,8.4894,14.7707A12,12,0,0,0,45.3988,227.9007Zm.8037,11.6493a3.911,3.911,0,1,1-3.911-3.9109A3.9124,3.9124,0,0,1,46.2025,239.55Z"/><path id="el_Oiw3nAcGFrB" data-name="Dot 4" d="M260.8158,227.9007a12.0567,12.0567,0,1,0,8.4893,14.7707A12,12,0,0,0,260.8158,227.9007Zm.8036,11.6493a3.9109,3.9109,0,1,1-3.9109-3.9109A3.9124,3.9124,0,0,1,261.6194,239.55Z"/><path id="el_3-XGNMVaP8-" data-name="Dot 2" d="M162.0856,34.9333A11.998,11.998,0,1,0,153.6043,49.69,11.9888,11.9888,0,0,0,162.0856,34.9333ZM150.5,41.9589a3.9072,3.9072,0,1,1,3.9072-3.9072A3.9086,3.9086,0,0,1,150.5,41.9589Z"/><path id="el_0XRVj1D9yoh" data-name="Dot 2" d="M161.5856,251.9333a11.998,11.998,0,1,0-8.4813,14.7566A11.9888,11.9888,0,0,0,161.5856,251.9333ZM150,258.9589a3.9072,3.9072,0,1,1,3.9072-3.9072A3.9086,3.9086,0,0,1,150,258.9589Z"/><path id="el_W_Zcvox9K0u" data-name="Dot 1" d="M269.0771,49.3063a11.998,11.998,0,1,0-8.4812,14.7566A11.9888,11.9888,0,0,0,269.0771,49.3063Zm-11.5856,7.0256a3.9072,3.9072,0,1,1,3.9072-3.9072A3.9086,3.9086,0,0,1,257.4915,56.3319Z"/><path id="el_QYsaGW9A6NP" data-name="Dot 1" d="M39.4041,64.0629a12.0452,12.0452,0,1,0-8.4812-14.7566A11.9888,11.9888,0,0,0,39.4041,64.0629Zm-.8028-11.6382a3.9072,3.9072,0,1,1,3.9072,3.9072A3.9087,3.9087,0,0,1,38.6013,52.4247Z"/></g></svg>