<svg xmlns="http://www.w3.org/2000/svg" viewBox="0 0 300 300" id="el_iCw8BjHL0"><style>@-webkit-keyframes kf_el_WJuq1jkGf0_an_1pr4zKUaM{0%{opacity: 0.3;}75%{opacity: 1;}100%{opacity: 1;}}@keyframes kf_el_WJuq1jkGf0_an_1pr4zKUaM{0%{opacity: 0.3;}75%{opacity: 1;}100%{opacity: 1;}}@-webkit-keyframes kf_el_VvA8fVvIr6_an_Ttm6yBDcg{0%{opacity: 0.3;}75%{opacity: 1;}100%{opacity: 1;}}@keyframes kf_el_VvA8fVvIr6_an_Ttm6yBDcg{0%{opacity: 0.3;}75%{opacity: 1;}100%{opacity: 1;}}@-webkit-keyframes kf_el_p8k-zbpPGQ_an_Hi9pHB-f7{0%{opacity: 0.3;}75%{opacity: 1;}100%{opacity: 1;}}@keyframes kf_el_p8k-zbpPGQ_an_Hi9pHB-f7{0%{opacity: 0.3;}75%{opacity: 1;}100%{opacity: 1;}}#el_iCw8BjHL0 *{-webkit-animation-duration: 2s;animation-duration: 2s;-webkit-animation-iteration-count: 1;animation-iteration-count: 1;-webkit-animation-timing-function: cubic-bezier(0, 0, 1, 1);animation-timing-function: cubic-bezier(0, 0, 1, 1);}#el__peUsQGJQk{fill: #4699a4;visibility: hidden;}#el_3Z_1UN0Yyq{fill: #cfd3d3;}#el_AlCPcGmrNd{fill: #fff;}#el_p8k-zbpPGQ{fill: #fff;-webkit-animation-fill-mode: forwards;animation-fill-mode: forwards;-webkit-animation-name: kf_el_p8k-zbpPGQ_an_Hi9pHB-f7;animation-name: kf_el_p8k-zbpPGQ_an_Hi9pHB-f7;-webkit-animation-timing-function: cubic-bezier(0, 0, 1, 1);animation-timing-function: cubic-bezier(0, 0, 1, 1);}#el_VvA8fVvIr6{fill: #fff;-webkit-animation-fill-mode: forwards;animation-fill-mode: forwards;-webkit-animation-name: kf_el_VvA8fVvIr6_an_Ttm6yBDcg;animation-name: kf_el_VvA8fVvIr6_an_Ttm6yBDcg;-webkit-animation-timing-function: cubic-bezier(0, 0, 1, 1);animation-timing-function: cubic-bezier(0, 0, 1, 1);}#el_WJuq1jkGf0{fill: #fff;-webkit-animation-fill-mode: forwards;animation-fill-mode: forwards;-webkit-animation-name: kf_el_WJuq1jkGf0_an_1pr4zKUaM;animation-name: kf_el_WJuq1jkGf0_an_1pr4zKUaM;-webkit-animation-timing-function: cubic-bezier(0, 0, 1, 1);animation-timing-function: cubic-bezier(0, 0, 1, 1);}</style><title>PersonalizedSupportForTheBrand</title><g id="el_O0MwSrXCY5"><path d="M226.1738,172.7519l-.71.571v30.34a16.2079,16.2079,0,0,1-16.19,16.19h-84.4a4.4076,4.4076,0,0,0-4.4057,4.4057l-.004,28.1358L81.2479,220.8272a4.4019,4.4019,0,0,0-2.7619-.9746H56.9006a16.2078,16.2078,0,0,1-16.19-16.19V116.7244a16.2081,16.2081,0,0,1,16.19-16.19h.0132V91.7233h-.0132a25.0306,25.0306,0,0,0-25.0012,25.0011v86.9384a25.0306,25.0306,0,0,0,25.0012,25.0011h20.032l45.175,36.362a4.4058,4.4058,0,0,0,7.168-3.4315l.004-32.93h79.9946a25.0305,25.0305,0,0,0,25.0011-25.0011V172.7519Z" id="el_3Z_1UN0Yyq"/><path d="M243.0994,27H90.7263A25.0305,25.0305,0,0,0,65.7251,52.001V138.94a25.0305,25.0305,0,0,0,25.0012,25.0011H170.72l.0044,32.93a4.4043,4.4043,0,0,0,7.1675,3.4311l45.1751-36.3615h20.032A25.0305,25.0305,0,0,0,268.1005,138.94V52.001A25.03,25.03,0,0,0,243.0994,27Zm16.19,111.94a16.2075,16.2075,0,0,1-16.19,16.19h-21.585a4.4016,4.4016,0,0,0-2.7623.9745L179.5361,187.67l-.0044-28.1353a4.407,4.407,0,0,0-4.4057-4.4057h-84.4a16.2075,16.2075,0,0,1-16.19-16.19V52.001a16.2075,16.2075,0,0,1,16.19-16.19H243.0994a16.2075,16.2075,0,0,1,16.19,16.19Z" id="el_AlCPcGmrNd"/></g><g id="el_vbGu0PRUOa"><path d="M239.4383,75.67l-10.7947-1.5711-4.8273-9.78a11.39,11.39,0,0,0-20.4267,0l-1.1812,2.3919,4.0413.5882c.6238.0907,1.2208.2515,1.8244.3956l.4225-.8547a5.6944,5.6944,0,0,1,10.2127,0l6.1525,12.464,13.757,2.0006a5.6937,5.6937,0,0,1,3.1545,9.7131l-9.9546,9.7017,2.3522,13.7015a5.6941,5.6941,0,0,1-8.2628,6.0036l-12.3054-6.4692-5.9163,3.11,1.0115,5.9013,4.9048-2.579,9.6488,5.0735a11.3884,11.3884,0,0,0,16.5322-12.0041l-1.846-10.75,7.8108-7.6121a11.3887,11.3887,0,0,0-6.31-19.4258Z" id="el_p8k-zbpPGQ"/><path d="M107.9166,120.4247a5.6936,5.6936,0,0,1-8.2623-6.0036l2.3526-13.7015-9.955-9.7017a5.694,5.694,0,0,1,3.1545-9.7131l13.7575-2.0006,6.1524-12.464a5.6944,5.6944,0,0,1,10.2127,0l.4217.8543c.6022-.1441,1.1983-.3045,1.8213-.3952l4.0443-.5886-1.18-2.3915a11.39,11.39,0,0,0-20.4268,0l-4.8272,9.78L94.3873,75.67a11.3887,11.3887,0,0,0-6.31,19.4258l7.8108,7.6121-1.8468,10.75a11.3893,11.3893,0,0,0,16.533,12.0041l9.6488-5.0735,4.9009,2.5777,1.0132-5.9013-5.9141-3.1091Z" id="el_VvA8fVvIr6"/><path d="M197.3657,109.0194,211.295,95.4443a11.3881,11.3881,0,0,0-6.3137-19.4267l-19.2474-2.799-8.6081-17.4414a11.39,11.39,0,0,0-20.4268,0L148.09,73.2186l-19.2508,2.8a11.3888,11.3888,0,0,0-6.3107,19.4254l13.93,13.5751-3.2923,19.1743a11.3887,11.3887,0,0,0,16.5322,12.0039l17.2137-9.0495L184.1325,140.2a11.3883,11.3883,0,0,0,16.5252-12.0067Zm-6.1185-1.9878,3.7977,22.1255a5.694,5.694,0,0,1-8.2624,6.0037l-19.8708-10.4472L147.041,135.1608a5.6939,5.6939,0,0,1-8.2624-6.0037l3.799-22.1255-16.074-15.6651a5.6935,5.6935,0,0,1,3.1558-9.7128l22.2124-3.231,9.9333-20.125a5.6954,5.6954,0,0,1,10.2136,0l9.9334,20.125,22.212,3.231a5.6938,5.6938,0,0,1,3.1562,9.7128Z" id="el_WJuq1jkGf0"/></g></svg>