<svg id="Capa_1" data-name="Capa 1" xmlns="http://www.w3.org/2000/svg" viewBox="0 0 496 496"><defs><style>.cls-1{fill:#61afbb;}.cls-2{fill:#fff;}.cls-3{fill:#e7503d;}.cls-4{fill:#b5b5b5;}</style></defs><title>OperationsManagement</title><path class="cls-1" d="M250.82,167.51a79.29,79.29,0,1,0,79.29,79.29A79.38,79.38,0,0,0,250.82,167.51ZM203,196.6a68.9,68.9,0,0,1,25.77-15.55l6.51-2.19L230.73,184a105.71,105.71,0,0,0-15.19,21.8l-.85,1.63-1.61-.87A42.76,42.76,0,0,1,203,199.18l-1.3-1.31Zm-21.25,43.26A69.2,69.2,0,0,1,194,207.09l1.2-1.72,1.52,1.45a55.5,55.5,0,0,0,12.72,8.94l1.39.72-.52,1.48a87.25,87.25,0,0,0-4.65,22.22l-.13,1.67H181.59Zm13.41,48.36L194,286.5a69.2,69.2,0,0,1-12.21-32.77l-.2-2h23.95l.16,1.63a80,80,0,0,0,5.44,21.78l.61,1.54-1.48.74a56.36,56.36,0,0,0-13.55,9.33Zm36.17,25.14A69.73,69.73,0,0,1,203,297l-1.33-1.26,1.29-1.31a43.58,43.58,0,0,1,11.43-8.05l1.55-.79.84,1.53a139.42,139.42,0,0,0,16.43,23.33l4,4.65Zm14.5-3.73-3.15-3.49a131.91,131.91,0,0,1-16.2-22l-1.2-2.07,2.32-.59A88.23,88.23,0,0,1,244,279l1.92-.12Zm0-40.63-1.71.09a96.25,96.25,0,0,0-21.58,3.56l-1.58.46-.61-1.52a70.66,70.66,0,0,1-4.74-17.82l-.25-2h30.47Zm0-27.15H215.41l.18-2a77,77,0,0,1,3.93-18.05l.57-1.65,1.66.51a94.91,94.91,0,0,0,22.41,3.82l1.71.1Zm0-27.14-1.92-.12a87,87,0,0,1-17.72-2.87l-2.19-.6,1.09-2a101.16,101.16,0,0,1,17.66-23.32l3.08-3Zm60.56-9.34,1.21,1.72a69.42,69.42,0,0,1,12.22,32.77l.2,2h-24l-.15-1.64a80.05,80.05,0,0,0-5.44-21.78l-.61-1.53,1.48-.75a56.05,56.05,0,0,0,13.54-9.33Zm-36.17-25.13a69.75,69.75,0,0,1,28.33,16.36l1.33,1.27-1.29,1.31a43.59,43.59,0,0,1-11.41,8l-1.56.79-.84-1.52a140.25,140.25,0,0,0-16.43-23.34l-4-4.64ZM255.77,184l3.15,3.49a131.28,131.28,0,0,1,16.19,22l1.2,2.06-2.31.59a88.23,88.23,0,0,1-16.31,2.47l-1.92.12Zm0,40.63,1.71-.1a95.78,95.78,0,0,0,21.58-3.56l1.57-.46.61,1.53A70.64,70.64,0,0,1,286,239.82l.24,2H255.77Zm0,27.15h30.46l-.18,2a77,77,0,0,1-3.93,18.06l-.57,1.64-1.67-.51a95.42,95.42,0,0,0-22.41-3.82l-1.7-.09Zm3.07,56-3.07,3V278.88l1.92.12a87.5,87.5,0,0,1,17.71,2.87l2.2.61-1.09,2A101.12,101.12,0,0,1,258.84,307.79ZM298.59,297a68.92,68.92,0,0,1-25.77,15.56l-6.5,2.18,4.58-5.1a106.21,106.21,0,0,0,15.2-21.81l.84-1.63,1.62.88a42.76,42.76,0,0,1,10.07,7.35l1.3,1.3Zm21.26-43.26a69.26,69.26,0,0,1-12.21,32.77l-1.21,1.72-1.52-1.45a55.19,55.19,0,0,0-12.71-8.93l-1.39-.72.51-1.48A87.36,87.36,0,0,0,296,253.42l.13-1.67h23.94Z"/><path class="cls-2" d="M265.18,116.5a6.38,6.38,0,0,0-.75,12.74,243.74,243.74,0,0,1,185.73,103.3,26,26,0,0,1,0,29.92c-97.91,138.58-302.69,138.4-400.48,0a26,26,0,0,1,0-29.92A243.73,243.73,0,0,1,235.41,129.23a6.38,6.38,0,1,0-.75-12.74A256.45,256.45,0,0,0,39.26,225.17a38.77,38.77,0,0,0,0,44.65c102.88,145.61,318.59,145.41,421.32,0a38.74,38.74,0,0,0,0-44.65A256.45,256.45,0,0,0,265.18,116.5Z"/><path class="cls-2" d="M56,72.68h48.78l31.09,38.7A8.29,8.29,0,0,0,148.81,101l-33.59-41.8a8.3,8.3,0,0,0-6.46-3.09H56Z"/><path class="cls-3" d="M59.37,58.27a23.54,23.54,0,1,0-16.64,29A23.53,23.53,0,0,0,59.37,58.27ZM36.64,72.06a7.67,7.67,0,1,1,7.66-7.67A7.67,7.67,0,0,1,36.64,72.06Z"/><path class="cls-2" d="M241.61,56.75V85.29a8.3,8.3,0,1,0,16.59,0V56.75Z"/><path class="cls-3" d="M272.64,30.07A23.54,23.54,0,1,0,256,59,23.53,23.53,0,0,0,272.64,30.07ZM249.9,43.85a7.67,7.67,0,1,1,7.67-7.66A7.66,7.66,0,0,1,249.9,43.85Z"/><path class="cls-2" d="M441.57,56.1H388.82a8.32,8.32,0,0,0-6.46,3.09L348.78,101a8.29,8.29,0,0,0,12.93,10.39l31.09-38.7h48.77Z"/><path class="cls-3" d="M481.65,58.27a23.54,23.54,0,1,0-16.64,29A23.54,23.54,0,0,0,481.65,58.27ZM458.92,72.06a7.67,7.67,0,1,1,7.66-7.67A7.67,7.67,0,0,1,458.92,72.06Z"/><path class="cls-2" d="M56.06,439.86h52.79a8.29,8.29,0,0,0,6.47-3.1l33.62-41.83A8.3,8.3,0,1,0,136,384.53l-31.13,38.73H56.06Z"/><path class="cls-3" d="M42.76,408.7a23.66,23.66,0,1,0,16.65,29A23.56,23.56,0,0,0,42.76,408.7Zm1.57,22.86a7.67,7.67,0,1,1-7.67-7.67A7.67,7.67,0,0,1,44.33,431.56Z"/><path class="cls-2" d="M442,423.26H393.16L362,384.53a8.3,8.3,0,0,0-12.94,10.4l33.62,41.83a8.28,8.28,0,0,0,6.46,3.1H442Z"/><path class="cls-2" d="M258.43,439.21V410.64a8.3,8.3,0,0,0-16.6,0v28.57Z"/><path class="cls-3" d="M256.23,436.93a23.66,23.66,0,1,0,16.65,29A23.54,23.54,0,0,0,256.23,436.93Zm1.57,22.86a7.67,7.67,0,1,1-7.67-7.67A7.67,7.67,0,0,1,257.8,459.79Z"/><path class="cls-3" d="M465.44,408.7a23.66,23.66,0,1,0,16.66,29A23.54,23.54,0,0,0,465.44,408.7ZM467,431.56a7.67,7.67,0,1,1-7.67-7.67A7.66,7.66,0,0,1,467,431.56Z"/><path class="cls-4" d="M429.86,257.42a6.38,6.38,0,0,0-9,.95,215,215,0,0,1-134.4,77.72,181.93,181.93,0,0,1-65.19.54l.15.05c-59.1-8.16-111.71-39.83-146.91-89.18,35.2-49.36,87.82-81,146.92-89.19l-.26.09a181.88,181.88,0,0,1,65,.46,215,215,0,0,1,134.71,77.76,6.38,6.38,0,1,0,9.92-8C335.76,111.11,152.39,115.17,63.52,241a11.35,11.35,0,0,0,0,13.07c89.21,126.26,272.6,129.4,367.28,12.36A6.38,6.38,0,0,0,429.86,257.42Z"/></svg>