<svg xmlns="http://www.w3.org/2000/svg" width="105" height="105" viewBox="0 0 105 105"><title>EducatedAndExmpowered</title><path d="M63.86,39.49V36a4.49,4.49,0,0,0-1.16-3,3.9,3.9,0,0,0-2.88-1.29,3.82,3.82,0,0,0-1.81.45,4.36,4.36,0,0,0-1-1.7,3.83,3.83,0,0,0-2.84-1.27,3.77,3.77,0,0,0-2.25.74,4.15,4.15,0,0,0-1.35,1.69l-.26-.14a3.62,3.62,0,0,0-1.58-.36,3.75,3.75,0,0,0-2.22.74,4.24,4.24,0,0,0-1.61,2.71l-.3-.12a3.61,3.61,0,0,0-3.39.55,4.21,4.21,0,0,0-1.65,3.39V55.82a6.86,6.86,0,0,0,1.11,3.78l1.53,2.34a3.75,3.75,0,0,1,.6,2.05V80.48a1.22,1.22,0,1,0,2.43,0V64a6.29,6.29,0,0,0-1-3.46l-1.53-2.36A4.2,4.2,0,0,1,42,55.82V49a3.49,3.49,0,0,0,1.43.3,3.66,3.66,0,0,0,1.79-.48,3.72,3.72,0,0,0,.76-.56,4,4,0,0,0,.84.69,3.61,3.61,0,0,0,3.91-.05,4,4,0,0,0,.88-.77,3.63,3.63,0,0,0,.76.54,3.73,3.73,0,0,0,1.81.47h3.72v.36H56a4.76,4.76,0,0,0-4.57,4.92v2.24a1.22,1.22,0,1,0,2.43,0V54.39A2.28,2.28,0,0,1,56,52h3.16a1.24,1.24,0,0,0,1.21-1.27V47.84a1.24,1.24,0,0,0-1.21-1.26H54.21a1.67,1.67,0,0,1-1.56-1.75v-.37a2.59,2.59,0,0,1,.67-1.76A2.09,2.09,0,0,1,54.87,42h8.72a2.39,2.39,0,0,1,2.06,2.47V54a3.62,3.62,0,0,1-1,2.5l-3.39,3.69a6.28,6.28,0,0,0-1.62,4.25V80.77a1.22,1.22,0,1,0,2.43,0V64.48a3.7,3.7,0,0,1,1-2.5l3.39-3.69A6.24,6.24,0,0,0,68.08,54V44.47A4.88,4.88,0,0,0,63.86,39.49ZM61.44,36v3.47H58.2V36a1.73,1.73,0,0,1,1.61-1.82h0a1.56,1.56,0,0,1,1.12.52A1.9,1.9,0,0,1,61.44,36Zm-8.79-.78v-1.8a1.68,1.68,0,0,1,1.55-1.76h0a1.52,1.52,0,0,1,1.08.5,1.87,1.87,0,0,1,.47,1.26v6h-.9a4.4,4.4,0,0,0-2.22.6V35.23Zm-2.43,9.62v.46a1.47,1.47,0,1,1-2.91,0V35.23a1.57,1.57,0,0,1,1.43-1.63h0a1.31,1.31,0,0,1,.66.18,1.68,1.68,0,0,1,.79,1.45v9.61Zm-5.33.28a1.44,1.44,0,1,1-2.86,0V38.34a1.7,1.7,0,0,1,.42-1.14,1.36,1.36,0,0,1,1-.47h0a1.29,1.29,0,0,1,.63.17,1.65,1.65,0,0,1,.8,1.44Z" fill="#90a0a5"/><path d="M66,82.82H39A3.21,3.21,0,0,0,35.79,86v3.4A3.21,3.21,0,0,0,39,92.64h1v2.88a3.23,3.23,0,0,0,3.23,3.23h1.38a4.92,4.92,0,0,0,1.5,2,4.84,4.84,0,0,0,3.05,1.06h6.6a4.79,4.79,0,0,0,3-1.06,4.94,4.94,0,0,0,1.51-2h1.38A3.23,3.23,0,0,0,65,95.52V92.64h1a3.21,3.21,0,0,0,3.21-3.21V86A3.21,3.21,0,0,0,66,82.82Zm-4.77,9.84V95H43.77V92.66Zm4.25-6.11v2.36h-26V86.55ZM57.3,98a1.88,1.88,0,0,1-1.5.75H49.2A1.88,1.88,0,0,1,47.7,98Z" fill="#525b60"/><path d="M89.62,46,94,43.66l-.63-7.29-4.83-1.45L87,30.76l3-3.89-3.53-6.4-5,.63-3.09-3.18,1.21-4.8L73.83,8.71l-4.31,2.62L65.4,9.68l-.84-4.89L57.43,3.14,54.56,7.29l-2,.07-2.09-.07L47.57,3.14,40.45,4.79,39.6,9.68l-4.12,1.65L31.17,8.71l-5.83,4.41,1.21,4.8L23.46,21.1l-5-.63-3.53,6.4L18,30.76l-1.52,4.16-4.83,1.45L11,43.66,15.38,46l.3,4.43-3.82,3.29,2.38,6.91,4.94.33,2.08,3.92-2.15,4.56,5,5.34,4.65-1.7,3.49,2.73-.11,5.09,5.24,1.72h.05l.15.05h0a2,2,0,0,0,.54.07,2.26,2.26,0,0,0,2.23-2l0,0V76.85a19.2,19.2,0,0,0-1.32-7.11,19,19,0,0,0-3.93-6.08,23.93,23.93,0,0,1-5.75-10.44l-.05-.13a24.79,24.79,0,0,1-1.43-6A24.52,24.52,0,0,1,51.81,20h1.38a24.48,24.48,0,0,1,22.4,33.2l0,.13a23.82,23.82,0,0,1-5.73,10.38,18.66,18.66,0,0,0-5.25,13.19v4l0,0a2.25,2.25,0,0,0,2.22,1.9,2.19,2.19,0,0,0,.83-.16l5.21-1.7-.11-5.09,3.49-2.73,4.65,1.7,5-5.34-2.15-4.56,2.08-3.92,4.94-.33,2.38-6.91L89.32,50.4ZM27.8,30.49A28.26,28.26,0,0,0,25.89,54.3a27.64,27.64,0,0,0,6.6,11.9,15.22,15.22,0,0,1,3.18,4.9,15.51,15.51,0,0,1,1.06,5.75v1.9l-.85-.35L36,74l-6.56-5.15-4.28,1.58-1.6-1.72,1.86-4-3.9-7.37-4.55-.31-.76-2.22L19.49,52l-.56-8.32-4-2.14.21-2.34,4.2-1.26,2.87-7.84-2.82-3.58,1.13-2.06,4.35.56,5.81-6-1.11-4.42,1.87-1.41,3.75,2.27,7.74-3.11.78-4.5L46,7.31l2.5,3.61,3.37.12v.05l.67,0,.67,0V11l3.37-.12L59,7.31l2.29.53.78,4.5,7.74,3.11,3.75-2.27,1.87,1.41L74.36,19l5.81,6,4.35-.56,1.13,2.06-2.82,3.58,2.87,7.84,4.2,1.26.21,2.34-4,2.14L85.51,52l3.31,2.86-.76,2.22-4.55.31-3.9,7.37,1.86,4-1.6,1.72-4.28-1.58L69,74l.09,4.39-.85.35v-1.9a15.51,15.51,0,0,1,1.06-5.75,15.22,15.22,0,0,1,3.18-4.9,27.64,27.64,0,0,0,6.6-11.9A28.34,28.34,0,0,0,77.2,30.49a28.46,28.46,0,0,0-49.4,0Z" fill="#525b60"/></svg>