<svg id="Layer_1" data-name="Layer 1" xmlns="http://www.w3.org/2000/svg" viewBox="0 0 512 512"><defs><style>.cls-1{fill:#748187;}.cls-2{fill:#525b60;}</style></defs><title>Products_IncreasedLoyalty</title><path class="cls-1" d="M140.44,448H68.54V327.39a7.9,7.9,0,0,0-7.9-7.89h-11l51.84-66,18.77,23.89a153.63,153.63,0,0,1,23.45-33.32V218.43a7.61,7.61,0,0,0-7.61-7.61H125.66l49.44-62.93,28.5,36.26v20a154.9,154.9,0,0,1,15.22-4.65V115.83a7.63,7.63,0,0,0-7.61-7.61h-14L255.6,33.5,314,108.22H300a7.62,7.62,0,0,0-7.61,7.61v83.53a152.72,152.72,0,0,1,15.22,4.58V184.15l28.49-36.26,49.45,62.93H375.15a7.62,7.62,0,0,0-7.61,7.61v25a154.81,154.81,0,0,1,15.23,19.08V226H401.2a7.61,7.61,0,0,0,6-12.31l-65.1-82.87a7.63,7.63,0,0,0-12,0L307.6,159.51V123.44h22a7.61,7.61,0,0,0,6-12.29l-74-94.7a7.6,7.6,0,0,0-12,0l-74,94.7a7.6,7.6,0,0,0,6,12.29h22v36.07l-22.51-28.65a7.63,7.63,0,0,0-12,0L104,213.73A7.61,7.61,0,0,0,110,226h18.43v36.28l-20.92-26.63a8,8,0,0,0-4.26-2.76v-.25H99.61v.24a8,8,0,0,0-4.26,2.76L27.14,322.51a7.89,7.89,0,0,0,6.21,12.77H52.46v37.83c0,50.6,0,89.31,0,89.53l0,1.68H156.88A154.09,154.09,0,0,1,140.44,448Z"/><path class="cls-1" d="M485.31,322.51,417.1,235.69a7.92,7.92,0,0,0-4.25-2.76v-.25H409.2v.24a7.92,7.92,0,0,0-4.25,2.76l-21.67,27.58a154.49,154.49,0,0,1,8.6,14.61L411,253.52l51.84,66h-11a7.9,7.9,0,0,0-7.89,7.89v6.42c0,.15,0,15.1,0,41.51V448H371.4A155.12,155.12,0,0,1,355,464.32H460l0-1.67c0-.24,0-47.08,0-99.24V335.28h19.12a7.89,7.89,0,0,0,6.2-12.77Z"/><path class="cls-2" d="M255.92,203.08c-79.86,0-144.82,64.95-144.82,144.81s65,144.81,144.82,144.81,144.81-64.95,144.81-144.81S335.76,203.08,255.92,203.08Zm0,272.76a128,128,0,1,1,128-127.95A128.1,128.1,0,0,1,255.92,475.84Z"/><path class="cls-2" d="M338.86,454.4c-.68-1-3.05-6.87-9.44-39.55-3.07-15.38-16.93-18.74-18.56-19.09l-7.24-1.8-24.45-6.06h23a11.28,11.28,0,0,0,11.28-11.27v-51.7c.32-2.06.2-13.52,0-22.95v-.59c0-20.54,0-21-.06-21.11-1.37-13.56-13-28.08-28.2-28.08a25.39,25.39,0,0,0-5.43.54,8,8,0,0,1-1.35.2,1.61,1.61,0,0,1-.86-.24c-8.06-4.45-19.8-7.36-29.91-7.41h-.34a52.45,52.45,0,0,0-37.51,15.85,53.71,53.71,0,0,0-15.68,38v77.5a11.28,11.28,0,0,0,11.27,11.27h22.9l-31.55,7.82-.17,0-2.61.77-.3.1a24,24,0,0,0-15.62,18.2c-7.24,36.34-5.13,43.25-2.56,44.6,1.27,1.65,5.58,3.08,8,3.08a3.77,3.77,0,0,0,2.78-.94,2.64,2.64,0,0,0,.74-1.94,1.5,1.5,0,0,0-1.71-1.51h-.44a1.21,1.21,0,0,1-1.1-.47c-1.44-1.76-2.94-9.43,3.28-41a15.06,15.06,0,0,1,9.71-11.37l2.35-.69,19.61-4.87c8.52,10,13.57,16,16.63,19.63,4.76,5.63,4.76,5.63,5.51,6.36l.08.08a18.4,18.4,0,0,0,12.8,5.49c5.33,0,10.39-2.5,14.26-7.05l20.85-24.49,19.52,4.84.43.13c8.11,2.26,10.82,7.74,11.65,11.94,6.42,32.61,8.75,39.22,10.09,40.56-.29,3.09-2,4.26-6.12,4.26h-.72l-.3.65-1.56,3.36-.21.46.2.46,1.56,3.54.3.67h.73c9.36,0,15.22-5.46,15.3-14.24C339.73,455.6,339.74,454.62,338.86,454.4ZM304.28,309.94v25.89l0,0v40.83a2.13,2.13,0,0,1-2.13,2.13h-26v-.87a46.92,46.92,0,0,0,24.44-39.31l-.22-31.06v-.13l0-.13a10.17,10.17,0,0,0-8.47-7.6c-3.55-.47-6.25-2.56-8-6.21a7,7,0,0,0-5.7-3.94c-.22,0-.43,0-.65,0a7,7,0,0,0-5.65,2.87c-5.68,7.73-21.92,25.71-50,25.71-1.78,0-3.06-.07-3.75-.11l-.35,0-.6,0A10.24,10.24,0,0,0,207,328.16v7.92a47.91,47.91,0,0,0,14.76,34.5,47.27,47.27,0,0,0,9.62,7.1v1.08H205.43a2.13,2.13,0,0,1-2.13-2.13v-77.5a44.63,44.63,0,0,1,13-31.54,43.47,43.47,0,0,1,31.1-13.16h.23c8.69,0,18.72,2.51,25.54,6.27a10.18,10.18,0,0,0,5.1,1.37,20.55,20.55,0,0,0,3.33-.35,21.5,21.5,0,0,1,3.63-.38c8.05,0,17.86,8.12,19.1,19.76,0,.48,0,7.38,0,18.55v0c0,.13,0,.25,0,.38V308l-.08-.05Zm-88.17,20.28c-.05-2.39,0-2.53.35-2.87a1.08,1.08,0,0,1,.74-.29h.06c1.52.09,3.05.14,4.55.14,21.87,0,41.49-9.54,55.45-26.89a18.68,18.68,0,0,0,13.42,8.42,1,1,0,0,1,.83.93v27c0,18.51-14.18,37.64-37.9,37.64A36.46,36.46,0,0,1,228,364a38.74,38.74,0,0,1-11.93-27.89C216.19,333.4,216.14,331.56,216.11,330.22Zm50.61,81.39L261,418.28c-2.13,2.51-4.66,3.83-7.3,3.83s-5.18-1.33-7.32-3.85l-5.63-6.65h0l-1.54-1.85-5.86-6.89-.33-.4h0l-4.42-5.22,8.39-2.08a4.59,4.59,0,0,0,3.47-4.47v-9.14a46.91,46.91,0,0,0,26.53.09c0,3.31,0,5.42,0,6.87,0,2.72,0,2.94.25,3.72a4.57,4.57,0,0,0,3.22,2.93l8.45,2.09-2.21,2.61-2.22,2.6h-.09l-.34.4-5.84,6.89-1.56,1.85Z"/></svg>