<svg xmlns="http://www.w3.org/2000/svg" width="105" height="105" viewBox="0 0 105 105"><title>AdaptableSystems</title><path d="M52,24.26A11.68,11.68,0,1,1,63.7,12.58,11.69,11.69,0,0,1,52,24.26ZM52,4.77a7.82,7.82,0,1,0,7.81,7.81A7.82,7.82,0,0,0,52,4.77Z" fill="#525b60"/><rect x="84.01" y="69.56" width="14.44" height="14.44" fill="none" stroke="#525b60" stroke-miterlimit="10" stroke-width="5"/><path d="M29.1,85.93H6.19L17.64,66.08ZM12.87,82.07h9.55l-4.78-8.26Z" fill="#525b60"/><path d="M78.27,88.92a42.36,42.36,0,0,1-52.59,0h-8a47.77,47.77,0,0,0,68.66,0Z" fill="#525b60"/><path d="M94.05,32.59A47.33,47.33,0,0,0,66.26,10a14.88,14.88,0,0,1,.24,2.6,14.06,14.06,0,0,1-.33,3.06,42.32,42.32,0,0,1,27.42,49h5.52A47.27,47.27,0,0,0,94.05,32.59Z" fill="#525b60"/><path d="M37.91,15.72a14.12,14.12,0,0,1-.36-3.14,13.87,13.87,0,0,1,.24-2.51A47.78,47.78,0,0,0,8.69,75.94L12.11,70a42.33,42.33,0,0,1,25.8-54.3Z" fill="#525b60"/><path d="M82.55,55.07a1.39,1.39,0,0,0-1.25-.79H77.67l0-.27A24.82,24.82,0,0,0,35.31,38.1l-.09.11,1.91,2,.15-.12a22.05,22.05,0,0,1,37.6,15.59,1.39,1.39,0,0,0,1.39,1.39h2.06l-5.41,6.5-5.48-6.5h2.08a1.39,1.39,0,0,0,1.39-1.39A18.14,18.14,0,0,0,40,42.84l-.12.14,1.91,2,.18-.14A15.35,15.35,0,0,1,68.08,54l0,.32H64.55a1.38,1.38,0,0,0-1.07,2.27l8.37,10a1.45,1.45,0,0,0,2.14,0l8.37-10A1.4,1.4,0,0,0,82.55,55.07Z" fill="#90a0a5"/><path d="M68.73,71.09l-.14.17a22.06,22.06,0,0,1-37.66-15.6,1.38,1.38,0,0,0-1.38-1.38H27.47l5.43-6.5,5.42,6.5H36.25a1.38,1.38,0,0,0-1.39,1.38,18.14,18.14,0,0,0,31,12.83l.07-.09-2-1.91,0,0a15.37,15.37,0,0,1-26.12-9.15l0-.32h3.58a1.39,1.39,0,0,0,1.06-2.27L34,44.73a1.42,1.42,0,0,0-2.13,0L23.46,54.78a1.36,1.36,0,0,0-.19,1.47,1.39,1.39,0,0,0,1.25.8h3.62l0,.27A24.83,24.83,0,0,0,70.5,73.23a1.39,1.39,0,0,0,.21-.27Z" fill="#90a0a5"/></svg>