<svg xmlns="http://www.w3.org/2000/svg" viewBox="0 0 600 350" id="el_LIU_nbRS6"><style>@-webkit-keyframes kf_el_NNm6pr0dgnW_an_-pVNYLDbj{0%{opacity: 0;}12.50%{opacity: 0;}25%{opacity: 1;}100%{opacity: 1;}}@keyframes kf_el_NNm6pr0dgnW_an_-pVNYLDbj{0%{opacity: 0;}12.50%{opacity: 0;}25%{opacity: 1;}100%{opacity: 1;}}@-webkit-keyframes kf_el_50JHqRLCEZX_an_7JFSNsn6y{0%{opacity: 0;}37.50%{opacity: 0;}50%{opacity: 1;}100%{opacity: 1;}}@keyframes kf_el_50JHqRLCEZX_an_7JFSNsn6y{0%{opacity: 0;}37.50%{opacity: 0;}50%{opacity: 1;}100%{opacity: 1;}}@-webkit-keyframes kf_el_W7YOI3nUPqn_an_4n2XWFMiI{0%{opacity: 0;}62.50%{opacity: 0;}75%{opacity: 1;}100%{opacity: 1;}}@keyframes kf_el_W7YOI3nUPqn_an_4n2XWFMiI{0%{opacity: 0;}62.50%{opacity: 0;}75%{opacity: 1;}100%{opacity: 1;}}@-webkit-keyframes kf_el_kGSeZGqVJ4N_an_N_3oDTRib{0%{opacity: 0.1;}12.50%{opacity: 1;}100%{opacity: 1;}}@keyframes kf_el_kGSeZGqVJ4N_an_N_3oDTRib{0%{opacity: 0.1;}12.50%{opacity: 1;}100%{opacity: 1;}}@-webkit-keyframes kf_el_YYuIHjMe5Rq_an_X8Ag__OX3{25%{opacity: 0.1;}37.50%{opacity: 1;}100%{opacity: 1;}0%{opacity: 0.1;}}@keyframes kf_el_YYuIHjMe5Rq_an_X8Ag__OX3{25%{opacity: 0.1;}37.50%{opacity: 1;}100%{opacity: 1;}0%{opacity: 0.1;}}@-webkit-keyframes kf_el_UzWeTu55YOz_an_xqs0tzZbl{50%{opacity: 0.1;}62.50%{opacity: 1;}100%{opacity: 1;}0%{opacity: 0.1;}}@keyframes kf_el_UzWeTu55YOz_an_xqs0tzZbl{50%{opacity: 0.1;}62.50%{opacity: 1;}100%{opacity: 1;}0%{opacity: 0.1;}}@-webkit-keyframes kf_el_g69D_XqOGX_an_JWee0-FNb{75%{opacity: 0.1;}87.92%{opacity: 1;}0%{opacity: 0.1;}100%{opacity: 1;}}@keyframes kf_el_g69D_XqOGX_an_JWee0-FNb{75%{opacity: 0.1;}87.92%{opacity: 1;}0%{opacity: 0.1;}100%{opacity: 1;}}#el_LIU_nbRS6 *{-webkit-animation-duration: 8s;animation-duration: 8s;-webkit-animation-iteration-count: 1;animation-iteration-count: 1;-webkit-animation-timing-function: cubic-bezier(0, 0, 1, 1);animation-timing-function: cubic-bezier(0, 0, 1, 1);}#el_Qj7qe9kr_S{fill: #2b373f;}#el_4A8lz_9dlU{fill: #e7503d;}#el_FxF8HFtFtN{fill: #8f8f8f;}#el_tzcSuEVi0N{fill: #61afbb;}#el_XO9lJ3cP5U{fill: #8f8f8f;}#el_Xd8yiVG1U-{fill: #e7503d;}#el_VpSxXlRFwC{fill: #61afbb;}#el_MQtTvQZjPF{fill: #61afbb;}#el_U0AbgtJcsE{fill: #61afbb;}#el_Y3RNkC_fm_{fill: #61afbb;}#el_G5fzLqHqAo{fill: #61afbb;}#el_j5NXuqP87W{fill: #61afbb;}#el_QtdEDdz12p{fill: #61afbb;}#el_3mzevL_gQTs{fill: #61afbb;}#el_jbAqejNUI5i{fill: #61afbb;}#el_F0O38FVqK6n{fill: #61afbb;}#el_cSkMIHOtrFS{fill: #61afbb;}#el_Yl0V6DUodg6{fill: #61afbb;}#el_oUqz9D5YtoN{fill: #61afbb;}#el_jnglZTNYITE{fill: #61afbb;}#el_92JE9J-MMjr{fill: #61afbb;}#el_wHBXgNJyyOy{fill: #61afbb;}#el_Cqs2OgoVpih{fill: #8f8f8f;}#el_trFtawuzolP{fill: #e7503d;}#el_D6onNj12SyX{fill: #61afbb;}#el_uAjXdaMNbOF{fill: #fff;}#el_Gc6Keyu-ukT{fill: #fff;}#el_wVdU1NZeoKt{fill: #fff;}#el_YuhuI_H12A4{fill: #fff;}#el_HCZVSX0XOT3{fill: #fff;}#el_Hd9uVnoc8Hi{fill: #fff;}#el_c1axqROZbVB{fill: #fff;}#el_adltoqCti8s{fill: #fff;}#el_hez369wONvM{fill: #fff;}#el_m-qtGdju7CR{fill: #fff;}#el_CftC6yMfPR7{fill: #fff;}#el_dkzPvN892PM{fill: #fff;}#el_9tjL5g-KO5v{fill: #fff;}#el_K6R5Q1kbevS{fill: #fff;}#el_nbdLvx-KUIl{fill: #fff;}#el_mXgMitK0Bv8{fill: #fff;}#el_1Z5qd3uvo09{fill: #fff;}#el_725AtP9J7Br{fill: #fff;}#el_rsmrmIkpvlM{fill: #fff;}#el_ImjeZFFGLKi{fill: #fff;}#el_HIvOAZ0SUMf{fill: #fff;}#el_nLZSJZVLWI7{fill: #fff;}#el_-KFDVTUHQ4i{fill: #fff;}#el_sV1veiF9xoO{fill: #fff;}#el_VOSa4eYdDFK{fill: #fff;}#el_8eGv0xFXYxs{fill: #fff;}#el_qjTvi4Q40je{fill: #8f8f8f;}#el_HXdtJwSyhYs{fill: #61afbb;}#el_SGcxBCH19ji{fill: #e7503d;}#el_16gR6uYWFZc{fill: #61afbb;}#el_mhVTlfpXaRi{fill: #8f8f8f;}#el_T-4eIZWgBXB{fill: #fff;}#el_pPnlie8JlaO{fill: #8f8f8f;}#el_AHIorXyJHo5{fill: #61afbb;}#el_C9D9xmJkPdE{fill: #e7503d;}#el_ytHrWmo5ZLE{fill: #61afbb;}#el_iuEfLuVVD7d{fill: #8f8f8f;}#el_O716C0Rs2xN{fill: #fff;}#el_iBmZtrcflJV{fill: #fff;}#el_0WHGEEGp_Yy{fill: none;stroke: #fff;stroke-miterlimit: 10;stroke-width: 2.299999952316284px;}#el_Zmqd3qp4uy-{fill: none;stroke: #fff;stroke-miterlimit: 10;stroke-width: 2.299999952316284px;}#el_0Hqukc7oZyS{fill: none;stroke: #fff;stroke-miterlimit: 10;stroke-width: 2.299999952316284px;}#el_upWuu1ZuAxT{fill: none;stroke: #fff;stroke-miterlimit: 10;stroke-width: 2.299999952316284px;}#el_E36CvdnYTR8{fill: none;stroke: #fff;stroke-miterlimit: 10;stroke-width: 2.299999952316284px;}#el_RkLnzwRMUpc{fill: none;stroke: #fff;stroke-miterlimit: 10;stroke-width: 2.299999952316284px;}#el_AQAIapzfMsA{fill: none;stroke: #fff;stroke-miterlimit: 10;stroke-width: 2.299999952316284px;}#el_0suUl4Fjuv3{fill: none;stroke: #fff;stroke-miterlimit: 10;stroke-width: 2.299999952316284px;}#el__LvxHjg99F8{fill: none;stroke: #fff;stroke-miterlimit: 10;stroke-width: 2.299999952316284px;}#el_4FdXFEsilfp{fill: none;stroke: #fff;stroke-miterlimit: 10;stroke-width: 2.299999952316284px;}#el__l98w0nmguw{fill: none;stroke: #fff;stroke-miterlimit: 10;stroke-width: 2.299999952316284px;}#el_FiPnocEp_G3{fill: none;stroke: #fff;stroke-miterlimit: 10;stroke-width: 2.299999952316284px;}#el_hLk0yMG_fgU{fill: #61afbb;}#el_8Ktk9g15D61{fill: #e7503d;}#el_nq2mIWQpLAu{fill: #d8af2e;}#el_HNaH72tUsr5{fill: #61afbb;}#el_vB8EmuBUFzC{fill: #e7503d;}#el_AQJGzg8pdu2{fill: #d8af2e;}#el_LXU1jhhNIkZ{fill: #61afbb;}#el_ZWuEfUdaFDj{fill: #61afbb;}#el_pOdd95bAc_C{fill: #d8af2e;}#el__KrV-czljUg{fill: #61afbb;}#el_GJuQIOqCu4C{fill: #e7503d;}#el_nU3hvzYgiAO{fill: #61afbb;}#el_43WNvg6XhhS{fill: #d8af2e;}#el_bG-zw7nrKnn{fill: #d8af2e;}#el_lxVl64vHLK9{fill: #e7503d;}#el_JKJF0beXuvr{fill: #61afbb;}#el_Uq-HFvDJju6{fill: #d8af2e;}#el_VFXw3NLaEEQ{fill: #e7503d;}#el_h7ajR6rLw6f{fill: #61afbb;}#el_lPrf9IOW-UR{fill: #61afbb;}#el_3hhp02xPzLs{fill: #e7503d;}#el_3-dEjv5ZJSp{fill: #61afbb;}#el_1PVodPzX7FE{fill: #61afbb;}#el_cr-BNop63m3{fill: #61afbb;}#el_WMOrjOY2k_X{fill: #d8af2e;}#el_Stzgy0T_a9K{fill: #e7503d;}#el_PZBP5B57j9w{fill: #e7503d;}#el_nYh3u-NA1ge{fill: #fff;}#el_52B_FjzYjtS{fill: #61afbb;}#el_n__CWNDCqGZ{fill: none;stroke: #fff;stroke-miterlimit: 10;stroke-width: 2.299999952316284px;}#el_OZ5bST5Kah-{fill: none;stroke: #fff;stroke-miterlimit: 10;stroke-width: 2.299999952316284px;}#el_XOx0YQZC9ZB{fill: none;stroke: #fff;stroke-miterlimit: 10;stroke-width: 2.299999952316284px;}#el_Jtwfc521nhq{fill: none;stroke: #fff;stroke-miterlimit: 10;stroke-width: 2.299999952316284px;}#el_bT1dk2Ds8z7{fill: none;stroke: #fff;stroke-miterlimit: 10;stroke-width: 2.299999952316284px;}#el_WX8oBP3Kp46{fill: none;stroke: #fff;stroke-miterlimit: 10;stroke-width: 2.299999952316284px;}#el_g69D_XqOGX{-webkit-animation-fill-mode: forwards;animation-fill-mode: forwards;-webkit-animation-name: kf_el_g69D_XqOGX_an_JWee0-FNb;animation-name: kf_el_g69D_XqOGX_an_JWee0-FNb;-webkit-animation-timing-function: cubic-bezier(0, 0, 1, 1);animation-timing-function: cubic-bezier(0, 0, 1, 1);}#el_UzWeTu55YOz{-webkit-animation-fill-mode: forwards;animation-fill-mode: forwards;-webkit-animation-name: kf_el_UzWeTu55YOz_an_xqs0tzZbl;animation-name: kf_el_UzWeTu55YOz_an_xqs0tzZbl;-webkit-animation-timing-function: cubic-bezier(0, 0, 1, 1);animation-timing-function: cubic-bezier(0, 0, 1, 1);}#el_YYuIHjMe5Rq{-webkit-animation-fill-mode: forwards;animation-fill-mode: forwards;-webkit-animation-name: kf_el_YYuIHjMe5Rq_an_X8Ag__OX3;animation-name: kf_el_YYuIHjMe5Rq_an_X8Ag__OX3;-webkit-animation-timing-function: cubic-bezier(0, 0, 1, 1);animation-timing-function: cubic-bezier(0, 0, 1, 1);}#el_kGSeZGqVJ4N{-webkit-animation-fill-mode: forwards;animation-fill-mode: forwards;-webkit-animation-name: kf_el_kGSeZGqVJ4N_an_N_3oDTRib;animation-name: kf_el_kGSeZGqVJ4N_an_N_3oDTRib;-webkit-animation-timing-function: cubic-bezier(0, 0, 1, 1);animation-timing-function: cubic-bezier(0, 0, 1, 1);}#el_W7YOI3nUPqn{-webkit-animation-fill-mode: forwards;animation-fill-mode: forwards;-webkit-animation-name: kf_el_W7YOI3nUPqn_an_4n2XWFMiI;animation-name: kf_el_W7YOI3nUPqn_an_4n2XWFMiI;-webkit-animation-timing-function: cubic-bezier(0, 0, 1, 1);animation-timing-function: cubic-bezier(0, 0, 1, 1);}#el_50JHqRLCEZX{-webkit-animation-fill-mode: forwards;animation-fill-mode: forwards;-webkit-animation-name: kf_el_50JHqRLCEZX_an_7JFSNsn6y;animation-name: kf_el_50JHqRLCEZX_an_7JFSNsn6y;-webkit-animation-timing-function: cubic-bezier(0, 0, 1, 1);animation-timing-function: cubic-bezier(0, 0, 1, 1);}#el_NNm6pr0dgnW{-webkit-animation-fill-mode: forwards;animation-fill-mode: forwards;-webkit-animation-name: kf_el_NNm6pr0dgnW_an_-pVNYLDbj;animation-name: kf_el_NNm6pr0dgnW_an_-pVNYLDbj;-webkit-animation-timing-function: cubic-bezier(0, 0, 1, 1);animation-timing-function: cubic-bezier(0, 0, 1, 1);}#el_gELJr4n7j5{visibility: hidden;}</style><title>Aggregator_Full</title><g id="el_g69D_XqOGX" data-name="Icon 4 Data Cloud"><ellipse id="el_4A8lz_9dlU" data-name="Data Cloud Dot 2" cx="482.34" cy="233.52" rx="1.57" ry="1.57"/><ellipse id="el_FxF8HFtFtN" data-name="Data Cloud Dot 1" cx="484.85" cy="242.02" rx="1.57" ry="1.57"/><ellipse id="el_tzcSuEVi0N" data-name="Data Cloud Dot 3" cx="468.84" cy="240.23" rx="1.57" ry="1.57"/><ellipse id="el_XO9lJ3cP5U" data-name="Data Cloud Dot 1" cx="460.6" cy="247.08" rx="1.57" ry="1.57"/><ellipse id="el_Xd8yiVG1U-" data-name="Data Cloud Dot 2" cx="475.27" cy="249.69" rx="1.57" ry="1.57"/><ellipse id="el_VpSxXlRFwC" data-name="Data Cloud Dot 3" cx="491.08" cy="248.32" rx="1.57" ry="1.57"/><ellipse id="el_MQtTvQZjPF" data-name="Data Cloud Dot 3" cx="468.84" cy="260.45" rx="1.57" ry="1.57"/><ellipse id="el_U0AbgtJcsE" data-name="Data Cloud Dot 3" cx="468.84" cy="266.51" rx="1.57" ry="1.57"/><ellipse id="el_Y3RNkC_fm_" data-name="Data Cloud Dot 3" cx="468.84" cy="272.57" rx="1.57" ry="1.57"/><ellipse id="el_G5fzLqHqAo" data-name="Data Cloud Dot 3" cx="468.84" cy="278.64" rx="1.57" ry="1.57"/><ellipse id="el_j5NXuqP87W" data-name="Data Cloud Dot 3" cx="468.84" cy="284.7" rx="1.57" ry="1.57"/><ellipse id="el_QtdEDdz12p" data-name="Data Cloud Dot 3" cx="468.84" cy="290.76" rx="1.57" ry="1.57"/><ellipse id="el_3mzevL_gQTs" data-name="Data Cloud Dot 3" cx="468.84" cy="296.83" rx="1.57" ry="1.57"/><ellipse id="el_jbAqejNUI5i" data-name="Data Cloud Dot 3" cx="468.84" cy="302.89" rx="1.57" ry="1.57"/><ellipse id="el_F0O38FVqK6n" data-name="Data Cloud Dot 3" cx="468.84" cy="308.95" rx="1.57" ry="1.57"/><ellipse id="el_cSkMIHOtrFS" data-name="Data Cloud Dot 3" cx="473.9" cy="272.57" rx="1.57" ry="1.57"/><ellipse id="el_Yl0V6DUodg6" data-name="Data Cloud Dot 3" cx="473.9" cy="290.76" rx="1.57" ry="1.57"/><ellipse id="el_oUqz9D5YtoN" data-name="Data Cloud Dot 3" cx="473.9" cy="308.95" rx="1.57" ry="1.57"/><ellipse id="el_jnglZTNYITE" data-name="Data Cloud Dot 3" cx="478.95" cy="272.57" rx="1.57" ry="1.57"/><ellipse id="el_92JE9J-MMjr" data-name="Data Cloud Dot 3" cx="478.95" cy="290.76" rx="1.57" ry="1.57"/><ellipse id="el_wHBXgNJyyOy" data-name="Data Cloud Dot 3" cx="478.95" cy="308.95" rx="1.57" ry="1.57"/><rect id="el_Cqs2OgoVpih" data-name="Data Upload To Cell 3" x="486.74" y="274.67" width="17.38" height="2.91"/><rect id="el_trFtawuzolP" data-name="Data Upload To Cell 2" x="486.74" y="279.52" width="17.38" height="1.94"/><rect id="el_D6onNj12SyX" data-name="Data Upload To Cell 1" x="486.74" y="283.4" width="17.38" height="20.86"/><path id="el_uAjXdaMNbOF" data-name="Data Cloud" d="M498.6,240.59a9.61,9.61,0,0,0-5.81-2.86A10.38,10.38,0,0,0,490,229.2a10.82,10.82,0,0,0-10.77-3.12c-2.3.71-5.19,2.17-6.52,5.15a8.16,8.16,0,0,0-4.19-1.14,8.29,8.29,0,0,0-8.25,7.69,9.7,9.7,0,1,0-1.42,19.31h32.84a9.72,9.72,0,0,0,6.91-16.5Zm-6.91,15H458.85a8.24,8.24,0,1,1,2-16.24,8.34,8.34,0,0,1,.85.26c.34-.4.71-.78,1.08-1.15a10.46,10.46,0,0,0-1-.39,6.84,6.84,0,0,1,6.81-6.54,6.7,6.7,0,0,1,3.65,1.06,10.88,10.88,0,0,0-.43,1.37c.5,0,1,.08,1.48.14a8.87,8.87,0,0,1,.52-1.47l.24-.53,0,0c1.05-2.66,3.66-4,5.71-4.61a9.38,9.38,0,0,1,9.31,2.75,9.07,9.07,0,0,1,2.37,7.38,8.46,8.46,0,0,0-.88.11l.09.4c0,.11,0,.21.07.32s.07.3.1.46l.06.27a8,8,0,0,1,1.1,0v-.07h0v.07a8.24,8.24,0,0,1-.19,16.48Z"/><path id="el_Gc6Keyu-ukT" data-name="Data Cloud" d="M498.6,240.59a9.61,9.61,0,0,0-5.81-2.86A10.38,10.38,0,0,0,490,229.2a10.82,10.82,0,0,0-10.77-3.12c-2.3.71-5.19,2.17-6.52,5.15a8.16,8.16,0,0,0-4.19-1.14,8.29,8.29,0,0,0-8.25,7.69,9.7,9.7,0,1,0-1.42,19.31h32.84a9.72,9.72,0,0,0,6.91-16.5Zm-6.91,15H458.85a8.24,8.24,0,1,1,2-16.24,8.34,8.34,0,0,1,.85.26c.34-.4.71-.78,1.08-1.15a10.46,10.46,0,0,0-1-.39,6.84,6.84,0,0,1,6.81-6.54,6.7,6.7,0,0,1,3.65,1.06,10.88,10.88,0,0,0-.43,1.37c.5,0,1,.08,1.48.14a8.87,8.87,0,0,1,.52-1.47l.24-.53,0,0c1.05-2.66,3.66-4,5.71-4.61a9.38,9.38,0,0,1,9.31,2.75,9.07,9.07,0,0,1,2.37,7.38,8.46,8.46,0,0,0-.88.11l.09.4c0,.11,0,.21.07.32s.07.3.1.46l.06.27a8,8,0,0,1,1.1,0v-.07h0v.07a8.24,8.24,0,0,1-.19,16.48Z"/><g id="el_Q7hH_drVnVp" data-name="Data Cellphone Icon"><path d="M507.59,312.5H483.32V266.82h24.27ZM484.78,311h21.34V268.29H484.78Z" id="el_wVdU1NZeoKt"/><path d="M507.59,308.26H483.32V271.05h24.27Zm-22.81-1.47h21.34V272.52H484.78Z" id="el_YuhuI_H12A4"/><path d="M495.45,312.23a2.71,2.71,0,1,1,2.69-2.7A2.7,2.7,0,0,1,495.45,312.23Zm0-3.94a1.24,1.24,0,1,0,1.23,1.24A1.24,1.24,0,0,0,495.45,308.29Z" id="el_HCZVSX0XOT3"/></g><g id="el_Bgi5OWYdloI" data-name="Data SMS Icon"><path d="M441.17,310l.39-.42a3.39,3.39,0,0,0,2.55,1.18c1.33,0,2.17-.71,2.17-1.75s-.71-1.44-1.57-1.83l-1.32-.59a2.42,2.42,0,0,1-1.76-2.17,2.29,2.29,0,0,1,2.53-2.16,3.3,3.3,0,0,1,2.42,1.05l-.35.4a2.77,2.77,0,0,0-2.07-.89c-1.15,0-1.92.61-1.92,1.56s.87,1.4,1.5,1.68l1.32.59c1,.44,1.83,1,1.83,2.31a2.49,2.49,0,0,1-2.78,2.36A3.82,3.82,0,0,1,441.17,310Z" id="el_Hd9uVnoc8Hi"/><path d="M444.11,311.76a4.25,4.25,0,0,1-3.29-1.47l-.28-.32,1-1.11.34.39a3,3,0,0,0,2.2,1c1.05,0,1.7-.49,1.7-1.28s-.37-1-1.29-1.4L443.2,307a2.88,2.88,0,0,1-2-2.6,2.74,2.74,0,0,1,3-2.63,3.8,3.8,0,0,1,2.76,1.2l.29.31-1,1.11-.35-.37a2.29,2.29,0,0,0-1.73-.75c-.7,0-1.45.28-1.45,1.09,0,.66.5.94,1.22,1.25l1.32.59a2.9,2.9,0,0,1,2.11,2.74A3,3,0,0,1,444.11,311.76Z" id="el_c1axqROZbVB"/><path d="M448.72,302.4h.86l1.81,5.13.69,1.94h.05c.23-.65.43-1.3.66-1.94l1.81-5.13h.86v8.74h-.58v-5.75c0-.7,0-1.62.07-2.35h-.05l-.68,1.94-1.87,5.2h-.53l-1.88-5.2-.69-1.94h-.05c0,.73.07,1.65.07,2.35v5.75h-.55Z" id="el_adltoqCti8s"/><path d="M455.93,311.61h-1.52v-5.77l-1.73,4.81H451.5l-1.76-4.84v5.8h-1.49v-9.68h1.66l1.92,5.44.27.75c.08-.25.16-.5.25-.75l1.92-5.44h1.66Z" id="el_hez369wONvM"/><path d="M457.36,310l.39-.42a3.39,3.39,0,0,0,2.55,1.18c1.33,0,2.17-.71,2.17-1.75s-.71-1.44-1.57-1.83l-1.32-.59a2.42,2.42,0,0,1-1.76-2.17,2.29,2.29,0,0,1,2.53-2.16,3.3,3.3,0,0,1,2.42,1.05l-.35.4a2.77,2.77,0,0,0-2.07-.89c-1.15,0-1.92.61-1.92,1.56s.87,1.4,1.5,1.68l1.32.59c1,.44,1.83,1,1.83,2.31a2.49,2.49,0,0,1-2.78,2.36A3.82,3.82,0,0,1,457.36,310Z" id="el_m-qtGdju7CR"/><path d="M460.3,311.76a4.25,4.25,0,0,1-3.29-1.47l-.28-.32,1-1.11.34.39a3,3,0,0,0,2.2,1c1.05,0,1.7-.49,1.7-1.28s-.37-1-1.29-1.4l-1.32-.59a2.88,2.88,0,0,1-2-2.6,2.74,2.74,0,0,1,3-2.63,3.8,3.8,0,0,1,2.76,1.2l.29.31-1,1.11-.35-.37a2.29,2.29,0,0,0-1.73-.75c-.7,0-1.45.28-1.45,1.09,0,.66.5.94,1.22,1.25l1.32.59a2.9,2.9,0,0,1,2.11,2.74A3,3,0,0,1,460.3,311.76Z" id="el_CftC6yMfPR7"/></g><g id="el_Uwe6YBIdnka" data-name="Data At Icon"><path d="M454.37,290.21a5.2,5.2,0,0,1,5.08-5.53,3.78,3.78,0,0,1,4,4.07c0,2.18-1.29,3.34-2.35,3.34a1.08,1.08,0,0,1-1.23-1h0a2.26,2.26,0,0,1-1.56.89c-.79,0-1.46-.59-1.46-1.75s.88-2.88,2.38-2.88a1.16,1.16,0,0,1,1.06.62h0l.11-.52h.43l-.45,2.42c-.29,1.17,0,1.73.77,1.73s1.82-1,1.82-2.85a3.36,3.36,0,0,0-3.57-3.65,4.76,4.76,0,0,0-4.54,5.05,3.7,3.7,0,0,0,3.84,4,4.05,4.05,0,0,0,2.15-.62l.2.39a4.35,4.35,0,0,1-2.39.68A4.11,4.11,0,0,1,454.37,290.21Zm5.37.48.4-2.22c-.31-.48-.56-.63-.95-.63-1.15,0-1.86,1.3-1.86,2.39s.46,1.32,1,1.32A2,2,0,0,0,459.74,290.69Z" id="el_dkzPvN892PM"/><path d="M458.66,295.13a4.57,4.57,0,0,1-4.74-4.92c0-3.41,2.37-6,5.53-6a4.25,4.25,0,0,1,4.45,4.52c0,2.38-1.42,3.8-2.8,3.8a1.65,1.65,0,0,1-1.42-.65,2.2,2.2,0,0,1-1.4.56,2,2,0,0,1-1.91-2.2c0-1.4,1-3.34,2.83-3.34a1.61,1.61,0,0,1,.82.21l0-.1h1.34l-.56,3c-.19.76-.06,1,0,1.06a.44.44,0,0,0,.35.11c.56,0,1.37-.85,1.37-2.4a2.92,2.92,0,0,0-3.12-3.19,4.31,4.31,0,0,0-4.09,4.59,3.24,3.24,0,0,0,3.39,3.59,3.59,3.59,0,0,0,1.91-.56L461,293l.63,1.2-.36.22A4.83,4.83,0,0,1,458.66,295.13Zm.53-6.84c-.83,0-1.41,1-1.41,1.94s.41.87.58.87a1.57,1.57,0,0,0,1-.62l.34-1.9C459.45,288.29,459.33,288.29,459.19,288.29Z" id="el_9tjL5g-KO5v"/></g><g id="el_6w_Ryxk356T" data-name="Data Email Icon"><path d="M464.28,277.79l-14,0V267.19h14Zm-12.52-1.48h11.05v-7.66H451.76Z" id="el_K6R5Q1kbevS"/><polygon points="457.3 274.59 450.56 268.88 451.5 267.76 457.27 272.64 463.06 267.38 464.04 268.47 457.3 274.59" id="el_nbdLvx-KUIl"/></g></g><g id="el_UzWeTu55YOz" data-name="Icon 3 Data Server"><g id="el_ZijMa3AKE0l" data-name="Data Server Lights On 3"><ellipse cx="118.97" cy="298.29" rx="2.18" ry="2.19" id="el_mXgMitK0Bv8"/><ellipse cx="124.65" cy="298.29" rx="2.18" ry="2.19" id="el_1Z5qd3uvo09"/><ellipse cx="130.34" cy="298.29" rx="2.18" ry="2.19" id="el_725AtP9J7Br"/></g><g id="el_2TZiCQPQASm" data-name="Data Server Lights On 2"><ellipse cx="118.97" cy="282.68" rx="2.18" ry="2.19" id="el_rsmrmIkpvlM"/><ellipse cx="124.65" cy="282.68" rx="2.18" ry="2.19" id="el_ImjeZFFGLKi"/><ellipse cx="130.34" cy="282.68" rx="2.18" ry="2.19" id="el_HIvOAZ0SUMf"/></g><g id="el_GfS-y0qCV3h" data-name="Data Server Lights On 1"><ellipse cx="118.97" cy="266.4" rx="2.18" ry="2.19" id="el_nLZSJZVLWI7"/><ellipse cx="124.65" cy="266.4" rx="2.18" ry="2.19" id="el_-KFDVTUHQ4i"/><ellipse cx="130.34" cy="266.4" rx="2.18" ry="2.19" id="el_sV1veiF9xoO"/></g><path id="el_VOSa4eYdDFK" data-name="Data Server" d="M124.65,242.38c-14.12,0-35.13,2.21-35.13,8.31v48.59h0c.74,5.85,21.25,8,35.11,8s34.37-2.14,35.11-8h0V250.69C159.79,244.59,138.78,242.38,124.65,242.38Zm-23.91,4.16a119.62,119.62,0,0,1,23.91-2.12,119.48,119.48,0,0,1,23.91,2.12c7.26,1.55,9.19,3.34,9.19,4.15s-1.93,2.61-9.19,4.16A120.29,120.29,0,0,1,124.65,257a120.44,120.44,0,0,1-23.91-2.11c-7.25-1.55-9.19-3.34-9.19-4.16S93.49,248.09,100.74,246.54Zm47.82,56.57a120.29,120.29,0,0,1-23.91,2.11,120.44,120.44,0,0,1-23.91-2.11c-7.25-1.55-9.19-3.34-9.19-4.16V286.07c5.61,3.82,21.63,5.28,33.1,5.28s27.49-1.46,33.1-5.28V299C157.75,299.77,155.82,301.56,148.56,303.11ZM157.75,283c0,.82-1.93,2.61-9.19,4.16a120.29,120.29,0,0,1-23.91,2.11,120.44,120.44,0,0,1-23.91-2.11c-7.25-1.55-9.19-3.34-9.19-4.16V270.15c5.61,3.82,21.63,5.28,33.1,5.28s27.49-1.46,33.1-5.28V283Zm0-15.91c0,.81-1.93,2.6-9.19,4.15a120.22,120.22,0,0,1-23.91,2.12,120.37,120.37,0,0,1-23.91-2.12c-7.25-1.55-9.19-3.34-9.19-4.15V253.73c5.61,3.82,21.63,5.28,33.1,5.28s27.49-1.46,33.1-5.28v13.39Z"/><g id="el_WxcX8SQh0C3" data-name="Data Server Lines"><path d="M161.82,310.89l-1.44-1.44a50.92,50.92,0,0,0,0-71.78l1.44-1.45A53,53,0,0,1,161.82,310.89Z" id="el_8eGv0xFXYxs"/><path d="M164.06,232l-.87-.8c-1.25-1.15-2.57-2.25-3.92-3.29l-.94-.71,1.43-1.89.94.72c1.4,1.08,2.78,2.23,4.08,3.42l.87.8Z" id="el_qjTvi4Q40je"/><path d="M179.88,295.85l-2.2-.84.41-1.1a56.54,56.54,0,0,0,2.95-11l.19-1.17,2.32.38-.19,1.17a60.37,60.37,0,0,1-3.06,11.46Z" id="el_HXdtJwSyhYs"/><path d="M184.15,272.63l-2.35.09,0-1.18a58.18,58.18,0,0,0-1.53-11.3l-.27-1.15,2.29-.55.27,1.16a59.64,59.64,0,0,1,1.59,11.75Z" id="el_SGcxBCH19ji"/><path d="M179.16,249.56l-2.14,1-.49-1.08a58.13,58.13,0,0,0-5.75-9.82l-.7-1,1.9-1.4.7,1a59.71,59.71,0,0,1,6,10.22Z" id="el_16gR6uYWFZc"/><path d="M171.27,310.7l-1.87-1.43.71-.94c1-1.36,2-2.78,2.91-4.22l.63-1,2,1.27-.62,1c-.94,1.49-2,3-3,4.38Z" id="el_mhVTlfpXaRi"/><polygon points="165.66 312.4 158.88 312.4 158.88 305.59 160.91 305.59 160.91 310.36 165.66 310.36 165.66 312.4" id="el_T-4eIZWgBXB"/><path d="M89.55,321.82l-.94-.72c-1.41-1.07-2.78-2.23-4.09-3.42l-.87-.79,1.59-1.75.87.79c1.25,1.15,2.57,2.26,3.93,3.29l.93.72Z" id="el_pPnlie8JlaO"/><path d="M79.22,308.41l-1.9,1.4-.69-.95a59.15,59.15,0,0,1-6-10.23l-.5-1.07,2.14-1,.49,1.07a57.79,57.79,0,0,0,5.76,9.82Z" id="el_AHIorXyJHo5"/><path d="M69.34,288l-2.29.55-.27-1.15a61.38,61.38,0,0,1-1.59-11.76l0-1.18,2.36-.08,0,1.18a58.17,58.17,0,0,0,1.52,11.29Z" id="el_C9D9xmJkPdE"/><path d="M68.08,265.37,65.75,265l.19-1.17A59.56,59.56,0,0,1,69,252.37l.42-1.11,2.2.84-.42,1.11a56.85,56.85,0,0,0-2.94,11Z" id="el_ytHrWmo5ZLE"/><path d="M75.65,244l-2-1.26.63-1c.94-1.5,2-3,3-4.39l.71-.94,1.88,1.43-.72.94c-1,1.36-2,2.78-2.91,4.22Z" id="el_iuEfLuVVD7d"/><path d="M87.49,310.89a53,53,0,0,1,0-74.67l1.44,1.45a50.92,50.92,0,0,0,0,71.78Z" id="el_O716C0Rs2xN"/><polygon points="90.43 241.53 88.39 241.53 88.39 236.76 83.64 236.76 83.64 234.71 90.43 234.71 90.43 241.53" id="el_iBmZtrcflJV"/></g></g><g id="el_YYuIHjMe5Rq" data-name="Icon 2 Nueral Network"><line id="el_0WHGEEGp_Yy" data-name="Nueral Line Center 3" x1="475.06" y1="32.71" x2="475.06" y2="121.37"/><line id="el_Zmqd3qp4uy-" data-name="Nueral Line Center 1" x1="436.85" y1="54.88" x2="513.28" y2="99.21"/><line id="el_0Hqukc7oZyS" data-name="Nueral Line Center 2" x1="436.85" y1="99.21" x2="513.28" y2="54.88"/><line id="el_upWuu1ZuAxT" data-name="Nueral Line Inner 3" x1="475.06" y1="32.06" x2="436.3" y2="99.5"/><line id="el_E36CvdnYTR8" data-name="Nueral Line Inner 2" x1="513.82" y1="99.5" x2="475.06" y2="32.06"/><line id="el_RkLnzwRMUpc" data-name="Nueral Line Inner 1" x1="436.3" y1="99.5" x2="513.82" y2="99.5"/><line id="el_AQAIapzfMsA" data-name="Nueral Line 6" x1="436.26" y1="54.54" x2="436.26" y2="99.55"/><line id="el_0suUl4Fjuv3" data-name="Nueral Line 5" x1="475.06" y1="32.04" x2="436.26" y2="54.54"/><line id="el__LvxHjg99F8" data-name="Nueral Line 4" x1="513.86" y1="54.54" x2="475.06" y2="32.04"/><line id="el_4FdXFEsilfp" data-name="Nueral Line 3" x1="513.86" y1="99.55" x2="513.86" y2="54.54"/><line id="el__l98w0nmguw" data-name="Nueral Line 2" x1="475.06" y1="122.05" x2="513.86" y2="99.55"/><line id="el_FiPnocEp_G3" data-name="Nueral Line 1" x1="436.26" y1="99.55" x2="475.06" y2="122.05"/><g id="el_GFcXOfLwhSV" data-name="Nueral Dot 6"><ellipse cx="436.18" cy="54.77" rx="4.47" ry="4.49" id="el_hLk0yMG_fgU"/></g><g id="el_tiby6P6Z1sz" data-name="Nueral Dot 5"><ellipse cx="475.14" cy="33.83" rx="4.47" ry="4.49" id="el_8Ktk9g15D61"/></g><g id="el_y4UKoYkZTn4" data-name="Nueral Dot 4"><ellipse cx="514.05" cy="54.77" rx="4.47" ry="4.49" id="el_nq2mIWQpLAu"/></g><g id="el_U49tT9xpezm" data-name="Nueral Dot 3"><ellipse cx="512.91" cy="98.47" rx="4.47" ry="4.49" id="el_HNaH72tUsr5"/></g><g id="el_REceKMzeXT2" data-name="Nueral Dot 2"><ellipse cx="475.14" cy="120.61" rx="4.47" ry="4.49" id="el_vB8EmuBUFzC"/></g><g id="el_eXoS870QxQl" data-name="Nueral Dot 1"><ellipse cx="438.03" cy="98.47" rx="4.47" ry="4.49" id="el_AQJGzg8pdu2"/></g></g><g id="el_kGSeZGqVJ4N" data-name="Icon 1 Data Aggregator"><g id="el_09_hKEkcyrP" data-name="Data In Aggregator"><g id="el_dseCj6U2KiP" data-name="Data Set 3"><polygon points="92.88 94.31 91.67 97.04 110.33 97.04 111.54 94.31 92.88 94.31" id="el_LXU1jhhNIkZ"/><polygon points="91.67 90.53 94.39 90.53 95.6 87.8 92.88 87.8 91.67 90.53" id="el_ZWuEfUdaFDj"/><polygon points="96.31 90.53 99.02 90.53 100.23 87.8 97.51 87.8 96.31 90.53" id="el_pOdd95bAc_C"/><polygon points="101.24 90.53 103.95 90.53 105.16 87.8 102.45 87.8 101.24 90.53" id="el__KrV-czljUg"/><polygon points="112.68 97.04 115.4 97.04 116.61 94.31 113.89 94.31 112.68 97.04" id="el_GJuQIOqCu4C"/><polygon points="117.75 97.04 120.46 97.04 121.67 94.31 118.96 94.31 117.75 97.04" id="el_nU3hvzYgiAO"/><polygon points="126.25 97.04 152.41 97.04 153.62 94.31 127.46 94.31 126.25 97.04" id="el_43WNvg6XhhS"/><polygon points="128.47 97.04 154.62 97.04 155.83 94.31 129.68 94.31 128.47 97.04" id="el_bG-zw7nrKnn"/><polygon points="142.04 90.53 144.75 90.53 145.96 87.8 143.25 87.8 142.04 90.53" id="el_lxVl64vHLK9"/><polygon points="146.97 90.53 149.69 90.53 150.9 87.8 148.18 87.8 146.97 90.53" id="el_JKJF0beXuvr"/><polygon points="151.91 90.53 154.62 90.53 155.83 87.8 153.12 87.8 151.91 90.53" id="el_Uq-HFvDJju6"/></g><g id="el_CeubY6ycBLU" data-name="Data Set 2"><polygon points="91.67 103.64 117.83 103.64 119.04 100.91 92.88 100.91 91.67 103.64" id="el_VFXw3NLaEEQ"/><polygon points="126.25 103.64 152.41 103.64 153.62 100.91 127.46 100.91 126.25 103.64" id="el_h7ajR6rLw6f"/></g><g id="el_Iup5TtEzwZw" data-name="Data Set 1"><polygon points="152.32 110.24 155.04 110.24 156.25 107.51 153.53 107.51 152.32 110.24" id="el_lPrf9IOW-UR"/><polygon points="147.26 110.24 149.97 110.24 151.18 107.51 148.47 107.51 147.26 110.24" id="el_3hhp02xPzLs"/><polygon points="91.67 110.24 117.83 110.24 119.04 107.51 92.88 107.51 91.67 110.24" id="el_3-dEjv5ZJSp"/><polygon points="93.89 110.24 120.05 110.24 121.26 107.51 95.1 107.51 93.89 110.24" id="el_1PVodPzX7FE"/><polygon points="91.67 116.84 94.39 116.84 95.6 114.11 92.88 114.11 91.67 116.84" id="el_cr-BNop63m3"/><polygon points="96.74 116.84 99.46 116.84 100.67 114.11 97.95 114.11 96.74 116.84" id="el_WMOrjOY2k_X"/><polygon points="126.25 116.84 152.41 116.84 153.62 114.11 127.46 114.11 126.25 116.84" id="el_Stzgy0T_a9K"/><polygon points="128.47 116.84 154.62 116.84 155.83 114.11 129.68 114.11 128.47 116.84" id="el_PZBP5B57j9w"/></g></g><path id="el_nYh3u-NA1ge" data-name="Aggregator Icon" d="M160.2,121.11H87.72V84.37h30.83l2.79-6.53h6.31l2.8,6.53H160.2v6.94h2.13V82.23H131.85l-2.38-5.57V70.11l18.84-18.93V45H100.68v6.17l18.85,18.93v6.55l-2.39,5.57H85.59v41h76.74v-8.9H160.2ZM102.81,50.29V47.15h43.37v3.14L127.34,69.22V75.7h-5.68V69.22Z"/><g id="el_tH6nxC9V-5P" data-name="Aggregator Data Dot 1"><ellipse cx="124.78" cy="34" rx="3.99" ry="4.01" id="el_52B_FjzYjtS"/></g></g><g id="el_W7YOI3nUPqn" data-name="Data Lfow Line 3"><polyline points="412.07 265.62 425.93 279.48 412.07 293.33" id="el_n__CWNDCqGZ"/><line id="el_OZ5bST5Kah-" data-name="Directional Line 3" x1="196.5" y1="279.5" x2="412.5" y2="279.5"/></g><g id="el_50JHqRLCEZX" data-name="Data Flow Line 2"><polyline points="138.83 209.6 124.97 223.46 110.64 210.07" id="el_XOx0YQZC9ZB"/><polyline id="el_Jtwfc521nhq" data-name="Directional Line 2" points="425.5 134.5 425.5 171.5 124.5 171.5 124.5 210.5"/></g><g id="el_NNm6pr0dgnW" data-name="Data Flow Line 1"><polyline points="407.07 88.61 420.93 102.47 407.07 116.33" id="el_bT1dk2Ds8z7"/><line id="el_WX8oBP3Kp46" data-name="Directional Line 1" x1="172.5" y1="102.5" x2="407.5" y2="102.5"/></g></svg>