<svg xmlns="http://www.w3.org/2000/svg" viewBox="0 0 300 300" id="el_aETSYJ17A"><style>@-webkit-keyframes kf_el_nGROlytqjc_an_McLPqtuxx{0%{-webkit-transform: translate(142.3314094543457px, 161.68999862670898px) rotate(0deg) translate(-142.3314094543457px, -161.68999862670898px);transform: translate(142.3314094543457px, 161.68999862670898px) rotate(0deg) translate(-142.3314094543457px, -161.68999862670898px);}100%{-webkit-transform: translate(142.3314094543457px, 161.68999862670898px) rotate(360deg) translate(-142.3314094543457px, -161.68999862670898px);transform: translate(142.3314094543457px, 161.68999862670898px) rotate(360deg) translate(-142.3314094543457px, -161.68999862670898px);}}@keyframes kf_el_nGROlytqjc_an_McLPqtuxx{0%{-webkit-transform: translate(142.3314094543457px, 161.68999862670898px) rotate(0deg) translate(-142.3314094543457px, -161.68999862670898px);transform: translate(142.3314094543457px, 161.68999862670898px) rotate(0deg) translate(-142.3314094543457px, -161.68999862670898px);}100%{-webkit-transform: translate(142.3314094543457px, 161.68999862670898px) rotate(360deg) translate(-142.3314094543457px, -161.68999862670898px);transform: translate(142.3314094543457px, 161.68999862670898px) rotate(360deg) translate(-142.3314094543457px, -161.68999862670898px);}}#el_aETSYJ17A *{-webkit-animation-duration: 3s;animation-duration: 3s;-webkit-animation-iteration-count: infinite;animation-iteration-count: infinite;-webkit-animation-timing-function: cubic-bezier(0, 0, 1, 1);animation-timing-function: cubic-bezier(0, 0, 1, 1);}#el_ucObvTxktn{fill: #4699a4;visibility: hidden;}#el_BeAlXnZ_XA{fill: #cfd3d3;}#el_YCRU7GKdgV{fill: #cfd3d3;}#el_H8VTbfxfma{fill: #cfd3d3;}#el_-Rh44pus0B{fill: #cfd3d3;}#el_Nfq8A4_-JI{fill: #cfd3d3;}#el_G2OscodafJ{fill: #cfd3d3;}#el_aI7NgsJ82e{fill: #cfd3d3;}#el_0vRMZ_sl5D{fill: #cfd3d3;}#el_u8Iasq2kpj{fill: #fff;}#el_X-fvKej-7H{fill: #fff;}#el_8CyL3mnIFuv{fill: #fff;}#el_TwvsLaQCNBo{fill: #fff;}#el_oWXsP4PDV5P{fill: #fff;}#el_1xbQJpwFS3W{fill: #fff;}#el_NkNeumuXjab{fill: #fff;}#el_WIxAYJLeD84{fill: #fff;}#el_Fsum8mgThq8{fill: #fff;}#el_ZmOTIvd7WMT{fill: #fff;}#el_QXsEtp50GcX{fill: #fff;}#el_yN0q0ZQbrhk{fill: #fff;}#el_MXpsBMaOK3_{fill: #fff;}#el_TQj5c-NZZ8C{fill: #fff;}#el_mwFkHVm37iW{fill: #fff;}#el_nGROlytqjc_an_McLPqtuxx{-webkit-animation-fill-mode: backwards;animation-fill-mode: backwards;-webkit-transform: translate(142.3314094543457px, 161.68999862670898px) rotate(0deg) translate(-142.3314094543457px, -161.68999862670898px);transform: translate(142.3314094543457px, 161.68999862670898px) rotate(0deg) translate(-142.3314094543457px, -161.68999862670898px);-webkit-animation-name: kf_el_nGROlytqjc_an_McLPqtuxx;animation-name: kf_el_nGROlytqjc_an_McLPqtuxx;-webkit-animation-timing-function: cubic-bezier(0.42, 0, 0.58, 1);animation-timing-function: cubic-bezier(0.42, 0, 0.58, 1);}</style><title>Untitled-1</title><g id="el_1pJHIA9kYZ" data-name="Layer 1"/><g id="el_S_dHCCn1Fg" data-name="Background Rings"><path d="M201.0682,219.9466a27.0181,27.0181,0,1,0,19.1038-7.9131A27.0173,27.0173,0,0,0,201.0682,219.9466Zm6.3673,6.3682a18.0119,18.0119,0,1,1,0,25.4728A17.8955,17.8955,0,0,1,207.4355,226.3148Z" id="el_BeAlXnZ_XA"/><path d="M275.2825,149.1367a27.0249,27.0249,0,1,0-10.1667,36.8307A27.0116,27.0116,0,0,0,275.2825,149.1367Zm-6.1366,18.1245a18.0162,18.0162,0,1,1-1.6962-13.68A17.8949,17.8949,0,0,1,269.1459,167.2612Z" id="el_YCRU7GKdgV"/><path d="M75.23,217.2832a27.0177,27.0177,0,1,0-27.0174,27.0174A27.0171,27.0171,0,0,0,75.23,217.2832Zm-9.0058,0a18.0119,18.0119,0,1,1-18.0116-18.0116A18.0318,18.0318,0,0,1,66.2237,217.2832Z" id="el_H8VTbfxfma"/><path d="M166.2938,66.6807a27.0064,27.0064,0,1,0-23.295,13.2937A27.0168,27.0168,0,0,0,166.2938,66.6807Zm-7.7558-4.5761a18.019,18.019,0,1,1-6.3624-24.665,18.0115,18.0115,0,0,1,6.3624,24.665Z" id="el_-Rh44pus0B"/><path d="M138.34,94.1067a68.2715,68.2715,0,0,0-60.5473,89.8144l6.4027-2.1461c-.0793-.235-.1314-.4771-.2079-.7131-.1934-.6033-.3561-1.22-.5321-1.8313-.3484-1.2081-.6661-2.4227-.9382-3.6493q-.22-.9894-.4063-1.989c-.2373-1.2692-.4276-2.5466-.5847-3.8318-.0759-.6161-.1661-1.2254-.2233-1.8468-.1682-1.8279-.2725-3.6666-.2791-5.5173,0-.069-.01-.1349-.01-.204,0-.3977.0518-.7816.0594-1.1771.0319-1.66.0879-3.3139.25-4.94.1011-1.0252.294-2.0217.4446-3.0323.1457-.9671.2523-1.9461.4425-2.8984.2429-1.2275.5772-2.42.8937-3.62.1825-.6912.3277-1.3967.5344-2.0786.4056-1.35.8971-2.66,1.3917-3.97.1858-.4892.3419-.9913.54-1.474.5837-1.4326,1.2467-2.8211,1.9327-4.198.16-.3205.3011-.6519.4672-.9694.7667-1.4739,1.6083-2.8973,2.4878-4.2981.1209-.1918.23-.3914.3529-.5818.9519-1.478,1.9721-2.9025,3.044-4.2907.07-.0913.1363-.1872.2078-.2787q1.6951-2.1723,3.5795-4.1764c.0209-.0226.0406-.0459.0615-.0685a61.29,61.29,0,0,1,44.841-19.4926c1.6105,0,3.1914.12,4.7712.2412l.0736-16.7448a31.4425,31.4425,0,0,1-9.0047-.03Z" id="el_Nfq8A4_-JI"/><path d="M87.33,189.2252l-14.4673,8.4481a31.4533,31.4533,0,0,1,4.5485,7.7692l8.5589-4.9985a68.31,68.31,0,0,0,90.7407,20.8943l-3.386-5.8487c-.29.1684-.5931.3122-.8861.4751-.4348.2422-.875.4734-1.3159.7056q-1.9359,1.0174-3.9334,1.8949c-.3089.1356-.609.2873-.9212.4178-1.5567.65-3.1441,1.2189-4.7481,1.7381-.5331.1728-1.0718.33-1.6122.4886q-2.0224.5937-4.0813,1.05c-.3847.0846-.7607.1894-1.1477.2668-1.694.34-3.4057.5865-5.1273.783-.5057.0572-1.0125.105-1.5215.1506-1.78.1589-3.5673.2663-5.3626.27-.0418,0-.0824.0064-.1242.0064a61.988,61.988,0,0,1-7.1237-.4449c-.49-.058-.9707-.1531-1.4572-.2224-1.9365-.271-3.8417-.6241-5.7149-1.0707-.4166-.1-.8267-.21-1.24-.3188a61.0843,61.0843,0,0,1-6.0619-1.9184c-.177-.0671-.3561-.127-.5331-.1955a61.4064,61.4064,0,0,1-18.4019-11.15c-.2347-.2056-.4595-.4194-.6915-.6284q-2.2583-2.0444-4.3044-4.3c-.2947-.3231-.5931-.6389-.8811-.969a61.778,61.778,0,0,1-4.1786-5.3371c-.04-.0561-.0869-.1033-.1254-.1591l.0039-.0022A61.583,61.583,0,0,1,87.33,189.2252Z" id="el_G2OscodafJ"/><path d="M220.632,157.888l-9.9968-.0247a68.6847,68.6847,0,0,0-53.3076-62.36l-1.46,6.5957c1.5391.3395,3.0495.7506,4.54,1.2035.554.1681,1.0916.37,1.639.553,1.28.43,2.5495.8767,3.7873,1.387.8872.3634,1.7447.7781,2.6109,1.1816.72.3377,1.4413.6695,2.1455,1.0336,1.0361.5324,2.0452,1.1013,3.0456,1.6891q.6267.3711,1.2412.7542A61.4741,61.4741,0,0,1,203.22,152.3833c.0561.3444.1077.6893.1583,1.0356.1891,1.3266.3512,2.6591.4551,4.0117.011.14.0375.2757.0473.4156h-.0264c.1012,1.4416.22,2.8786.22,4.3462,0,1.5724-.12,3.1151-.2352,4.6579l16.7628.0427A31.4012,31.4012,0,0,1,220.632,157.888Z" id="el_aI7NgsJ82e"/><path d="M182.9478,208.5333l11.9113,11.794a28.5348,28.5348,0,0,1,6.3333-6.401l-7.0632-6.9932a67.9168,67.9168,0,0,0,15.3027-30.9539l-6.6136-1.3543c-.0109.052-.0307.1006-.0418.1522a60.9443,60.9443,0,0,1-1.8128,6.6571c-.2254.6827-.4913,1.345-.7387,2.0182-.5838,1.5814-1.2214,3.1317-1.9271,4.6487-.3166.68-.6333,1.3544-.9741,2.022q-1.3059,2.5572-2.84,4.9663c-.2275.36-.4265.7351-.6623,1.09a61.6942,61.6942,0,0,1-4.299,5.7114c-.0747.0883-.1331.1877-.2077.2757l-.022-.0221A61.9354,61.9354,0,0,1,182.9478,208.5333Z" id="el_0vRMZ_sl5D"/></g><g id="el_12kAQWvVck" data-name="Watch Hands"><path d="M165.5509,159.85H149.1136a7.0441,7.0441,0,0,0-4.9415-4.9412V136.155a1.8409,1.8409,0,0,0-3.6817,0v18.7537a7.0386,7.0386,0,1,0,8.6232,8.6226h16.4373a1.8407,1.8407,0,1,0,0-3.6814Zm-23.22,5.2134a3.3736,3.3736,0,1,1,3.3767-3.3727A3.378,3.378,0,0,1,142.3312,165.0633Z" id="el_u8Iasq2kpj"/></g><g id="el_nGROlytqjc_an_McLPqtuxx" data-animator-group="true" data-animator-type="1"><g id="el_nGROlytqjc" data-name="Watch Face and Small Hand"><path d="M142.3312,107.7648a53.9252,53.9252,0,1,0,53.9254,53.9258A53.9858,53.9858,0,0,0,142.3312,107.7648Zm0,100.4863a46.5613,46.5613,0,1,1,46.562-46.5605A46.6121,46.6121,0,0,1,142.3312,208.2511Z" id="el_X-fvKej-7H"/><path d="M138,162.54H110a.8467.8467,0,0,1,0-1.6933h28a.8467.8467,0,0,1,0,1.6933Z" id="el_8CyL3mnIFuv"/></g></g><g id="el_VfZtCH0cd-v" data-name="Time Dots"><path d="M125.209,191.345a1.8338,1.8338,0,0,0-2.5131.674l-1.9673,3.4034a1.8413,1.8413,0,0,0,3.19,1.84l1.9673-3.4027A1.8435,1.8435,0,0,0,125.209,191.345Z" id="el_TwvsLaQCNBo"/><path d="M123.9183,126.1165a1.84,1.84,0,1,0-3.1859,1.8407l1.9674,3.4034a1.84,1.84,0,1,0,3.1858-1.8409Z" id="el_oWXsP4PDV5P"/><path d="M112.0032,142.0516l-3.4019-1.9631a1.8413,1.8413,0,0,0-1.8409,3.1894l3.4013,1.9631a1.8414,1.8414,0,0,0,1.8415-3.1894Z" id="el_1xbQJpwFS3W"/><path d="M110.1617,178.1367l-3.4013,1.965a1.8412,1.8412,0,0,0,1.8409,3.1892l3.4019-1.9651a1.8413,1.8413,0,0,0-1.8415-3.1891Z" id="el_NkNeumuXjab"/><path d="M142.3312,195.9327a1.8426,1.8426,0,0,0-1.8408,1.8429l.0033,3.93a1.8409,1.8409,0,0,0,3.6817-.0036l-.0033-3.93A1.84,1.84,0,0,0,142.3312,195.9327Z" id="el_WIxAYJLeD84"/><path d="M108.0906,161.6888a1.84,1.84,0,0,0-1.84-1.8408l-3.93.0019a1.8407,1.8407,0,1,0,0,3.6814l3.93-.0016A1.8409,1.8409,0,0,0,108.0906,161.6888Z" id="el_Fsum8mgThq8"/><path d="M142.335,127.4467a1.8427,1.8427,0,0,0,1.84-1.8429l-.0033-3.93a1.8409,1.8409,0,0,0-3.6817.0036l.0033,3.93A1.84,1.84,0,0,0,142.335,127.4467Z" id="el_ZmOTIvd7WMT"/><path d="M159.4567,132.0344a1.84,1.84,0,0,0,2.5136-.6738l1.9663-3.4034a1.8409,1.8409,0,0,0-3.1887-1.8407l-1.9673,3.4032A1.842,1.842,0,0,0,159.4567,132.0344Z" id="el_QXsEtp50GcX"/><path d="M161.9665,192.019a1.84,1.84,0,1,0-3.1859,1.8412l1.9673,3.4027a1.8392,1.8392,0,1,0,3.1848-1.84Z" id="el_yN0q0ZQbrhk"/><path d="M182.3455,159.848l-3.9295.0019a1.8407,1.8407,0,1,0,0,3.6814l3.9295-.0016a1.8409,1.8409,0,1,0,0-3.6817Z" id="el_MXpsBMaOK3_"/><path d="M173.5839,145.4892a1.8437,1.8437,0,0,0,.92-.2463l3.4013-1.965a1.8411,1.8411,0,0,0-1.84-3.1894l-3.4019,1.9651a1.8416,1.8416,0,0,0,.9208,3.4356Z" id="el_TQj5c-NZZ8C"/><path d="M177.9053,180.1017l-3.4013-1.9635a1.8414,1.8414,0,0,0-1.8409,3.19l3.4019,1.9631a1.841,1.841,0,0,0,1.84-3.1892Z" id="el_mwFkHVm37iW"/></g></svg>