<svg xmlns="http://www.w3.org/2000/svg" viewBox="0 0 400 235"><title>Speed_graphic_Mobile</title><g style="isolation:isolate"><g id="Layer_1" data-name="Layer 1"><path d="M351.7043,139.4844a2.0028,2.0028,0,1,0-2.0026,2.0019A2.0022,2.0022,0,0,0,351.7043,139.4844Z" style="fill:#54626b"/><path d="M346.6783,139.4844a2.0025,2.0025,0,1,0-2.0023,2.0019A2.002,2.002,0,0,0,346.6783,139.4844Z" style="fill:#54626b"/><path d="M341.653,139.4844a2.0023,2.0023,0,1,0-2.0023,2.0019A2.002,2.002,0,0,0,341.653,139.4844Z" style="fill:#54626b"/><path d="M334.6247,141.0335a1.5495,1.5495,0,1,1,1.55-1.5491,1.5513,1.5513,0,0,1-1.55,1.5491m0,.4528a2.0023,2.0023,0,1,0-2.0031-2.0019,2.0015,2.0015,0,0,0,2.0031,2.0019Z" style="fill:#54626b"/><path d="M331.6013,139.4844a2.0021,2.0021,0,1,0-2.0027,2.0019A2.0026,2.0026,0,0,0,331.6013,139.4844Z" style="fill:#54626b"/><path d="M326.6013,139.4844a2.0021,2.0021,0,1,0-2.0027,2.0019A2.0026,2.0026,0,0,0,326.6013,139.4844Z" style="fill:#54626b"/><path d="M311.6783,139.4844a2.0025,2.0025,0,1,0-2.0023,2.0019A2.002,2.002,0,0,0,311.6783,139.4844Z" style="fill:#54626b"/><path d="M306.653,139.4844a2.0023,2.0023,0,1,0-2.0023,2.0019A2.002,2.002,0,0,0,306.653,139.4844Z" style="fill:#54626b"/><path d="M299.6247,141.0335a1.5495,1.5495,0,1,1,1.55-1.5491,1.5513,1.5513,0,0,1-1.55,1.5491m0,.4528a2.0023,2.0023,0,1,0-2.0031-2.0019,2.0015,2.0015,0,0,0,2.0031,2.0019Z" style="fill:#54626b"/><path d="M296.6013,139.4844a2.0021,2.0021,0,1,0-2.0027,2.0019A2.0026,2.0026,0,0,0,296.6013,139.4844Z" style="fill:#54626b"/><path d="M299.6247,141.0335a1.5495,1.5495,0,1,1,1.55-1.5491,1.5513,1.5513,0,0,1-1.55,1.5491m0,.4528a2.0023,2.0023,0,1,0-2.0031-2.0019,2.0015,2.0015,0,0,0,2.0031,2.0019Z" style="fill:#54626b"/><path d="M321.5506,139.4844a2.0026,2.0026,0,1,0-2.0022,2.0019A2.0019,2.0019,0,0,0,321.5506,139.4844Z" style="fill:#54626b"/><path d="M316.525,139.4844a2.0029,2.0029,0,1,0-2.0027,2.0019A2.0022,2.0022,0,0,0,316.525,139.4844Z" style="fill:#54626b"/><path d="M371.6013,139.4844a2.0021,2.0021,0,1,0-2.0027,2.0019A2.0026,2.0026,0,0,0,371.6013,139.4844Z" style="fill:#54626b"/><path d="M366.6013,139.4844a2.0021,2.0021,0,1,0-2.0027,2.0019A2.0026,2.0026,0,0,0,366.6013,139.4844Z" style="fill:#54626b"/><path d="M361.5506,139.4844a2.0026,2.0026,0,1,0-2.0022,2.0019A2.0019,2.0019,0,0,0,361.5506,139.4844Z" style="fill:#54626b"/><path d="M356.525,139.4844a2.0029,2.0029,0,1,0-2.0027,2.0019A2.0022,2.0022,0,0,0,356.525,139.4844Z" style="fill:#54626b"/><path d="M291.2055,139.4844a2.0026,2.0026,0,1,0-2.0023,2.0019A2.0019,2.0019,0,0,0,291.2055,139.4844Z" style="fill:#54626b"/><path d="M286.18,139.4844a2.0029,2.0029,0,1,0-2.0027,2.0019A2.0023,2.0023,0,0,0,286.18,139.4844Z" style="fill:#54626b"/><path d="M281.1538,139.4844a2.0019,2.0019,0,1,0-2.0023,2.0019A2.002,2.002,0,0,0,281.1538,139.4844Z" style="fill:#54626b"/><path d="M276.1292,139.4844a2.0029,2.0029,0,1,0-2.0037,2.0019A2.0034,2.0034,0,0,0,276.1292,139.4844Z" style="fill:#54626b"/><path d="M288.3509,38.9387a2.0031,2.0031,0,1,0-2.0023,2.0019A2.0022,2.0022,0,0,0,288.3509,38.9387Z" style="fill:#54626b"/><path d="M278.3,38.9387a2.0028,2.0028,0,1,0-2.0023,2.0019A2.0022,2.0022,0,0,0,278.3,38.9387Z" style="fill:#54626b"/><path d="M283.3,38.9387a2.0028,2.0028,0,1,0-2.0023,2.0019A2.0022,2.0022,0,0,0,283.3,38.9387Z" style="fill:#54626b"/><path d="M273.2735,38.9387a2.0025,2.0025,0,1,0-2.0023,2.0019A2.0022,2.0022,0,0,0,273.2735,38.9387Z" style="fill:#54626b"/><path d="M283.3249,44.1311a2.0022,2.0022,0,1,0-2.0027,2.0026A2.0028,2.0028,0,0,0,283.3249,44.1311Z" style="fill:#54626b"/><path d="M288.3249,44.1311a2.0022,2.0022,0,1,0-2.0027,2.0026A2.0028,2.0028,0,0,0,288.3249,44.1311Z" style="fill:#54626b"/><path d="M278.3,44.1311a2.0028,2.0028,0,1,0-2.0023,2.0026A2.0028,2.0028,0,0,0,278.3,44.1311Z" style="fill:#54626b"/><path d="M273.3,44.1311a2.0028,2.0028,0,1,0-2.0023,2.0026A2.0028,2.0028,0,0,0,273.3,44.1311Z" style="fill:#54626b"/><path d="M268.1122,38.9387a2.0028,2.0028,0,1,0-2.0026,2.0019A2.0022,2.0022,0,0,0,268.1122,38.9387Z" style="fill:#54626b"/><path d="M263.1122,38.9387a2.0028,2.0028,0,1,0-2.0026,2.0019A2.0022,2.0022,0,0,0,263.1122,38.9387Z" style="fill:#54626b"/><path d="M258.0609,38.9387a2.0023,2.0023,0,1,0-2.0023,2.0019A2.002,2.002,0,0,0,258.0609,38.9387Z" style="fill:#54626b"/><path d="M251.0326,40.4878a1.5495,1.5495,0,1,1,1.55-1.5491,1.5513,1.5513,0,0,1-1.55,1.5491m0,.4528a2.0023,2.0023,0,1,0-2.0031-2.0019,2.0015,2.0015,0,0,0,2.0031,2.0019Z" style="fill:#54626b"/><path d="M248.0092,38.9387a2.0021,2.0021,0,1,0-2.0026,2.0019A2.0026,2.0026,0,0,0,248.0092,38.9387Z" style="fill:#54626b"/><path d="M242.9843,38.9387a2.0029,2.0029,0,1,0-2.0027,2.0019A2.0025,2.0025,0,0,0,242.9843,38.9387Z" style="fill:#54626b"/><path d="M268.1122,44.1311a2.0028,2.0028,0,1,0-2.0026,2.0026A2.0028,2.0028,0,0,0,268.1122,44.1311Z" style="fill:#54626b"/><path d="M261.0839,45.6809a1.55,1.55,0,1,1,1.5495-1.55,1.5516,1.5516,0,0,1-1.5495,1.55m0,.4528a2.003,2.003,0,1,0-2.0026-2.0026,2.0025,2.0025,0,0,0,2.0026,2.0026Z" style="fill:#54626b"/><path d="M258.0609,44.1311a2.0023,2.0023,0,1,0-2.0023,2.0026A2.0032,2.0032,0,0,0,258.0609,44.1311Z" style="fill:#54626b"/><path d="M253.0345,44.1311a2.0025,2.0025,0,1,0-2.0019,2.0026A2.0023,2.0023,0,0,0,253.0345,44.1311Z" style="fill:#54626b"/><path d="M242.9843,44.1311a2.0029,2.0029,0,1,0-2.0027,2.0026A2.0032,2.0032,0,0,0,242.9843,44.1311Z" style="fill:#54626b"/><path d="M238.18,38.9387a2.0023,2.0023,0,1,0-2.0023,2.0019A2.002,2.002,0,0,0,238.18,38.9387Z" style="fill:#54626b"/><path d="M228.0092,38.9387a2.0021,2.0021,0,1,0-2.0026,2.0019A2.0026,2.0026,0,0,0,228.0092,38.9387Z" style="fill:#54626b"/><path d="M222.9843,38.9387a2.0029,2.0029,0,1,0-2.0027,2.0019A2.0025,2.0025,0,0,0,222.9843,38.9387Z" style="fill:#54626b"/><path d="M218.18,38.9387a2.0023,2.0023,0,1,0-2.0023,2.0019A2.002,2.002,0,0,0,218.18,38.9387Z" style="fill:#54626b"/><path d="M231.1513,40.4878a1.5495,1.5495,0,1,1,1.55-1.5491,1.5513,1.5513,0,0,1-1.55,1.5491m0,.4528a2.0023,2.0023,0,1,0-2.0031-2.0019,2.0015,2.0015,0,0,0,2.0031,2.0019Z" style="fill:#54626b"/><path d="M238.18,44.1311a2.0023,2.0023,0,1,0-2.0023,2.0026A2.0032,2.0032,0,0,0,238.18,44.1311Z" style="fill:#54626b"/><path d="M247.9843,44.1311a2.0029,2.0029,0,1,0-2.0027,2.0026A2.0032,2.0032,0,0,0,247.9843,44.1311Z" style="fill:#54626b"/><path d="M233.1532,44.1311a2.0025,2.0025,0,1,0-2.0019,2.0026A2.0023,2.0023,0,0,0,233.1532,44.1311Z" style="fill:#54626b"/><path d="M228.1279,44.1311a2.0021,2.0021,0,1,0-2.0026,2.0026A2.0027,2.0027,0,0,0,228.1279,44.1311Z" style="fill:#54626b"/><path d="M223.103,44.1311A2.0029,2.0029,0,1,0,221.1,46.1337,2.0032,2.0032,0,0,0,223.103,44.1311Z" style="fill:#54626b"/><path d="M217.871,44.1311a2.0028,2.0028,0,1,0-2.0026,2.0026A2.0032,2.0032,0,0,0,217.871,44.1311Z" style="fill:#54626b"/></g><g id="Data_Rings" data-name="Data Rings"><path d="M120.3856,174.6081a49.9974,49.9974,0,1,1,49.9974-49.9974A50.054,50.054,0,0,1,120.3856,174.6081Zm0-97.6327a47.6353,47.6353,0,1,0,47.6353,47.6353A47.6892,47.6892,0,0,0,120.3856,76.9754Z" style="fill:#313e48;opacity:0.2"/><path d="M175.1838,107.4181l-2.7217.8531-.4679-1.3823c-.2854-.9083-.7981-2.208-1.4782-3.8485a54.2068,54.2068,0,0,0-2.8839-5.7184c-.5944-1.0861-1.3342-2.1775-2.0857-3.3439l-1.2372-1.74c-.4242-.5926-.9041-1.1645-1.3687-1.7678a54.9454,54.9454,0,0,0-15.766-13.3938,53.8849,53.8849,0,0,0-10.758-4.6363,54.9433,54.9433,0,0,0-11.8871-2.2247,55.686,55.686,0,0,0-12.09.41,53.1892,53.1892,0,0,0-11.3407,2.9353,54.6339,54.6339,0,0,0-9.8044,4.8923A54.525,54.525,0,0,0,74.1092,95.7051c-.496.7379-.8589,1.4453-1.2121,2.0379q-.2582.4485-.4771.8293l-.3642.7079-.6654,1.299-2.56-1.258s-.0982.1766-.2634.5308l-.7121,1.5742a59.9507,59.9507,0,0,0-2.3139,6.1323,58.3807,58.3807,0,0,0-2.2526,23.1308,57.3643,57.3643,0,0,0,3.74,15.1325c.2514.6466.5065,1.2968.8078,1.9323.2931.6387.5725,1.2891.8832,1.9292l.979,1.9118c.3226.6441.7091,1.2581,1.0643,1.8936a56.8386,56.8386,0,0,0,5.0619,7.3252,57.6329,57.6329,0,0,0,13.8918,12.3307,58.7116,58.7116,0,0,0,8.4928,4.442,56.9628,56.9628,0,0,0,9.1986,2.9533,56.08,56.08,0,0,0,9.5592,1.381,61.3272,61.3272,0,0,0,9.5773-.2233,57.385,57.385,0,0,0,9.2644-1.7794c1.5069-.3975,2.9688-.91,4.4212-1.4124l2.1371-.8424c.71-.2789,1.392-.6166,2.0846-.9208a57.8922,57.8922,0,0,0,7.7718-4.3479,62.2291,62.2291,0,0,0,6.7255-5.2424,62.92,62.92,0,0,0,5.5842-5.832c.421-.4982.8083-1.0171,1.2083-1.5181l.5912-.7531c.1921-.253.37-.5148.5542-.77l1.0838-1.5249.9923-1.5428a56.06,56.06,0,0,0,5.7059-11.8855,58.7232,58.7232,0,0,0,2.4575-9.875,62.3811,62.3811,0,0,0,.6208-6.5222l.0582-2.318h-3.9683l-.0414,1.6126c-.0145.5258-.0162,1.1752-.0892,1.9346q-.0434.57-.093,1.2245l-.0509.6742-.09.71c-.1267.9731-.24,2.0546-.472,3.215-.1135.58-.1905,1.1925-.3447,1.8123l-.4458,1.9321a54.6945,54.6945,0,0,1-3.0119,8.6585,53.4735,53.4735,0,0,1-5.4068,9.3993,53.6574,53.6574,0,0,1-18.8,16.2729l-1.4773.7547-1.5169.6852-.76.3441-.7762.3083-1.5567.6142a53.9651,53.9651,0,0,1-6.4359,1.91,55.6077,55.6077,0,0,1-6.6219,1.1132,56.8884,56.8884,0,0,1-6.6617.2447,52.5788,52.5788,0,0,1-12.8031-1.8348,54.107,54.107,0,0,1-11.2418-4.4658,53.027,53.027,0,0,1-8.986-6.0742c-.6324-.5547-1.2652-1.0827-1.86-1.6247l-1.7071-1.6274q-.7936-.8327-1.5457-1.6216c-.4985-.5281-.9432-1.077-1.3961-1.5887a51.7156,51.7156,0,0,1-4.2134-5.6823L74.68,152.34l-.6122-1.0641c-.3775-.6621-.714-1.217-.9412-1.6915l-.7349-1.4347s-.093-.1665-.2438-.49c-.147-.3254-.3625-.8026-.6369-1.41-.1335-.3052-.2983-.6359-.4465-1.0092l-.4765-1.21c-.1626-.4345-.3689-.8847-.5261-1.3814q-.25-.74-.5252-1.5527a51.8484,51.8484,0,0,1-1.8494-7.5757,53.0519,53.0519,0,0,1,0-17.8216,51.8484,51.8484,0,0,1,1.8494-7.5757q.2747-.8115.5252-1.5527c.1572-.4967.3635-.9469.5261-1.3815l.4765-1.2095c.1482-.3732.313-.704.4465-1.0092.2744-.6073.49-1.0845.6369-1.41.1508-.3235.2438-.49.2438-.49l.6518-1.2722.3565-.6936.4676-.8122c.3463-.58.7009-1.2736,1.1872-1.9961A53.4087,53.4087,0,0,1,91.8908,79.3967a53.5079,53.5079,0,0,1,9.603-4.792A52.0689,52.0689,0,0,1,112.601,71.73a54.58,54.58,0,0,1,11.8448-.4011,53.8311,53.8311,0,0,1,11.6432,2.1787,52.7722,52.7722,0,0,1,10.5366,4.5412A53.83,53.83,0,0,1,162.07,91.17c.4548.5911.9255,1.1511,1.3409,1.7317q.6207.8726,1.212,1.7042c.7356,1.1429,1.4612,2.2115,2.0429,3.2756a53.0755,53.0755,0,0,1,2.8248,5.601c.6657,1.6069,1.1686,2.8795,1.4476,3.7692l.4586,1.3537s.0236.0591.0554.1738l.1405.4961.5029,1.77c.1919.7368.3759,1.6066.5955,2.5328.1922.932.3545,1.9353.5354,2.9343.1194,1.0086.2726,2.0136.3592,2.9618.0666.95.15,1.8355.1868,2.5965.0386,1.524.0644,2.54.0644,2.54h3.9683s-.0276-1.09-.0688-2.7254c-.0389-.8168-.1271-1.7679-.2-2.7878-.0933-1.0181-.2556-2.0982-.3863-3.1812-.1923-1.0738-.3682-2.1515-.575-3.1531-.2342-.9959-.4338-1.93-.64-2.7222-.2235-.7874-.41-1.4437-.54-1.903l-.1517-.533C175.2088,107.4817,175.1838,107.4181,175.1838,107.4181Z" style="fill:#313e48;opacity:0.1"/><path d="M142.6689,195.634l-.8531-2.7217,1.813-.6136c1.1913-.3745,2.8961-1.0468,5.0477-1.9389a71.1125,71.1125,0,0,0,7.5-3.7824c.7041-.4035,1.4352-.8127,2.1522-1.2925.7234-.469,1.4779-.936,2.2335-1.4431l2.2819-1.6227c.777-.5564,1.5273-1.1857,2.3184-1.795a72.0619,72.0619,0,0,0,17.5666-20.6779,70.6838,70.6838,0,0,0,6.081-14.11,72.0663,72.0663,0,0,0,2.9179-15.5909,73.0349,73.0349,0,0,0-.5374-15.8555,69.7583,69.7583,0,0,0-3.85-14.8744,71.6465,71.6465,0,0,0-6.4166-12.8593,71.5131,71.5131,0,0,0-22.6268-22.54l-.7158-.459c-.2337-.1458-.47-.273-.6932-.4041l-1.2638-.7266-1.0878-.6257-.9285-.4777-1.7036-.8727,1.2579-2.56-.1728-.0884c-.1159-.0558-.2822-.1529-.5151-.2531l-2.04-.9228c-.8846-.4251-2.0145-.8579-3.3379-1.3785l-1.0292-.4053c-.3582-.1316-.7346-.2519-1.12-.3846l-2.46-.83a75.6766,75.6766,0,0,0-29.98-2.92,74.35,74.35,0,0,0-19.6121,4.8475l-1.2586.4967c-.4212.1655-.8287.3672-1.2457.55-.8278.38-1.6709.742-2.5,1.1446l-2.4778,1.2689c-.4195.2052-.8241.4406-1.23.6758l-1.224.7036-1.2284.7112-1.2015.77c-.7961.5247-1.6263,1.0078-2.3992,1.5836l-2.3622,1.6869-2.3029,1.81A74.7,74.7,0,0,0,57.4812,84.8616,76.1087,76.1087,0,0,0,51.724,95.8687,73.8264,73.8264,0,0,0,47.8967,107.79l-.3525,1.529c-.1212.5089-.1925,1.0279-.291,1.5413l-.2756,1.544c-.0957.514-.1853,1.0289-.2418,1.5485q-.1959,1.5549-.3917,3.1082-.1188,1.56-.2374,3.1186a79.514,79.514,0,0,0,.2894,12.4141,74.3906,74.3906,0,0,0,2.3062,12.0071c.515,1.9531,1.1795,3.8476,1.83,5.73l1.0918,2.77c.1721.4638.3852.9091.5863,1.3585l.6072,1.3432a75.06,75.06,0,0,0,5.635,10.0727,80.7244,80.7244,0,0,0,6.7948,8.7172,81.6378,81.6378,0,0,0,7.5592,7.238c.6458.5456,1.3184,1.0475,1.9677,1.5659l.9761.7665c.3279.2489.6673.4794.9981.7182l1.9764,1.4048,2,1.286a72.6517,72.6517,0,0,0,15.4042,7.3951,76.12,76.12,0,0,0,12.7982,3.1851,80.9114,80.9114,0,0,0,8.4536.8045l3.0047.0755v-3.9682l-2.1252-.0544c-.6929-.0191-1.5487-.0217-2.55-.1176l-1.6139-.1226-.8886-.0672-.9365-.1179c-1.2826-.1668-2.708-.3162-4.2377-.6221l-1.1743-.21c-.4-.0674-.8061-.1423-1.2144-.245l-2.5469-.5877a72.0693,72.0693,0,0,1-11.4133-3.97,70.48,70.48,0,0,1-12.389-7.1266,72.8458,72.8458,0,0,1-6.0906-4.8966c-.499-.4424-.9722-.9186-1.4638-1.38-.4816-.4715-.9927-.9182-1.4573-1.416l-1.4157-1.4853c-.2354-.25-.4791-.4938-.709-.7509l-.6789-.7844a69.6228,69.6228,0,0,1-9.6329-14.0658l-.9945-1.9473q-.451-.9981-.9034-1.9995l-.4534-1.0017-.4065-1.0231q-.4044-1.0248-.8095-2.052a71.15,71.15,0,0,1-2.5177-8.4834,73.3128,73.3128,0,0,1-1.4671-8.7284,74.9574,74.9574,0,0,1-.3226-8.78,69.3112,69.3112,0,0,1,2.4185-16.8751,71.3,71.3,0,0,1,5.8866-14.8184,69.8966,69.8966,0,0,1,8.006-11.8439c.7309-.8337,1.4271-1.6677,2.1414-2.4521l2.1451-2.25,2.1371-2.0373c.6961-.6569,1.4193-1.2433,2.0939-1.84a68.1838,68.1838,0,0,1,7.4893-5.5534l1.5444-.9907,1.4026-.8071c.8726-.4976,1.6041-.9409,2.2295-1.2406l1.8911-.9686.1641-.0841c.1095-.0526.2654-.1447.4819-.2372l1.8583-.84c.4023-.1759.8383-.393,1.33-.5885l1.5943-.6281c.5728-.2145,1.1664-.486,1.821-.6934l2.0467-.6923a68.3485,68.3485,0,0,1,9.9859-2.4379,69.9337,69.9337,0,0,1,23.4887,0,68.35,68.35,0,0,1,9.9858,2.4379l2.0467.6923c.6547.2074,1.2482.4789,1.821.6934l1.5944.6281c.4919.1955.9279.4126,1.33.5885l1.8583.84c.2165.0925.3723.1846.4819.2372l.164.0841,1.677.8591.914.47,1.0707.6163,1.2441.7151c.22.1291.4524.2542.6825.3976l.7045.4521a70.3954,70.3954,0,0,1,22.2753,22.19,70.5282,70.5282,0,0,1,6.3163,12.658,68.638,68.638,0,0,1,3.79,14.6409,71.9161,71.9161,0,0,1,.5289,15.6108,70.9482,70.9482,0,0,1-2.872,15.347,69.5659,69.5659,0,0,1-5.9858,13.8888,70.9494,70.9494,0,0,1-17.2937,20.3566c-.779.6-1.5173,1.22-2.2824,1.7672l-2.2463,1.5975c-.744.4992-1.4869.9586-2.1989,1.4205-.7057.4727-1.4255.8751-2.1186,1.2722a69.9739,69.9739,0,0,1-7.3826,3.7234c-2.1181.8777-3.7958,1.54-4.9685,1.9082l-1.7844.6043s-.0779.0311-.2291.073l-.6539.1853-2.3337.663c-.9712.2529-2.1176.4957-3.3386.7849-1.2286.2535-2.5509.4675-3.8678.7057-1.3293.1577-2.654.3593-3.9037.4735-1.2522.088-2.4193.1982-3.4222.2461l-3.3474.0849v3.9682l3.5328-.0891c1.0587-.05,2.2914-.165,3.6134-.26,1.32-.1208,2.7195-.3316,4.1232-.5007,1.3917-.25,2.7886-.4771,4.0867-.7452,1.2906-.3037,2.5016-.5622,3.5279-.8295l2.4663-.7.6909-.1965C142.5864,195.6665,142.6689,195.634,142.6689,195.634Z" style="fill:#313e48;opacity:0.7000000000000001"/><g style="opacity:0.2"><path d="M115.7743,221l-4.6475-.3522c-.4717-.0246-.9805-.0915-1.5191-.1622-.2595-.0342-.5275-.07-.8041-.1019l-2.774-.3533c-.67-.0977-1.3537-.2218-2.0776-.3529-.37-.0673-.7489-.1361-1.1361-.203l-1.76-.3157c-.4152-.088-.8239-.1829-1.24-.28l-.623-.1437a94.2587,94.2587,0,0,1-17.8112-5.873,95.6084,95.6084,0,0,1-20.7943-12.5558l-1.3142-1.0342c-.2954-.2291-.5807-.4786-.8568-.72-.1466-.1283-.2939-.2572-.4432-.3836-.2828-.2461-.5631-.4883-.8441-.7309-.5836-.504-1.1711-1.0115-1.7529-1.532l-3.1819-3.0338-1.8625-1.9476A93.3741,93.3741,0,0,1,40.952,179.37a99.7723,99.7723,0,0,1-7.8493-13.6124,93.2167,93.2167,0,0,1-5.7034-15.3961A96.5912,96.5912,0,0,1,83.5281,35.4293,92.95,92.95,0,0,1,99.1853,30.487c.2259-.05.4512-.1031.6763-.1555.4279-.1.855-.1994,1.2843-.2849l1.9653-.3525c.3027-.0527.6026-.1069.9023-.1611.9853-.178,2.0041-.3622,3.0172-.47.4325-.0525.87-.1094,1.3056-.1661.84-.1092,1.7089-.2222,2.5635-.3055l3.8407-.2925c.5146-.0493,1.038-.0619,1.5442-.0742l4.1375-.1011,4.0994.102c.4852.0118.9869.0239,1.4836.0714l3.6042.274c.4763.0268.9565.0883,1.4206.1479l3.8806.494c.39.0588.7689.1273,1.1465.1955.1957.0354.3914.0706.587.1044.383.07.7612.1367,1.1388.2033.7562.1337,1.5074.2665,2.251.4143l3.2943.7591c.8889.1872,1.7658.4375,2.6139.68l2.3813.6769c.44.1243.8939.2527,1.3345.4111.4129.1408.83.2809,1.246.42,1.6182.5435,3.1471,1.0567,4.6411,1.6816.32.1294.6455.2561.9688.3822.6017.2345,1.2241.4771,1.8208.7412l3.1218,1.4107c.2848.1287.5685.2565.8484.39l3.7123,1.9011c.5352.2784,1.0515.578,1.5509.8677.2618.1521.5221.303.7824.45.2606.1513.5159.2974.77.4428.4979.285.99.5668,1.469.8569.4814.3112.9493.6094,1.4118.9036.9422.6,1.8323,1.1672,2.698,1.7558.4268.3055.842.5992,1.2514.8891.8443.5974,1.6416,1.1618,2.4144,1.7365l3.2267,2.5357.7435.6363c1.6451,1.408,3.1994,2.7379,4.46,3.9891.2476.2385.4944.4728.7347.7006.4544.431.8834.8382,1.2783,1.2387l2.8745,3.0153c.2426.2635.4483.5023.63.7128q.1389.162.26.3l.9726,1.1222-8.9785,7.7865-.8873-1.0261c-.0727-.0819-.153-.1757-.2395-.2766-.1534-.1794-.3276-.3828-.53-.6021l-2.5366-2.66c-.3237-.3287-.6855-.6711-1.0688-1.0334-.2276-.2153-.4617-.4367-.7-.6672-1.03-1.0279-2.2971-2.1143-3.6389-3.2646l-.9192-.79-2.8341-2.2267c-.6156-.4568-1.26-.9131-1.9427-1.3962q-.6291-.4452-1.276-.9083c-.6966-.4734-1.4244-.937-2.1948-1.4278-.4645-.296-.9358-.5961-1.41-.9052-.39-.2357-.8016-.4705-1.218-.708-.2441-.14-.49-.28-.7362-.4231-.24-.1343-.484-.277-.73-.42-.4225-.2464-.86-.5011-1.3036-.731l-3.2718-1.6762c-.2279-.1082-.4705-.2169-.7139-.3258l-2.7692-1.2524c-.4971-.2209-1.003-.4171-1.5386-.6249-.3014-.1169-.6043-.2345-.9069-.3572-1.2418-.5238-2.52-.953-3.8726-1.4073-.4286-.144-.86-.2889-1.2925-.4377-.366-.1336-.7328-.2364-1.1211-.3454l-2.1725-.6163c-.7193-.2066-1.4636-.42-2.2122-.5745l-2.91-.6726c-.599-.1183-1.2164-.2269-1.8377-.3363-.3763-.0661-.7547-.1328-1.1333-.2024-.18-.0309-.363-.0643-.5468-.098-.3179-.0582-.637-.1165-.9584-.1651l-3.4374-.4362c-.3929-.0513-.7989-.1044-1.1964-.1249L125.302,40.16c-.4148-.0417-.82-.05-1.25-.06l-3.6366-.0928-3.6617.0919c-.43.0094-.8752.019-1.3049.0623l-3.4023.2585c-.7011.0684-1.4275.1634-2.13.2555-.4231.0554-.8472.1107-1.2728.1617-.8537.0872-1.7175.2445-2.5531.3965-.2888.0525-.5778.1052-.8679.1553l-1.73.3074c-.3546.0707-.7152.1557-1.0766.2409-.21.0494-.42.0988-.6305.146A81.0515,81.0515,0,0,0,88.0737,46.41,85.8232,85.8232,0,0,0,62.83,62.6249a84.6788,84.6788,0,0,0-23.9758,84.5705A81.3541,81.3541,0,0,0,43.8476,160.68a87.8773,87.8773,0,0,0,6.8855,11.94A81.6988,81.6988,0,0,0,58.96,182.7531l1.6332,1.7131,2.7953,2.6643c.4625.4125.9391.8234,1.4127,1.2317q.4362.3767.8675.7516c.1336.113.27.2326.4056.3522.243.2137.4725.4156.7155.6024l1.1691.9173a83.7329,83.7329,0,0,0,18.2325,11.01,82.3635,82.3635,0,0,0,15.6011,5.144l1.6333.374,1.5356.2722c.3738.0639.7408.1311,1.0987.1965.6011.11,1.1687.2134,1.7145.293l2.4434.309c.2514.0293.4992.0623.7387.0946.4534.0608.8817.1181,1.2716.1361l4.1526.3164Zm4.6473-192.0895-4.1177.1014c-.4925.0118-1.0017.0242-1.4961.0714l-3.84.2924c-.8338.0815-1.6962.1936-2.53.302-.4385.0569-.8777.114-1.3181.1677-.99.1053-1.995.2869-2.9663.4624-.3014.0544-.6032.109-.9055.1617l-1.9558.3506c-.4134.0825-.8321.18-1.2517.2782-.2274.053-.4551.1061-.6834.1572a92.1321,92.1321,0,0,0-15.5259,4.9006,96.9932,96.9932,0,0,0-28.554,18.339,95.7756,95.7756,0,0,0-27.1191,95.6563,92.4416,92.4416,0,0,0,5.6551,15.2667,98.9848,98.9848,0,0,0,7.7889,13.5074,92.5812,92.5812,0,0,0,9.3,11.4574l1.8471,1.9323,3.16,3.0125c.5694.5091,1.1534,1.0131,1.7335,1.5144q.423.3651.8421.7293c.1486.1253.2989.2572.4493.3883.2794.2449.5434.4759.8229.6924l1.3183,1.0373A94.8234,94.8234,0,0,0,81.701,212.143a93.4676,93.4676,0,0,0,17.6639,5.8244l.6284.145c.4117.0953.8158.1891,1.2137.2737l1.7454.3129c.3872.0669.7678.1361,1.14.2034.717.13,1.3944.253,2.0438.3479l2.7623.3518c.2766.0323.5485.068.8119.1027.5229.0688,1.0167.1338,1.4667.1572l3.852.2922.5267-10.296-3.3755-.2572c-.4123-.0189-.8571-.0785-1.3279-.1419-.2351-.0316-.4778-.0638-.7289-.093l-2.4545-.3107c-.5673-.0822-1.1419-.1872-1.75-.2987-.355-.0646-.7189-.1311-1.0924-.1953l-1.5572-.2764-1.65-.3772a83.1671,83.1671,0,0,1-15.7478-5.1924,84.5351,84.5351,0,0,1-18.4012-11.1122l-1.1638-.9131c-.26-.2-.51-.42-.7523-.6328-.1319-.1161-.264-.2326-.3987-.3464-.2907-.2538-.579-.5025-.8685-.7524-.4771-.4113-.9567-.825-1.4323-1.2494l-2.8177-2.6859-1.6489-1.7288a82.4673,82.4673,0,0,1-8.3059-10.2311A88.6659,88.6659,0,0,1,43.1371,161.02a82.1365,82.1365,0,0,1-5.0419-13.6147A85.4939,85.4939,0,0,1,87.77,45.6833a81.8671,81.8671,0,0,1,13.8444-4.3686c.2076-.0463.4147-.0951.6217-.144.37-.0872.74-.1741,1.1116-.2481l1.7393-.3091c.2895-.05.5763-.1025.8629-.1546.85-.1547,1.73-.3148,2.6074-.4044.4159-.05.8369-.105,1.2571-.16.7089-.0926,1.4417-.1885,2.1641-.2589l3.4013-.2585c.4507-.0454.9113-.0554,1.3567-.0652l3.68-.0917,3.6532.0927c.4256.0092.8658.0188,1.3022.0627l3.1879.2423c.4187.0214.84.0765,1.2483.13l3.4432.4369c.339.0511.6658.1109.9918.17.1815.0331.3622.0661.5433.0975.381.07.7573.1361,1.1318.202.6267.11,1.25.22,1.8661.342l2.9134.6732c.7689.1583,1.5275.3762,2.2614.5868l2.1675.6149c.3856.1083.7843.22,1.1714.3614.4241.1457.8535.29,1.28.4335,1.3675.4593,2.6589.8929,3.9229,1.4261.2938.119.5929.2351.8908.3508.5206.2019,1.0592.4108,1.5759.64l2.7688,1.2523c.2491.1115.4971.2226.7409.3387l3.2832,1.6818c.4636.24.9092.5,1.34.7508.2422.1411.4829.2815.7243.417.2495.1451.4937.2843.7362.4227.4222.2408.8393.4792,1.246.7253.4833.3146.9524.6132,1.4145.9077.7758.4942,1.5082.9607,2.2233,1.4471.4371.3144.8619.6149,1.2794.9105.6862.4858,1.3344.9444,1.9657,1.4133l2.8569,2.2446.9311.8c1.3537,1.16,2.632,2.2563,3.6781,3.3007.2318.2237.464.4435.69.6568.3883.3673.7551.7143,1.0934,1.0579l2.5447,2.6688c.2145.2324.3948.4429.554.6288.0834.0975.161.188.2337.27l.3749.4331,7.7882-6.7542-.4548-.5242c-.08-.0909-.1692-.194-.2645-.3049-.1761-.2045-.376-.4367-.6071-.6882l-2.8653-3.0052c-.3813-.3866-.8058-.7893-1.2552-1.2157-.2415-.2293-.49-.4651-.7432-.7091-1.244-1.2347-2.7165-2.4947-4.4216-3.9537l-.7312-.6263-3.2052-2.5185c-.757-.5629-1.5509-1.1245-2.3909-1.7193q-.6159-.4357-1.2471-.886c-.8481-.5765-1.7336-1.14-2.6708-1.7373q-.6955-.4433-1.4064-.9c-.4636-.2809-.95-.5592-1.4425-.841q-.3828-.2192-.7689-.4425c-.2591-.1457-.5221-.2985-.7869-.4521-.4917-.2853-1-.58-1.5171-.8493l-3.7-1.8946c-.2648-.1261-.5432-.2516-.8235-.3777l-3.0979-1.4c-.5994-.2654-1.1856-.494-1.8069-.7362-.3264-.1273-.6544-.2551-.9823-.3875-1.472-.6157-2.9876-1.1245-4.5923-1.6634q-.625-.21-1.2556-.4238c-.4206-.1511-.8423-.27-1.2883-.3964l-2.3832-.6776c-.8351-.2383-1.6982-.4848-2.5674-.6678l-3.29-.7581c-.7263-.1444-1.4721-.2762-2.223-.4089q-.5679-.1-1.1391-.2034c-.1938-.0334-.3914-.0692-.5894-.1049-.37-.0667-.7416-.134-1.1153-.1905L130.93,29.5c-.45-.0579-.9161-.1176-1.3725-.1432l-3.62-.2753c-.476-.0455-.9419-.0567-1.4348-.0686Z" style="fill:#313e48"/><path d="M124.7422,216.0229l-.3525-6.8914,4.1413-.3156c.4014-.0188.8293-.0761,1.2825-.1369.24-.0323.4875-.0653.744-.0949l2.4455-.31c.539-.0784,1.1068-.1822,1.7081-.2918.3579-.0657.7247-.1326,1.1007-.1969l1.5524-.2756,1.6113-.3694a82.38,82.38,0,0,0,15.6037-5.1448,83.7386,83.7386,0,0,0,18.23-11.0076l1.1691-.9174c.2449-.1883.4732-.3894.7154-.6028.1369-.12.2738-.2407.4133-.3583.283-.2472.5732-.4979.8651-.7493.4728-.4079.9484-.8181,1.42-1.2387l2.7992-2.6689,1.6216-1.7012a81.6675,81.6675,0,0,0,8.2239-10.13,87.8274,87.8274,0,0,0,6.8863-11.94,81.3284,81.3284,0,0,0,4.9941-13.4862A84.7058,84.7058,0,0,0,152.6993,46.4107a81.0783,81.0783,0,0,0-13.7142-4.3275c-.21-.047-.4191-.0962-.6278-.1455-.3622-.0853-.724-.17-1.0877-.2427l-1.7231-.3064c-.2883-.05-.5774-.1025-.8662-.155-.8357-.152-1.7-.3093-2.5462-.396-.4329-.0515-.8577-.107-1.281-.1624-.702-.0919-1.4278-.1869-2.1368-.2561l-3.3847-.257c-.4391-.044-.8838-.0536-1.314-.063l-3.6821-.0919-3.6164.0928c-.4292.0093-.8349.0181-1.2406.0591l-3.2071.2439c-.4068.0211-.813.0742-1.2055.1255l-3.4474.4375c-.3116.0473-.63.1056-.9481.1636-.1839.0337-.3677.0673-.5515.099-.3748.069-.7531.1355-1.13.2018-.6208.1094-1.2381.2178-1.849.3387l-2.8885.6678c-.7588.1567-1.5039.3706-2.2245.5777l-2.17.6157c-.3884.1088-.7549.2116-1.1136.3425-.44.1515-.8716.2964-1.301.4406-1.3523.4543-2.6295.8833-3.8659,1.4048-.3079.125-.6115.2428-.9134.36-.535.2076-1.04.4036-1.5394.6254l-2.7648,1.25c-.2441.1094-.4873.2182-.7266.332L80.369,50.0576c-.4421.2291-.8786.4836-1.3009.73-.2463.1435-.4908.2862-.7363.4238-.2418.1409-.4888.2818-.7341.4218-.4152.2368-.826.4711-1.2256.7131-.4644.303-.9365.6036-1.4021.9-.7695.49-1.4963.9531-2.2,1.4321-.4214.3034-.847.6046-1.2656.9008-.6832.4836-1.3285.94-1.9531,1.404l-2.84,2.2318-.911.7829c-1.3394,1.1486-2.6046,2.2335-3.6283,3.2553-.2437.2355-.4788.4577-.707.6736-.3821.3618-.7433.7034-1.0712,1.0363l-2.5365,2.66c-.198.2145-.3723.4183-.5261.598-.0861.1006-.1661.1938-.2412.2787l-.885,1.0227L50.9919,65.002l.9328-1.077c.08-.09.1615-.1855.25-.2882.1717-.2.3664-.4265.5923-.6714l2.7267-2.86c.3743-.38.7758-.7606,1.201-1.1633q.35-.3317.7174-.6842c1.1559-1.15,2.58-2.37,4.0873-3.6611l.8316-.7132,3.0656-2.4093c.7184-.534,1.4493-1.0513,2.2231-1.5991q.6187-.438,1.2541-.8916c.8049-.5477,1.6228-1.0688,2.489-1.62q.6954-.4428,1.4065-.9015c.4535-.2749.9085-.535,1.3688-.7982q.378-.2162.76-.4369c.2584-.1453.5111-.2921.7653-.44.4673-.2716.95-.5526,1.45-.8121l3.5116-1.7985c.274-.13.5414-.2509.81-.3716l2.9606-1.3384c.563-.25,1.1472-.477,1.7122-.6969.3125-.1215.6263-.2435.94-.37,1.3825-.58,2.8009-1.0568,4.3026-1.5613q.6363-.2136,1.2785-.4323c.4114-.1485.8417-.27,1.2577-.3871l2.2829-.6482c.7966-.228,1.62-.4638,2.4634-.64l3.1035-.7163c.6982-.1386,1.3921-.2612,2.0905-.3844.376-.0663.7531-.1329,1.1312-.2021.1944-.0334.385-.068.5759-.1026.3527-.064.7064-.1282,1.0628-.1822l3.6942-.47c.4387-.0566.8922-.1155,1.3512-.14l3.4172-.26c.4608-.0451.9343-.0563,1.3923-.0669l3.8809-.0978,3.95.0969c.479.0111.9742.0227,1.469.0709l3.6269.2757c.802.0782,1.6082.1832,2.3883.2849.43.0561.8615.1122,1.294.1645.945.099,1.9.272,2.8238.4395.2949.0534.59.1068.8858.1581l1.8581.332c.4117.0819.8131.1759,1.2156.27.2165.0507.4333.1015.6509.15a87.957,87.957,0,0,1,14.8441,4.6853A92.7624,92.7624,0,0,1,182.6374,57.57a91.5783,91.5783,0,0,1,25.9306,91.4631,88.2227,88.2227,0,0,1-5.4073,14.5973,94.6908,94.6908,0,0,1-7.4438,12.9084,88.4918,88.4918,0,0,1-8.8939,10.9569l-1.7555,1.8384-3.0218,2.8815c-.54.4829-1.0761.9454-1.6082,1.4048q-.4324.3736-.8607.7458c-.1473.1246-.2876.2476-.4279.37-.26.2287-.53.4648-.812.6831l-1.2464.98a90.6565,90.6565,0,0,1-19.7174,11.9058,89.3093,89.3093,0,0,1-16.8867,5.568l-.6244.1442c-.3822.0888-.7578.176-1.128.2552l-1.6789.3c-.3856.0665-.7589.1342-1.1241.2007-.67.1218-1.3033.2372-1.9188.3264l-2.6331.3348c-.27.0312-.5275.0654-.7767.0984-.5074.0673-.9868.1311-1.4417.1539Zm.4733-6.1647.2718,5.3181,3.6239-.2753c.4329-.0215.8969-.083,1.3878-.1484.2534-.0334.5148-.0684.7851-.1l2.6219-.3334c.5944-.0865,1.2211-.2,1.8843-.321.3671-.0669.7431-.1353,1.1283-.2014l1.6643-.2976c.3526-.0754.7232-.1619,1.1007-.2495l.63-.1457a88.4638,88.4638,0,0,0,16.7395-5.5192,89.8613,89.8613,0,0,0,19.5483-11.8031l1.251-.9834c.2656-.2053.5144-.4233.7773-.6544.1439-.1257.2876-.2518.4341-.3756.2814-.2457.57-.4944.8589-.7443.529-.4567,1.0614-.9162,1.5889-1.3875l3-2.86,1.74-1.8231a87.6743,87.6743,0,0,0,8.8155-10.8593,93.9583,93.9583,0,0,0,7.3834-12.8038,87.4572,87.4572,0,0,0,5.3589-14.4673A90.82,90.82,0,0,0,155.0364,40.7623a87.1722,87.1722,0,0,0-14.7131-4.6435c-.22-.0494-.4394-.1007-.6585-.152-.3937-.0923-.787-.1844-1.1822-.263l-1.8485-.33c-.296-.0513-.5932-.1052-.89-.159-.91-.1647-1.85-.3352-2.7719-.4317-.441-.0533-.8746-.11-1.3075-.1661-.7735-.1009-1.5736-.2051-2.3544-.2815l-3.6269-.2756c-.4741-.0461-.9546-.0573-1.4191-.068l-3.9318-.0971-3.8631.098c-.4641.0108-.9022.021-1.3424.064l-3.4343.2613c-.4383.0238-.8769.0805-1.3012.1355l-3.6867.4687c-.3394.0514-.6856.1143-1.0309.177-.1932.0349-.3859.07-.5788.1032-.3756.0688-.7545.1355-1.132.2022-.6928.1223-1.3813.2438-2.0622.3789l-3.1.7155c-.8231.1718-1.6327.4036-2.4158.6278l-2.286.6491c-.4212.1187-.8191.2307-1.21.372-.4356.1491-.8634.293-1.2892.4359-1.4875.5-2.8927.9718-4.2532,1.5427-.3216.13-.6388.2537-.9546.3765-.5821.2265-1.1321.44-1.6759.6815l-2.96,1.3379c-.2635.1186-.5257.2364-.7843.3594l-3.4993,1.7925c-.4809.25-.9559.526-1.4153.793-.2576.15-.5137.2985-.77.4427-.2506.1459-.5059.292-.76.4369-.4544.26-.9038.5169-1.3413.7818-.4646.3016-.9364.6021-1.4017.8987-.861.5484-1.6743,1.0664-2.4611,1.6016-.4162.2987-.8364.5961-1.25.8891-.77.5449-1.4973,1.06-2.2,1.5818l-3.0437,2.3918-.8191.7032c-1.4961,1.2816-2.9093,2.4921-4.0486,3.6256-.25.2416-.4919.4706-.7269.6932-.42.3981-.8167.7739-1.1771,1.14l-2.7178,2.85c-.2143.2326-.4029.4523-.5691.6461-.0909.1057-.1756.2041-.2547.2937l-.415.4792,4.0229,3.4889.3719-.43c.0754-.0851.1526-.1755.2359-.2725.1594-.1863.34-.3972.55-.6248l2.5449-2.669c.3424-.3478.7084-.694,1.0957-1.0606.2263-.2139.4593-.4344.6964-.6635,1.04-1.0384,2.3164-2.1326,3.6676-3.2911l.923-.7931,2.8625-2.25c.64-.4758,1.289-.935,1.976-1.4211q.6255-.4427,1.2691-.9033c.7226-.4915,1.4542-.9577,2.2287-1.4511.4633-.2951.9331-.5944,1.4063-.9027.4166-.2524.8331-.49,1.2543-.73q.3651-.2082.7337-.4213c.2471-.1386.4879-.2792.73-.42.4306-.251.8758-.5107,1.3371-.75L83.2832,47.68c.2553-.1217.5041-.2332.7537-.3449l2.7644-1.25c.5187-.23,1.0565-.4392,1.5767-.6409.2983-.1159.5982-.2322.8973-.3535,1.2585-.5309,2.5495-.9646,3.9162-1.4236q.6414-.2151,1.2887-.4364c.38-.1387.7785-.25,1.1639-.3585l2.1653-.6143c.7349-.2111,1.4947-.4293,2.2736-.59L102.9749,41c.6284-.1246,1.251-.2342,1.8775-.3445q.5625-.0988,1.1286-.2014c.1853-.0322.3665-.0652.548-.0985.3256-.06.6522-.1192.9815-.1689l3.4531-.4383c.4079-.0535.8295-.1086,1.2578-.13l3.1879-.2426c.4269-.0431.8671-.0527,1.2927-.0619l3.6329-.0927,3.7.0917c.4452.01.9058.02,1.366.0659l3.3836.2571c.73.0711,1.4624.1668,2.1706.2594.421.055.8427.11,1.2656.1607.8708.0891,1.75.2492,2.6005.4039.2868.0521.5736.1044.8615.1542l1.7327.3081c.3807.0756.7513.1628,1.1227.25.206.0486.4121.0973.6189.1434A81.8844,81.8844,0,0,1,153.003,45.684a86.6169,86.6169,0,0,1,25.4742,16.3643,85.4644,85.4644,0,0,1,24.1987,85.3562,82.0973,82.0973,0,0,1-5.0425,13.6162,88.6115,88.6115,0,0,1-6.9463,12.0441,82.4681,82.4681,0,0,1-8.3027,10.228l-1.6373,1.717-2.8212,2.69c-.4844.4325-.9634.8454-1.4394,1.2564q-.4359.3754-.8661.75c-.1407.1188-.2738.2356-.4064.3525-.241.2118-.49.4314-.7524.6332l-1.1637.9131a84.5443,84.5443,0,0,1-18.3988,11.11,83.2013,83.2013,0,0,1-15.75,5.1932l-1.6277.3725-1.574.28c-.3756.0642-.7393.1307-1.0945.1957-.6086.1111-1.1834.2165-1.7435.2976l-2.4571.3114c-.2556.03-.4986.0622-.7339.0938-.4706.063-.915.1226-1.339.1422Z" style="fill:#313e48"/></g><g style="opacity:0.2"><path d="M181.9653,71.1676l-.605-.6991c-.2019-.2284-.4416-.5221-.7467-.8527q-.466-.4882-1.0784-1.1293l-1.3617-1.43c-.5088-.5167-1.0948-1.05-1.71-1.6446-1.2121-1.21-2.7252-2.47-4.3931-3.9082l-2.7356-2.1495c-.9768-.7253-2.0266-1.4472-3.1039-2.2228-1.0975-.7462-2.2761-1.4683-3.4767-2.2506-.6129-.3708-1.2519-.7232-1.8931-1.0963-.6469-.363-1.2886-.762-1.9694-1.1146l-2.08-1.0644-1.0634-.5461c-.3624-.1724-.7337-.333-1.1041-.5022l-2.258-1.0217c-.7653-.34-1.5657-.6259-2.3623-.9491-1.5861-.6689-3.2724-1.1916-4.98-1.7791-.4245-.1548-.8636-.2714-1.3029-.3958l-1.3252-.3757c-.8888-.25-1.7816-.5259-2.7064-.7167l-2.7861-.644c-.9443-.1868-1.9046-.3433-2.87-.5206-.4836-.0835-.9674-.1808-1.4572-.2549l-1.4818-.1869-1.4948-.19c-.5006-.0622-1.0018-.1391-1.5107-.1653l-3.0709-.2335c-.5153-.052-1.0358-.0522-1.5574-.0666l-1.5713-.0394-1.5833-.0416-1.595.04-1.6066.04c-.5374.0147-1.0775.0154-1.6161.07l-3.2586.2474c-1.0907.1064-2.1822.27-3.2841.4021-1.1052.113-2.199.3417-3.3052.533l-1.6627.2955c-.5536.11-1.1023.2509-1.6561.3748a77.9983,77.9983,0,0,0-13.2337,4.1759A82.33,82.33,0,0,0,64.7525,64.7995a81.7034,81.7034,0,0,0-23.1338,81.6,78.3188,78.3188,0,0,0,4.82,13.0137A84.5667,84.5667,0,0,0,53.08,170.93a79.186,79.186,0,0,0,7.9378,9.7777l1.0489,1.1009.5217.5462.545.5182q1.0858,1.0359,2.1523,2.053c.7328.6539,1.4764,1.282,2.2019,1.916.368.3108.717.641,1.095.932q.5628.4416,1.12.8787a80.7289,80.7289,0,0,0,17.5906,10.6221,79.2944,79.2944,0,0,0,15.0552,4.9641l1.566.3584,1.4931.2652c.9663.1655,1.8676.349,2.7138.4718l2.3533.2978c.72.0832,1.37.197,1.9608.2244l3.6094.2752-.5443,10.6435-4.0771-.3094c-.6662-.0347-1.4023-.1575-2.2164-.2519l-2.66-.3391c-.9567-.1393-1.9771-.3424-3.07-.5312l-1.6883-.3029c-.5759-.1226-1.1652-.2648-1.7725-.4027A89.9448,89.9448,0,0,1,82.98,209.0209a91.3915,91.3915,0,0,1-19.889-12.009l-1.264-.9947c-.426-.33-.8227-.7-1.2384-1.0516-.8208-.7149-1.6593-1.4266-2.4862-2.1663L55.67,190.4811l-.6143-.5868-.5907-.6158-1.1858-1.2429a89.82,89.82,0,0,1-8.9684-11.0488,95.2157,95.2157,0,0,1-7.51-13.0233,88.9711,88.9711,0,0,1-5.4547-14.7253A92.3888,92.3888,0,0,1,85.0334,39.3067a88.66,88.66,0,0,1,14.975-4.727c.6267-.14,1.2482-.2965,1.8743-.4213l1.88-.3372c1.251-.2175,2.4895-.4693,3.7378-.6022,1.2453-.1514,2.48-.3324,3.7126-.4527l3.6806-.28c.6089-.0582,1.2179-.0621,1.8242-.08l1.8127-.0461,1.8-.0418,1.7864.0436,1.773.0452c.5886.017,1.1754.02,1.7578.0762l3.4688.2638c.5744.0325,1.1415.1163,1.7075.1859l1.69.2143,1.6747.2143c.5538.0838,1.1015.1913,1.6486.2856,1.0924.1989,2.178.379,3.246.5914l3.1529.7267c1.0452.22,2.0568.5272,3.0627.81l1.4994.4264c.497.1416.9932.2757,1.4742.4485,1.9339.66,3.8392,1.26,5.6358,2.0116.902.3645,1.8058.6927,2.6722,1.076l2.5551,1.1544c.4189.1917.8382.3751,1.248.57l1.204.6152L163.94,43.284c.7692.4,1.497.8471,2.2281,1.2584.7253.4214,1.4464.8224,2.1391,1.242,1.36.88,2.69,1.7,3.93,2.5436,1.22.8729,2.4045,1.6918,3.5078,2.5122l3.0908,2.4291c1.8889,1.62,3.592,3.0507,4.965,4.4135.696.6708,1.3552,1.2763,1.93,1.86q.8487.8894,1.54,1.6137l1.2163,1.2776c.3443.3738.6168.7041.845.9621l.6842.7893Z" style="fill:#313e48"/><path d="M124.5291,206.1321l3.6095-.2752c.59-.0274,1.24-.1412,1.9607-.2244l2.3533-.2978c.8462-.1228,1.7475-.3063,2.7138-.4718l1.4932-.2652,1.5659-.3584a79.2944,79.2944,0,0,0,15.0552-4.9641,80.7261,80.7261,0,0,0,17.59-10.6221q.5573-.437,1.12-.8787c.3781-.291.727-.6212,1.095-.932.7255-.634,1.4691-1.2621,2.202-1.916l2.1523-2.053.5449-.5182.5218-.5462,1.0488-1.1009a79.1769,79.1769,0,0,0,7.9378-9.7777,84.5671,84.5671,0,0,0,6.642-11.5173,78.3274,78.3274,0,0,0,4.8194-13.0137,81.7315,81.7315,0,0,0-47.4889-97.2448,77.9937,77.9937,0,0,0-13.2338-4.1759c-.5537-.1239-1.1024-.2647-1.6559-.3748l-1.6629-.2955c-1.1061-.1913-2.2-.42-3.3051-.533-1.1019-.1316-2.1933-.2957-3.2841-.4021l-3.2585-.2474c-.5387-.0542-1.0788-.0549-1.6162-.07l-1.6065-.04-1.5951-.04-1.5833.0416-1.5713.0394c-.5216.0144-1.0421.0146-1.5574.0666l-3.0709.2335c-.5089.0262-1.01.1031-1.5107.1653l-1.4948.19L107.978,43.9c-.49.0741-.9736.1714-1.4572.2549-.9655.1773-1.9258.3338-2.87.5206l-2.7861.644c-.9248.1908-1.8175.4666-2.7063.7167l-1.3253.3757c-.4393.1244-.8784.241-1.3029.3958-1.7072.5875-3.3936,1.11-4.98,1.7791-.7966.3232-1.597.609-2.3623.9491L85.93,50.5573c-.37.1692-.7417.33-1.104.5022l-1.0635.5461-2.08,1.0644c-.6807.3526-1.3225.7516-1.9694,1.1146-.6412.3731-1.28.7255-1.893,1.0963-1.2006.7823-2.3793,1.5044-3.4768,2.2506-1.0773.7756-2.127,1.4975-3.1039,2.2228l-2.7356,2.1495c-1.6679,1.4385-3.181,2.6982-4.3931,3.9082-.6155.5944-1.2013,1.1279-1.71,1.6446l-1.3617,1.43L59.96,69.6158c-.305.3306-.5447.6243-.7467.8527l-.605.6991-4.4351-3.8463.6486-.7488c.2164-.2447.4741-.5585.8008-.9129l1.1544-1.211q.6546-.6864,1.46-1.5311c.5454-.5534,1.1716-1.1266,1.8315-1.7631,1.3007-1.2942,2.9185-2.6481,4.7081-4.1866l2.9313-2.3035c1.0465-.7776,2.17-1.5529,3.3263-2.3821,1.1762-.8,2.4383-1.5761,3.7267-2.4121.6568-.3977,1.3411-.7768,2.0286-1.1766.6933-.39,1.3824-.815,2.1119-1.1938l2.23-1.1422,1.1408-.5841c.3885-.185.7863-.3582,1.1834-.54l2.4216-1.0947c.821-.3639,1.6784-.6731,2.533-1.0191,1.7021-.7143,3.509-1.28,5.3411-1.9071.4557-.1648.9262-.291,1.3973-.4249l1.4212-.4036c.9533-.2683,1.9115-.5612,2.9026-.7682l2.9881-.69c1.0126-.2008,2.0419-.37,3.0772-.56.5186-.0894,1.0376-.1923,1.5627-.2718l1.588-.2019,1.6023-.2036c.5366-.0663,1.0741-.147,1.6191-.1766l3.29-.25c.5522-.0541,1.1092-.056,1.6678-.0719l1.6824-.0426,1.6952-.0427,1.7078.041,1.72.0435c.5754.0161,1.1534.0186,1.7307.075l3.4911.2655c1.1688.114,2.3393.2875,3.52.43,1.1841.1239,2.3576.3653,3.5435.5711l1.7826.3185c.5935.1182,1.1824.2675,1.7762.4A83.8651,83.8651,0,0,1,153.7105,43.73,88.2041,88.2041,0,0,1,179.817,60.4984a87.5741,87.5741,0,0,1,24.7967,87.4648,84.1785,84.1785,0,0,1-5.1694,13.9565,90.4292,90.4292,0,0,1-7.12,12.3468,85.038,85.038,0,0,1-8.5056,10.478l-1.1242,1.1791-.56.5844-.5831.5561-2.3067,2.1991c-.7847.7012-1.5805,1.3753-2.3586,2.0539-.3942.3331-.77.6851-1.1739.9978l-1.1993.9427a86.6012,86.6012,0,0,1-18.8567,11.3859,85.1516,85.1516,0,0,1-16.1464,5.3241c-.5755.1307-1.1339.2664-1.68.3828l-1.6007.286c-1.0359.1784-2.0028.3726-2.91.5045l-2.5223.3206c-.7719.0893-1.4694.2081-2.1015.2395l-3.867.294Z" style="fill:#313e48"/></g><path d="M131.4518,122.0438l2.56-.5831-.0883-.3643c-.0637-.2361-.1547-.5835-.3065-1.0164a14.0813,14.0813,0,0,0-5.4543-7.0851c-.4014-.2677-.7742-.4911-1.2944-.7717l-.3047-.1576-.1985-.0978-.1556-.0694c-.1954-.09-.462-.1957-.6915-.2927-.4775-.1762-.9744-.3646-1.4833-.4964a14.0467,14.0467,0,0,0-1.5262-.315,13.77,13.77,0,0,0-3.0959-.1284,14.3694,14.3694,0,0,0-2.9555.5216c-.4838.1458-.9277.31-1.369.4862-.2215.0918-.4379.1825-.6156.2638l-.07.0313-.1182.0575-.132.0671-.2681.138c-.4148.2264-.8067.4454-1.1405.6717-.368.2357-.6929.4788-.9965.7183a13.8163,13.8163,0,0,0-1.5692,1.4335,14.8642,14.8642,0,0,0-1.0489,1.26c-.2711.3676-.4671.6675-.5954.875l-.1939.32,2.2628,1.3321s-.0826.1365-.2257.4a11.8512,11.8512,0,0,0-.5468,1.1766c-.102.26-.2071.5506-.306.8714l-.1462.5164q-.0664.2549-.1233.5355a10.8875,10.8875,0,0,0-.1728,1.221,12.3968,12.3968,0,0,0-.0446,1.3733c.008.2369.0252.4964.0457.78.0025.0357.006.0817.0048.0665,0,0-.0013-.01.0055.0419l.0285.2142.0578.4067.0645.3757.0363.1751.05.2122.0463.2028.0467.18q.05.1842.1145.3857l.1386.4211.038.1113c.0094.0272.0024.0072.0046.0134l.1059.2666c.0642.1705.1016.266.1266.3161l.2042.448a11.4871,11.4871,0,0,0,.8876,1.5129,12.24,12.24,0,0,0,1.163,1.4184,10.9473,10.9473,0,0,0,1.3946,1.2291,11.3817,11.3817,0,0,0,3.379,1.7315q.2309.073.4664.1377c.1166.0363.28.0658.4425.1013l.4793.1029.48.0688c.3257.0582.614.048.9211.08l.2266.018.2972.01.1047.0033h0c.0181,0-.0507.0011-.0368.001l.07-.0019.2793-.0075c.1955-.0021.3562-.0148.5148-.0275.1606-.0113.32-.0215.4961-.0461l.3905-.0474.4684-.0856c.3369-.0684.5883-.1215.9249-.2208l.2092-.06c.0255-.008.0253-.004.0722-.02l.131-.0451c.1916-.063.3119-.1138.4454-.1654l.3982-.1522.0993-.0372.08-.0357.2225-.1021c.284-.1312.53-.2545.7593-.3867a11.05,11.05,0,0,0,1.4115-.935,11.7315,11.7315,0,0,0,2.1684-2.216,11.5755,11.5755,0,0,0,1.3111-2.2578,10.5948,10.5948,0,0,0,.6261-1.8963,11.6225,11.6225,0,0,0,.2207-1.28l.0436-.4578,3.6431.2727-.0406.45c-.0311.293-.0835.7223-.1863,1.263a14.54,14.54,0,0,1-1.5372,4.29,15.2619,15.2619,0,0,1-4.1741,4.8455,14.3366,14.3366,0,0,1-1.4964.9895c-.2412.145-.5529.3147-.8229.4469l-.4091.195c-.1336.06-.2446.1163-.4259.19a15.2638,15.2638,0,0,1-3.6185,1.0268l-.5135.0609c-.1459.0154-.28.0378-.4375.0461-.3042.0217-.6238.0485-.8785.0495l-.2022.0053-.1746.0047c-.0592.0038-.1615-.003-.1745-.0025-.1343-.0056-.2253-.0046-.3946-.016l-.96-.0662a14.6342,14.6342,0,0,1-1.8032-.2877c-.1519-.0331-.2777-.0542-.45-.0974l-.4488-.1251q-.4263-.1249-.8431-.2733a15.0777,15.0777,0,0,1-5.4379-3.3892,15.5617,15.5617,0,0,1-1.6783-1.94,14.0421,14.0421,0,0,1-1.0689-1.6956l-.3312-.6426c-.0886-.1945-.162-.3679-.2057-.4539-.09-.1965-.1338-.3149-.1626-.3878l-.0393-.103-.0429-.1122-.0489-.1193a1.8377,1.8377,0,0,1-.0723-.1927l-.0408-.12a14.8162,14.8162,0,0,1-.4383-1.4912l-.1038-.46c-.0375-.1814-.07-.3637-.099-.5446l-.078-.5354-.0347-.26c-.0014-.0235-.0212-.1314-.0246-.2147l-.0111-.155c-.0254-.3585-.0529-.759-.0571-1.1992-.0029-.2225.0064-.4605.0121-.6408.007-.2009.0179-.4179.0336-.6274a14.31,14.31,0,0,1,.3957-2.495,15.341,15.341,0,0,1,.6837-2.0726,13.8877,13.8877,0,0,1,.95-1.9121l.2083-.3433c.1378-.2228.3483-.5451.64-.9411a15.88,15.88,0,0,1,1.1245-1.35c.2338-.2493.4907-.5077.7751-.7683.1416-.13.2917-.2624.4458-.392l.4611-.3771c.3228-.2544.67-.5151,1.0813-.7788.3408-.2306.7744-.4769,1.2485-.7317l.2488-.1285.1174-.06.177-.0861.0656-.0292.2783-.1223.3529-.1484c.48-.1927.9483-.3666,1.4883-.5294a15.3757,15.3757,0,0,1,3.1711-.5607,13.8817,13.8817,0,0,1,1.6721-.0251,16.1374,16.1374,0,0,1,1.6513.1622,15.1367,15.1367,0,0,1,1.6387.3385c.27.0725.5542.1578.8276.2539l.7856.2867.3866.1617.34.1465.1451.0646.2478.1216.29.15.4382.24.3515.2079c.2475.1468.3863.2331.6237.3931a15.11,15.11,0,0,1,5.8515,7.601c.1641.4684.2623.8425.3308,1.0971l.0951.392a15.605,15.605,0,0,1,.3339,2.2539,15.8731,15.8731,0,0,1-.0023,2.2723l-1.0245-.0777-2.6184-.1986a12.0912,12.0912,0,0,0,.0015-1.7317A11.7648,11.7648,0,0,0,131.4518,122.0438Z" style="fill:#313e48"/><path d="M152.75,117.1163l2.56-.5831-.2261-.9323c-.1631-.6039-.3956-1.4929-.7832-2.5972A36.0821,36.0821,0,0,0,149.965,104.4a35.6374,35.6374,0,0,0-4.1016-4.9788,36.424,36.424,0,0,0-5.5461-4.5816c-.2547-.1724-.53-.3525-.7777-.5093-.2342-.1482-.544-.3655-.8295-.5193l-.7984-.4506-.8806-.4825-.8071-.4168c-.1453-.0733-.3431-.1781-.4825-.24l-.4286-.1911c-.5592-.2567-1.1957-.5052-1.7942-.7591l-.4635-.1912-.4781-.1755-.9237-.3133c-.6189-.2108-1.2694-.4112-1.9089-.5819a36.0935,36.0935,0,0,0-3.9109-.8068,38.8082,38.8082,0,0,0-3.9683-.39,32.7646,32.7646,0,0,0-3.9665.06,36.8789,36.8789,0,0,0-7.5765,1.336q-.4518.1318-.9.2813l-.8587.2888c-.288.0975-.5811.1981-.88.3149l-.8456.3511c-.5605.2315-1.112.4613-1.6185.6933-.1317.06-.2481.1068-.41.1908l-.4074.2078-.7185.3688a8.9949,8.9949,0,0,0-.7909.4326l-.7123.4079c-.5.2612-.9317.5937-1.3887.8674-.922.59-1.7567,1.2137-2.5389,1.831a35.3275,35.3275,0,0,0-4.025,3.6759,38.2254,38.2254,0,0,0-2.69,3.2308c-.6932.94-1.1957,1.7085-1.5242,2.24-.3343.5284-.4971.8194-.4971.8194l2.2629,1.3321s-.2417.3993-.66,1.1686a34.561,34.561,0,0,0-1.5978,3.4381c-.2986.76-.606,1.6106-.8954,2.55-.1388.475-.2839.9726-.4217,1.4888q-.1986.7625-.3672,1.5938a31.9576,31.9576,0,0,0-.5073,3.5809c-.0553.64-.0945,1.2888-.1172,1.9749-.01.3533-.0256.6917-.0263,1.0177-.0022.3325.0036.6731.0155,1.0217.0236.6973.0725,1.4262.1274,2.1881.01.1715.0212.3125.0463.4713l.076.5717.1619,1.1379c.0578.3761.1206.7485.1918,1.1159l.1137.5473.1385.5852.1326.5789.1443.5566c.1019.3738.2157.7534.3379,1.1394l.388,1.1782.1026.3015.0488.1427.0137.032c.1013.2364.1876.46.2677.67.16.4231.2924.7759.4358,1.0711.1947.4047.3562.8092.5478,1.2011.3965.758.7734,1.521,1.2053,2.2528.4307.737.8943,1.4674,1.3974,2.183a35.4746,35.4746,0,0,0,3.3851,4.128,32.1083,32.1083,0,0,0,4.0871,3.6027,33.2857,33.2857,0,0,0,9.874,5.0583q.67.212,1.35.3987c.24.0651.399.1123.6329.1612l.7243.166c.47.1071.9041.2023,1.31.2617l.42.0792.3119.0524.6747.091.7217.0908.6864.0677c.4731.0446.9418.0838,1.3872.1078.233.0121.4135.0191.6564.0194l.7554.0228.3428.011v0c.0258-.0006-.0653.0018-.0239.0008l.0918-.0024.1835-.0049.733-.02c.2414-.0089.4943-.0077.7254-.0248l.693-.0509c.4608-.0321.92-.0621,1.3933-.1281l1.2518-.151,1.3735-.2517c.4647-.0746.89-.19,1.3282-.2893l.6522-.1527.6618-.1882.63-.18c.0952-.0288.1661-.0415.2814-.0821l.3369-.1162c.2208-.074.4564-.1625.6648-.2237.17-.0548.3654-.1263.5642-.2021l1.2454-.4966c.2389-.0956.3487-.14.5586-.2385l.609-.2792c.7974-.3684,1.5454-.7416,2.255-1.1507a32.3991,32.3991,0,0,0,4.1147-2.7305,34.2283,34.2283,0,0,0,6.3165-6.4572,33.7924,33.7924,0,0,0,3.8313-6.5966,31.2058,31.2058,0,0,0,1.84-5.5723,34.0009,34.0009,0,0,0,.6446-3.7372c.0977-.87.1272-1.3367.1272-1.3367l3.6431.2727s-.0257.3857-.1,1.1064c-.0765.72-.2053,1.7761-.4581,3.105a36.709,36.709,0,0,1-1.23,4.7257,36.2821,36.2821,0,0,1-2.5415,5.7967,37.53,37.53,0,0,1-10.2641,11.9122,34.9973,34.9973,0,0,1-3.68,2.4308c-.6207.3725-1.324.7543-1.9952,1.0843-.34.1678-.68.3287-1.0161.4843-.3453.156-.6364.2993-1.0581.4751-.6952.278-1.3339.5529-2.139.8327-.2278.0762-.37.1166-.5445.18l-.5069.1752-.1269.0439-.1569.0459-.3175.0909-.5479.1566c-.7052.2189-1.4765.3779-2.2245.5579-.3769.09-.7411.1421-1.1125.2149l-.5546.1019-.2774.0509-.1386.0255-.1038.0191c-.0483.0094-.084.0113-.1437.0191l-1.155.1379c-.3736.04-.7339.0994-1.1205.1191-.7611.0538-1.5366.1221-2.2483.1262l-.5443.0144-.272.0072-.1654.0044-.1188-.0033-.1324-.0043c-.36-.009-.69-.0283-1.0722-.0291-.836-.0187-1.5741-.0881-2.3168-.1576-.3423-.0292-.8164-.0857-1.1228-.1267-.3523-.0431-.7385-.0893-1.14-.1547l-.3041-.0529-.2792-.0553.0014,0-.061-.0092-.1546-.0246-.3011-.0533c-.395-.0739-.7631-.1572-1.1151-.2377l-.5161-.1185-.258-.0583q-.153-.0322-.2987-.0729c-.3977-.1049-.721-.1961-1.0818-.302q-1.0547-.309-2.0794-.6739A37.054,37.054,0,0,1,94.68,151.0193a38.3379,38.3379,0,0,1-4.131-4.776,34.281,34.281,0,0,1-2.6119-4.1411c-.3078-.5965-.5827-1.129-.8219-1.5923-.21-.4637-.3659-.8394-.5328-1.1766-.1808-.3918-.2824-.6646-.3514-.8409l-.0993-.26-.1229-.3214-.14-.3449c-.0021-.0092-.0591-.1279-.0837-.2032l-.061-.1789-.1009-.2962a36.6652,36.6652,0,0,1-1.0784-3.6552c-.0372-.1784-.0771-.3517-.1244-.5368l-.14-.6334c-.0885-.428-.1669-.8667-.2383-1.3118s-.1351-.8963-.1965-1.35l-.0913-.685c-.0158-.1365-.04-.272-.048-.4113l-.0283-.3879c-.067-.9408-.1342-1.9438-.1441-2.9972-.0071-.529.0146-1.076.03-1.5663.0179-.5109.0444-1.039.0833-1.559a35.0258,35.0258,0,0,1,.9662-6.1045,37.6946,37.6946,0,0,1,1.6825-5.1015c.6-1.4574,1.1935-2.63,1.6252-3.4408.4381-.8078.71-1.2576.71-1.2576s.1675-.2992.5114-.8429c.338-.5471.8549-1.3375,1.5691-2.3063.354-.4851.77-1.0133,1.2282-1.5655.4494-.5483.9678-1.1453,1.5377-1.7562.5728-.6106,1.2017-1.2432,1.8959-1.8794.3464-.318.71-.639,1.0878-.9565.3718-.3131.7537-.6266,1.1541-.9438.8013-.6322,1.6584-1.2733,2.6237-1.8914l.6916-.4448.3521-.2285.3787-.2147.7105-.4069.389-.2259.2355-.1281c.0757-.04.2064-.1038.2429-.1194l.6747-.3465.4419-.2255c.2069-.1057.3027-.1427.4355-.2031l.779-.3432.8583-.3585.8795-.3651c.327-.1279.6335-.2327.9265-.3319l.86-.2894q.47-.1561.9371-.2929a37.8937,37.8937,0,0,1,7.7922-1.3751,33.7975,33.7975,0,0,1,4.0875-.0619,39.8274,39.8274,0,0,1,4.0747.4005,37.12,37.12,0,0,1,4.0236.83c.3322.0912.664.1829.9948.2851.3212.0962.6872.217.9786.3163l.9331.3165.51.1875.2689.1084.2182.0923.94.3917.468.1958.4235.188.42.1873c.1326.0576.4059.1994.5557.2765l.7641.3942.9525.5216.7792.4394c.3011.1615.6849.4272.8858.5538l.3858.2491.4018.2668a37.4405,37.4405,0,0,1,5.7021,4.71,36.6678,36.6678,0,0,1,4.22,5.1224,37.1177,37.1177,0,0,1,4.4591,8.8476c.4,1.14.64,2.0556.8075,2.6779.1518.6262.2328.96.2328.96l.1013.4714c.0683.2992.151.7294.2447,1.2465a37.8008,37.8008,0,0,1,.5572,7.663c-.0137.5245-.0365.9612-.0588,1.2666l-.03.48-1.0246-.0777-2.6183-.1985.0267-.4335c.02-.2757.0409-.67.0531-1.1438a34.1582,34.1582,0,0,0-.5025-6.918c-.0846-.4654-.1585-.8525-.22-1.1212Z" style="fill:#313e48;opacity:0.30000000000000004"/><g style="opacity:0.54"><polygon points="333.059 56 243 56 245 54 335.059 54 333.059 56" style="fill:#313e48"/></g><polygon points="307 60 300 60 302 58 309 58 307 60" style="fill:#a5b1be"/><polygon points="318 60 311 60 313 58 320 58 318 60" style="fill:#a5b1be"/><polygon points="329 60 322 60 324 58 331 58 329 60" style="fill:#a5b1be"/><polygon points="310.059 114 249 114 251 112 312.059 112 310.059 114" style="fill:#a5b1be"/><polygon points="305.059 89 256 89 258 87 307.059 87 305.059 89" style="fill:#a5b1be"/><polygon points="284 118 277 118 279 116 286 116 284 118" style="fill:#a5b1be"/><polygon points="295 118 288 118 290 116 297 116 295 118" style="fill:#a5b1be"/><polygon points="306 118 299 118 301 116 308 116 306 118" style="fill:#a5b1be"/><polygon points="173 86 166 86 168 84 175 84 173 86" style="fill:#a5b1be"/><polygon points="184 86 177 86 179 84 186 84 184 86" style="fill:#a5b1be"/><polygon points="195 86 188 86 190 84 197 84 195 86" style="fill:#a5b1be"/><polygon points="211 72 204 72 206 70 213 70 211 72" style="fill:#a5b1be"/><polygon points="222 72 215 72 217 70 224 70 222 72" style="fill:#a5b1be"/><polygon points="233 72 226 72 228 70 235 70 233 72" style="fill:#a5b1be"/><polygon points="202 141 195 141 197 139 204 139 202 141" style="fill:#a5b1be"/><polygon points="213 141 206 141 208 139 215 139 213 141" style="fill:#a5b1be"/><polygon points="224 141 217 141 219 139 226 139 224 141" style="fill:#a5b1be"/><g style="opacity:0.7000000000000001"><path d="M330.7373,75.6768H317.8857L339.5625,54,317.8857,32.3232h12.8516L352.4141,54Zm-8.0234-2h7.1953L349.5859,54,329.9092,34.3232h-7.1953L342.3906,54Z" style="fill:#313e48"/></g><g style="opacity:0.7000000000000001"><path d="M364.7783,118.6357H353.8857L371.5215,101,353.8857,83.3643h10.8926L382.4141,101Zm-6.0644-2H363.95L379.5859,101,363.95,85.3643h-5.2363L374.35,101Z" style="fill:#313e48"/></g><g style="opacity:0.7000000000000001"><path d="M315.7783,189.6357H304.8857L322.5215,172l-17.6358-17.6357h10.8926L333.4141,172Zm-6.0644-2H314.95L330.5859,172,314.95,156.3643h-5.2363L325.35,172Z" style="fill:#313e48"/></g><g style="opacity:0.54"><polygon points="365.518 98.953 290 98.953 291.677 100.63 367.195 100.63 365.518 98.953" style="fill:#313e48"/></g><polygon points="343.667 95.599 337.797 95.599 339.474 97.276 345.344 97.276 343.667 95.599" style="fill:#a5b1be"/><polygon points="352.891 95.599 347.021 95.599 348.698 97.276 354.568 97.276 352.891 95.599" style="fill:#a5b1be"/><polygon points="362.115 95.599 356.245 95.599 357.922 97.276 363.792 97.276 362.115 95.599" style="fill:#a5b1be"/><g style="opacity:0.54"><polygon points="238.769 171.924 318.436 171.924 316.667 173.693 237 173.693 238.769 171.924" style="fill:#313e48"/></g><polygon points="261.821 168.386 268.013 168.386 266.244 170.155 260.052 170.155 261.821 168.386" style="fill:#a5b1be"/><polygon points="252.09 168.386 258.283 168.386 256.513 170.155 250.321 170.155 252.09 168.386" style="fill:#a5b1be"/><polygon points="242.36 168.386 248.552 168.386 246.783 170.155 240.59 170.155 242.36 168.386" style="fill:#a5b1be"/></g><g id="Divided_Ring_2" data-name="Divided Ring 2"><path d="M120.3954,168.436l-1.7654-.0415a46.5739,46.5739,0,0,1-4.9742-.4752,44.7385,44.7385,0,0,1-7.5538-1.8769,44.0048,44.0048,0,0,1-13.7369-7.7367,43.7745,43.7745,0,0,1-8.4439-9.3849,44.209,44.209,0,0,1-3.3217-5.934,42.0115,42.0115,0,0,1-2.4293-6.6111,43.9212,43.9212,0,0,1-1.3577-7.0785,46.1423,46.1423,0,0,1-.1709-7.2843,43.1737,43.1737,0,0,1,1.053-7.2971,43.6347,43.6347,0,0,1,2.2614-7.0349,44.6161,44.6161,0,0,1,3.3906-6.4878,43.7124,43.7124,0,0,1,9.4-10.5894,43.1635,43.1635,0,0,1,5.5869-3.8624,42.1354,42.1354,0,0,1,5.86-2.8542A43.727,43.727,0,0,1,115.758,81.03,43.4843,43.4843,0,0,1,138.09,84.5209l1.1918.5415c.2852.1342.4263.21.4263.21l.3333.18-7.9389,16.1559.26.1334c.2.0953.4509.233.7377.4041.0912.0549.1876.1089.2884.1657.2064.1161.4406.2475.6812.4117a25.9069,25.9069,0,0,1,10.9984,29.4725,25.402,25.402,0,0,1-2.1925,5.0848,26.0069,26.0069,0,0,1-6.3419,7.4646,24.1274,24.1274,0,0,1-3.2429,2.22,25.7226,25.7226,0,0,1-2.6965,1.3613c-.8489.35-1.416.5744-1.8362.704l-.2683.0915,5.3889,17.1923-.3737.1188s-.2015.0642-.5567.165l-1.4433.4082c-.504.1319-1.0722.2607-1.6739.3975l-.4079.0927c-.7043.1461-1.4586.2757-2.1883.401l-.22.0377-.5686.075c-.6216.0818-1.264.1668-1.8673.2225l-.4317.0339c-.6086.0484-1.1834.0938-1.69.118Zm-.0771-86.8552a42.616,42.616,0,0,0-15.8325,3.0375A41.3663,41.3663,0,0,0,98.7332,87.42a42.3638,42.3638,0,0,0-5.4875,3.793,42.9323,42.9323,0,0,0-9.233,10.4,43.8551,43.8551,0,0,0-3.3311,6.3735,42.8571,42.8571,0,0,0-2.22,6.9063,42.3954,42.3954,0,0,0-1.034,7.1631,45.3309,45.3309,0,0,0,.1678,7.16,43.1446,43.1446,0,0,0,1.3335,6.9509,41.2345,41.2345,0,0,0,2.3838,6.4872,43.4408,43.4408,0,0,0,3.2619,5.828,42.9893,42.9893,0,0,0,8.2915,9.2164,43.2106,43.2106,0,0,0,13.4925,7.6,43.99,43.99,0,0,0,7.4156,1.8431,45.84,45.84,0,0,0,4.8795.4663l1.7409.0412,2.0342-.0508c.4851-.0231,1.0542-.068,1.6562-.1157l.4271-.0338c.5821-.0539,1.1887-.1338,1.8312-.2188l.7589-.108c.7228-.1238,1.4705-.2522,2.1537-.3941l.4014-.0911c.5951-.1353,1.1572-.2629,1.6412-.3894l1.4352-.406c.0565-.0162.1091-.0312.1576-.0454l-5.3824-17.1712,1.0066-.3422c.4025-.1245.9515-.3425,1.7677-.6785a24.7816,24.7816,0,0,0,2.61-1.3175,23.4047,23.4047,0,0,0,3.1456-2.1534,25.2167,25.2167,0,0,0,6.1508-7.2385,24.6033,24.6033,0,0,0,2.1249-4.9275,25.291,25.291,0,0,0-.5121-16.1993l-.0011-.0029a25.0713,25.0713,0,0,0-10.1627-12.3826c-.2253-.153-.434-.27-.6358-.3839-.1081-.0606-.2111-.1186-.3076-.1767-.2649-.1582-.4952-.2843-.6828-.3742l-.9584-.4913,7.9405-16.158-.0435-.0206-1.1872-.5394a42.451,42.451,0,0,0-17.4461-3.6571Z" style="fill:#313e48;mix-blend-mode:overlay"/><path d="M120.4048,143.38l-.5918-.0181a13.7875,13.7875,0,0,1-1.5986-.1122c-.1063-.0146-.202-.0266-.3-.0385-.2551-.0311-.5442-.0665-.8456-.1311-.2832-.0392-.5948-.1111-.9248-.1868l-.36-.0819a19.42,19.42,0,0,1-3.0379-1.0576,18.74,18.74,0,0,1-6.4567-4.7623,18.4066,18.4066,0,0,1-2.57-3.7526l-.26-.5021-.242-.5417a6.4682,6.4682,0,0,1-.2693-.6405c-.0533-.14-.1065-.281-.1671-.4187a19.0969,19.0969,0,0,1-.6756-2.2806,18.5757,18.5757,0,0,1-.3707-2.1517l-.0249-.2119a20.4249,20.4249,0,0,1-.0787-2.3142,18.2725,18.2725,0,0,1,.643-4.4948,18.8057,18.8057,0,0,1,3.697-7.0888,19.01,19.01,0,0,1,4.2822-3.7768l.9819-.5929A4.4146,4.4146,0,0,1,111.648,108l.4688-.2414c.0021-.0018.07-.04.1876-.0944l.4875-.2174c.1961-.1.4485-.1967.7407-.3091l.0378-.0146c.2165-.0961.4731-.182.7447-.2732l.2718-.0921a18.803,18.803,0,0,1,11.5948-.0009l.2744.093c.2718.0912.5283.1771.762.28l.0227.0083c.2914.1122.5432.2091.7554.3164l.4675.2078a2.2735,2.2735,0,0,1,.2084.1057l.4148.2128a5.6265,5.6265,0,0,1,.541.2968c.07.043.1434.0836.2206.1263a5.1069,5.1069,0,0,1,.4871.2956,18.8007,18.8007,0,0,1,7.6111,9.279,18.58,18.58,0,0,1,1.1449,8.0687h0a18.99,18.99,0,0,1-.76,4.0806,18.3936,18.3936,0,0,1-1.5916,3.6873,18.9549,18.9549,0,0,1-4.6192,5.4361,17.1855,17.1855,0,0,1-2.36,1.6155,17.4791,17.4791,0,0,1-1.8265.93l-.34.1446c-.4706.1906-.8424.3417-1.1295.426l-.4448.1541c-.0081.0027-.0977.0316-.2572.0738l-.5971.1711-1.1045.2491-.8063.148c-.1968.0208-.3594.0424-.5193.0638-.1823.0243-.3614.0477-.536.0635l-.9034.0654C120.7545,143.3631,120.4085,143.38,120.4048,143.38Zm-.5814-.8051.5734.0181c.0006-.0011.3512-.0173.8665-.0235l.8735-.0638c.1569-.0142.3249-.0365.4952-.0592s.3414-.0453.5144-.0623l.973-.18.8481-.2.5867-.1684c.1376-.0365.213-.06.218-.0619l.4533-.1568c.2672-.0788.6232-.2234,1.0733-.406l.3092-.1315a18.19,18.19,0,0,0,4.0175-2.44,18.168,18.168,0,0,0,4.4289-5.2109,17.5937,17.5937,0,0,0,1.524-3.5293,18.191,18.191,0,0,0,.7281-3.9107v0a17.7925,17.7925,0,0,0-1.0953-7.7289A18.0208,18.0208,0,0,0,129.9,109.355a4.6117,4.6117,0,0,0-.4325-.262c-.0885-.049-.1726-.0959-.2507-.1438a5.0355,5.0355,0,0,0-.4748-.2608l-.4513-.2318c-.0277-.0156-.0719-.04-.1515-.0768l-.48-.2143c-.1945-.0974-.429-.1878-.7009-.2926l-.04-.0153c-.2184-.0958-.4583-.1763-.712-.2615l-.2784-.0941a18.0161,18.0161,0,0,0-11.0863.0009l-.2758.0932c-.2539.0852-.4939.1657-.6945.2544l-.0554.0217c-.2726.1049-.5079.1957-.686.2854l-.501.224c-.0753.0344-.12.0592-.1278.064l-.5119.2638a3.7364,3.7364,0,0,0-.3545.1935c-.0669.0392-.1372.0805-.2118.1229l-.7478.4561a18.2136,18.2136,0,0,0-4.1,3.6177,18.0078,18.0078,0,0,0-3.5415,6.7929,17.5156,17.5156,0,0,0-.6152,4.3111,19.8907,19.8907,0,0,0,.0771,2.2317l.02.1653a18.0261,18.0261,0,0,0,.3572,2.0768,18.5893,18.5893,0,0,0,.6414,2.1726c.054.1188.1123.2722.17.4256a5.9335,5.9335,0,0,0,.244.5809l.2406.539.2517.4844a17.63,17.63,0,0,0,2.4624,3.595,17.9431,17.9431,0,0,0,6.1843,4.56,18.6042,18.6042,0,0,0,2.9009,1.0115l.3525.08c.3133.0719.6092.14.8862.1795.2937.0619.5526.0938.8029.1242.1031.0127.2032.025.3.0384C119.0375,142.5435,119.515,142.5774,119.8234,142.575Z" style="fill:#313e48"/><path d="M46.0707,201.1576a.7838.7838,0,0,1-.0158-1.11h0a.7854.7854,0,0,1,1.1141-.02h0a.789.789,0,0,1,.0158,1.1141h0a.7722.7722,0,0,1-.563.24h0A.7838.7838,0,0,1,46.0707,201.1576ZM41.122,196.02a.7852.7852,0,0,1,.0552-1.11h0a.79.79,0,0,1,1.1141.0553h0a.79.79,0,0,1-.059,1.1142h0a.7908.7908,0,0,1-.5277.2007h0A.7778.7778,0,0,1,41.122,196.02Zm-4.5981-5.4523a.7846.7846,0,0,1,.13-1.1064h0a.7844.7844,0,0,1,1.106.13h0a.7918.7918,0,0,1-.13,1.1065h0a.791.791,0,0,1-.4883.1692h0A.7823.7823,0,0,1,36.5239,190.5678ZM32.3,184.82a.7845.7845,0,0,1,.2048-1.0942h0a.7826.7826,0,0,1,1.0943.2045h0a.79.79,0,0,1-.2047,1.0946h0a.8114.8114,0,0,1-.4448.1376h0A.79.79,0,0,1,32.3,184.82Zm-3.8305-6.0152a.7881.7881,0,0,1,.2755-1.0787h0a.7879.7879,0,0,1,1.0788.2756h0a.7877.7877,0,0,1-.2757,1.0784h0a.78.78,0,0,1-.4015.11h0A.785.785,0,0,1,28.4692,178.8047Zm-3.4212-6.2558a.7909.7909,0,0,1,.35-1.0588h0a.7819.7819,0,0,1,1.0552.35h0a.7845.7845,0,0,1-.3464,1.0549h0a.77.77,0,0,1-.3545.0869h0A.7941.7941,0,0,1,25.048,172.5489Zm-2.9918-6.4719a.7881.7881,0,0,1,.4212-1.0315h0a.7882.7882,0,0,1,1.0314.4214h0a.7867.7867,0,0,1-.4213,1.0311h0a.7458.7458,0,0,1-.3032.063h0A.7929.7929,0,0,1,22.0562,166.077Zm-2.5472-6.6533a.7854.7854,0,0,1,.4883-1h0a.7887.7887,0,0,1,1,.4883h0a.7854.7854,0,0,1-.4882,1h0a.742.742,0,0,1-.2559.0435h0A.785.785,0,0,1,19.509,159.4237Zm-2.0983-6.8187a.7832.7832,0,0,1,.5511-.9642h0a.79.79,0,0,1,.9686.5509h0a.7889.7889,0,0,1-.5551.9685h0a.9179.9179,0,0,1-.2048.0277h0A.7892.7892,0,0,1,17.4107,152.605Zm-1.6376-6.9443a.7947.7947,0,0,1,.618-.9293h0a.7945.7945,0,0,1,.929.6182h0a.7928.7928,0,0,1-.618.9293h0a1.1043,1.1043,0,0,1-.1574.0157h0A.79.79,0,0,1,15.7731,145.6607Zm-1.1615-7.039a.7866.7866,0,0,1,.6772-.8858h0a.7884.7884,0,0,1,.8818.6809h0a.7851.7851,0,0,1-.677.8819h0a.9787.9787,0,0,1-.1063.0081h0A.788.788,0,0,1,14.6116,138.6217Zm-.6927-7.102a.7852.7852,0,0,1,.736-.8347h0a.785.785,0,0,1,.8346.7363h0a.7852.7852,0,0,1-.7362.8346h0c-.0158,0-.0315.0039-.0511.0039h0A.7906.7906,0,0,1,13.9189,131.52Zm.5668-6.3423a.7868.7868,0,0,1-.7873-.7872h0a.7878.7878,0,0,1,.7912-.7873h0a.7863.7863,0,0,1,.7835.7873h0a.7871.7871,0,0,1-.7874.7872Zm.1928-7.0782a.7906.7906,0,0,1-.7321-.8387h0a.7852.7852,0,0,1,.8385-.7322h0a.783.783,0,0,1,.7321.8385h0a.7866.7866,0,0,1-.7833.7324h-.0552Zm.6653-7.0508a.7913.7913,0,0,1-.677-.8858h0a.79.79,0,0,1,.89-.6773h0a.7885.7885,0,0,1,.6732.8858h0a.7911.7911,0,0,1-.78.6851h0A.9552.9552,0,0,1,15.3438,111.0484Zm1.134-6.9917a.7831.7831,0,0,1-.6142-.9293h0a.7869.7869,0,0,1,.9291-.6141h0a.7891.7891,0,0,1,.6141.9292h0a.79.79,0,0,1-.7716.63h0A.7171.7171,0,0,1,16.4778,104.0567Zm1.5981-6.9013a.7865.7865,0,0,1-.5511-.9685h0a.7875.7875,0,0,1,.9685-.5472h0a.7862.7862,0,0,1,.5511.9684h0a.7863.7863,0,0,1-.76.5747h0A.7772.7772,0,0,1,18.0759,97.1554Zm2.063-6.7752a.7859.7859,0,0,1-.4842-1.0038h0a.789.789,0,0,1,1.0038-.4843h0a.7869.7869,0,0,1,.48,1.0038h0a.78.78,0,0,1-.74.5275h0A.7352.7352,0,0,1,20.1389,90.38Zm2.5157-6.63a.7908.7908,0,0,1-.4173-1.0355h0a.7858.7858,0,0,1,1.0353-.4133h0a.7847.7847,0,0,1,.4133,1.0315h0a.7858.7858,0,0,1-.7243.48h0A.8385.8385,0,0,1,22.6546,83.7506ZM25.611,77.302a.7859.7859,0,0,1-.3463-1.059h0a.79.79,0,0,1,1.0589-.3423h0A.7869.7869,0,0,1,26.67,76.96h0a.7948.7948,0,0,1-.7047.429h0A.77.77,0,0,1,25.611,77.302Zm3.3817-6.2279a.7891.7891,0,0,1-.2716-1.0827h0A.787.787,0,0,1,29.8,69.72h0a.7891.7891,0,0,1,.2716,1.0827h0a.79.79,0,0,1-.6772.3819h0A.7827.7827,0,0,1,28.9927,71.0741Zm3.7913-5.9917a.7847.7847,0,0,1-.2009-1.0946h0a.7887.7887,0,0,1,1.0945-.2006h0a.79.79,0,0,1,.2007,1.0983h0a.7876.7876,0,0,1-.65.3386h0A.7844.7844,0,0,1,32.784,65.0824Zm4.1807-5.72a.7845.7845,0,0,1-.1259-1.1062h0a.7878.7878,0,0,1,1.1062-.126h0a.7883.7883,0,0,1,.126,1.1063h0a.7884.7884,0,0,1-.6181.2991h0A.7956.7956,0,0,1,36.9647,59.3621Zm161.6609-4.9446a.79.79,0,0,1,.0589-1.1142h0a.7867.7867,0,0,1,1.1141.063h0v-.0038h0a.79.79,0,0,1-.063,1.114h0a.786.786,0,0,1-.5237.2008h0A.7859.7859,0,0,1,198.6256,54.4175Zm-157.11-.4843a.785.785,0,0,1-.0512-1.11h0a.7851.7851,0,0,1,1.11-.0551h0a.79.79,0,0,1,.0552,1.1141h0a.7942.7942,0,0,1-.5826.2559h0A.7838.7838,0,0,1,41.5157,53.9332Zm152.2439-4.59a.7888.7888,0,0,1-.0157-1.1142h0a.7888.7888,0,0,1,1.1141-.0119h0a.781.781,0,0,1,.0119,1.11h0a.773.773,0,0,1-.5632.24h0A.7816.7816,0,0,1,193.76,49.3431ZM46.4171,48.8194a.7888.7888,0,0,1,.0236-1.1141h0a.7889.7889,0,0,1,1.1141.0236h0a.7843.7843,0,0,1-.0236,1.11h0a.7753.7753,0,0,1-.5432.2205h0A.79.79,0,0,1,46.4171,48.8194ZM188.563,44.6032a.79.79,0,0,1-.09-1.11h0a.7935.7935,0,0,1,1.11-.0866h0a.7905.7905,0,0,1,.0908,1.11h0a.7945.7945,0,0,1-.5986.2756h0A.7929.7929,0,0,1,188.563,44.6032ZM51.6491,44.044a.79.79,0,0,1,.0943-1.11h0a.7906.7906,0,0,1,1.11.0946h0a.79.79,0,0,1-.0946,1.11h0a.7786.7786,0,0,1-.5079.1851h0A.78.78,0,0,1,51.6491,44.044Zm131.4143-3.8227a.7858.7858,0,0,1-.1615-1.1022h0a.79.79,0,0,1,1.1022-.1615h0a.79.79,0,0,1,.1615,1.1024h0a.7887.7887,0,0,1-.634.3149h0A.7664.7664,0,0,1,183.0634,40.2213ZM57.1843,39.627a.7916.7916,0,0,1,.1691-1.1025h0a.7861.7861,0,0,1,1.0984.1694h0a.7843.7843,0,0,1-.1692,1.1024h0a.7784.7784,0,0,1-.4646.15h0A.7868.7868,0,0,1,57.1843,39.627ZM177.28,36.2138a.7883.7883,0,0,1-.2322-1.09h0a.7872.7872,0,0,1,1.0865-.2324h0a.7843.7843,0,0,1,.2364,1.0866h0a.7819.7819,0,0,1-.6616.3622h0A.811.811,0,0,1,177.28,36.2138ZM62.9989,35.5877a.7855.7855,0,0,1,.2439-1.0865h0a.7867.7867,0,0,1,1.0867.2442h0a.789.789,0,0,1-.2442,1.0864h0a.78.78,0,0,1-.4211.1221h0A.7874.7874,0,0,1,62.9989,35.5877ZM171.2449,32.6a.784.784,0,0,1-.3068-1.0707h0a.7908.7908,0,0,1,1.0707-.3071h0a.789.789,0,0,1,.3072,1.0709h0a.79.79,0,0,1-.6889.4054h0A.79.79,0,0,1,171.2449,32.6ZM69.0694,31.95a.79.79,0,0,1,.3149-1.0709h0a.7889.7889,0,0,1,1.0668.3151h0a.79.79,0,0,1-.3148,1.0707h0a.7987.7987,0,0,1-.3741.0946h0A.79.79,0,0,1,69.0694,31.95Zm95.9081-2.551a.7873.7873,0,0,1-.3779-1.0473h0a.7873.7873,0,0,1,1.0473-.3779h0a.7872.7872,0,0,1,.3779,1.0473h0a.79.79,0,0,1-.7124.4527h0A.7835.7835,0,0,1,164.9775,29.3992ZM75.3683,28.726a.7925.7925,0,0,1,.3858-1.0473h0a.7879.7879,0,0,1,1.0432.3858h0a.7845.7845,0,0,1-.3858,1.0433h0a.7451.7451,0,0,1-.3268.0748h0A.7883.7883,0,0,1,75.3683,28.726ZM158.51,26.6236a.7873.7873,0,0,1-.4486-1.02h0a.7825.7825,0,0,1,1.0195-.4448h0a.7879.7879,0,0,1,.4487,1.02h0a.785.785,0,0,1-.7324.5h0A.7308.7308,0,0,1,158.51,26.6236Zm-76.6416-.6928a.7839.7839,0,0,1,.4529-1.0157h0a.7839.7839,0,0,1,1.0155.4527h0a.79.79,0,0,1-.4527,1.02h0a.9.9,0,0,1-.2795.0511h0A.7844.7844,0,0,1,81.8679,25.9308Zm70-1.6378a.7882.7882,0,0,1-.52-.988h0a.7908.7908,0,0,1,.9885-.5157h0a.7906.7906,0,0,1,.5155.988h0a.7861.7861,0,0,1-.752.5513h0A.7709.7709,0,0,1,151.8681,24.293Zm-63.3194-.7164a.7887.7887,0,0,1,.52-.9842h0a.7876.7876,0,0,1,.9842.5237h0a.7909.7909,0,0,1-.5237.9842h0a.7652.7652,0,0,1-.2281.0353h0A.7863.7863,0,0,1,88.5487,23.5766Zm56.5442-1.1573a.788.788,0,0,1-.5825-.9527h0a.7863.7863,0,0,1,.9485-.5788h0a.786.786,0,0,1,.5828.9488h0a.7849.7849,0,0,1-.7639.6023h0A.9588.9588,0,0,1,145.0929,22.4193Zm-49.7217-.74a.7856.7856,0,0,1,.5865-.945h0a.7856.7856,0,0,1,.9448.5866h0a.7855.7855,0,0,1-.5865.9448h0a.707.707,0,0,1-.1811.02h0A.7816.7816,0,0,1,95.3712,21.6792Zm42.8361-.6772a.7885.7885,0,0,1-.6455-.9095h0a.7856.7856,0,0,1,.9092-.6416h0a.7833.7833,0,0,1,.6417.9094h0a.784.784,0,0,1-.7716.6534h0A.7468.7468,0,0,1,138.2073,21.002Zm-35.9-.7559a.7858.7858,0,0,1,.6457-.9055h0a.7883.7883,0,0,1,.9055.65h0a.7884.7884,0,0,1-.65.9054h0c-.0432.004-.0865.0078-.1259.0078h0A.7823.7823,0,0,1,102.3077,20.2461Zm28.9314-.193a.79.79,0,0,1-.7005-.866h0a.7838.7838,0,0,1,.862-.7008h0a.7868.7868,0,0,1,.7047.8621h0a.7915.7915,0,0,1-.7831.7088h0C131.2945,20.0572,131.2668,20.0531,131.2391,20.0531Zm-21.9159-.7754a.7861.7861,0,0,1,.7085-.8583h-.0038a.79.79,0,0,1,.8621.7087h0a.7867.7867,0,0,1-.7087.8581h0a.482.482,0,0,1-.0748.0041h0A.7863.7863,0,0,1,109.3232,19.2777Zm14.145-.5236a.7873.7873,0,0,1,.8146-.76h0a.7878.7878,0,0,1,.76.815h0a.7873.7873,0,0,1-.815.7559v.0038A.79.79,0,0,1,123.4682,18.7541Zm-7.0824.0274a.79.79,0,0,1,.7637-.811h0a.79.79,0,0,1,.811.7639h0a.7875.7875,0,0,1-.7637.8109h-.0237A.7874.7874,0,0,1,116.3858,18.7815Z" style="fill:#54626b"/></g><g id="Divided_Rings" data-name="Divided Rings"><path d="M27.0737,192.1426l-.5707-.802a114.4375,114.4375,0,0,1-21.2924-66.73A116.3372,116.3372,0,0,1,6.32,108.5869l.1361-.9748,60.4349,8.4338-.1361.9747a55.0878,55.0878,0,0,0-.524,7.59,53.7533,53.7533,0,0,0,9.9863,31.3471l.5708.8016ZM8.1378,109.8344a114.5066,114.5066,0,0,0-.9588,14.7763,112.476,112.476,0,0,0,20.36,64.7846L74.05,156.2923a55.7075,55.7075,0,0,1-9.7874-31.6816,57.21,57.21,0,0,1,.4154-6.8863Zm59.2116,3.7L7.8351,100.0609l.2172-.96A115.2679,115.2679,0,0,1,56.3179,28.889l.8175-.548L91.1107,79.028l-.8176.5481a53.9585,53.9585,0,0,0-22.7263,32.998ZM10.1937,98.5767l55.6788,12.6048A55.9,55.9,0,0,1,88.3843,78.496l-31.7856-47.42a113.3,113.3,0,0,0-46.405,67.5011Z" style="fill:#313e48;opacity:0.1"/><path d="M193.023,217.736l-48.9505-61.639.7716-.612A39.4306,39.4306,0,0,0,158.19,113.5261l-.2764-.9447L233.47,90.4905l.276.9446a118.0727,118.0727,0,0,1-39.952,125.6888Zm-46.1912-61.33,46.5061,58.561A116.244,116.244,0,0,0,232.1288,92.9333l-71.7839,20.9881a41.4013,41.4013,0,0,1-13.5131,42.4847Z" style="fill:#313e48;opacity:0.1"/></g></g></svg>