<svg xmlns="http://www.w3.org/2000/svg" viewBox="0 0 400 222"><title>Strategy_graphic_Mobile</title><g id="Icons"><g id="Icon_3" data-name="Icon 3"><path d="M225.381,115.9466h-9.16a1.5285,1.5285,0,0,1-1.5267-1.5267v-2.29h1.5267v2.29h9.16v-2.29h1.5267v2.29A1.5285,1.5285,0,0,1,225.381,115.9466Z" style="fill:#54626b"/><path d="M222.3276,119h-3.0534a1.5285,1.5285,0,0,1-1.5268-1.5267v-2.29h1.5268v2.29h3.0534v-2.29h1.5267v2.29A1.5285,1.5285,0,0,1,222.3276,119Z" style="fill:#54626b"/><rect x="213.1673" y="111.3664" width="15.2672" height="1.5267" style="fill:#54626b"/><rect x="213.1673" y="108.313" width="15.2672" height="1.5267" style="fill:#54626b"/><rect x="224.6177" y="83.8855" width="1.5267" height="1.5267" style="fill:#54626b"/><rect x="227.6711" y="86.939" width="1.5267" height="1.5267" style="fill:#54626b"/><rect x="221.5642" y="83.8855" width="1.5267" height="1.5267" style="fill:#54626b"/><rect x="227.6711" y="83.8855" width="1.5267" height="1.5267" style="fill:#54626b"/><rect x="227.6711" y="89.9924" width="1.5267" height="1.5267" style="fill:#54626b"/><rect x="215.4574" y="86.939" width="1.5267" height="1.5267" style="fill:#54626b"/><rect x="212.4039" y="86.939" width="1.5267" height="1.5267" style="fill:#54626b"/><rect x="218.5108" y="86.939" width="1.5267" height="1.5267" style="fill:#54626b"/><rect x="215.4574" y="89.9924" width="1.5267" height="1.5267" style="fill:#54626b"/><rect x="212.4039" y="89.9924" width="1.5267" height="1.5267" style="fill:#54626b"/><rect x="212.4039" y="83.8855" width="1.5267" height="1.5267" style="fill:#54626b"/><rect x="224.6177" y="80.8321" width="1.5267" height="1.5267" style="fill:#54626b"/><rect x="221.5642" y="80.8321" width="1.5267" height="1.5267" style="fill:#54626b"/><rect x="227.6711" y="80.8321" width="1.5267" height="1.5267" style="fill:#54626b"/><rect x="212.4039" y="80.8321" width="1.5267" height="1.5267" style="fill:#54626b"/><rect x="224.6177" y="77.7787" width="1.5267" height="1.5267" style="fill:#54626b"/><rect x="221.5642" y="77.7787" width="1.5267" height="1.5267" style="fill:#54626b"/><rect x="215.4574" y="77.7787" width="1.5267" height="1.5267" style="fill:#54626b"/><rect x="218.5108" y="77.7787" width="1.5267" height="1.5267" style="fill:#54626b"/><rect x="224.6177" y="93.0458" width="1.5267" height="1.5267" style="fill:#54626b"/><rect x="221.5642" y="93.0458" width="1.5267" height="1.5267" style="fill:#54626b"/><rect x="215.4574" y="93.0458" width="1.5267" height="1.5267" style="fill:#54626b"/><rect x="218.5108" y="93.0458" width="1.5267" height="1.5267" style="fill:#54626b"/><rect x="218.5108" y="89.9924" width="1.5267" height="1.5267" style="fill:#54626b"/><path d="M220.0375,85.4123h-4.58v-4.58h4.58Zm-3.0534-1.5268h1.5267V82.3588h-1.5267Z" style="fill:#54626b"/><path d="M226.1444,91.5191h-4.58v-4.58h4.58Zm-3.0535-1.5267h1.5268V88.4657h-1.5268Z" style="fill:#54626b"/><path d="M227.6711,106.7863h-13.74a.7638.7638,0,0,1-.7313-.5442l-2.22-7.3958A15.9022,15.9022,0,0,1,204.77,86.1756a.7633.7633,0,0,1,1.1561-.6545l3.8168,2.29-.7856,1.309-2.5961-1.5573a14.3781,14.3781,0,0,0,5.7359,10.2159.7638.7638,0,0,1,.2729.3914l2.128,7.0894h12.6047L229.23,98.17l1.4626.4383-2.29,7.6336A.764.764,0,0,1,227.6711,106.7863Z" style="fill:#54626b"/><path d="M220.8009,102.2061a.7632.7632,0,0,1-.54-1.303l3.8168-3.8168,1.0794,1.0794-2.3792,2.3795a14.4995,14.4995,0,0,0,9.6255-23.0744l1.22-.9169a16.0318,16.0318,0,0,1-12.8231,25.6522Z" style="fill:#54626b"/><path d="M207.0242,81.8273l-1.4543-.4637a15.9764,15.9764,0,0,1,24.849-8.0145.765.765,0,0,1-.2162,1.3366l-4.58,1.5267-.483-1.4476,3.1116-1.0377a14.4518,14.4518,0,0,0-21.2269,8.1Z" style="fill:#54626b"/></g><g id="Icon_2" data-name="Icon 2"><path d="M151.989,129.2786a.6833.6833,0,0,0,.6833.683h5.4657a.683.683,0,0,0,.683-.683V123.813a3.4157,3.4157,0,0,0-2.5358-3.2872,4.0992,4.0992,0,1,0-5.859,0,3.4161,3.4161,0,0,0-2.5365,3.2872v2.3486a.6832.6832,0,1,0,1.3663,0V123.813a2.05,2.05,0,0,1,2.05-2.05h4.0994a2.0493,2.0493,0,0,1,2.05,2.05v4.7823h-4.7824a.6833.6833,0,0,0-.6833.6833Zm1.3663-14.3476a2.7328,2.7328,0,1,1-2.7327,2.733,2.7331,2.7331,0,0,1,2.7327-2.733Zm0,0" style="fill:#54626b;stroke:#54626b;stroke-miterlimit:10;stroke-width:0.25px"/><path d="M155.405,125.1793a.6832.6832,0,1,0,0-1.3663h-1.3664a.6832.6832,0,1,0,0,1.3663Zm0,0" style="fill:#54626b;stroke:#54626b;stroke-miterlimit:10;stroke-width:0.25px"/><path d="M179.4,142.6944l-8.2127-8.213a2.1028,2.1028,0,0,0-2.3229-.3884l-3.6209-3.6209a14.3477,14.3477,0,1,0-21.0068,3.0456.6833.6833,0,0,0,.8691-1.0546,12.996,12.996,0,1,1,18.5949-2.2082c-.1638.2172-.3307.4311-.5079.6366-.0149.0187-.032.035-.0477.0534a12.9717,12.9717,0,0,1-1.2836,1.2836c-.0214.0187-.041.0391-.0627.0574q-.3078.2617-.6282.5012a12.901,12.901,0,0,1-7.8154,2.64c-.2165,0-.4314-.011-.6452-.0224a.6844.6844,0,1,0-.0751,1.3667c.24.0126.4778.0243.72.0243a14.2671,14.2671,0,0,0,8.0239-2.46l4.0112,4.0113a.6828.6828,0,0,0,.966,0l2.8988-2.8988a.7017.7017,0,0,1,.9666,0l8.2123,8.2136a.6827.6827,0,0,1,0,.965l-2.8981,2.8991a.6825.6825,0,0,1-.9666,0l-5.3823-5.3823a.6832.6832,0,0,0-.9662.966l5.3822,5.3823a2.05,2.05,0,0,0,2.8992,0l2.8978-2.8982a2.0488,2.0488,0,0,0,0-2.8985Zm-14.9843-11.12,3.39,3.39-1.9322,1.9326-3.39-3.39a14.425,14.425,0,0,0,1.9325-1.9322Zm0,0" style="fill:#54626b;stroke:#54626b;stroke-miterlimit:10;stroke-width:0.25px"/><path d="M153.3553,132.6947a.6832.6832,0,0,0,0,1.3663,11.5773,11.5773,0,0,0,11.235-14.5182.6834.6834,0,0,0-1.3233.3417,10.2093,10.2093,0,0,1-9.9117,12.81Zm0,0" style="fill:#54626b;stroke:#54626b;stroke-miterlimit:10;stroke-width:0.25px"/><path d="M158.9749,112.2837a11.6071,11.6071,0,0,0-13.3768,18.793.6833.6833,0,1,0,.9129-1.0166,10.2415,10.2415,0,0,1,11.8021-16.5809.6832.6832,0,1,0,.6618-1.1955Zm0,0" style="fill:#54626b;stroke:#54626b;stroke-miterlimit:10;stroke-width:0.25px"/><path d="M145.157,144.3093a.6832.6832,0,1,0,0,1.3663h4.099a.6832.6832,0,1,0,0-1.3663Zm0,0" style="fill:#54626b;stroke:#54626b;stroke-miterlimit:10;stroke-width:0.25px"/><path d="M158.138,138.16h-7.5154v-8.8817a.6832.6832,0,0,0-1.2762-.3417l-5.2691,9.2234h-.97a2.05,2.05,0,0,0-2.05,2.05v6.8319a2.05,2.05,0,0,0,2.05,2.05H158.138a2.05,2.05,0,0,0,2.05-2.05v-1.3663a.6834.6834,0,0,0-1.3667,0v1.3663a.6831.6831,0,0,1-.683.6834H143.1073a.6834.6834,0,0,1-.6833-.6834V140.21a.6834.6834,0,0,1,.6833-.6834h1.3664a.6833.6833,0,0,0,.5932-.3416l4.1891-7.3336v6.9922a.6832.6832,0,0,0,.6833.683h8.1987a.6831.6831,0,0,1,.683.6834v1.3663a.6834.6834,0,0,0,1.3667,0V140.21a2.05,2.05,0,0,0-2.05-2.05Zm0,0" style="fill:#54626b;stroke:#54626b;stroke-miterlimit:10;stroke-width:0.25px"/><path d="M151.989,142.26a.6834.6834,0,0,0-.6834-.6833h-4.7823a.6832.6832,0,1,0,0,1.3663h4.7823a.6831.6831,0,0,0,.6834-.683Zm0,0" style="fill:#54626b;stroke:#54626b;stroke-miterlimit:10;stroke-width:0.25px"/><path d="M157.4547,142.26a.6833.6833,0,0,0-.6833-.6833h-2.7328a.6832.6832,0,1,0,0,1.3663h2.7328a.6831.6831,0,0,0,.6833-.683Zm0,0" style="fill:#54626b;stroke:#54626b;stroke-miterlimit:10;stroke-width:0.25px"/><path d="M151.989,145.6756h2.733a.6832.6832,0,0,0,0-1.3663h-2.733a.6832.6832,0,1,0,0,1.3663Z" style="fill:#54626b;stroke:#54626b;stroke-miterlimit:10;stroke-width:0.25px"/></g><path d="M298.8428,52.3472V32.5695a.8334.8334,0,1,0-1.6667,0v.2448h-4.9909a4.4867,4.4867,0,0,0-3.1932,1.3226,2.83,2.83,0,0,1-2.0146.8346h-7.1033a1.3726,1.3726,0,0,0-1.098,2.1962l2.2136,2.9516-2.2136,2.9514a1.3726,1.3726,0,0,0,1.098,2.1963h7.1031a4.4862,4.4862,0,0,0,3.1932-1.3226,2.8305,2.8305,0,0,1,2.0147-.8345h4.9909v9.2372a3.0027,3.0027,0,0,0-2.039,2.0391h-9.571a2.9907,2.9907,0,1,0-3.7058,3.7057V65.29a3.0027,3.0027,0,0,0-2.039,2.0391h-8.2767a2.9907,2.9907,0,1,0-3.7057,3.7057v7.1982A3.0026,3.0026,0,0,0,265.8,80.2722v.0369a2.9774,2.9774,0,0,0,0,1.5929v.037a2.9907,2.9907,0,1,0,3.7057-3.7058V71.035a3.0027,3.0027,0,0,0,2.039-2.039h8.2767A2.9907,2.9907,0,1,0,283.527,65.29V58.092a3.0027,3.0027,0,0,0,2.0391-2.039h9.571a2.9907,2.9907,0,1,0,3.7057-3.7058ZM269.996,81.1053a1.3238,1.3238,0,0,1-2.6476.0075v-.0149a1.3238,1.3238,0,0,1,2.6476.0074Zm-1.3238-11.619a1.3238,1.3238,0,1,1,1.3238-1.3238A1.3254,1.3254,0,0,1,268.6722,69.4863Zm15.3453-1.3238a1.3238,1.3238,0,1,1-1.3238-1.3238A1.3254,1.3254,0,0,1,284.0175,68.1625Zm-1.3238-11.6191a1.3238,1.3238,0,1,1,1.3238-1.3238A1.3254,1.3254,0,0,1,282.6937,56.5434Zm9.4914-15.1a4.4866,4.4866,0,0,0-3.1932,1.3226,2.83,2.83,0,0,1-2.0146.8345h-6.5152l2.2357-2.9809a.8336.8336,0,0,0,0-1l-2.2357-2.9809h6.5152a4.4862,4.4862,0,0,0,3.1932-1.3226,2.8305,2.8305,0,0,1,2.0147-.8345h4.9909v6.9619Zm5.8244,15.1a1.3238,1.3238,0,1,1,1.3238-1.3238A1.3254,1.3254,0,0,1,298.01,56.5434Z" style="fill:#54626b"/></g><g id="Data_Dots_Lines" data-name="Data Dots Lines"><line id="Data_Line_4" data-name="Data Line 4" x1="365.304" y1="56.985" x2="386.2" y2="20.792" style="fill:none;stroke:#54626b;stroke-miterlimit:10;stroke-width:2px"/><line id="Data_Line_3" data-name="Data Line 3" x1="115" y1="130" x2="68" y2="130" style="fill:none;stroke:#54626b;stroke-miterlimit:10;stroke-width:2px"/><line id="Data_Line_2" data-name="Data Line 2" x1="136" y1="94" x2="109" y2="49" style="fill:none;stroke:#54626b;stroke-miterlimit:10;stroke-width:2px"/><line id="Data_Line_1" data-name="Data Line 1" x1="308" y1="165" x2="261" y2="165" style="fill:none;stroke:#54626b;stroke-miterlimit:10;stroke-width:2px"/></g><g id="Data_Dots" data-name="Data Dots"><circle id="Data_Dot_6" data-name="Data Dot 6" cx="135.5" cy="165.5" r="8" style="fill:none;stroke:#54626b;stroke-miterlimit:10"/><circle id="Data_Dot_10" data-name="Data Dot 10" cx="385.5" cy="20.5" r="4.5" style="fill:#54626b"/><circle id="Data_Dot_9" data-name="Data Dot 9" cx="307.5" cy="164.5" r="4.5" style="fill:#54626b"/><circle id="Data_Dot_8" data-name="Data Dot 8" cx="198.5" cy="200.5" r="4.5" style="fill:#54626b"/><circle id="Data_Dot_7" data-name="Data Dot 7" cx="135.5" cy="165.5" r="4.5" style="fill:#54626b"/><circle id="Data_Dot_5" data-name="Data Dot 5" cx="68.5" cy="130.5" r="4.5" style="fill:#54626b"/><circle id="Data_Dot_4" data-name="Data Dot 4" cx="108.5" cy="48.5" r="4.5" style="fill:#54626b"/><circle id="Data_Dot_2" data-name="Data Dot 2" cx="260.5" cy="20.5" r="4.5" style="fill:#54626b"/><g id="Data_Dot_3" data-name="Data Dot 3"><circle cx="198.5" cy="57.5" r="4.5" style="fill:#54626b"/><path d="M206.5,57.5a8,8,0,1,1-8-8A8,8,0,0,1,206.5,57.5Z" style="fill:none;stroke:#54626b;stroke-miterlimit:10"/></g><g id="Data_Dot_11" data-name="Data Dot 11"><circle cx="240.5" cy="200.5" r="4.5" style="fill:#54626b"/><circle cx="240.5" cy="200.5" r="8" style="fill:none;stroke:#54626b;stroke-miterlimit:10"/></g><g id="Data_Dot_1" data-name="Data Dot 1"><circle cx="323.5" cy="129.5" r="4.5" style="fill:#54626b"/><path d="M331.5,129.5a8,8,0,1,1-8-8A8,8,0,0,1,331.5,129.5Z" style="fill:none;stroke:#54626b;stroke-miterlimit:10"/></g></g><g id="Background_Ring_Right_2" data-name="Background Ring Right 2"><path d="M299.9751,154.4746a69.7373,69.7373,0,1,1,69.7373-69.7373A69.8165,69.8165,0,0,1,299.9751,154.4746Zm0-138.0937a68.3564,68.3564,0,1,0,68.3564,68.3564A68.4337,68.4337,0,0,0,299.9751,16.3809Z" style="fill:#313e48;opacity:0.5"/></g><g id="Background_Ring_RIght_1" data-name="Background Ring RIght 1"><path d="M356.7391,71.593l4.49-1.0227-.3964-1.6351c-.2862-1.0592-.6939-2.6184-1.3737-4.5553a63.2844,63.2844,0,0,0-7.6056-15.0908,62.51,62.51,0,0,0-7.1936-8.7322,63.8818,63.8818,0,0,0-9.7273-8.0356c-.4466-.3023-.93-.6181-1.3639-.8932-.4108-.26-.9541-.6409-1.4549-.9108l-1.4-.79-1.5445-.8463-1.4156-.7308c-.2547-.1287-.6017-.3124-.8462-.4205l-.7516-.3352c-.9808-.45-2.0972-.886-3.1468-1.3314l-.813-.3353-.8386-.3079-1.62-.5494c-1.0853-.37-2.2262-.7212-3.3478-1.02a63.3475,63.3475,0,0,0-6.8594-1.4152,68.0682,68.0682,0,0,0-6.96-.6841,57.4543,57.4543,0,0,0-6.9568.1057,64.6832,64.6832,0,0,0-13.2884,2.3432q-.7923.2313-1.5785.4933l-1.5059.5066c-.5053.171-1.0193.3474-1.5432.5524l-1.4831.6157c-.9831.406-1.95.8091-2.8386,1.2159-.2311.1048-.4352.1874-.7184.3348l-.7145.3643-1.26.6468c-.5079.2329-.9814.5219-1.3872.7588l-1.2492.7155c-.8774.4581-1.6341,1.0413-2.4357,1.5213-1.617,1.035-3.081,2.1286-4.4529,3.2113a61.9711,61.9711,0,0,0-7.0593,6.4471A67.0141,67.0141,0,0,0,249.38,47.45c-1.2158,1.6492-2.0971,2.9964-2.6731,3.929-.5864.9267-.8719,1.4371-.8719,1.4371l3.9688,2.3363s-.4239.7-1.1568,2.05a60.5831,60.5831,0,0,0-2.8025,6.03c-.5236,1.3331-1.0627,2.8248-1.57,4.4733-.2434.8331-.4979,1.7058-.74,2.6112q-.3483,1.3371-.644,2.7953a56.0341,56.0341,0,0,0-.89,6.28c-.097,1.1229-.1658,2.26-.2055,3.4636-.0178.62-.045,1.2132-.0461,1.7851-.0039.5831.0062,1.1805.027,1.7919.0415,1.223.1273,2.5014.2236,3.8377a8.2821,8.2821,0,0,0,.0812.8265l.1332,1.0027q.1407.9892.284,1.9958c.1013.66.2115,1.3128.3364,1.9572q.0995.4781.1994.96.1209.5112.2429,1.0264l.2325,1.0153q.1261.4863.2532.9762c.1787.6556.3783,1.3213.5927,1.9984q.338,1.0263.68,2.0664l.18.5288.0856.25.0241.056c.1776.4147.3289.8075.4694,1.1757.2815.742.5129,1.3608.7645,1.8786.3413.71.6247,1.4191.9607,2.1065.6955,1.33,1.3564,2.6678,2.114,3.9512.7554,1.2926,1.5684,2.5737,2.4508,3.8288a62.24,62.24,0,0,0,5.9371,7.24A56.3148,56.3148,0,0,0,265.19,131.43a58.3773,58.3773,0,0,0,17.3179,8.8716q1.1748.3717,2.3673.6993c.4219.1142.7.197,1.11.2828l1.27.291c.8245.188,1.5856.3549,2.2972.459l.737.1389.5471.0919,1.1833.16,1.2658.1593,1.2039.1187c.83.0782,1.6518.1469,2.4331.1891.4086.0212.7251.0334,1.1511.0339l1.3249.04.6012.0192v0c.0453-.0011-.1145.0032-.0418.0014l.1609-.0043.3218-.0086,1.2857-.0343c.4233-.0156.8668-.0135,1.2722-.0436l1.2154-.0891c.8082-.0564,1.6135-.109,2.4437-.2247l2.1955-.2649,2.409-.4414c.8151-.131,1.5617-.3329,2.33-.5075l1.1438-.2677,1.1608-.33,1.1054-.3163c.1669-.05.2913-.0728.4935-.1439l.591-.2039c.3872-.13.8-.285,1.166-.3923.2984-.096.6408-.2216.9894-.3545l2.1843-.871c.4191-.1677.6116-.2451.98-.4182l1.0683-.49c1.3984-.6462,2.71-1.3007,3.9548-2.0183a56.833,56.833,0,0,0,7.2169-4.789,60.0275,60.0275,0,0,0,11.0782-11.3252,59.2676,59.2676,0,0,0,6.72-11.57,54.7289,54.7289,0,0,0,3.2279-9.7731,59.5878,59.5878,0,0,0,1.1306-6.5547c.1713-1.5264.2231-2.3442.2231-2.3442l6.39.4783s-.0451.6764-.175,1.94c-.1343,1.2633-.36,3.115-.8036,5.4458a64.3513,64.3513,0,0,1-2.1564,8.2883,63.63,63.63,0,0,1-4.4574,10.1667,65.8241,65.8241,0,0,1-18.002,20.8927,61.4283,61.4283,0,0,1-6.4546,4.2633c-1.0888.6533-2.3221,1.3228-3.5,1.9017-.5955.2944-1.1919.5766-1.7821.8494-.6056.2735-1.1162.525-1.8557.8333-1.2193.4876-2.34.97-3.7516,1.46-.4.1336-.65.2046-.9549.316l-.8892.3074-.2224.0769-.2752.0806-.5569.1593-.9611.2748c-1.2367.3839-2.5894.6627-3.9014.9785-.661.1573-1.3.2491-1.9511.3768l-.9728.1787-.4865.0894-.2431.0446-.1821.0335c-.0847.0165-.1472.02-.252.0335l-2.0258.2419c-.6552.07-1.2872.1743-1.9652.2089-1.3347.0944-2.695.2142-3.9431.2214l-.9548.0252-.4771.0126-.29.0077-.2084-.0057-.2321-.0075c-.6307-.0158-1.21-.05-1.8806-.0511-1.4662-.0328-2.7607-.1545-4.0634-.2764-.6-.0512-1.4318-.15-1.9691-.2223-.6181-.0756-1.2953-.1565-1.9992-.2712l-.5333-.0928-.49-.097s-.0025,0,.0025,0l-.107-.0161-.271-.0433-.5282-.0933c-.6928-.13-1.3385-.2758-1.9558-.4169l-.9051-.2079-.4526-.1023q-.2683-.0565-.5238-.1278c-.6975-.1841-1.2646-.344-1.8974-.53q-1.85-.5418-3.6469-1.1818a64.9882,64.9882,0,0,1-23.4206-14.5956,67.2634,67.2634,0,0,1-7.2453-8.3765,60.1317,60.1317,0,0,1-4.5809-7.2631c-.54-1.0462-1.0221-1.98-1.4416-2.7928-.369-.8133-.6417-1.4721-.9344-2.0635-.3171-.6872-.4952-1.1656-.6163-1.4748l-.1742-.4566-.2155-.5637-.245-.605c-.0038-.0161-.1038-.2242-.1468-.3562l-.107-.3138-.177-.52a64.2757,64.2757,0,0,1-1.8913-6.4108c-.0653-.3129-.1353-.6168-.2182-.9414q-.1209-.5456-.2463-1.1109c-.1553-.7507-.2928-1.52-.418-2.3008s-.2369-1.572-.3447-2.3683q-.0792-.5945-.16-1.2014c-.0277-.2395-.0711-.4771-.0842-.7214l-.05-.68c-.1176-1.65-.2353-3.4091-.2527-5.2567-.0125-.9279.0256-1.8872.0528-2.7471.0313-.8961.0778-1.8223.1461-2.7344a61.4262,61.4262,0,0,1,1.6947-10.7065,66.1079,66.1079,0,0,1,2.9507-8.9475c1.0523-2.5561,2.0934-4.6126,2.85-6.0346.7684-1.417,1.2452-2.2058,1.2452-2.2058s.2938-.5248.8969-1.4784c.5929-.9594,1.5-2.3458,2.7521-4.0449.6209-.8508,1.35-1.7772,2.1541-2.7456.7882-.9618,1.6975-2.0087,2.697-3.08,1.0047-1.071,2.1076-2.1805,3.3251-3.2964.6076-.5577,1.246-1.1207,1.9079-1.6775.652-.5492,1.3219-1.0991,2.0242-1.6554,1.4055-1.1088,2.9086-2.2331,4.6017-3.3172l1.213-.78.6174-.4008.6643-.3765,1.2462-.7136.6821-.3962.4132-.2248c.1328-.07.362-.182.426-.2093l1.1833-.6076.775-.3955c.3629-.1856.5308-.25.7638-.3564l1.3664-.6019,1.5052-.6287,1.5426-.64c.5735-.2243,1.1111-.4083,1.625-.5822q.7507-.2528,1.5087-.5075.8244-.2741,1.6435-.5138a66.4555,66.4555,0,0,1,13.6666-2.4118,59.2812,59.2812,0,0,1,7.1691-.1086,69.89,69.89,0,0,1,7.1465.7024,65.13,65.13,0,0,1,7.0568,1.4564c.5827.16,1.1646.3208,1.7448.5.5634.1687,1.2052.3806,1.7164.5548l1.6366.5551.8952.3288.4715.19.3827.1619,1.6483.687.8209.3434.7428.33.7371.3285c.2325.1011.7118.35.9747.485l1.34.6914,1.6707.9148,1.3665.7706c.5282.2833,1.2012.7493,1.5537.9713l.6765.437.7049.4678A65.6794,65.6794,0,0,1,345.94,39.2878a64.3059,64.3059,0,0,1,7.4017,8.9839,65.1,65.1,0,0,1,7.8208,15.5177c.7013,1.9993,1.1218,3.6053,1.4163,4.6968.2663,1.0981.4082,1.6838.4082,1.6838s.0647.3006.1777.8268c.12.5249.2649,1.2793.4293,2.1862a66.3052,66.3052,0,0,1,.9772,13.44c-.0241.92-.064,1.6858-.1032,2.2215l-.0524.8421-1.797-.1363-4.5922-.3482s.017-.2765.0468-.76c.0357-.4835.0716-1.175.0931-2.006a59.89,59.89,0,0,0-.8814-12.1334c-.1482-.8164-.2779-1.4952-.3863-1.9664Z" style="fill:#a5b1be;opacity:0.5"/></g><g id="Data_Mesh" data-name="Data Mesh"><path d="M365.3291,56.1074h-41.37L302.8809,19.5986H259.9346l-21.1,36.5479H197.51l-21.0783,36.508H135.0618l-21.451,37.1535,21.451,37.1534h42.885L198.47,202.5087l1.109-1.9215-20.341-35.232,20.15-34.9018h41.0219l.0212-.0367,20.1721,34.9385-20.3415,35.232,1.1089,1.9215,21.4505-37.1535-21.2808-36.86,19.9245-34.51H301.305l21.0778,36.5078h42.9463L386.8018,93.3Zm-104.24-34.5088h40.6377l20.29,35.1429L301.6681,91.9854H261.1022L240.7769,56.7809Zm-62.47,36.4694h40.58L259.5911,93.39l-20.0988,34.8114H198.4859L178.3065,93.25ZM136.1707,165.04,115.83,129.808l20.341-35.232h40.6246l20.3708,35.2825L176.8538,165.04Zm228.0041-36.5468H323.5371l-20.29-35.1424L323.595,58.1074h40.58L384.4932,93.3Z" style="fill:#54626b"/></g><g id="Background_Ring_Center_2" data-name="Background Ring Center 2"><g style="opacity:0.1"><path d="M239.8471,69.505l-.5636-.6511c-.1881-.2128-.4114-.4863-.6955-.7943l-1.0045-1.0519q-.5686-.597-1.2683-1.3319c-.474-.4812-1.02-.9782-1.5931-1.5318-1.129-1.1271-2.5384-2.3006-4.092-3.64l-2.5481-2.0022c-.91-.6756-1.8877-1.348-2.8912-2.07-1.0223-.6951-2.12-1.3677-3.2384-2.0964-.5709-.3454-1.1661-.6736-1.7633-1.0212-.6026-.3381-1.2-.71-1.8345-1.0382l-1.9376-.9915-.9906-.5086c-.3375-.1606-.6834-.31-1.0284-.4678l-2.1032-.9516c-.7128-.3168-1.4584-.5831-2.2005-.8841-1.4773-.6231-3.0481-1.11-4.6383-1.6572-.3954-.1442-.8044-.2528-1.2136-.3686l-1.2344-.35c-.8279-.2329-1.66-.49-2.5209-.6675l-2.5951-.6c-.88-.1739-1.7742-.32-2.6735-.4849-.4505-.0778-.9011-.1684-1.3573-.2374l-1.38-.1741-1.3923-.1773c-.4663-.0579-.9331-.13-1.4072-.154l-2.86-.2175c-.48-.0483-.9648-.0485-1.4507-.062l-1.4636-.0367-1.4748-.0387-1.4857.0372L179.45,43.32c-.5005.0137-1.0036.0143-1.5053.0648l-3.0352.23c-1.016.0992-2.0327.252-3.0591.3746-1.0295.1052-2.0483.3182-3.0786.4965l-1.5489.2752c-.5155.1026-1.0266.2337-1.5425.3491a72.6572,72.6572,0,0,0-12.3267,3.89,76.6876,76.6876,0,0,0-22.686,14.5726,76.1039,76.1039,0,0,0-21.5483,76.0075,72.9459,72.9459,0,0,0,4.4892,12.1217,78.7721,78.7721,0,0,0,6.1867,10.728,73.7428,73.7428,0,0,0,7.3938,9.1076l.9769,1.0255.4861.5087.5076.4828,2.0047,1.9123c.6826.609,1.3753,1.1941,2.0511,1.7846.3427.2895.6678.5971,1.02.8682l1.0432.8184a75.1957,75.1957,0,0,0,16.385,9.8941,73.8608,73.8608,0,0,0,14.0234,4.6239l1.4586.3339,1.3909.247c.9.1541,1.7395.325,2.5278.4394l2.1919.2775c.671.0774,1.2765.1834,1.8265.209l3.362.2563-.507,9.914-3.7977-.2881c-.62-.0323-1.3062-.1468-2.0644-.2347l-2.4777-.3159c-.8912-.13-1.8417-.3188-2.8594-.4947l-1.5727-.2822c-.5364-.1142-1.0853-.2467-1.651-.3751a83.7849,83.7849,0,0,1-15.8686-5.2325A85.1254,85.1254,0,0,1,129.12,186.7247l-1.1774-.9266c-.3968-.3077-.7663-.6523-1.1535-.98-.7645-.666-1.5456-1.3288-2.3159-2.0178l-2.2658-2.1593-.5722-.5467-.55-.5735-1.1045-1.1577a83.6522,83.6522,0,0,1-8.3538-10.2917,88.6857,88.6857,0,0,1-6.9951-12.1307,82.8716,82.8716,0,0,1-5.0808-13.7161A86.0566,86.0566,0,0,1,149.5584,39.8278a82.5714,82.5714,0,0,1,13.9487-4.403c.5837-.1307,1.1626-.2762,1.7458-.3925l1.7514-.3141c1.1653-.2026,2.3189-.4371,3.4817-.5609,1.16-.141,2.31-.31,3.4582-.4217l3.4283-.261c.5671-.0542,1.1344-.0579,1.6991-.074l1.6885-.043,1.6764-.0389,1.6641.0406,1.6514.0421c.5483.0159,1.0949.019,1.6374.071l3.231.2457c.535.03,1.0633.1083,1.5905.1731l1.5741.2,1.56.2c.5159.078,1.0261.1782,1.5357.266,1.0174.1853,2.0286.353,3.0235.5509l2.9368.6769c.9736.2051,1.9158.491,2.8528.7546l1.3966.3972c.4629.1319.9251.2568,1.3732.4178,1.8014.6144,3.5761,1.1739,5.2495,1.8737.84.34,1.6821.6452,2.4891,1.0023l2.38,1.0752c.39.1786.7807.3494,1.1624.5313l1.1215.5731,2.1907,1.1229c.7165.3728,1.3945.7891,2.0754,1.1722.6756.3925,1.3473.7661,1.9925,1.1569,1.2669.8193,2.5058,1.5835,3.6611,2.3693,1.1364.8131,2.24,1.5759,3.2673,2.34l2.8791,2.2626c1.7594,1.509,3.3458,2.8416,4.6247,4.111.6482.6248,1.2622,1.1889,1.7981,1.7322q.79.8283,1.4345,1.5031l1.1329,1.19c.3208.3482.5746.6559.7871.8962l.6373.7352Z" style="fill:#313e48"/><path d="M186.3472,195.22l3.3621-.2563c.55-.0256,1.1555-.1316,1.8264-.209l2.192-.2775c.7882-.1144,1.6277-.2853,2.5278-.4394l1.3908-.247,1.4587-.3339a73.86,73.86,0,0,0,14.0233-4.6239,75.1934,75.1934,0,0,0,16.385-9.8941l1.0433-.8184c.3521-.2711.6771-.5787,1.02-.8682.6758-.5905,1.3684-1.1756,2.051-1.7846l2.0048-1.9123.5076-.4828.486-.5087.977-1.0255a73.752,73.752,0,0,0,7.3938-9.1076,78.7721,78.7721,0,0,0,6.1867-10.728,72.9459,72.9459,0,0,0,4.4892-12.1217,76.13,76.13,0,0,0-44.2343-90.58,72.6554,72.6554,0,0,0-12.3268-3.89c-.5158-.1154-1.0269-.2465-1.5425-.3491l-1.5488-.2752c-1.03-.1783-2.0491-.3913-3.0786-.4965-1.0264-.1226-2.0431-.2754-3.0591-.3746l-3.0352-.23c-.5017-.05-1.0048-.0511-1.5054-.0648l-1.4964-.0375-1.4857-.0372-1.4748.0387-1.4636.0367c-.486.0135-.9708.0137-1.4507.062l-2.86.2175c-.4741.0244-.9409.0961-1.4072.154l-1.3924.1773-1.38.1741c-.4562.069-.9069.16-1.3574.2374-.8992.1652-1.7937.311-2.6734.4849l-2.5951.6c-.8615.1777-1.693.4346-2.5209.6675l-1.2344.35c-.4092.1158-.8182.2244-1.2136.3686-1.59.5472-3.161,1.0341-4.6384,1.6572-.742.301-1.4876.5673-2.2.8841l-2.1033.9516c-.3449.1576-.6908.3072-1.0284.4678l-.99.5086-1.9377.9915c-.6341.3284-1.2318.7-1.8344,1.0382-.5972.3476-1.1925.6758-1.7633,1.0212-1.1183.7287-2.2162,1.4013-3.2384,2.0964-1.0036.7224-1.9813,1.3948-2.8913,2.07l-2.548,2.0022c-1.5537,1.34-2.9631,2.5133-4.0921,3.64-.5733.5536-1.119,1.0506-1.593,1.5318l-1.2684,1.3319L126.2037,68.06c-.2842.308-.5075.5815-.6955.7943l-.5636.6511-4.1312-3.5827.6042-.6974c.2016-.2279.4417-.52.7459-.85l1.0753-1.128,1.36-1.4262c.5081-.5154,1.0914-1.0493,1.706-1.6422,1.2116-1.2055,2.7185-2.4666,4.3854-3.9l2.73-2.1457c.9748-.7243,2.0217-1.4465,3.0984-2.2189,1.0955-.7451,2.2711-1.468,3.4713-2.2467.6118-.37,1.2491-.7236,1.89-1.0959.6458-.3629,1.2877-.7592,1.9672-1.112l2.0771-1.0639,1.0626-.5441c.3619-.1724.7324-.3337,1.1023-.5029l2.2556-1.02c.7648-.339,1.5634-.627,2.3595-.9492,1.5854-.6654,3.2685-1.1923,4.975-1.7765.4244-.1534.8627-.271,1.3015-.3957l1.3238-.376c.888-.25,1.78-.5228,2.7037-.7155l2.7833-.6423c.9432-.1871,1.9019-.345,2.8663-.5213.4831-.0833.9665-.1792,1.4556-.2532l1.4792-.1881,1.4924-.19c.5-.0617,1.0006-.1369,1.5082-.1645l3.0646-.2331c.5144-.05,1.0332-.0522,1.5535-.0669l1.5671-.04,1.579-.04,1.5908.0382,1.6022.04c.5359.015,1.0743.0174,1.6121.07l3.2518.2473c1.0887.1062,2.1789.2677,3.2789.4005,1.1029.1154,2.196.34,3.3007.532l1.66.2966c.5528.11,1.1013.2492,1.6544.373a78.1182,78.1182,0,0,1,13.22,4.1724A82.1584,82.1584,0,0,1,237.846,59.5671a81.5722,81.5722,0,0,1,23.0973,81.47,78.4214,78.4214,0,0,1-4.8151,13,84.254,84.254,0,0,1-6.632,11.5006,79.2129,79.2129,0,0,1-7.9227,9.76l-1.0472,1.0982-.5213.5444-.5432.518-2.1486,2.0484c-.7309.6531-1.4722,1.281-2.1969,1.9131-.3672.31-.7168.6382-1.0935.93l-1.1171.878a80.6633,80.6633,0,0,1-17.5644,10.6056,79.32,79.32,0,0,1-15.04,4.9592c-.5361.1218-1.0562.2482-1.5646.3566l-1.491.2664c-.9649.1661-1.8655.347-2.71.47l-2.3494.2986c-.719.0832-1.3687.1939-1.9575.2232l-3.602.2738Z" style="fill:#313e48"/></g></g><g id="Background_Ring_Center_1" data-name="Background Ring Center 1"><g style="opacity:0.2"><path d="M178.1924,209.0687l-4.3289-.328c-.4394-.023-.9133-.0853-1.415-.1512-.2418-.0318-.4914-.0647-.749-.0949l-2.5839-.329c-.624-.091-1.2609-.2067-1.9352-.3288-.3449-.0626-.6976-.1267-1.0582-.189l-1.64-.2941c-.3868-.082-.7674-.17-1.1554-.26l-.58-.1339a87.7982,87.7982,0,0,1-16.5905-5.47,89.054,89.054,0,0,1-19.3691-11.6953l-1.2242-.9633c-.2752-.2134-.541-.4458-.798-.6707-.1367-.12-.2738-.24-.4129-.3574-.2634-.2292-.5245-.4548-.7863-.6807-.5436-.47-1.0908-.9422-1.6328-1.4271l-2.9638-2.8258-1.7349-1.8142a86.9757,86.9757,0,0,1-8.7363-10.7631,92.9378,92.9378,0,0,1-7.3114-12.68,86.8358,86.8358,0,0,1-5.3125-14.341,89.9714,89.9714,0,0,1,52.282-107.0548A86.576,86.576,0,0,1,162.74,31.6125c.21-.0469.42-.096.63-.1449.3986-.0929.7965-.1856,1.1963-.2653l1.8306-.3284c.282-.049.5613-.0995.84-.15.9178-.1658,1.8668-.3374,2.81-.4378.4028-.0489.81-.1019,1.2161-.1547.7826-.1017,1.5918-.207,2.3878-.2845l3.5775-.2726c.4793-.0458.9669-.0576,1.4383-.0691l3.854-.0942,3.8184.0951c.452.011.9193.0222,1.3819.0665l3.3573.2553c.4437.0249.891.0822,1.3232.1377l3.6147.46c.3635.0548.7162.1186,1.0678.1821.1823.033.3646.0658.5469.0973.3567.065.709.1273,1.0607.1894.7044.1244,1.4041.2482,2.0967.3859l3.0686.707c.8279.1744,1.6448.4075,2.4347.6332l2.2181.63c.4093.1158.8326.2355,1.243.383.3846.1311.7735.2616,1.1606.3916,1.5073.5062,2.9315.9842,4.3231,1.5663.2983.12.6012.2385.9024.356.56.2184,1.14.4444,1.696.69l2.9078,1.3141c.2653.12.53.2388.79.3629l3.4579,1.7709c.4984.2592.9794.5384,1.4446.8082.2438.1416.4863.2822.7287.4188.2428.1409.4806.277.7169.4124.4638.2655.9218.528,1.3683.7982.4484.29.8842.5676,1.315.8417.8777.5592,1.7068,1.0872,2.5132,1.6355.3975.2845.7843.5581,1.1656.8281.7864.5565,1.5291,1.0822,2.2489,1.6175l3.0056,2.3619.6926.5927c1.5323,1.3115,2.98,2.55,4.1543,3.7157.2307.2222.46.44.6844.6526.4233.4015.8229.7807,1.1907,1.1538l2.6775,2.8086c.226.2455.4176.4679.5866.664q.1294.1509.2421.2791l.906,1.0453L242.27,67.9732l-.8265-.9558c-.0677-.0763-.1425-.1637-.2231-.2577-.1429-.167-.3051-.3565-.4935-.5607l-2.3627-2.4778c-.3016-.3062-.6385-.625-.9956-.9625-.212-.2006-.43-.4069-.6521-.6216-.959-.9573-2.14-1.9694-3.3895-3.0408l-.8562-.7355-2.64-2.0742c-.5733-.4254-1.1739-.85-1.81-1.3-.3907-.2765-.7878-.5574-1.1886-.8461-.6488-.441-1.3268-.8728-2.0444-1.33-.4326-.2757-.8716-.5552-1.3135-.8431-.3631-.2195-.7467-.4383-1.1345-.66-.2274-.13-.4562-.2607-.6858-.3941-.2234-.1251-.4508-.258-.68-.3914-.3935-.23-.8007-.4668-1.2143-.6809L216.7125,48.28c-.2124-.1008-.4383-.202-.665-.3035L213.4681,46.81c-.463-.2057-.9343-.3885-1.4331-.5821-.2808-.1088-.563-.2184-.8448-.3326-1.1567-.488-2.347-.8878-3.6072-1.3109-.3993-.1341-.8011-.2691-1.204-.4077-.3409-.1244-.6825-.22-1.0442-.3217l-2.0237-.5741c-.67-.1925-1.3632-.3914-2.0605-.5352l-2.71-.6265c-.5579-.11-1.133-.2113-1.7117-.3131q-.5259-.0924-1.0557-.1886c-.1672-.0288-.3381-.06-.5092-.0913-.2962-.0542-.5934-.1085-.8928-.1538l-3.2018-.4063c-.366-.0478-.7441-.0972-1.1144-.1164l-2.9873-.227c-.3864-.0388-.7642-.0471-1.1642-.0557l-3.3873-.0864-3.4108.0855c-.4009.0088-.8152.0178-1.2154.0581l-3.1692.2408c-.653.0637-1.33.1521-1.9839.2379-.3941.0516-.7891.1032-1.1855.1506-.7952.0813-1.6.2278-2.3782.3694-.269.0489-.5382.0979-.8084.1447l-1.6111.2863c-.33.0659-.6663.145-1.0029.2243-.1954.046-.3911.0921-.5873.1361a75.4951,75.4951,0,0,0-12.7727,4.03,79.9425,79.9425,0,0,0-23.5137,15.1038,78.8753,78.8753,0,0,0-22.3326,78.7744,75.7827,75.7827,0,0,0,4.6512,12.56,81.8548,81.8548,0,0,0,6.4136,11.1213,76.0908,76.0908,0,0,0,7.6635,9.4389l1.5212,1.5957,2.6038,2.4817c.4308.3842.8747.767,1.3159,1.1474q.4062.3507.808.7c.1244.1053.2512.2167.3778.3281.2264.1991.44.3871.6664.5611l1.0891.8545a78,78,0,0,0,16.9829,10.2554,76.7221,76.7221,0,0,0,14.5319,4.7914l1.5214.3484,1.43.2536c.3483.0594.69.1221,1.0235.183.56.102,1.0886.1987,1.597.2729l2.2759.2879c.2342.0272.465.058.6881.0881.4224.0566.8213.11,1.1844.1267l3.8681.2948Zm4.3288-178.9246-3.8355.0944c-.4587.011-.933.0225-1.3935.0666l-3.5766.2723c-.7767.0759-1.58.18-2.3567.2813-.4084.053-.8175.1062-1.2277.1561-.9225.0981-1.8583.2674-2.763.4308-.2808.0507-.5619.1015-.8435.1506l-1.8217.3266c-.3851.0768-.7751.1679-1.166.2591-.2118.0494-.4238.0988-.6365.1465a85.8047,85.8047,0,0,0-14.4619,4.5647,90.347,90.347,0,0,0-26.5969,17.0821,89.211,89.211,0,0,0-25.2605,89.1006,86.0906,86.0906,0,0,0,5.2675,14.22,92.189,92.189,0,0,0,7.255,12.5817,86.2448,86.2448,0,0,0,8.6629,10.6722l1.7205,1.8,2.9435,2.8061c.53.4741,1.0743.9436,1.6147,1.4106q.3939.34.7844.6793c.1384.1167.2784.24.4184.3617.26.2281.5062.4433.7666.645l1.2279.9661a88.3241,88.3241,0,0,0,19.2117,11.6,87.0648,87.0648,0,0,0,16.4534,5.4253l.5853.135c.3835.0888.76.1762,1.1305.2549l1.6258.2915c.3606.0624.7151.1268,1.062.19.6678.1214,1.2988.2356,1.9037.3241l2.5729.3276c.2577.03.511.0634.7564.0956.487.0641.947.1247,1.3661.1465l3.588.2722.4906-9.59-3.1441-.24c-.3841-.0176-.7984-.073-1.2369-.1322-.219-.0293-.4451-.0594-.679-.0866l-2.2863-.2894c-.5284-.0766-1.0636-.1744-1.63-.2782-.3307-.06-.67-.1221-1.0175-.1819l-1.4505-.2575-1.5365-.3513a77.4543,77.4543,0,0,1-14.6684-4.8366,78.742,78.742,0,0,1-17.14-10.3506l-1.084-.8505c-.2426-.1866-.4756-.3914-.7008-.5895-.1228-.1081-.2458-.2166-.3713-.3226-.2708-.2364-.5393-.468-.809-.7008-.4444-.3832-.8912-.7685-1.3341-1.1638l-2.6246-2.5018-1.5359-1.61a76.8126,76.8126,0,0,1-7.7366-9.53,82.5728,82.5728,0,0,1-6.47-11.2183,76.4969,76.4969,0,0,1-4.6963-12.6816,79.6346,79.6346,0,0,1,46.27-94.75,76.2452,76.2452,0,0,1,12.8955-4.0691c.1934-.0432.3862-.0887.579-.1342.3449-.0813.6892-.1622,1.0355-.2311l1.62-.2879c.27-.0467.5368-.0955.8037-.144.7922-.1441,1.6113-.2933,2.4287-.3767.3875-.0464.78-.0978,1.171-.149.66-.0863,1.3429-.1756,2.0158-.2412l3.1681-.2408c.42-.0423.8489-.0515,1.2638-.0607l3.4274-.0854,3.4029.0863c.3964.0086.8064.0175,1.2129.0584l2.9694.2258c.39.02.7828.0712,1.1628.121l3.2071.407c.3159.0476.62.1033.9239.1588.1691.0308.3374.0616.5061.0908.3548.0651.7054.1268,1.0542.1882.5837.1028,1.1642.205,1.7382.3185l2.7138.627c.7162.1476,1.4227.35,2.1064.5467l2.0189.5728c.3592.1008.7306.205,1.0912.3366.395.1357.795.27,1.1925.4038,1.2737.4277,2.4766.8316,3.6541,1.3283.2736.1109.5522.219.83.3268.4849.188.9866.3827,1.4679.5964l2.579,1.1666c.2321.1038.4631.2073.69.3155l3.0582,1.5665c.4319.2235.8469.4653,1.248.6994.2256.1314.45.2621.6747.3883.2324.1352.46.2649.6857.3938.3933.2243.7818.4463,1.1607.6755.45.2931.887.5712,1.3174.8455.7227.46,1.4049.8949,2.071,1.3479.4071.293.8028.5728,1.1917.8482.6392.4524,1.243.88,1.831,1.3164l2.6611,2.0908.8673.7447c1.2609,1.0807,2.4516,2.1017,3.426,3.0745.2159.2084.4322.4131.6424.6118.3617.3421.7034.6653,1.0185.9853l2.37,2.486c.2.2164.3678.4125.516.5856.0777.0908.15.1752.2177.2518l.3492.4034,7.2545-6.2914-.4237-.4882c-.0748-.0847-.1575-.1807-.2464-.284-.1639-.1905-.35-.4068-.5654-.641l-2.6689-2.7993c-.3553-.36-.7506-.7352-1.1693-1.1324-.2249-.2136-.4565-.4332-.6922-.66-1.1588-1.15-2.53-2.3237-4.1185-3.6827l-.6811-.5834-2.9856-2.3459c-.7051-.5243-1.4446-1.0475-2.227-1.6015q-.5738-.4057-1.1617-.8252c-.79-.537-1.6147-1.0622-2.4877-1.6183q-.6479-.4128-1.31-.8387c-.4319-.2616-.8853-.5208-1.3436-.7833q-.3567-.2041-.7162-.4122c-.2414-.1357-.4863-.2781-.7331-.4211-.458-.2658-.9314-.5406-1.413-.7911l-3.4461-1.7647c-.2467-.1175-.506-.2344-.7671-.3519l-2.8855-1.3042c-.5583-.2472-1.1044-.46-1.6832-.6857-.304-.1186-.6094-.2377-.9149-.361-1.3712-.5735-2.7828-1.0475-4.2775-1.5494q-.5823-.1954-1.17-.3948c-.3918-.1407-.7846-.2517-1.2-.3692l-2.22-.6311c-.7778-.222-1.5818-.4516-2.3914-.6221l-3.0647-.7062c-.6765-.1344-1.3712-.2572-2.0706-.3808q-.529-.0934-1.061-.1894c-.1805-.0312-.3646-.0645-.549-.0978-.3449-.0621-.6908-.1248-1.0389-.1774l-3.6068-.4589c-.4193-.0539-.8534-.11-1.2784-.1334l-3.3716-.2564c-.4433-.0425-.8773-.0528-1.3364-.064Z" style="fill:#313e48"/><path d="M186.5458,204.4327l-.3284-6.419,3.8575-.2941c.3739-.0175.7724-.0708,1.1946-.1274.2231-.03.4541-.0609.693-.0885l2.2779-.2886c.502-.0731,1.0309-.17,1.591-.2718.3334-.0612.6751-.1236,1.0253-.1834l1.446-.2567,1.5008-.3442a76.7345,76.7345,0,0,0,14.5344-4.7921,78.0024,78.0024,0,0,0,16.9806-10.2533l1.089-.8544c.2281-.1755.4408-.3628.6664-.5615.1275-.1117.255-.2242.385-.3338.2635-.23.5339-.4637.8057-.6979.44-.38.8835-.762,1.3225-1.1538l2.6074-2.486,1.5105-1.5846a76.0734,76.0734,0,0,0,7.66-9.4361,81.8076,81.8076,0,0,0,6.4143-11.1216,75.7447,75.7447,0,0,0,4.6518-12.562,78.9007,78.9007,0,0,0-45.8445-93.8771,75.5268,75.5268,0,0,0-12.7743-4.0308c-.1956-.0438-.39-.09-.5848-.1355-.3373-.08-.6743-.1588-1.0131-.2262l-1.605-.2854c-.2686-.0464-.5379-.0954-.8068-.1443-.7785-.1416-1.5832-.2881-2.3717-.3689-.4033-.0479-.799-.1-1.1932-.1513-.6539-.0856-1.33-.174-1.99-.2385l-3.1527-.2393c-.409-.041-.8233-.05-1.224-.0588l-3.43-.0855-3.3685.0864c-.4.0086-.7776.0169-1.1556.055l-2.9873.2272c-.3789.02-.7572.0691-1.1228.1169l-3.2112.4076c-.29.044-.5871.0983-.8831.1523-.1713.0314-.3425.0627-.5137.0922-.3491.0643-.7015.1263-1.0526.188-.5783.1019-1.1533.2029-1.7223.3155l-2.6906.6221c-.7068.1459-1.4008.3452-2.072.538l-2.0213.5735c-.3617.1014-.7032.1972-1.0373.3191-.41.1411-.8118.2761-1.2118.41-1.26.4231-2.4493.8227-3.601,1.3085-.2868.1164-.5695.2261-.8508.3352-.4983.1934-.969.376-1.4338.5826L148.93,47.9754c-.2274.1018-.4539.2032-.6768.3092l-3.0394,1.5572c-.4118.2134-.8184.45-1.2118.68-.2294.1337-.4571.2666-.6858.3948-.2252.1312-.4553.2625-.6838.3928-.3867.2206-.7694.4389-1.1416.6643-.4326.2822-.8724.5622-1.306.8385-.7168.4566-1.3938.8878-2.05,1.334-.3924.2825-.7888.5631-1.1788.839-.6364.45-1.2374.8759-1.8192,1.3078l-2.6453,2.0788-.8485.7293c-1.2477,1.07-2.4262,2.08-3.38,3.0322-.227.2194-.446.4264-.6585.6275-.356.3369-.6924.6551-.9979.9652l-2.3626,2.4781c-.1844.2-.3468.39-.49.557-.08.0937-.1547.18-.2247.26l-.8244.9526L117.85,63.7621l.8689-1.0033c.0741-.0838.15-.1728.2326-.2684.16-.1862.3413-.3973.5517-.6254l2.54-2.664c.3486-.3539.7227-.7084,1.1187-1.0836.2172-.2059.4407-.4177.6683-.6372,1.0766-1.0711,2.403-2.2074,3.8071-3.41l.7746-.6642,2.8555-2.2443c.6692-.4974,1.35-.9792,2.0708-1.4895q.5763-.408,1.1681-.8305c.75-.51,1.5116-.9955,2.3184-1.5094q.6479-.4125,1.31-.84c.4224-.2561.8462-.4983,1.275-.7435q.3522-.2013.7077-.4069c.2406-.1354.4761-.2722.7128-.41.4353-.253.8854-.5148,1.3507-.7565l3.271-1.6752c.2551-.1216.5042-.2337.7547-.3461l2.7577-1.2467c.5245-.2326,1.0686-.4443,1.5949-.6491.2911-.1132.5833-.2269.8755-.345,1.2878-.5406,2.609-.9845,4.0078-1.4543q.5927-.199,1.1908-.4027c.3832-.1384.7841-.2514,1.1716-.3606l2.1264-.6038c.742-.2123,1.5094-.432,2.2945-.596l2.8908-.6672c.65-.1291,1.2968-.2433,1.9472-.3581.35-.0617.7016-.1237,1.0538-.1882.181-.0311.3586-.0633.5364-.0956.3286-.06.658-.1194.99-.17l3.441-.4375c.4086-.0528.831-.1076,1.2585-.1307l3.1831-.242c.4292-.0421.87-.0525,1.2968-.0623l3.6149-.0912,3.68.09c.4462.01.9075.0211,1.3684.066l3.3783.2568c.747.0729,1.498.1706,2.2246.2654.4007.0522.8025.1045,1.2054.1532.88.0922,1.77.2534,2.63.4093.2747.05.5494.1.8251.1474l1.7307.3092c.3835.0763.7574.1639,1.1323.2516.2016.0472.4036.0945.6063.14a81.9293,81.9293,0,0,1,13.8268,4.3642,86.4066,86.4066,0,0,1,25.4272,16.3327,85.3016,85.3016,0,0,1,24.1534,85.1946,82.1632,82.1632,0,0,1-5.0367,13.5969,88.1982,88.1982,0,0,1-6.9336,12.0237,82.4235,82.4235,0,0,1-8.2844,10.206l-1.6351,1.7125-2.8147,2.6839c-.5032.45-1.0024.8806-1.498,1.3086q-.4029.348-.8018.6947c-.1371.116-.2679.2306-.3985.3449-.2425.213-.4935.4329-.7564.6363l-1.1609.9124a84.44,84.44,0,0,1-18.3662,11.09,83.1747,83.1747,0,0,1-15.7293,5.1864l-.5816.1344c-.356.0827-.7058.1639-1.0507.2377l-1.5638.28c-.3592.0619-.7069.125-1.0471.1869-.6242.1135-1.214.221-1.7873.3041l-2.4527.3119c-.2517.029-.4913.0609-.7234.0916-.4726.0627-.9192.1221-1.3428.1433Zm.4408-5.7422.2532,4.9536,3.3755-.2564c.4032-.02.8354-.0773,1.2927-.1382.236-.0311.48-.0637.7313-.0927l2.4422-.31c.5537-.0806,1.1374-.1866,1.7551-.299.342-.0623.6922-.1261,1.0511-.1877l1.55-.2772c.3284-.07.6736-.1507,1.0252-.2324l.587-.1357a82.4023,82.4023,0,0,0,15.5922-5.1409,83.7065,83.7065,0,0,0,18.2086-10.9942l1.1652-.916c.2475-.1913.4792-.3943.7241-.6095.134-.1171.2679-.2346.4043-.35.2621-.2288.5307-.46.8-.6933.4928-.4254.9887-.8534,1.48-1.2924l2.7944-2.6639,1.62-1.6982a81.6569,81.6569,0,0,0,8.2113-10.115,87.5072,87.5072,0,0,0,6.8774-11.9263,81.4626,81.4626,0,0,0,4.9916-13.4758A84.5958,84.5958,0,0,0,214.7637,41.1835a81.1927,81.1927,0,0,0-13.7047-4.3251c-.2051-.0461-.4093-.0939-.6134-.1416-.3667-.086-.733-.1718-1.1012-.245l-1.7217-.3076c-.2758-.0478-.5526-.0979-.8287-.1481-.8473-.1534-1.7232-.3122-2.5819-.4021-.4108-.05-.8147-.1023-1.2179-.1547-.7206-.0941-1.4658-.1911-2.1931-.2622l-3.3783-.2567c-.4416-.043-.8892-.0534-1.3218-.0634l-3.6623-.09-3.5984.0913c-.4323.01-.84.02-1.25.06l-3.1989.2433c-.4083.0222-.8168.0751-1.212.1263l-3.4341.4365c-.3162.048-.6386.1065-.96.1649-.18.0326-.3595.0652-.5392.0962-.35.0641-.7027.1262-1.0544.1883-.6453.1139-1.2866.2271-1.9208.3529l-2.8871.6664c-.7667.16-1.5208.3761-2.25.5849l-2.1293.6046c-.3923.1105-.7629.2149-1.127.3465-.4057.1389-.8042.2729-1.2009.406-1.3855.4656-2.6943.9052-3.9617,1.437-.2995.1214-.595.2363-.8891.3507-.5422.2109-1.0545.41-1.561.6348L146.507,42.823c-.2455.11-.49.22-.7305.3348l-3.26,1.67c-.448.2326-.89.49-1.3184.7386-.24.1395-.4784.2781-.7174.4124-.2335.1359-.4713.272-.7076.407-.4233.2421-.8419.4815-1.2494.7282-.4328.2809-.8722.5608-1.3057.837-.802.5109-1.56.9934-2.2924,1.4919-.3877.2783-.7791.5553-1.1646.8281-.7173.5077-1.3946.9872-2.0492,1.4735l-2.8352,2.2279-.7629.655c-1.3935,1.1937-2.71,2.3212-3.7712,3.3771-.2331.2251-.4582.4383-.677.6457-.3912.3708-.7608.7208-1.0965,1.0615l-2.5315,2.6552c-.2.2167-.3752.4213-.53.6018-.0847.0985-.1635.19-.2372.2736l-.3866.4464,3.7472,3.25.3465-.4006c.07-.0793.1421-.1635.22-.2538.1484-.1736.3167-.37.5124-.582l2.37-2.4861c.3188-.3239.66-.6464,1.0206-.9879.2107-.1992.4277-.4046.6487-.618.969-.9673,2.1575-1.9864,3.4161-3.0656l.86-.7387,2.6663-2.0953c.5964-.4432,1.2007-.8709,1.8406-1.3238q.5826-.4122,1.1821-.8413c.6731-.4579,1.3546-.8921,2.076-1.3517.4315-.2749.8691-.5536,1.31-.8408.388-.2351.776-.4566,1.1683-.68q.34-.194.6835-.3925c.23-.1291.4544-.26.68-.3916.4011-.2338.8157-.4757,1.2455-.6983l3.05-1.5624c.2378-.1134.47-.2172.7021-.3212l2.575-1.1646c.483-.2147.984-.4091,1.4685-.5969.2779-.108.5572-.2163.8359-.3293,1.1722-.4946,2.3747-.8985,3.6478-1.3261q.5973-.2,1.2-.4064c.3539-.1293.7251-.2333,1.0841-.334l2.0169-.5722c.6845-.1966,1.3923-.4,2.1178-.55l2.6937-.6226c.5853-.116,1.1652-.2181,1.7488-.3208.3493-.0615.7-.1233,1.0512-.1877.1726-.03.3414-.0607.51-.0917.3034-.0555.6076-.111.9143-.1573l3.2165-.4083c.38-.05.7726-.1012,1.1715-.1216l2.9694-.2259c.3977-.04.8077-.0491,1.2042-.0577l3.3839-.0863,3.4464.0854c.4147.0092.8437.0184,1.2723.0614l3.1517.2394c.68.0663,1.3622.1554,2.0219.2417.3921.0513.7849.1026,1.1788.15.8111.0829,1.63.2321,2.4223.3762.2671.0485.5342.0973.8024.1436l1.614.287c.3546.07.7.1517,1.0457.233.1919.0453.3839.0906.5765.1336a76.26,76.26,0,0,1,12.8972,4.07A80.6835,80.6835,0,0,1,236.598,61.0107a79.6069,79.6069,0,0,1,22.54,79.5064,76.46,76.46,0,0,1-4.6969,12.683,82.5216,82.5216,0,0,1-6.47,11.2187,76.82,76.82,0,0,1-7.7337,9.527l-1.5251,1.5993-2.6278,2.506c-.4512.4029-.8974.7875-1.3407,1.17q-.4062.35-.8068.6987c-.1311.1106-.255.22-.3785.3283-.2246.1974-.4566.4018-.7009.59l-1.0839.8505a78.7471,78.7471,0,0,1-17.1379,10.3485,77.4942,77.4942,0,0,1-14.6708,4.8373l-1.5162.347-1.4661.2607c-.35.06-.6886.1218-1.0195.1823-.5669.1035-1.1022.2016-1.624.2772l-2.2887.29c-.2381.0276-.4644.058-.6836.0874-.4383.0588-.8523.1142-1.2472.1325Z" style="fill:#313e48"/></g></g><g id="Background_Ring_Left" data-name="Background Ring Left"><path d="M125.1487,111.3564l-2.7931.8755-.48-1.4186c-.2929-.9321-.819-2.2659-1.517-3.9494a55.6157,55.6157,0,0,0-2.96-5.8684c-.61-1.1146-1.3691-2.2346-2.14-3.4316q-.6193-.8708-1.27-1.7854c-.4354-.6081-.9279-1.1951-1.4046-1.8141a56.388,56.388,0,0,0-16.18-13.7452,55.3036,55.3036,0,0,0-11.04-4.758,56.386,56.386,0,0,0-12.1989-2.283,57.1461,57.1461,0,0,0-12.4067.42,54.5749,54.5749,0,0,0-11.6381,3.0123,56.0628,56.0628,0,0,0-10.0616,5.0206A55.9569,55.9569,0,0,0,21.4227,99.3361c-.509.7573-.8814,1.4832-1.2439,2.0914l-.49.851-.3737.7266-.6828,1.333-2.6269-1.291s-.1009.1812-.27.5447l-.7308,1.6155A61.5232,61.5232,0,0,0,12.63,111.5a59.9125,59.9125,0,0,0-2.3117,23.7376,58.874,58.874,0,0,0,3.8383,15.53c.258.6636.52,1.3308.8289,1.983.3008.6554.5876,1.3229.9064,1.98l1.0047,1.962c.331.661.7277,1.291,1.0922,1.9433a58.3467,58.3467,0,0,0,5.1947,7.5173A59.1453,59.1453,0,0,0,37.44,178.807a60.2314,60.2314,0,0,0,8.7156,4.5585,58.4506,58.4506,0,0,0,9.44,3.0308,57.558,57.558,0,0,0,9.81,1.4173,62.9316,62.9316,0,0,0,9.8284-.2292,58.896,58.896,0,0,0,9.5075-1.8261c1.5464-.4079,3.0467-.9338,4.5372-1.4494l2.1931-.8645c.7287-.2862,1.4285-.6328,2.1393-.945a59.42,59.42,0,0,0,7.9756-4.4619,63.8745,63.8745,0,0,0,6.902-5.38,64.57,64.57,0,0,0,5.7307-5.9851c.432-.5113.8295-1.0437,1.24-1.5579l.6068-.7728c.1971-.26.38-.5283.5687-.79q.5615-.79,1.1123-1.5649.5142-.8,1.0183-1.5832a57.5409,57.5409,0,0,0,5.8556-12.1974,60.2732,60.2732,0,0,0,2.5219-10.134,63.9986,63.9986,0,0,0,.6371-6.6933l.06-2.3788h-4.0724l-.0425,1.6549c-.0149.54-.0166,1.206-.0915,1.9853q-.0444.5852-.0955,1.2567l-.0521.6918-.092.7292c-.13.9986-.246,2.1085-.4844,3.2994-.1165.5953-.1955,1.2237-.3537,1.86l-.4576,1.9829a56.122,56.122,0,0,1-3.0908,8.8856,54.8721,54.8721,0,0,1-5.5487,9.6458,55.0643,55.0643,0,0,1-19.2928,16.7l-1.5161.7744-1.5567.7033-.78.3531-.7966.3164-1.5975.63a55.4067,55.4067,0,0,1-6.6047,1.96,57.0753,57.0753,0,0,1-6.7956,1.1424,58.3936,58.3936,0,0,1-6.8365.2511,53.9591,53.9591,0,0,1-13.1389-1.8829,55.5262,55.5262,0,0,1-11.5368-4.583,54.4118,54.4118,0,0,1-9.2216-6.2335c-.649-.5692-1.2985-1.1111-1.9093-1.6673l-1.7518-1.67-1.5862-1.6641c-.5116-.5419-.968-1.1052-1.4328-1.63a53.0785,53.0785,0,0,1-4.3239-5.8313l-.7715-1.2024-.6283-1.092c-.3874-.68-.7327-1.2489-.9659-1.7359l-.7542-1.4724s-.0954-.1708-.25-.5028l-.6536-1.4469c-.1369-.3132-.3061-.6526-.4582-1.0356s-.3145-.7982-.489-1.2413c-.1669-.4459-.3785-.908-.54-1.4177q-.2568-.7592-.5391-1.5934a53.2244,53.2244,0,0,1-1.8979-7.7745,54.4416,54.4416,0,0,1,0-18.2891,53.22,53.22,0,0,1,1.8979-7.7744q.2819-.8328.5391-1.5934c.1613-.51.3729-.9718.54-1.4177q.2618-.6647.489-1.2413c.1521-.383.3213-.7224.4582-1.0356l.6536-1.4469c.1548-.332.25-.5029.25-.5029l.6689-1.3056.3658-.7117.48-.8335c.3554-.5956.7193-1.3071,1.2184-2.0486A54.8088,54.8088,0,0,1,39.6707,82.6a54.9187,54.9187,0,0,1,9.855-4.9177,53.4421,53.4421,0,0,1,11.3985-2.95A56.0113,56.0113,0,0,1,73.08,74.32a55.2422,55.2422,0,0,1,11.9487,2.2359,54.16,54.16,0,0,1,10.813,4.66,55.2412,55.2412,0,0,1,15.85,13.4651c.4668.6067.95,1.1814,1.3761,1.7771l1.2439,1.749c.7548,1.1729,1.4995,2.2695,2.0964,3.3616a54.4943,54.4943,0,0,1,2.899,5.7478c.6831,1.6491,1.1991,2.9551,1.4855,3.8681l.4706,1.3892s.0242.0607.0568.1784l.1442.5091.5162,1.8168c.1969.7561.3857,1.6487.611,2.5993.1974.9565.3638,1.986.5495,3.0113.1226,1.0351.28,2.0663.3686,3.0394.0684.975.1544,1.8837.1917,2.6647.04,1.5639.0661,2.6066.0661,2.6066h4.0724l-.0705-2.7969c-.04-.8382-.13-1.8142-.2056-2.8609-.0958-1.0449-.2623-2.1532-.3965-3.2647-.1973-1.102-.3778-2.208-.59-3.2358-.24-1.0221-.4451-1.981-.6568-2.7936-.2294-.8081-.4205-1.4815-.5543-1.9529l-.1557-.547C125.1744,111.4217,125.1487,111.3564,125.1487,111.3564Z" style="fill:#a5b1be;opacity:0.5"/></g></svg>