<svg xmlns="http://www.w3.org/2000/svg" viewBox="0 0 300 300" id="el_bfwGWyNU0"><style>@-webkit-keyframes kf_el_ysRWax7fEjj_an_f-60zr81U{89.17%{opacity: 0;}90%{opacity: 1;}0%{opacity: 0;}100%{opacity: 1;}}@keyframes kf_el_ysRWax7fEjj_an_f-60zr81U{89.17%{opacity: 0;}90%{opacity: 1;}0%{opacity: 0;}100%{opacity: 1;}}@-webkit-keyframes kf_el_5Knlzl4LZa9_an_4sV_NuIsu{88.33%{opacity: 0;}89.17%{opacity: 1;}0%{opacity: 0;}100%{opacity: 1;}}@keyframes kf_el_5Knlzl4LZa9_an_4sV_NuIsu{88.33%{opacity: 0;}89.17%{opacity: 1;}0%{opacity: 0;}100%{opacity: 1;}}@-webkit-keyframes kf_el_eGTG1sdWSJp_an_8KNMVSFNp{0%{opacity: 0;}86.67%{opacity: 0;}87.50%{opacity: 0;}88.33%{opacity: 1;}100%{opacity: 1;}}@keyframes kf_el_eGTG1sdWSJp_an_8KNMVSFNp{0%{opacity: 0;}86.67%{opacity: 0;}87.50%{opacity: 0;}88.33%{opacity: 1;}100%{opacity: 1;}}@-webkit-keyframes kf_el_MlEbxqidn1Q_an_rySHHYC5C{83.33%{opacity: 1;}83.89%{opacity: 0;}84.44%{opacity: 1;}0%{opacity: 1;}100%{opacity: 1;}}@keyframes kf_el_MlEbxqidn1Q_an_rySHHYC5C{83.33%{opacity: 1;}83.89%{opacity: 0;}84.44%{opacity: 1;}0%{opacity: 1;}100%{opacity: 1;}}@-webkit-keyframes kf_el_FtWfnQZ5HoG_an_iIAdQYWVk{95%{opacity: 0;}95.83%{opacity: 1;}0%{opacity: 0;}100%{opacity: 1;}}@keyframes kf_el_FtWfnQZ5HoG_an_iIAdQYWVk{95%{opacity: 0;}95.83%{opacity: 1;}0%{opacity: 0;}100%{opacity: 1;}}@-webkit-keyframes kf_el_nMaeeGv47MA_an_vnUJyLJzW{95%{opacity: 0;}95.83%{opacity: 1;}0%{opacity: 0;}100%{opacity: 1;}}@keyframes kf_el_nMaeeGv47MA_an_vnUJyLJzW{95%{opacity: 0;}95.83%{opacity: 1;}0%{opacity: 0;}100%{opacity: 1;}}@-webkit-keyframes kf_el_so5d4tp9VY_an_faqtyP4yt{95%{opacity: 0;}95.83%{opacity: 1;}0%{opacity: 0;}100%{opacity: 1;}}@keyframes kf_el_so5d4tp9VY_an_faqtyP4yt{95%{opacity: 0;}95.83%{opacity: 1;}0%{opacity: 0;}100%{opacity: 1;}}@-webkit-keyframes kf_el_TsbovU8_L9_an_SiACxZfVz{93.33%{opacity: 0;}94.17%{opacity: 1;}0%{opacity: 0;}100%{opacity: 1;}}@keyframes kf_el_TsbovU8_L9_an_SiACxZfVz{93.33%{opacity: 0;}94.17%{opacity: 1;}0%{opacity: 0;}100%{opacity: 1;}}@-webkit-keyframes kf_el_Q7dTrFkWIp_an_6cnVFDReA{92.50%{opacity: 0;}93.33%{opacity: 1;}100%{opacity: 1;}}@keyframes kf_el_Q7dTrFkWIp_an_6cnVFDReA{92.50%{opacity: 0;}93.33%{opacity: 1;}100%{opacity: 1;}}@-webkit-keyframes kf_el_q6RHonpJHF_an_zbGAioMru{91.67%{opacity: 0;}92.50%{opacity: 1;}100%{opacity: 1;}0%{opacity: 0;}}@keyframes kf_el_q6RHonpJHF_an_zbGAioMru{91.67%{opacity: 0;}92.50%{opacity: 1;}100%{opacity: 1;}0%{opacity: 0;}}@-webkit-keyframes kf_el_LT3-k2yDqy_an_BXZWADDvU{95%{opacity: 0;}95.83%{opacity: 1;}0%{opacity: 0;}100%{opacity: 1;}}@keyframes kf_el_LT3-k2yDqy_an_BXZWADDvU{95%{opacity: 0;}95.83%{opacity: 1;}0%{opacity: 0;}100%{opacity: 1;}}@-webkit-keyframes kf_el_u2rwg3_EaC_an_B2QegmB82{95%{opacity: 0;}95.83%{opacity: 1;}0%{opacity: 0;}100%{opacity: 1;}}@keyframes kf_el_u2rwg3_EaC_an_B2QegmB82{95%{opacity: 0;}95.83%{opacity: 1;}0%{opacity: 0;}100%{opacity: 1;}}@-webkit-keyframes kf_el_xtyMrD6ZeL_an_si3IAs6hp{95%{opacity: 0;}95.83%{opacity: 1;}0%{opacity: 0;}100%{opacity: 1;}}@keyframes kf_el_xtyMrD6ZeL_an_si3IAs6hp{95%{opacity: 0;}95.83%{opacity: 1;}0%{opacity: 0;}100%{opacity: 1;}}@-webkit-keyframes kf_el_q_RBCbBKHw_an_zy3A3NpFR{95%{opacity: 0;}95.83%{opacity: 1;}0%{opacity: 0;}100%{opacity: 1;}}@keyframes kf_el_q_RBCbBKHw_an_zy3A3NpFR{95%{opacity: 0;}95.83%{opacity: 1;}0%{opacity: 0;}100%{opacity: 1;}}@-webkit-keyframes kf_el_oBda1S87bg_an_RvLC7ebHZ{94.17%{opacity: 0;}95%{opacity: 1;}0%{opacity: 0;}100%{opacity: 1;}}@keyframes kf_el_oBda1S87bg_an_RvLC7ebHZ{94.17%{opacity: 0;}95%{opacity: 1;}0%{opacity: 0;}100%{opacity: 1;}}@-webkit-keyframes kf_el_TNwxK_A6Yb_an_Izwf1HC9Q{94.17%{opacity: 0;}95%{opacity: 1;}0%{opacity: 0;}100%{opacity: 1;}}@keyframes kf_el_TNwxK_A6Yb_an_Izwf1HC9Q{94.17%{opacity: 0;}95%{opacity: 1;}0%{opacity: 0;}100%{opacity: 1;}}#el_bfwGWyNU0 *{-webkit-animation-duration: 12s;animation-duration: 12s;-webkit-animation-iteration-count: 1;animation-iteration-count: 1;-webkit-animation-timing-function: cubic-bezier(0, 0, 1, 1);animation-timing-function: cubic-bezier(0, 0, 1, 1);}#el_ayD6YiToqU{fill: #4f4f4f;}#el_L_0XAJpmUn{fill: #fff;}#el_TNwxK_A6Yb{fill: #61afbb;-webkit-animation-fill-mode: forwards;animation-fill-mode: forwards;-webkit-animation-name: kf_el_TNwxK_A6Yb_an_Izwf1HC9Q;animation-name: kf_el_TNwxK_A6Yb_an_Izwf1HC9Q;-webkit-animation-timing-function: cubic-bezier(0, 0, 1, 1);animation-timing-function: cubic-bezier(0, 0, 1, 1);}#el_oBda1S87bg{fill: #61afbb;-webkit-animation-fill-mode: forwards;animation-fill-mode: forwards;-webkit-animation-name: kf_el_oBda1S87bg_an_RvLC7ebHZ;animation-name: kf_el_oBda1S87bg_an_RvLC7ebHZ;-webkit-animation-timing-function: cubic-bezier(0, 0, 1, 1);animation-timing-function: cubic-bezier(0, 0, 1, 1);}#el_q_RBCbBKHw{fill: #61afbb;-webkit-animation-fill-mode: forwards;animation-fill-mode: forwards;-webkit-animation-name: kf_el_q_RBCbBKHw_an_zy3A3NpFR;animation-name: kf_el_q_RBCbBKHw_an_zy3A3NpFR;-webkit-animation-timing-function: cubic-bezier(0, 0, 1, 1);animation-timing-function: cubic-bezier(0, 0, 1, 1);}#el_xtyMrD6ZeL{fill: #61afbb;-webkit-animation-fill-mode: forwards;animation-fill-mode: forwards;-webkit-animation-name: kf_el_xtyMrD6ZeL_an_si3IAs6hp;animation-name: kf_el_xtyMrD6ZeL_an_si3IAs6hp;-webkit-animation-timing-function: cubic-bezier(0, 0, 1, 1);animation-timing-function: cubic-bezier(0, 0, 1, 1);}#el_u2rwg3_EaC{fill: #61afbb;-webkit-animation-fill-mode: forwards;animation-fill-mode: forwards;-webkit-animation-name: kf_el_u2rwg3_EaC_an_B2QegmB82;animation-name: kf_el_u2rwg3_EaC_an_B2QegmB82;-webkit-animation-timing-function: cubic-bezier(0, 0, 1, 1);animation-timing-function: cubic-bezier(0, 0, 1, 1);}#el_LT3-k2yDqy{fill: #61afbb;-webkit-animation-fill-mode: forwards;animation-fill-mode: forwards;-webkit-animation-name: kf_el_LT3-k2yDqy_an_BXZWADDvU;animation-name: kf_el_LT3-k2yDqy_an_BXZWADDvU;-webkit-animation-timing-function: cubic-bezier(0, 0, 1, 1);animation-timing-function: cubic-bezier(0, 0, 1, 1);}#el_q6RHonpJHF{fill: #61afbb;-webkit-animation-fill-mode: forwards;animation-fill-mode: forwards;-webkit-animation-name: kf_el_q6RHonpJHF_an_zbGAioMru;animation-name: kf_el_q6RHonpJHF_an_zbGAioMru;-webkit-animation-timing-function: cubic-bezier(0, 0, 1, 1);animation-timing-function: cubic-bezier(0, 0, 1, 1);}#el_Q7dTrFkWIp{fill: #61afbb;-webkit-animation-fill-mode: forwards;animation-fill-mode: forwards;-webkit-animation-name: kf_el_Q7dTrFkWIp_an_6cnVFDReA;animation-name: kf_el_Q7dTrFkWIp_an_6cnVFDReA;-webkit-animation-timing-function: cubic-bezier(0, 0, 1, 1);animation-timing-function: cubic-bezier(0, 0, 1, 1);}#el_TsbovU8_L9{fill: #61afbb;-webkit-animation-fill-mode: forwards;animation-fill-mode: forwards;-webkit-animation-name: kf_el_TsbovU8_L9_an_SiACxZfVz;animation-name: kf_el_TsbovU8_L9_an_SiACxZfVz;-webkit-animation-timing-function: cubic-bezier(0, 0, 1, 1);animation-timing-function: cubic-bezier(0, 0, 1, 1);}#el_so5d4tp9VY{fill: #61afbb;-webkit-animation-fill-mode: forwards;animation-fill-mode: forwards;-webkit-animation-name: kf_el_so5d4tp9VY_an_faqtyP4yt;animation-name: kf_el_so5d4tp9VY_an_faqtyP4yt;-webkit-animation-timing-function: cubic-bezier(0, 0, 1, 1);animation-timing-function: cubic-bezier(0, 0, 1, 1);}#el_nMaeeGv47MA{fill: #61afbb;-webkit-animation-fill-mode: forwards;animation-fill-mode: forwards;-webkit-animation-name: kf_el_nMaeeGv47MA_an_vnUJyLJzW;animation-name: kf_el_nMaeeGv47MA_an_vnUJyLJzW;-webkit-animation-timing-function: cubic-bezier(0, 0, 1, 1);animation-timing-function: cubic-bezier(0, 0, 1, 1);}#el_FtWfnQZ5HoG{fill: #61afbb;-webkit-animation-fill-mode: forwards;animation-fill-mode: forwards;-webkit-animation-name: kf_el_FtWfnQZ5HoG_an_iIAdQYWVk;animation-name: kf_el_FtWfnQZ5HoG_an_iIAdQYWVk;-webkit-animation-timing-function: cubic-bezier(0, 0, 1, 1);animation-timing-function: cubic-bezier(0, 0, 1, 1);}#el_DEIhXAQBtDb{fill: #e7503d;}#el_HrtvkfeH64U{fill: #e7503d;}#el_lfsYwcbILkS{fill: #e7503d;}#el_a7KDpGmPGz6{fill: #e7503d;}#el_1kVdtpB1gGh{fill: #e7503d;}#el_inLUr084qPS{fill: #e7503d;}#el_HUlHn07pcgO{fill: #e7503d;}#el_0t-epX06zMu{fill: #e7503d;}#el_qDkaaGLAVG4{fill: #e7503d;}#el_ri3_iWo03sI{fill: #e7503d;}#el_8_E3XlKv3Ic{fill: #e7503d;}#el_91AG17nXh2-{fill: #e7503d;}#el_hYkpxSJXO2Y{fill: #b5b5b5;}#el_wAc_f2W0N9X{fill: #b5b5b5;}#el_pmNgBuNfqzq{fill: #b5b5b5;}#el_xsflryNSDyx{fill: #b5b5b5;}#el_MlEbxqidn1Q{-webkit-animation-fill-mode: forwards;animation-fill-mode: forwards;-webkit-animation-name: kf_el_MlEbxqidn1Q_an_rySHHYC5C;animation-name: kf_el_MlEbxqidn1Q_an_rySHHYC5C;-webkit-animation-timing-function: cubic-bezier(0, 0, 1, 1);animation-timing-function: cubic-bezier(0, 0, 1, 1);}#el_eGTG1sdWSJp{-webkit-animation-fill-mode: forwards;animation-fill-mode: forwards;-webkit-animation-name: kf_el_eGTG1sdWSJp_an_8KNMVSFNp;animation-name: kf_el_eGTG1sdWSJp_an_8KNMVSFNp;-webkit-animation-timing-function: cubic-bezier(0, 0, 1, 1);animation-timing-function: cubic-bezier(0, 0, 1, 1);}#el_5Knlzl4LZa9{-webkit-animation-fill-mode: forwards;animation-fill-mode: forwards;-webkit-animation-name: kf_el_5Knlzl4LZa9_an_4sV_NuIsu;animation-name: kf_el_5Knlzl4LZa9_an_4sV_NuIsu;-webkit-animation-timing-function: cubic-bezier(0, 0, 1, 1);animation-timing-function: cubic-bezier(0, 0, 1, 1);}#el_ysRWax7fEjj{-webkit-animation-fill-mode: forwards;animation-fill-mode: forwards;-webkit-animation-name: kf_el_ysRWax7fEjj_an_f-60zr81U;animation-name: kf_el_ysRWax7fEjj_an_f-60zr81U;-webkit-animation-timing-function: cubic-bezier(0, 0, 1, 1);animation-timing-function: cubic-bezier(0, 0, 1, 1);}#el_MJfhcmULwU{visibility: hidden;}</style><title>Technical_Development</title><g id="el_20SVeEYmhZ"><path id="el_L_0XAJpmUn" data-name="Machine" d="M36.8479,192.206V74.7359h226.04V212.5867a8.449,8.449,0,0,1-4.9462,7.6769l-102.6334.77H45.2951a8.4562,8.4562,0,0,1-8.4472-8.4471V192.206Zm219.7276,35.8629c6.8572-1.5919,13.3475-8.15,13.3475-15.4822l.2659-170.2238a15.4968,15.4968,0,0,0-15.48-15.4822H45.2951a15.5016,15.5016,0,0,0-15.484,15.4841V212.5867a15.5012,15.5012,0,0,0,15.484,15.4822h68.4541v12.6176H103.1269a12.8654,12.8654,0,0,0-12.85,12.8505v7.6A5.8693,5.8693,0,0,0,96.14,267H203.5945a5.8694,5.8694,0,0,0,5.8631-5.8631v-7.6a12.8654,12.8654,0,0,0-12.8505-12.8505H185.9849V228.0689m-7.0351,0v12.6176H120.7842V228.0689m75.8248,19.6544a5.82,5.82,0,0,1,5.8136,5.8137v6.428H97.3115v-6.428a5.8217,5.8217,0,0,1,5.8154-5.8137ZM262.888,67.699H37.1065V42.3629a8.4558,8.4558,0,0,1,8.4472-8.4453H254.4408a8.4562,8.4562,0,0,1,8.4472,8.4472Z"/></g><g id="el_XRThtQc-wc" data-name="Blue Data"><path id="el_TNwxK_A6Yb" data-name="Blue Data 01" d="M53.2917,132.4233H75.4266a3.2861,3.2861,0,0,0,0-6.5721H53.2917a3.2861,3.2861,0,0,0,0,6.5721Z"/><path id="el_oBda1S87bg" data-name="Blue Data 02" d="M126.4072,125.8512H87.4918a3.2861,3.2861,0,0,0,0,6.5721h38.9154a3.2861,3.2861,0,1,0,0-6.5721Z"/><path id="el_q_RBCbBKHw" data-name="Blue Data 03" d="M53.2917,146.2818h9.4291a3.2861,3.2861,0,0,0,0-6.5721H53.2917a3.2861,3.2861,0,0,0,0,6.5721Z"/><path id="el_xtyMrD6ZeL" data-name="Blue Data 04" d="M114.3866,139.71a3.2861,3.2861,0,0,0,0,6.5721h5.7414a3.2861,3.2861,0,1,0,0-6.5721Z"/><path id="el_u2rwg3_EaC" data-name="Blue Data 05" d="M105.7385,142.9949a3.2858,3.2858,0,0,0-3.2852-3.2852H74.25a3.2861,3.2861,0,0,0,0,6.5721h28.2034A3.2862,3.2862,0,0,0,105.7385,142.9949Z"/><path id="el_LT3-k2yDqy" data-name="Blue Data 06" d="M127.2619,142.9949a3.2862,3.2862,0,0,0,3.2852,3.2869H141.302a3.2861,3.2861,0,1,0,0-6.5721H130.5471A3.2858,3.2858,0,0,0,127.2619,142.9949Z"/><path id="el_q6RHonpJHF" data-name="Blue Data 07" d="M109.368,102.1953h11.3441a3.2861,3.2861,0,1,0,0-6.5721H109.368a3.2861,3.2861,0,1,0,0,6.5721Z"/><path id="el_Q7dTrFkWIp" data-name="Blue Data 08" d="M133.4178,102.1953h69.2171a3.2861,3.2861,0,0,0,0-6.5721H133.4178a3.2861,3.2861,0,1,0,0,6.5721Z"/><path id="el_TsbovU8_L9" data-name="Blue Data 09" d="M109.368,116.6516h23.6113a3.2861,3.2861,0,0,0,0-6.5722H109.368a3.2861,3.2861,0,1,0,0,6.5722Z"/><path id="el_so5d4tp9VY" data-name="Blue Data 10" d="M102.4944,153.4517H80.3613a3.2852,3.2852,0,1,0,0,6.57h22.1331a3.2852,3.2852,0,0,0,0-6.57Z"/><path id="el_nMaeeGv47MA" data-name="Blue Data 11" d="M70.2967,153.4517H53.2917a3.2852,3.2852,0,1,0,0,6.57h17.005a3.2852,3.2852,0,0,0,0-6.57Z"/><path id="el_FtWfnQZ5HoG" data-name="Blue Data 12" d="M142.6174,153.4517H113.7032a3.2852,3.2852,0,1,0,0,6.57h28.9142a3.2852,3.2852,0,0,0,0-6.57Z"/></g><g id="el_1-Ku3TTikwr" data-name="Red Data"><g id="el_MlEbxqidn1Q" data-name="Data Code"><path d="M57.9324,111.692a3.2859,3.2859,0,0,0,4.6469-4.6469L54.601,99.0667,62.5793,91.09a3.2859,3.2859,0,1,0-4.6469-4.6469L47.6315,96.7442a3.2854,3.2854,0,0,0,0,4.6469Z" id="el_DEIhXAQBtDb"/><path d="M92.0153,99.0667l-7.9783,7.9784a3.2859,3.2859,0,1,0,4.6469,4.6469l10.3027-10.3027a3.2842,3.2842,0,0,0,0-4.6451L88.6839,86.4415a3.2853,3.2853,0,0,0-4.6452,4.6469Z" id="el_HrtvkfeH64U"/><path d="M68.1641,112.4268a3.285,3.285,0,0,0,4.26-1.8567L80.517,89.9665a3.285,3.285,0,1,0-6.1148-2.4031L66.3074,108.167A3.2863,3.2863,0,0,0,68.1641,112.4268Z" id="el_lfsYwcbILkS"/></g><g id="el_eGTG1sdWSJp" data-name="Data Set 3\"><path d="M187.6247,121.9724H171.8136a3.2861,3.2861,0,0,0,0,6.5721h15.8111a3.2861,3.2861,0,0,0,0-6.5721Z" id="el_a7KDpGmPGz6"/><path d="M215.0608,128.5445h22.32a3.2861,3.2861,0,1,0,0-6.5721h-22.32a3.2861,3.2861,0,0,0,0,6.5721Z" id="el_1kVdtpB1gGh"/><path d="M203.9,121.9724h-5.1145a3.2861,3.2861,0,1,0,0,6.5721H203.9a3.2861,3.2861,0,0,0,0-6.5721Z" id="el_inLUr084qPS"/></g><g id="el_5Knlzl4LZa9" data-name="Data Set 2"><path d="M171.8136,164.35h15.8111a3.2852,3.2852,0,1,0,0-6.57H171.8136a3.2852,3.2852,0,0,0,0,6.57Z" id="el_HUlHn07pcgO"/><path d="M215.0608,164.35h22.32a3.2852,3.2852,0,1,0,0-6.57h-22.32a3.2852,3.2852,0,0,0,0,6.57Z" id="el_0t-epX06zMu"/><path d="M198.7855,164.35H203.9a3.2852,3.2852,0,1,0,0-6.57h-5.1145a3.2852,3.2852,0,0,0,0,6.57Z" id="el_qDkaaGLAVG4"/></g><g id="el_ysRWax7fEjj" data-name="Data Set 1"><path d="M187.6247,193.5858H171.8136a3.2852,3.2852,0,1,0,0,6.57h15.8111a3.2852,3.2852,0,1,0,0-6.57Z" id="el_ri3_iWo03sI"/><path d="M237.3807,193.5858h-22.32a3.2852,3.2852,0,0,0,0,6.57h22.32a3.2852,3.2852,0,1,0,0-6.57Z" id="el_8_E3XlKv3Ic"/><path d="M203.9,193.5858h-5.1145a3.2852,3.2852,0,1,0,0,6.57H203.9a3.2852,3.2852,0,0,0,0-6.57Z" id="el_91AG17nXh2-"/></g></g><g id="el_KVYgouddAnR" data-name="Machine Parts"><path id="el_hYkpxSJXO2Y" data-name="Machine Dot 3" d="M55.756,40.3841A10.3243,10.3243,0,1,0,66.0811,50.7074,10.3346,10.3346,0,0,0,55.756,40.3841Zm0,13.6116a3.2883,3.2883,0,1,1,3.2883-3.2883A3.2924,3.2924,0,0,1,55.756,53.9957Z"/><path id="el_wAc_f2W0N9X" data-name="Machine Dot 2" d="M82.042,40.3841A10.3243,10.3243,0,1,0,92.3653,50.7074,10.3361,10.3361,0,0,0,82.042,40.3841Zm0,13.6116A3.2883,3.2883,0,1,1,85.33,50.7074,3.2912,3.2912,0,0,1,82.042,53.9957Z"/><path id="el_pmNgBuNfqzq" data-name="Machine Dot 1" d="M108.3262,40.3841a10.3243,10.3243,0,1,0,10.3251,10.3233A10.3346,10.3346,0,0,0,108.3262,40.3841Zm0,13.6116a3.2883,3.2883,0,1,1,3.2883-3.2883A3.2924,3.2924,0,0,1,108.3262,53.9957Z"/><path id="el_xsflryNSDyx" data-name="Red Data Container" d="M163.7883,168.94V153.19h82.7108V168.94Zm9.066-22.3216v-6.913h64.5771v6.913Zm64.5771,28.892v6.9147H172.8543V175.51Zm9.0677,29.2345H163.7883V188.9971h82.7108Zm6.5721-8.3483v-7.5107a6.4693,6.4693,0,0,0-6.4625-6.4608h-2.6052v-6.6476s8.96.8794,8.96-5.5854.1079-17.1112.1079-17.1112a6.47,6.47,0,0,0-6.4625-6.4625h-2.6052v-6.913h2.6052a6.4708,6.4708,0,0,0,6.4625-6.4625V117.2741a6.4708,6.4708,0,0,0-6.4625-6.4625H228.05a3.2861,3.2861,0,0,0,0,6.5721h18.4489v15.7495H163.7883V117.3837h43.8176a3.2861,3.2861,0,0,0,0-6.5721H163.6787a6.47,6.47,0,0,0-6.4625,6.4625v15.9687a6.47,6.47,0,0,0,6.4625,6.4625h2.6052v6.913h-2.6052a6.47,6.47,0,0,0-6.4625,6.4625s.1079,11.7928.1079,17.1112,2.4878,6.57,4.9277,6.57h4.0321v5.6626h-2.6052a6.4686,6.4686,0,0,0-6.4625,6.4625v15.9687a6.4682,6.4682,0,0,0,6.4625,6.4608h82.93a6.4682,6.4682,0,0,0,6.4608-6.4625v-1.5467Z"/></g></svg>